M48
; DRILL file {KiCad (6.0.4)} date Sun Dec  3 23:33:57 2023
; FORMAT={-:-/ absolute / inch / decimal}
; #@! TF.CreationDate,2023-12-03T23:33:57-08:00
; #@! TF.GenerationSoftware,Kicad,Pcbnew,(6.0.4)
; #@! TF.FileFunction,Plated,1,2,PTH
FMAT,2
INCH
; #@! TA.AperFunction,Plated,PTH,ViaDrill
T1C0.0157
; #@! TA.AperFunction,Plated,PTH,ComponentDrill
T2C0.0197
; #@! TA.AperFunction,Plated,PTH,ComponentDrill
T3C0.0217
; #@! TA.AperFunction,Plated,PTH,ComponentDrill
T4C0.0390
; #@! TA.AperFunction,Plated,PTH,ComponentDrill
T5C0.0430
; #@! TA.AperFunction,Plated,PTH,ComponentDrill
T6C0.0433
; #@! TA.AperFunction,Plated,PTH,ComponentDrill
T7C0.0500
; #@! TA.AperFunction,Plated,PTH,ComponentDrill
T8C0.0787
; #@! TA.AperFunction,Plated,PTH,ComponentDrill
T9C0.3150
%
G90
G05
T1
X7.9724Y-4.4488
X7.9921Y-4.3307
X9.4882Y-5.4134
X9.5079Y-4.5472
X9.5276Y-4.252
X9.5276Y-5.8465
X9.5276Y-6.0039
X9.5669Y-6.063
X9.7638Y-4.252
X9.9134Y-5.3937
X9.9213Y-5.3346
X9.937Y-5.5906
X9.9449Y-5.4646
X9.9685Y-5.1339
X10.0633Y-5.142
X10.0787Y-5.3346
X10.3701Y-5.4803
X10.3701Y-5.5433
X10.5118Y-5.4882
X10.6063Y-5.5512
X10.622Y-5.2756
X10.622Y-5.4961
T4
X5.7677Y-4.1339
X5.7677Y-4.8425
X5.7677Y-5.5512
X6.0433Y-4.1339
X6.0433Y-4.8425
X6.0433Y-5.5512
X6.2795Y-4.8228
X6.2795Y-5.0984
X6.2795Y-5.2953
X6.2795Y-5.5709
X6.5157Y-4.1339
X6.5157Y-4.8425
X6.5157Y-5.5512
X6.7913Y-4.1339
X6.7913Y-4.8425
X6.7913Y-5.5512
X7.0276Y-4.5866
X7.0276Y-4.8622
X7.0276Y-5.0591
X7.0276Y-5.3346
X7.0276Y-5.5315
X7.0276Y-5.8071
X7.2638Y-3.9665
X7.2638Y-4.6752
X7.2638Y-5.3839
X7.5394Y-3.9665
X7.5394Y-4.6752
X7.5394Y-5.3839
X7.7756Y-4.4193
X7.7756Y-4.6949
X7.7756Y-4.8917
X7.7756Y-5.1673
X7.7756Y-5.3642
X7.7756Y-5.6398
X8.0118Y-3.7992
X8.0118Y-4.5079
X8.0118Y-5.2165
X8.0906Y-6.1614
X8.0906Y-6.2598
X8.189Y-6.1614
X8.189Y-6.2598
X8.2874Y-3.7992
X8.2874Y-4.5079
X8.2874Y-5.2165
X8.2874Y-6.1614
X8.2874Y-6.2598
X8.7598Y-3.9665
X8.7598Y-4.6752
X8.7598Y-5.3839
X9.0354Y-3.9665
X9.0354Y-4.6752
X9.0354Y-5.3839
X9.5079Y-4.1339
X9.5079Y-4.8425
X9.5079Y-5.5512
X9.7835Y-4.1339
X9.7835Y-4.8425
X9.7835Y-5.5512
X10.0197Y-5.5315
X10.0197Y-5.8071
X10.1181Y-5.5315
X10.2165Y-5.5315
T5
X10.1724Y-4.2925
X10.1724Y-4.3925
X10.1724Y-4.4925
X10.1724Y-4.5925
X10.1724Y-4.6925
X10.1724Y-4.7925
X10.1724Y-4.8925
X10.1724Y-4.9925
X10.1724Y-5.0925
X10.1724Y-5.1925
X10.1724Y-5.2925
X10.1814Y-5.3925
X10.2724Y-5.3925
X10.3724Y-5.3925
X10.4724Y-5.3925
X10.5724Y-5.3925
X10.6724Y-5.3925
X10.7724Y-4.2925
X10.7724Y-4.3925
X10.7724Y-4.4925
X10.7724Y-4.5925
X10.7724Y-4.6925
X10.7724Y-4.7925
X10.7724Y-4.8925
X10.7724Y-4.9925
X10.7724Y-5.0925
X10.7724Y-5.1925
X10.7724Y-5.2925
X10.7724Y-5.3925
T6
X9.0984Y-6.8504
X9.2953Y-6.8504
X9.6654Y-6.5157
X9.8622Y-6.5157
X10.1998Y-6.7478
X10.3908Y-6.7955
T7
X5.9055Y-4.2559
X5.9055Y-4.9646
X5.9055Y-5.6732
X6.1024Y-4.3386
X6.1024Y-5.0472
X6.1024Y-5.7559
X6.6535Y-4.2559
X6.6535Y-4.9646
X6.6535Y-5.6732
X6.8504Y-4.3386
X6.8504Y-5.0472
X6.8504Y-5.7559
X7.4016Y-4.0886
X7.4016Y-4.7972
X7.4016Y-5.5059
X7.5984Y-4.1713
X7.5984Y-4.8799
X7.5984Y-5.5886
X8.1496Y-3.9213
X8.1496Y-4.6299
X8.1496Y-5.3386
X8.3465Y-4.0039
X8.3465Y-4.7126
X8.3465Y-5.4213
X8.8976Y-4.0886
X8.8976Y-4.7972
X8.8976Y-5.5059
X9.0945Y-4.1713
X9.0945Y-4.8799
X9.0945Y-5.5886
X9.6457Y-4.2559
X9.6457Y-4.9646
X9.6457Y-5.6732
X9.7638Y-6.815
X9.8425Y-4.3386
X9.8425Y-5.0472
X9.8425Y-5.7559
X9.9606Y-6.8976
X10.7434Y-7.0592
X10.8784Y-7.2246
T8
X6.2795Y-4.4882
X6.2795Y-5.9055
X7.7756Y-4.1535
X8.1102Y-6.8228
X8.1102Y-7.2717
X8.5236Y-4.3209
X8.5236Y-5.0295
X8.622Y-6.8228
X8.622Y-7.2717
X8.8976Y-6.0925
X9.1969Y-6.5157
X10.0197Y-4.3209
X10.0197Y-5.0295
X10.315Y-6.4567
X10.8007Y-6.9515
T9
X9.2717Y-4.7638
T2
G00X10.8022Y-5.5315
M15
G01X10.8278Y-5.5315
M16
G05
G00X10.8022Y-5.8071
M15
G01X10.8278Y-5.8071
M16
G05
T3
G00X10.7087Y-5.5768
M15
G01X10.7087Y-5.565
M16
G05
G00X10.7087Y-5.7736
M15
G01X10.7087Y-5.7618
M16
G05
T0
M30
