M48
; DRILL file {KiCad (6.0.4)} date Sun Dec  3 23:33:57 2023
; FORMAT={-:-/ absolute / inch / decimal}
; #@! TF.CreationDate,2023-12-03T23:33:57-08:00
; #@! TF.GenerationSoftware,Kicad,Pcbnew,(6.0.4)
; #@! TF.FileFunction,NonPlated,1,2,NPTH
FMAT,2
INCH
; #@! TA.AperFunction,NonPlated,NPTH,ComponentDrill
T1C0.0670
; #@! TA.AperFunction,NonPlated,NPTH,ComponentDrill
T2C0.1350
%
G90
G05
T1
X5.689Y-4.4882
X5.689Y-5.1969
X5.689Y-5.9055
X6.122Y-4.4882
X6.122Y-5.1969
X6.122Y-5.9055
X6.437Y-4.4882
X6.437Y-5.1969
X6.437Y-5.9055
X6.8701Y-4.4882
X6.8701Y-5.1969
X6.8701Y-5.9055
X7.185Y-4.3209
X7.185Y-5.0295
X7.185Y-5.7382
X7.6181Y-4.3209
X7.6181Y-5.0295
X7.6181Y-5.7382
X7.9331Y-4.1535
X7.9331Y-4.8622
X7.9331Y-5.5709
X8.3661Y-4.1535
X8.3661Y-4.8622
X8.3661Y-5.5709
X8.6811Y-4.3209
X8.6811Y-5.0295
X8.6811Y-5.7382
X9.1142Y-4.3209
X9.1142Y-5.0295
X9.1142Y-5.7382
X9.4291Y-4.4882
X9.4291Y-5.1969
X9.4291Y-5.9055
X9.5472Y-7.0472
X9.8622Y-4.4882
X9.8622Y-5.1969
X9.8622Y-5.9055
X9.9803Y-7.0472
X10.4432Y-7.1627
X10.8256Y-7.366
T2
X5.9055Y-4.4882
X5.9055Y-5.1969
X5.9055Y-5.9055
X6.6535Y-4.4882
X6.6535Y-5.1969
X6.6535Y-5.9055
X7.4016Y-4.3209
X7.4016Y-5.0295
X7.4016Y-5.7382
X8.1496Y-4.1535
X8.1496Y-4.8622
X8.1496Y-5.5709
X8.8976Y-4.3209
X8.8976Y-5.0295
X8.8976Y-5.7382
X9.6457Y-4.4882
X9.6457Y-5.1969
X9.6457Y-5.9055
X9.7638Y-7.0472
X10.6344Y-7.2643
T0
M30
