%TF.GenerationSoftware,KiCad,Pcbnew,(6.0.4)*%
%TF.CreationDate,2023-12-03T23:36:56-08:00*%
%TF.ProjectId,left,6c656674-2e6b-4696-9361-645f70636258,v1.0.0*%
%TF.SameCoordinates,Original*%
%TF.FileFunction,Copper,L2,Bot*%
%TF.FilePolarity,Positive*%
%FSLAX46Y46*%
G04 Gerber Fmt 4.6, Leading zero omitted, Abs format (unit mm)*
G04 Created by KiCad (PCBNEW (6.0.4)) date 2023-12-03 23:36:56*
%MOMM*%
%LPD*%
G01*
G04 APERTURE LIST*
%TA.AperFunction,SMDPad,CuDef*%
%ADD10R,2.000000X0.610000*%
%TD*%
%TA.AperFunction,SMDPad,CuDef*%
%ADD11R,3.600000X2.680000*%
%TD*%
%TA.AperFunction,ComponentPad*%
%ADD12O,0.950000X1.250000*%
%TD*%
%TA.AperFunction,ComponentPad*%
%ADD13O,1.550000X0.890000*%
%TD*%
%TA.AperFunction,ComponentPad*%
%ADD14C,2.032000*%
%TD*%
%TA.AperFunction,ComponentPad*%
%ADD15C,1.905000*%
%TD*%
%TA.AperFunction,ComponentPad*%
%ADD16R,1.778000X1.778000*%
%TD*%
%TA.AperFunction,ComponentPad*%
%ADD17R,1.752600X1.752600*%
%TD*%
%TA.AperFunction,ComponentPad*%
%ADD18C,1.752600*%
%TD*%
%TA.AperFunction,ComponentPad*%
%ADD19C,1.524000*%
%TD*%
%TA.AperFunction,ViaPad*%
%ADD20C,0.800000*%
%TD*%
%TA.AperFunction,Conductor*%
%ADD21C,0.250000*%
%TD*%
G04 APERTURE END LIST*
D10*
%TO.P,,1*%
%TO.N,D2*%
X268450000Y-155300000D03*
%TO.P,,2*%
%TO.N,trackpoint_reset*%
X268450000Y-154300000D03*
%TO.P,,3*%
%TO.N,N/C*%
X268450000Y-153300000D03*
%TO.P,,4*%
X268450000Y-152300000D03*
%TO.P,,5*%
X268450000Y-151300000D03*
%TO.P,,6*%
%TO.N,D5*%
X268450000Y-150300000D03*
%TO.P,,7*%
%TO.N,GND*%
X268450000Y-149300000D03*
%TO.P,,8*%
%TO.N,VCC*%
X268450000Y-148300000D03*
D11*
%TO.P,,MP*%
%TO.N,N/C*%
X265650000Y-145310000D03*
X265650000Y-158290000D03*
%TD*%
D12*
%TO.P,,6*%
%TO.N,N/C*%
X272000000Y-141500000D03*
D13*
X274700000Y-140500000D03*
D12*
X272000000Y-146500000D03*
D13*
X274700000Y-147500000D03*
%TD*%
D14*
%TO.P,M2,1*%
%TO.N,mr_diode*%
X259074261Y-171395195D03*
%TO.P,M2,2*%
%TO.N,E6*%
X263925739Y-172604805D03*
%TD*%
%TO.P,S1,1*%
%TO.N,outer_bottom*%
X155000000Y-146200000D03*
%TO.P,S1,2*%
%TO.N,C7*%
X150000000Y-144100000D03*
%TD*%
%TO.P,S2,1*%
%TO.N,outer_home*%
X155000000Y-128200000D03*
%TO.P,S2,2*%
%TO.N,C7*%
X150000000Y-126100000D03*
%TD*%
%TO.P,S3,1*%
%TO.N,outer_top*%
X155000000Y-110200000D03*
%TO.P,S3,2*%
%TO.N,C7*%
X150000000Y-108100000D03*
%TD*%
%TO.P,S4,1*%
%TO.N,pinky_bottom*%
X174000000Y-146200000D03*
%TO.P,S4,2*%
%TO.N,B7*%
X169000000Y-144100000D03*
%TD*%
%TO.P,S5,1*%
%TO.N,pinky_home*%
X174000000Y-128200000D03*
%TO.P,S5,2*%
%TO.N,B7*%
X169000000Y-126100000D03*
%TD*%
%TO.P,S6,1*%
%TO.N,pinky_top*%
X174000000Y-110200000D03*
%TO.P,S6,2*%
%TO.N,B7*%
X169000000Y-108100000D03*
%TD*%
%TO.P,S7,1*%
%TO.N,ring_bottom*%
X193000000Y-141950000D03*
%TO.P,S7,2*%
%TO.N,B5*%
X188000000Y-139850000D03*
%TD*%
%TO.P,S8,1*%
%TO.N,ring_home*%
X193000000Y-123950000D03*
%TO.P,S8,2*%
%TO.N,B5*%
X188000000Y-121850000D03*
%TD*%
%TO.P,S9,1*%
%TO.N,ring_top*%
X193000000Y-105950000D03*
%TO.P,S9,2*%
%TO.N,B5*%
X188000000Y-103850000D03*
%TD*%
%TO.P,S10,1*%
%TO.N,middle_bottom*%
X212000000Y-137700000D03*
%TO.P,S10,2*%
%TO.N,B4*%
X207000000Y-135600000D03*
%TD*%
%TO.P,S11,1*%
%TO.N,middle_home*%
X212000000Y-119700000D03*
%TO.P,S11,2*%
%TO.N,B4*%
X207000000Y-117600000D03*
%TD*%
%TO.P,S12,1*%
%TO.N,middle_top*%
X212000000Y-101700000D03*
%TO.P,S12,2*%
%TO.N,B4*%
X207000000Y-99600000D03*
%TD*%
%TO.P,S13,1*%
%TO.N,index_bottom*%
X231000000Y-141950000D03*
%TO.P,S13,2*%
%TO.N,E6*%
X226000000Y-139850000D03*
%TD*%
%TO.P,S14,1*%
%TO.N,index_home*%
X231000000Y-123950000D03*
%TO.P,S14,2*%
%TO.N,E6*%
X226000000Y-121850000D03*
%TD*%
%TO.P,S15,1*%
%TO.N,index_top*%
X231000000Y-105950000D03*
%TO.P,S15,2*%
%TO.N,E6*%
X226000000Y-103850000D03*
%TD*%
%TO.P,S16,1*%
%TO.N,inner_bottom*%
X250000000Y-146200000D03*
%TO.P,S16,2*%
%TO.N,D7*%
X245000000Y-144100000D03*
%TD*%
%TO.P,S17,1*%
%TO.N,inner_home*%
X250000000Y-128200000D03*
%TO.P,S17,2*%
%TO.N,D7*%
X245000000Y-126100000D03*
%TD*%
%TO.P,S18,1*%
%TO.N,inner_top*%
X250000000Y-110200000D03*
%TO.P,S18,2*%
%TO.N,D7*%
X245000000Y-108100000D03*
%TD*%
%TO.P,S19,1*%
%TO.N,inner_thumb*%
X253000000Y-175200000D03*
%TO.P,S19,2*%
%TO.N,B5*%
X248000000Y-173100000D03*
%TD*%
%TO.P,S20,1*%
%TO.N,far_thumb*%
X276311976Y-183505609D03*
%TO.P,S20,2*%
%TO.N,D7*%
X272883128Y-179304061D03*
%TD*%
D15*
%TO.P,D1,1*%
%TO.N,outer_bottom*%
X146500000Y-141000000D03*
D16*
%TO.P,D1,2*%
%TO.N,C6*%
X153500000Y-141000000D03*
%TD*%
D15*
%TO.P,D2,1*%
%TO.N,outer_home*%
X146500000Y-123000000D03*
D16*
%TO.P,D2,2*%
%TO.N,D4*%
X153500000Y-123000000D03*
%TD*%
D15*
%TO.P,D3,1*%
%TO.N,outer_top*%
X146500000Y-105000000D03*
D16*
%TO.P,D3,2*%
%TO.N,D3*%
X153500000Y-105000000D03*
%TD*%
D15*
%TO.P,D4,1*%
%TO.N,pinky_bottom*%
X165500000Y-141000000D03*
D16*
%TO.P,D4,2*%
%TO.N,C6*%
X172500000Y-141000000D03*
%TD*%
D15*
%TO.P,D5,1*%
%TO.N,pinky_home*%
X165500000Y-123000000D03*
D16*
%TO.P,D5,2*%
%TO.N,D4*%
X172500000Y-123000000D03*
%TD*%
D15*
%TO.P,D6,1*%
%TO.N,pinky_top*%
X165500000Y-105000000D03*
D16*
%TO.P,D6,2*%
%TO.N,D3*%
X172500000Y-105000000D03*
%TD*%
D15*
%TO.P,D7,1*%
%TO.N,ring_bottom*%
X184500000Y-136750000D03*
D16*
%TO.P,D7,2*%
%TO.N,C6*%
X191500000Y-136750000D03*
%TD*%
D15*
%TO.P,D8,1*%
%TO.N,ring_home*%
X184500000Y-118750000D03*
D16*
%TO.P,D8,2*%
%TO.N,D4*%
X191500000Y-118750000D03*
%TD*%
D15*
%TO.P,D9,1*%
%TO.N,ring_top*%
X184500000Y-100750000D03*
D16*
%TO.P,D9,2*%
%TO.N,D3*%
X191500000Y-100750000D03*
%TD*%
D15*
%TO.P,D10,1*%
%TO.N,middle_bottom*%
X203500000Y-132500000D03*
D16*
%TO.P,D10,2*%
%TO.N,C6*%
X210500000Y-132500000D03*
%TD*%
D15*
%TO.P,D11,1*%
%TO.N,middle_home*%
X203500000Y-114500000D03*
D16*
%TO.P,D11,2*%
%TO.N,D4*%
X210500000Y-114500000D03*
%TD*%
D15*
%TO.P,D12,1*%
%TO.N,middle_top*%
X203500000Y-96500000D03*
D16*
%TO.P,D12,2*%
%TO.N,D3*%
X210500000Y-96500000D03*
%TD*%
D15*
%TO.P,D13,1*%
%TO.N,index_bottom*%
X222500000Y-136750000D03*
D16*
%TO.P,D13,2*%
%TO.N,C6*%
X229500000Y-136750000D03*
%TD*%
D15*
%TO.P,D14,1*%
%TO.N,index_home*%
X222500000Y-118750000D03*
D16*
%TO.P,D14,2*%
%TO.N,D4*%
X229500000Y-118750000D03*
%TD*%
D15*
%TO.P,D15,1*%
%TO.N,index_top*%
X222500000Y-100750000D03*
D16*
%TO.P,D15,2*%
%TO.N,D3*%
X229500000Y-100750000D03*
%TD*%
D15*
%TO.P,D16,1*%
%TO.N,inner_bottom*%
X241500000Y-141000000D03*
D16*
%TO.P,D16,2*%
%TO.N,C6*%
X248500000Y-141000000D03*
%TD*%
D15*
%TO.P,D17,1*%
%TO.N,inner_home*%
X241500000Y-123000000D03*
D16*
%TO.P,D17,2*%
%TO.N,D4*%
X248500000Y-123000000D03*
%TD*%
D15*
%TO.P,D18,1*%
%TO.N,inner_top*%
X241500000Y-105000000D03*
D16*
%TO.P,D18,2*%
%TO.N,D3*%
X248500000Y-105000000D03*
%TD*%
D17*
%TO.P,,1*%
%TO.N,D3*%
X258380000Y-109030000D03*
D18*
%TO.P,,2*%
%TO.N,D2*%
X258380000Y-111570000D03*
%TO.P,,3*%
%TO.N,GND*%
X258380000Y-114110000D03*
%TO.P,,4*%
X258380000Y-116650000D03*
%TO.P,,5*%
%TO.N,D1*%
X258380000Y-119190000D03*
%TO.P,,6*%
%TO.N,D0*%
X258380000Y-121730000D03*
%TO.P,,7*%
%TO.N,D4*%
X258380000Y-124270000D03*
%TO.P,,8*%
%TO.N,C6*%
X258380000Y-126810000D03*
%TO.P,,9*%
%TO.N,D7*%
X258380000Y-129350000D03*
%TO.P,,10*%
%TO.N,E6*%
X258380000Y-131890000D03*
%TO.P,,11*%
%TO.N,B4*%
X258380000Y-134430000D03*
%TO.P,,12*%
%TO.N,B5*%
X258608600Y-136970000D03*
%TO.P,,13*%
%TO.N,B6*%
X273620000Y-136970000D03*
%TO.P,,14*%
%TO.N,B2*%
X273620000Y-134430000D03*
%TO.P,,15*%
%TO.N,B3*%
X273620000Y-131890000D03*
%TO.P,,16*%
%TO.N,B1*%
X273620000Y-129350000D03*
%TO.P,,17*%
%TO.N,F7*%
X273620000Y-126810000D03*
%TO.P,,18*%
%TO.N,F6*%
X273620000Y-124270000D03*
%TO.P,,19*%
%TO.N,F5*%
X273620000Y-121730000D03*
%TO.P,,20*%
%TO.N,F4*%
X273620000Y-119190000D03*
%TO.P,,21*%
%TO.N,VCC*%
X273620000Y-116650000D03*
%TO.P,,22*%
%TO.N,RST*%
X273620000Y-114110000D03*
%TO.P,,23*%
%TO.N,GND*%
X273620000Y-111570000D03*
%TO.P,,24*%
%TO.N,B0*%
X273620000Y-109030000D03*
%TO.P,,25*%
%TO.N,B7*%
X260920000Y-136970000D03*
%TO.P,,26*%
%TO.N,D5*%
X263460000Y-136970000D03*
%TO.P,,27*%
%TO.N,C7*%
X266000000Y-136970000D03*
%TO.P,,28*%
%TO.N,F1*%
X268540000Y-136970000D03*
%TO.P,,29*%
%TO.N,F0*%
X271080000Y-136970000D03*
%TD*%
D14*
%TO.P,M1,1*%
%TO.N,B7*%
X231100000Y-174000000D03*
%TO.P,M1,2*%
%TO.N,ml_diode*%
X236100000Y-174000000D03*
%TD*%
%TO.P,M3,1*%
%TO.N,B4*%
X245500000Y-165500000D03*
%TO.P,M3,2*%
%TO.N,mm_diode*%
X250500000Y-165500000D03*
%TD*%
D19*
%TO.P,,1*%
%TO.N,N/C*%
X262000000Y-164000000D03*
%TD*%
%TO.P,,1*%
%TO.N,N/C*%
X233600000Y-165500000D03*
%TD*%
D15*
%TO.P,D21,1*%
%TO.N,ml_diode*%
X159500000Y-129500000D03*
D16*
%TO.P,D21,2*%
%TO.N,F1*%
X159500000Y-122500000D03*
%TD*%
D15*
%TO.P,D22,1*%
%TO.N,inner_thumb*%
X159500000Y-141500000D03*
D16*
%TO.P,D22,2*%
%TO.N,F1*%
X159500000Y-134500000D03*
%TD*%
D15*
%TO.P,D23,1*%
%TO.N,mr_diode*%
X178500000Y-123500000D03*
D16*
%TO.P,D23,2*%
%TO.N,F1*%
X178500000Y-116500000D03*
%TD*%
D15*
%TO.P,D24,1*%
%TO.N,mm_diode*%
X178500000Y-135500000D03*
D16*
%TO.P,D24,2*%
%TO.N,F1*%
X178500000Y-128500000D03*
%TD*%
D15*
%TO.P,D25,1*%
%TO.N,far_thumb*%
X178500000Y-147500000D03*
D16*
%TO.P,D25,2*%
%TO.N,F1*%
X178500000Y-140500000D03*
%TD*%
D15*
%TO.P,D26,1*%
%TO.N,trackpoint_reset*%
X197500000Y-143250000D03*
D16*
%TO.P,D26,2*%
%TO.N,GND*%
X197500000Y-136250000D03*
%TD*%
D15*
%TO.P,D27,1*%
%TO.N,VCC*%
X197500000Y-131250000D03*
D16*
%TO.P,D27,2*%
%TO.N,D2*%
X197500000Y-124250000D03*
%TD*%
D15*
%TO.P,D28,1*%
%TO.N,VCC*%
X197500000Y-119250000D03*
D16*
%TO.P,D28,2*%
%TO.N,D5*%
X197500000Y-112250000D03*
%TD*%
D15*
%TO.P,D29,0*%
%TO.N,B4*%
X205500000Y-159000000D03*
%TO.P,D29,1*%
%TO.N,B5*%
X208000000Y-159000000D03*
%TO.P,D29,2*%
%TO.N,B7*%
X210500000Y-159000000D03*
%TO.P,D29,3*%
%TO.N,E6*%
X205500000Y-156500000D03*
%TO.P,D29,4*%
%TO.N,D7*%
X208000000Y-156500000D03*
%TO.P,D29,5*%
%TO.N,F0*%
X210500000Y-156500000D03*
%TD*%
D19*
%TO.P,,1*%
%TO.N,N/C*%
X219000000Y-173300000D03*
%TD*%
%TO.P,,1*%
%TO.N,N/C*%
X219000000Y-184700000D03*
%TD*%
%TO.P,,1*%
%TO.N,N/C*%
X206000000Y-173300000D03*
%TD*%
%TO.P,,1*%
%TO.N,N/C*%
X206000000Y-184700000D03*
%TD*%
%TO.P,,1*%
%TO.N,N/C*%
X235500000Y-121000000D03*
%TD*%
%TO.P,,1*%
%TO.N,N/C*%
X159500000Y-114000000D03*
%TD*%
%TO.P,,1*%
%TO.N,N/C*%
X159500000Y-150000000D03*
%TD*%
%TO.P,,1*%
%TO.N,N/C*%
X197500000Y-105500000D03*
%TD*%
%TO.P,,1*%
%TO.N,N/C*%
X274338490Y-176566923D03*
%TD*%
%TO.P,,1*%
%TO.N,N/C*%
X216500000Y-109750000D03*
%TD*%
%TO.P,,1*%
%TO.N,N/C*%
X216500000Y-127750000D03*
%TD*%
%TO.P,,1*%
%TO.N,N/C*%
X254500000Y-127750000D03*
%TD*%
%TO.P,,1*%
%TO.N,N/C*%
X254500000Y-109750000D03*
%TD*%
%TO.P,,1*%
%TO.N,N/C*%
X226000000Y-154750000D03*
%TD*%
D15*
%TO.P,D30,1*%
%TO.N,VCC*%
X254500000Y-147500000D03*
D16*
%TO.P,D30,2*%
%TO.N,D0*%
X254500000Y-140500000D03*
%TD*%
D15*
%TO.P,,1*%
%TO.N,VCC*%
X257000000Y-140500000D03*
%TD*%
%TO.P,,1*%
%TO.N,trackpoint_reset*%
X259500000Y-140500000D03*
%TD*%
D20*
%TO.N,D2*%
X253200000Y-130400000D03*
X251800000Y-137000000D03*
X252600000Y-138800000D03*
X252400000Y-142000000D03*
%TO.N,D5*%
X263400000Y-140800000D03*
X263400000Y-139200000D03*
%TO.N,D1*%
X269800000Y-139600000D03*
X269800000Y-134000000D03*
%TO.N,D0*%
X267000000Y-139400000D03*
X269400000Y-141000000D03*
%TO.N,trackpoint_reset*%
X242000000Y-152500000D03*
%TO.N,GND*%
X241500000Y-115500000D03*
X241000000Y-137500000D03*
%TO.N,VCC*%
X242000000Y-148500000D03*
%TO.N,F1*%
X256000000Y-135500000D03*
X252000000Y-135500000D03*
%TO.N,F0*%
X243000000Y-154000000D03*
%TO.N,D0*%
X255607299Y-130607299D03*
%TO.N,D2*%
X203000000Y-110000000D03*
X202500000Y-113000000D03*
%TO.N,E6*%
X248000000Y-108000000D03*
X242000000Y-108000000D03*
%TD*%
D21*
%TO.N,D2*%
X253105479Y-130305479D02*
X253105479Y-116844521D01*
X253105479Y-116844521D02*
X258380000Y-111570000D01*
X253200000Y-130400000D02*
X253105479Y-130305479D01*
X252600000Y-137800000D02*
X251800000Y-137000000D01*
X252600000Y-138800000D02*
X252600000Y-137800000D01*
%TO.N,D7*%
X254199040Y-133530960D02*
X258380000Y-129350000D01*
X248675489Y-132275489D02*
X249930960Y-133530960D01*
X249930960Y-133530960D02*
X254199040Y-133530960D01*
X245000000Y-126100000D02*
X248675489Y-129775489D01*
X248675489Y-129775489D02*
X248675489Y-132275489D01*
%TO.N,E6*%
X242910979Y-151590045D02*
X263925739Y-172604805D01*
X242910979Y-148089021D02*
X242910979Y-151590045D01*
X249019520Y-133980480D02*
X246500000Y-136500000D01*
X256289520Y-133980480D02*
X249019520Y-133980480D01*
X258380000Y-131890000D02*
X256289520Y-133980480D01*
X246500000Y-136500000D02*
X246500000Y-144500000D01*
X246500000Y-144500000D02*
X242910979Y-148089021D01*
%TO.N,D2*%
X267200000Y-155300000D02*
X268450000Y-155300000D01*
X253900000Y-142000000D02*
X267200000Y-155300000D01*
X252400000Y-142000000D02*
X253900000Y-142000000D01*
X268450000Y-155300000D02*
X267564283Y-155300000D01*
%TO.N,trackpoint_reset*%
X259500000Y-146600000D02*
X259500000Y-140500000D01*
X267200000Y-154300000D02*
X259500000Y-146600000D01*
X268450000Y-154300000D02*
X267200000Y-154300000D01*
%TO.N,D5*%
X262800000Y-141400000D02*
X263400000Y-140800000D01*
X262800000Y-147200000D02*
X262800000Y-141400000D01*
X265900000Y-150300000D02*
X262800000Y-147200000D01*
X268450000Y-150300000D02*
X265900000Y-150300000D01*
%TO.N,VCC*%
X266275489Y-138724511D02*
X266900000Y-138100000D01*
X268450000Y-144320978D02*
X266275489Y-142146467D01*
X266275489Y-142146467D02*
X266275489Y-138724511D01*
X268450000Y-148300000D02*
X268450000Y-144320978D01*
X266900000Y-138100000D02*
X265000000Y-140000000D01*
X267200811Y-137799189D02*
X266900000Y-138100000D01*
%TO.N,D5*%
X263400000Y-137030000D02*
X263460000Y-136970000D01*
X263400000Y-139200000D02*
X263400000Y-137030000D01*
%TO.N,VCC*%
X258277011Y-139222989D02*
X257000000Y-140500000D01*
X260805967Y-140000000D02*
X260028956Y-139222989D01*
X260028956Y-139222989D02*
X258277011Y-139222989D01*
X267200811Y-123069189D02*
X267200811Y-137799189D01*
X265000000Y-140000000D02*
X260805967Y-140000000D01*
X273620000Y-116650000D02*
X267200811Y-123069189D01*
%TO.N,GND*%
X274820811Y-112770811D02*
X273620000Y-111570000D01*
X274820811Y-119687393D02*
X274820811Y-112770811D01*
X274117393Y-120390811D02*
X274820811Y-119687393D01*
X273260985Y-120390811D02*
X274117393Y-120390811D01*
X272280811Y-121370985D02*
X273260985Y-120390811D01*
X272280811Y-137719189D02*
X272280811Y-121370985D01*
X270800000Y-139200000D02*
X272280811Y-137719189D01*
X270800000Y-147904022D02*
X270800000Y-139200000D01*
X269404022Y-149300000D02*
X270800000Y-147904022D01*
X268450000Y-149300000D02*
X269404022Y-149300000D01*
%TO.N,D1*%
X269800000Y-134000000D02*
X269800000Y-139600000D01*
%TO.N,D0*%
X267800000Y-139400000D02*
X267000000Y-139400000D01*
X269400000Y-141000000D02*
X267800000Y-139400000D01*
%TO.N,trackpoint_reset*%
X240500000Y-152500000D02*
X242000000Y-152500000D01*
X239644521Y-153355479D02*
X240500000Y-152500000D01*
X213644521Y-153355479D02*
X239644521Y-153355479D01*
X213500000Y-153500000D02*
X213644521Y-153355479D01*
X203250000Y-143250000D02*
X213500000Y-153500000D01*
X197500000Y-143250000D02*
X203250000Y-143250000D01*
%TO.N,GND*%
X240000000Y-117000000D02*
X241500000Y-115500000D01*
X241000000Y-124305967D02*
X240000000Y-123305967D01*
X240000000Y-123305967D02*
X240000000Y-117000000D01*
X241000000Y-137500000D02*
X241000000Y-124305967D01*
%TO.N,VCC*%
X210410979Y-139410979D02*
X205660979Y-139410979D01*
X224000000Y-140000000D02*
X211000000Y-140000000D01*
X211000000Y-140000000D02*
X210410979Y-139410979D01*
X232500000Y-148500000D02*
X224000000Y-140000000D01*
X205660979Y-139410979D02*
X197500000Y-131250000D01*
X242000000Y-148500000D02*
X232500000Y-148500000D01*
%TO.N,F1*%
X252000000Y-135500000D02*
X256000000Y-135500000D01*
%TO.N,F0*%
X210500000Y-156500000D02*
X240500000Y-156500000D01*
X240500000Y-156500000D02*
X243000000Y-154000000D01*
%TO.N,D0*%
X256000000Y-124110000D02*
X258380000Y-121730000D01*
X256000000Y-130214598D02*
X256000000Y-124110000D01*
X255607299Y-130607299D02*
X256000000Y-130214598D01*
%TO.N,D2*%
X203000000Y-112500000D02*
X202500000Y-113000000D01*
X203000000Y-110000000D02*
X203000000Y-112500000D01*
%TO.N,C6*%
X172500000Y-142500000D02*
X172500000Y-141000000D01*
X169559489Y-145440511D02*
X172500000Y-142500000D01*
X157940511Y-145440511D02*
X169559489Y-145440511D01*
X153500000Y-141000000D02*
X157940511Y-145440511D01*
%TO.N,B5*%
X255602978Y-136970000D02*
X258608600Y-136970000D01*
X247538541Y-145034437D02*
X255602978Y-136970000D01*
X265050480Y-174449520D02*
X265715770Y-173784230D01*
X265715770Y-173784230D02*
X265715770Y-169715770D01*
X247538541Y-151538541D02*
X247538541Y-145034437D01*
X261214785Y-174449520D02*
X265050480Y-174449520D01*
X259950491Y-173185226D02*
X261214785Y-174449520D01*
X265715770Y-169715770D02*
X247538541Y-151538541D01*
X248000000Y-173100000D02*
X248085226Y-173185226D01*
X248085226Y-173185226D02*
X259950491Y-173185226D01*
%TO.N,B4*%
X249570000Y-134430000D02*
X258380000Y-134430000D01*
X247089021Y-136910979D02*
X249570000Y-134430000D01*
X265266250Y-171766250D02*
X247089021Y-153589021D01*
X265266250Y-173160064D02*
X265266250Y-171766250D01*
X262160870Y-172735706D02*
X263425164Y-174000000D01*
X247089021Y-153589021D02*
X247089021Y-136910979D01*
X245500000Y-165500000D02*
X252735706Y-172735706D01*
X252735706Y-172735706D02*
X262160870Y-172735706D01*
X264426314Y-174000000D02*
X265266250Y-173160064D01*
X263425164Y-174000000D02*
X264426314Y-174000000D01*
%TO.N,mr_diode*%
X180163031Y-125163031D02*
X178500000Y-123500000D01*
X180163031Y-138163031D02*
X180163031Y-125163031D01*
X183500000Y-141500000D02*
X180163031Y-138163031D01*
X188500000Y-141500000D02*
X183500000Y-141500000D01*
X190500000Y-143500000D02*
X188500000Y-141500000D01*
X190500000Y-145805967D02*
X190500000Y-143500000D01*
X206694033Y-162000000D02*
X190500000Y-145805967D01*
X249679066Y-162000000D02*
X206694033Y-162000000D01*
X259074261Y-171395195D02*
X249679066Y-162000000D01*
%TO.N,mm_diode*%
X179713511Y-136713511D02*
X178500000Y-135500000D01*
X179713511Y-140500000D02*
X179713511Y-136713511D01*
X203318990Y-164105479D02*
X179713511Y-140500000D01*
X249105479Y-164105479D02*
X203318990Y-164105479D01*
X250500000Y-165500000D02*
X249105479Y-164105479D01*
%TO.N,far_thumb*%
X178500000Y-147772152D02*
X178500000Y-147500000D01*
X213884627Y-183156779D02*
X178500000Y-147772152D01*
X266496969Y-182424431D02*
X265764621Y-183156779D01*
X265764621Y-183156779D02*
X213884627Y-183156779D01*
X275230798Y-182424431D02*
X266496969Y-182424431D01*
X276311976Y-183505609D02*
X275230798Y-182424431D01*
%TO.N,C7*%
X266000000Y-107000000D02*
X266000000Y-136970000D01*
X262199520Y-103199520D02*
X266000000Y-107000000D01*
X231449520Y-98949520D02*
X235699520Y-103199520D01*
X216917357Y-98949520D02*
X231449520Y-98949520D01*
X235699520Y-103199520D02*
X262199520Y-103199520D01*
X197082643Y-98949520D02*
X201332643Y-94699520D01*
X184050480Y-98949520D02*
X197082643Y-98949520D01*
X179800480Y-103199520D02*
X184050480Y-98949520D01*
X152827022Y-108100000D02*
X157727502Y-103199520D01*
X157727502Y-103199520D02*
X179800480Y-103199520D01*
X201332643Y-94699520D02*
X212667357Y-94699520D01*
X212667357Y-94699520D02*
X216917357Y-98949520D01*
X150000000Y-108100000D02*
X152827022Y-108100000D01*
%TO.N,B7*%
X262348560Y-135541440D02*
X260920000Y-136970000D01*
X262348560Y-104348560D02*
X262348560Y-135541440D01*
X261649040Y-103649040D02*
X262348560Y-104348560D01*
X235513323Y-103649040D02*
X261649040Y-103649040D01*
X212481159Y-95149040D02*
X216731160Y-99399040D01*
X203044993Y-95149040D02*
X212481159Y-95149040D01*
X198694033Y-99500000D02*
X203044993Y-95149040D01*
X187555967Y-99500000D02*
X198694033Y-99500000D01*
X216731160Y-99399040D02*
X231263322Y-99399040D01*
X178955967Y-108100000D02*
X187555967Y-99500000D01*
X231263322Y-99399040D02*
X235513323Y-103649040D01*
X169000000Y-108100000D02*
X178955967Y-108100000D01*
%TO.N,B5*%
X261899040Y-133679560D02*
X258608600Y-136970000D01*
X261899040Y-104899040D02*
X261899040Y-133679560D01*
X261098560Y-104098560D02*
X261899040Y-104899040D01*
X254000000Y-104098560D02*
X261098560Y-104098560D01*
X251821549Y-106277011D02*
X254000000Y-104098560D01*
X218723412Y-102027011D02*
X233255575Y-102027011D01*
X233255575Y-102027011D02*
X234614283Y-103385718D01*
X234614283Y-103385718D02*
X237505576Y-106277011D01*
X237505576Y-106277011D02*
X251821549Y-106277011D01*
X214696401Y-98000000D02*
X218723412Y-102027011D01*
X197150000Y-103850000D02*
X203000000Y-98000000D01*
X203000000Y-98000000D02*
X214696401Y-98000000D01*
X188000000Y-103850000D02*
X197150000Y-103850000D01*
%TO.N,B4*%
X261449520Y-131360480D02*
X258380000Y-134430000D01*
X261449520Y-105449520D02*
X261449520Y-131360480D01*
X260548080Y-104548080D02*
X261449520Y-105449520D01*
X254186197Y-104548080D02*
X260548080Y-104548080D01*
X251974789Y-106759489D02*
X252271069Y-106463208D01*
X252271069Y-106463208D02*
X254186197Y-104548080D01*
X233069377Y-102476531D02*
X237352336Y-106759489D01*
X237352336Y-106759489D02*
X251974789Y-106759489D01*
X218537215Y-102476531D02*
X233069377Y-102476531D01*
X215660683Y-99600000D02*
X218537215Y-102476531D01*
X207000000Y-99600000D02*
X215660683Y-99600000D01*
%TO.N,E6*%
X260000000Y-105000000D02*
X261000000Y-106000000D01*
X255000000Y-105000000D02*
X260000000Y-105000000D01*
X252500000Y-107500000D02*
X255000000Y-105000000D01*
X261000000Y-106000000D02*
X261000000Y-129270000D01*
X261000000Y-129270000D02*
X258380000Y-131890000D01*
X248500000Y-107500000D02*
X252500000Y-107500000D01*
X248000000Y-108000000D02*
X248500000Y-107500000D01*
X241209009Y-107209009D02*
X242000000Y-108000000D01*
X237166139Y-107209009D02*
X241209009Y-107209009D01*
X227500000Y-103000000D02*
X232957128Y-103000000D01*
X226650000Y-103850000D02*
X227500000Y-103000000D01*
X232957128Y-103000000D02*
X237166139Y-107209009D01*
X226000000Y-103850000D02*
X226650000Y-103850000D01*
%TO.N,C7*%
X147910979Y-124010979D02*
X147910979Y-110189021D01*
X147910979Y-110189021D02*
X150000000Y-108100000D01*
X150000000Y-126100000D02*
X147910979Y-124010979D01*
X147910979Y-142010979D02*
X147910979Y-128189021D01*
X147910979Y-128189021D02*
X150000000Y-126100000D01*
X150000000Y-144100000D02*
X147910979Y-142010979D01*
%TO.N,B7*%
X166910979Y-142010979D02*
X169000000Y-144100000D01*
X166910979Y-128189021D02*
X166910979Y-142010979D01*
X169000000Y-126100000D02*
X166910979Y-128189021D01*
X166910979Y-124010979D02*
X169000000Y-126100000D01*
X169000000Y-108100000D02*
X166910979Y-110189021D01*
X166910979Y-110189021D02*
X166910979Y-124010979D01*
%TO.N,B5*%
X185910979Y-111427971D02*
X185910979Y-105939021D01*
X188000000Y-113516992D02*
X185910979Y-111427971D01*
X188000000Y-121850000D02*
X188000000Y-113516992D01*
X185910979Y-105939021D02*
X188000000Y-103850000D01*
X185500000Y-135913160D02*
X185500000Y-124350000D01*
X188000000Y-138413160D02*
X185500000Y-135913160D01*
X188000000Y-139850000D02*
X188000000Y-138413160D01*
X185500000Y-124350000D02*
X188000000Y-121850000D01*
%TO.N,B4*%
X204910979Y-133510979D02*
X207000000Y-135600000D01*
X204910979Y-119689021D02*
X204910979Y-133510979D01*
X207000000Y-117600000D02*
X204910979Y-119689021D01*
X204910979Y-101689021D02*
X204910979Y-115510979D01*
X204910979Y-115510979D02*
X207000000Y-117600000D01*
X207000000Y-99600000D02*
X204910979Y-101689021D01*
%TO.N,E6*%
X223910979Y-119760979D02*
X223910979Y-105939021D01*
X223910979Y-105939021D02*
X226000000Y-103850000D01*
X226000000Y-121850000D02*
X223910979Y-119760979D01*
X223910979Y-136324139D02*
X223910979Y-123939021D01*
X223910979Y-123939021D02*
X226000000Y-121850000D01*
X226000000Y-138413160D02*
X223910979Y-136324139D01*
X226000000Y-139850000D02*
X226000000Y-138413160D01*
%TO.N,D7*%
X242910979Y-142010979D02*
X245000000Y-144100000D01*
X245000000Y-126100000D02*
X242910979Y-128189021D01*
X242910979Y-128189021D02*
X242910979Y-142010979D01*
X242910979Y-110189021D02*
X242910979Y-124010979D01*
X242910979Y-124010979D02*
X245000000Y-126100000D01*
X245000000Y-108100000D02*
X242910979Y-110189021D01*
%TD*%
M02*
