%TF.GenerationSoftware,KiCad,Pcbnew,(6.0.4)*%
%TF.CreationDate,2023-12-03T23:36:57-08:00*%
%TF.ProjectId,left,6c656674-2e6b-4696-9361-645f70636258,v1.0.0*%
%TF.SameCoordinates,Original*%
%TF.FileFunction,Soldermask,Top*%
%TF.FilePolarity,Negative*%
%FSLAX46Y46*%
G04 Gerber Fmt 4.6, Leading zero omitted, Abs format (unit mm)*
G04 Created by KiCad (PCBNEW (6.0.4)) date 2023-12-03 23:36:57*
%MOMM*%
%LPD*%
G01*
G04 APERTURE LIST*
G04 Aperture macros list*
%AMRoundRect*
0 Rectangle with rounded corners*
0 $1 Rounding radius*
0 $2 $3 $4 $5 $6 $7 $8 $9 X,Y pos of 4 corners*
0 Add a 4 corners polygon primitive as box body*
4,1,4,$2,$3,$4,$5,$6,$7,$8,$9,$2,$3,0*
0 Add four circle primitives for the rounded corners*
1,1,$1+$1,$2,$3*
1,1,$1+$1,$4,$5*
1,1,$1+$1,$6,$7*
1,1,$1+$1,$8,$9*
0 Add four rect primitives between the rounded corners*
20,1,$1+$1,$2,$3,$4,$5,0*
20,1,$1+$1,$4,$5,$6,$7,0*
20,1,$1+$1,$6,$7,$8,$9,0*
20,1,$1+$1,$8,$9,$2,$3,0*%
G04 Aperture macros list end*
%ADD10RoundRect,0.050000X0.675000X-0.200000X0.675000X0.200000X-0.675000X0.200000X-0.675000X-0.200000X0*%
%ADD11RoundRect,0.050000X0.775000X-0.600000X0.775000X0.600000X-0.775000X0.600000X-0.775000X-0.600000X0*%
%ADD12O,1.050000X1.350000*%
%ADD13RoundRect,0.050000X0.775000X-0.750000X0.775000X0.750000X-0.775000X0.750000X-0.775000X-0.750000X0*%
%ADD14O,1.650000X0.990000*%
%ADD15C,2.132000*%
%ADD16C,3.529000*%
%ADD17C,1.801800*%
%ADD18C,2.005000*%
%ADD19RoundRect,0.050000X0.889000X0.889000X-0.889000X0.889000X-0.889000X-0.889000X0.889000X-0.889000X0*%
%ADD20RoundRect,0.050000X-0.876300X-0.876300X0.876300X-0.876300X0.876300X0.876300X-0.876300X0.876300X0*%
%ADD21C,1.852600*%
%ADD22C,1.624000*%
%ADD23RoundRect,0.050000X-0.889000X0.889000X-0.889000X-0.889000X0.889000X-0.889000X0.889000X0.889000X0*%
G04 APERTURE END LIST*
D10*
%TO.C,*%
X272000000Y-145300000D03*
X272000000Y-144650000D03*
X272000000Y-144000000D03*
X272000000Y-143350000D03*
X272000000Y-142700000D03*
D11*
X274700000Y-146900000D03*
D12*
X272000000Y-141500000D03*
D13*
X274700000Y-143000000D03*
D14*
X274700000Y-140500000D03*
D11*
X274700000Y-141100000D03*
D12*
X272000000Y-146500000D03*
D13*
X274700000Y-145000000D03*
D14*
X274700000Y-147500000D03*
%TD*%
D15*
%TO.C,M2*%
X259074261Y-171395195D03*
X263925739Y-172604805D03*
%TD*%
D16*
%TO.C,S1*%
X150000000Y-150000000D03*
D17*
X155500000Y-150000000D03*
X144500000Y-150000000D03*
D15*
X155000000Y-146200000D03*
X150000000Y-144100000D03*
%TD*%
D16*
%TO.C,S2*%
X150000000Y-132000000D03*
D17*
X155500000Y-132000000D03*
X144500000Y-132000000D03*
D15*
X155000000Y-128200000D03*
X150000000Y-126100000D03*
%TD*%
D16*
%TO.C,S3*%
X150000000Y-114000000D03*
D17*
X155500000Y-114000000D03*
X144500000Y-114000000D03*
D15*
X155000000Y-110200000D03*
X150000000Y-108100000D03*
%TD*%
D16*
%TO.C,S4*%
X169000000Y-150000000D03*
D17*
X174500000Y-150000000D03*
X163500000Y-150000000D03*
D15*
X174000000Y-146200000D03*
X169000000Y-144100000D03*
%TD*%
D16*
%TO.C,S5*%
X169000000Y-132000000D03*
D17*
X174500000Y-132000000D03*
X163500000Y-132000000D03*
D15*
X174000000Y-128200000D03*
X169000000Y-126100000D03*
%TD*%
D16*
%TO.C,S6*%
X169000000Y-114000000D03*
D17*
X174500000Y-114000000D03*
X163500000Y-114000000D03*
D15*
X174000000Y-110200000D03*
X169000000Y-108100000D03*
%TD*%
D16*
%TO.C,S7*%
X188000000Y-145750000D03*
D17*
X193500000Y-145750000D03*
X182500000Y-145750000D03*
D15*
X193000000Y-141950000D03*
X188000000Y-139850000D03*
%TD*%
D16*
%TO.C,S8*%
X188000000Y-127750000D03*
D17*
X193500000Y-127750000D03*
X182500000Y-127750000D03*
D15*
X193000000Y-123950000D03*
X188000000Y-121850000D03*
%TD*%
D16*
%TO.C,S9*%
X188000000Y-109750000D03*
D17*
X193500000Y-109750000D03*
X182500000Y-109750000D03*
D15*
X193000000Y-105950000D03*
X188000000Y-103850000D03*
%TD*%
D16*
%TO.C,S10*%
X207000000Y-141500000D03*
D17*
X212500000Y-141500000D03*
X201500000Y-141500000D03*
D15*
X212000000Y-137700000D03*
X207000000Y-135600000D03*
%TD*%
D16*
%TO.C,S11*%
X207000000Y-123500000D03*
D17*
X212500000Y-123500000D03*
X201500000Y-123500000D03*
D15*
X212000000Y-119700000D03*
X207000000Y-117600000D03*
%TD*%
D16*
%TO.C,S12*%
X207000000Y-105500000D03*
D17*
X212500000Y-105500000D03*
X201500000Y-105500000D03*
D15*
X212000000Y-101700000D03*
X207000000Y-99600000D03*
%TD*%
D16*
%TO.C,S13*%
X226000000Y-145750000D03*
D17*
X231500000Y-145750000D03*
X220500000Y-145750000D03*
D15*
X231000000Y-141950000D03*
X226000000Y-139850000D03*
%TD*%
D16*
%TO.C,S14*%
X226000000Y-127750000D03*
D17*
X231500000Y-127750000D03*
X220500000Y-127750000D03*
D15*
X231000000Y-123950000D03*
X226000000Y-121850000D03*
%TD*%
D16*
%TO.C,S15*%
X226000000Y-109750000D03*
D17*
X231500000Y-109750000D03*
X220500000Y-109750000D03*
D15*
X231000000Y-105950000D03*
X226000000Y-103850000D03*
%TD*%
D16*
%TO.C,S16*%
X245000000Y-150000000D03*
D17*
X250500000Y-150000000D03*
X239500000Y-150000000D03*
D15*
X250000000Y-146200000D03*
X245000000Y-144100000D03*
%TD*%
D16*
%TO.C,S17*%
X245000000Y-132000000D03*
D17*
X250500000Y-132000000D03*
X239500000Y-132000000D03*
D15*
X250000000Y-128200000D03*
X245000000Y-126100000D03*
%TD*%
D16*
%TO.C,S18*%
X245000000Y-114000000D03*
D17*
X250500000Y-114000000D03*
X239500000Y-114000000D03*
D15*
X250000000Y-110200000D03*
X245000000Y-108100000D03*
%TD*%
D16*
%TO.C,S19*%
X248000000Y-179000000D03*
D17*
X253500000Y-179000000D03*
X242500000Y-179000000D03*
D15*
X253000000Y-175200000D03*
X248000000Y-173100000D03*
%TD*%
D16*
%TO.C,S20*%
X270113246Y-184513452D03*
D17*
X274969458Y-187095546D03*
X265257034Y-181931358D03*
D15*
X276311976Y-183505609D03*
X272883128Y-179304061D03*
%TD*%
D18*
%TO.C,D1*%
X146500000Y-141000000D03*
D19*
X153500000Y-141000000D03*
%TD*%
D18*
%TO.C,D2*%
X146500000Y-123000000D03*
D19*
X153500000Y-123000000D03*
%TD*%
D18*
%TO.C,D3*%
X146500000Y-105000000D03*
D19*
X153500000Y-105000000D03*
%TD*%
D18*
%TO.C,D4*%
X165500000Y-141000000D03*
D19*
X172500000Y-141000000D03*
%TD*%
D18*
%TO.C,D5*%
X165500000Y-123000000D03*
D19*
X172500000Y-123000000D03*
%TD*%
D18*
%TO.C,D6*%
X165500000Y-105000000D03*
D19*
X172500000Y-105000000D03*
%TD*%
D18*
%TO.C,D7*%
X184500000Y-136750000D03*
D19*
X191500000Y-136750000D03*
%TD*%
D18*
%TO.C,D8*%
X184500000Y-118750000D03*
D19*
X191500000Y-118750000D03*
%TD*%
D18*
%TO.C,D9*%
X184500000Y-100750000D03*
D19*
X191500000Y-100750000D03*
%TD*%
D18*
%TO.C,D10*%
X203500000Y-132500000D03*
D19*
X210500000Y-132500000D03*
%TD*%
D18*
%TO.C,D11*%
X203500000Y-114500000D03*
D19*
X210500000Y-114500000D03*
%TD*%
D18*
%TO.C,D12*%
X203500000Y-96500000D03*
D19*
X210500000Y-96500000D03*
%TD*%
D18*
%TO.C,D13*%
X222500000Y-136750000D03*
D19*
X229500000Y-136750000D03*
%TD*%
D18*
%TO.C,D14*%
X222500000Y-118750000D03*
D19*
X229500000Y-118750000D03*
%TD*%
D18*
%TO.C,D15*%
X222500000Y-100750000D03*
D19*
X229500000Y-100750000D03*
%TD*%
D18*
%TO.C,D16*%
X241500000Y-141000000D03*
D19*
X248500000Y-141000000D03*
%TD*%
D18*
%TO.C,D17*%
X241500000Y-123000000D03*
D19*
X248500000Y-123000000D03*
%TD*%
D18*
%TO.C,D18*%
X241500000Y-105000000D03*
D19*
X248500000Y-105000000D03*
%TD*%
D20*
%TO.C,*%
X258380000Y-109030000D03*
D21*
X258380000Y-111570000D03*
X258380000Y-114110000D03*
X258380000Y-116650000D03*
X258380000Y-119190000D03*
X258380000Y-121730000D03*
X258380000Y-124270000D03*
X258380000Y-126810000D03*
X258380000Y-129350000D03*
X258380000Y-131890000D03*
X258380000Y-134430000D03*
X258608600Y-136970000D03*
X273620000Y-136970000D03*
X273620000Y-134430000D03*
X273620000Y-131890000D03*
X273620000Y-129350000D03*
X273620000Y-126810000D03*
X273620000Y-124270000D03*
X273620000Y-121730000D03*
X273620000Y-119190000D03*
X273620000Y-116650000D03*
X273620000Y-114110000D03*
X273620000Y-111570000D03*
X273620000Y-109030000D03*
X260920000Y-136970000D03*
X263460000Y-136970000D03*
X266000000Y-136970000D03*
X268540000Y-136970000D03*
X271080000Y-136970000D03*
%TD*%
D15*
%TO.C,M1*%
X231100000Y-174000000D03*
X236100000Y-174000000D03*
%TD*%
%TO.C,M3*%
X245500000Y-165500000D03*
X250500000Y-165500000D03*
%TD*%
D22*
%TO.C,*%
X262000000Y-164000000D03*
%TD*%
%TO.C,*%
X233600000Y-165500000D03*
%TD*%
D18*
%TO.C,D21*%
X159500000Y-129500000D03*
D23*
X159500000Y-122500000D03*
%TD*%
D18*
%TO.C,D22*%
X159500000Y-141500000D03*
D23*
X159500000Y-134500000D03*
%TD*%
D18*
%TO.C,D23*%
X178500000Y-123500000D03*
D23*
X178500000Y-116500000D03*
%TD*%
D18*
%TO.C,D24*%
X178500000Y-135500000D03*
D23*
X178500000Y-128500000D03*
%TD*%
D18*
%TO.C,D25*%
X178500000Y-147500000D03*
D23*
X178500000Y-140500000D03*
%TD*%
D18*
%TO.C,D26*%
X197500000Y-143250000D03*
D23*
X197500000Y-136250000D03*
%TD*%
D18*
%TO.C,D27*%
X197500000Y-131250000D03*
D23*
X197500000Y-124250000D03*
%TD*%
D18*
%TO.C,D28*%
X197500000Y-119250000D03*
D23*
X197500000Y-112250000D03*
%TD*%
D18*
%TO.C,D29*%
X205500000Y-159000000D03*
X208000000Y-159000000D03*
X210500000Y-159000000D03*
X205500000Y-156500000D03*
X208000000Y-156500000D03*
X210500000Y-156500000D03*
%TD*%
D22*
%TO.C,*%
X219000000Y-173300000D03*
%TD*%
%TO.C,*%
X219000000Y-184700000D03*
%TD*%
%TO.C,*%
X206000000Y-173300000D03*
%TD*%
%TO.C,*%
X206000000Y-184700000D03*
%TD*%
%TO.C,*%
X235500000Y-121000000D03*
%TD*%
%TO.C,*%
X159500000Y-114000000D03*
%TD*%
%TO.C,*%
X159500000Y-150000000D03*
%TD*%
%TO.C,*%
X197500000Y-105500000D03*
%TD*%
%TO.C,*%
X274338490Y-176566923D03*
%TD*%
%TO.C,*%
X216500000Y-109750000D03*
%TD*%
%TO.C,*%
X216500000Y-127750000D03*
%TD*%
%TO.C,*%
X254500000Y-127750000D03*
%TD*%
%TO.C,*%
X254500000Y-109750000D03*
%TD*%
%TO.C,*%
X226000000Y-154750000D03*
%TD*%
D18*
%TO.C,D30*%
X254500000Y-147500000D03*
D23*
X254500000Y-140500000D03*
%TD*%
D18*
%TO.C,*%
X257000000Y-140500000D03*
%TD*%
%TO.C,*%
X259500000Y-140500000D03*
%TD*%
M02*
