%TF.GenerationSoftware,KiCad,Pcbnew,(6.0.4)*%
%TF.CreationDate,2023-12-12T22:20:10-08:00*%
%TF.ProjectId,keyboard,6b657962-6f61-4726-942e-6b696361645f,v1.0.0*%
%TF.SameCoordinates,Original*%
%TF.FileFunction,Copper,L1,Top*%
%TF.FilePolarity,Positive*%
%FSLAX46Y46*%
G04 Gerber Fmt 4.6, Leading zero omitted, Abs format (unit mm)*
G04 Created by KiCad (PCBNEW (6.0.4)) date 2023-12-12 22:20:10*
%MOMM*%
%LPD*%
G01*
G04 APERTURE LIST*
%TA.AperFunction,ComponentPad*%
%ADD10C,2.032000*%
%TD*%
%TA.AperFunction,ComponentPad*%
%ADD11C,1.524000*%
%TD*%
%TA.AperFunction,ComponentPad*%
%ADD12C,1.905000*%
%TD*%
%TA.AperFunction,ComponentPad*%
%ADD13R,1.778000X1.778000*%
%TD*%
%TA.AperFunction,SMDPad,CuDef*%
%ADD14R,1.350000X0.400000*%
%TD*%
%TA.AperFunction,SMDPad,CuDef*%
%ADD15R,1.550000X1.200000*%
%TD*%
%TA.AperFunction,SMDPad,CuDef*%
%ADD16R,1.550000X1.500000*%
%TD*%
%TA.AperFunction,ComponentPad*%
%ADD17O,1.550000X0.890000*%
%TD*%
%TA.AperFunction,ComponentPad*%
%ADD18O,0.950000X1.250000*%
%TD*%
%TA.AperFunction,ComponentPad*%
%ADD19R,2.000000X2.000000*%
%TD*%
%TA.AperFunction,ComponentPad*%
%ADD20C,2.000000*%
%TD*%
%TA.AperFunction,ViaPad*%
%ADD21C,0.800000*%
%TD*%
%TA.AperFunction,Conductor*%
%ADD22C,0.250000*%
%TD*%
G04 APERTURE END LIST*
D10*
%TO.P,M2,1*%
%TO.N,B5*%
X259074261Y-171395195D03*
%TO.P,M2,2*%
%TO.N,mm_diode*%
X263925739Y-172604805D03*
%TD*%
D11*
%TO.P,,1*%
%TO.N,N/C*%
X159500000Y-150000000D03*
%TD*%
D12*
%TO.P,D28,1*%
%TO.N,inner_thumb*%
X159500000Y-141500000D03*
D13*
%TO.P,D28,2*%
%TO.N,F0*%
X159500000Y-134500000D03*
%TD*%
D11*
%TO.P,,1*%
%TO.N,N/C*%
X265888002Y-192459980D03*
%TD*%
D10*
%TO.P,S6,1*%
%TO.N,pinky_home*%
X174000000Y-128200000D03*
%TO.P,S6,2*%
%TO.N,C7*%
X169000000Y-126100000D03*
%TD*%
D12*
%TO.P,D16,1*%
%TO.N,middle_nums*%
X203500000Y-77500000D03*
D13*
%TO.P,D16,2*%
%TO.N,D7*%
X210500000Y-77500000D03*
%TD*%
D10*
%TO.P,S21,1*%
%TO.N,inner_bottom*%
X250000000Y-146200000D03*
%TO.P,S21,2*%
%TO.N,E6*%
X245000000Y-144100000D03*
%TD*%
%TO.P,S1,1*%
%TO.N,outer_bottom*%
X155000000Y-146200000D03*
%TO.P,S1,2*%
%TO.N,F1*%
X150000000Y-144100000D03*
%TD*%
D12*
%TO.P,D20,1*%
%TO.N,index_nums*%
X222500000Y-81750000D03*
D13*
%TO.P,D20,2*%
%TO.N,D7*%
X229500000Y-81750000D03*
%TD*%
D12*
%TO.P,D36,1*%
%TO.N,VCC*%
X254500000Y-129500000D03*
D13*
%TO.P,D36,2*%
%TO.N,D1*%
X254500000Y-122500000D03*
%TD*%
D12*
%TO.P,D17,1*%
%TO.N,index_bottom*%
X222500000Y-136750000D03*
D13*
%TO.P,D17,2*%
%TO.N,D3*%
X229500000Y-136750000D03*
%TD*%
D12*
%TO.P,D7,1*%
%TO.N,pinky_top*%
X165500000Y-105000000D03*
D13*
%TO.P,D7,2*%
%TO.N,C6*%
X172500000Y-105000000D03*
%TD*%
D12*
%TO.P,D35,0*%
%TO.N,B5*%
X205500000Y-159000000D03*
%TO.P,D35,1*%
%TO.N,B7*%
X208000000Y-159000000D03*
%TO.P,D35,2*%
%TO.N,C7*%
X210500000Y-159000000D03*
%TO.P,D35,3*%
%TO.N,B4*%
X205500000Y-156500000D03*
%TO.P,D35,4*%
%TO.N,E6*%
X208000000Y-156500000D03*
%TO.P,D35,5*%
%TO.N,B6*%
X210500000Y-156500000D03*
%TD*%
D11*
%TO.P,,1*%
%TO.N,N/C*%
X254500000Y-149800000D03*
%TD*%
D12*
%TO.P,D30,1*%
%TO.N,mm_diode*%
X178500000Y-135500000D03*
D13*
%TO.P,D30,2*%
%TO.N,F0*%
X178500000Y-128500000D03*
%TD*%
D11*
%TO.P,,1*%
%TO.N,N/C*%
X206000000Y-184700000D03*
%TD*%
%TO.P,,1*%
%TO.N,N/C*%
X235500000Y-121000000D03*
%TD*%
D12*
%TO.P,D8,1*%
%TO.N,pinky_nums*%
X165500000Y-86000000D03*
D13*
%TO.P,D8,2*%
%TO.N,D7*%
X172500000Y-86000000D03*
%TD*%
D10*
%TO.P,S22,1*%
%TO.N,inner_home*%
X250000000Y-128200000D03*
%TO.P,S22,2*%
%TO.N,E6*%
X245000000Y-126100000D03*
%TD*%
%TO.P,S16,1*%
%TO.N,middle_nums*%
X212000000Y-82700000D03*
%TO.P,S16,2*%
%TO.N,B5*%
X207000000Y-80600000D03*
%TD*%
D12*
%TO.P,D15,1*%
%TO.N,middle_top*%
X203500000Y-96500000D03*
D13*
%TO.P,D15,2*%
%TO.N,C6*%
X210500000Y-96500000D03*
%TD*%
D10*
%TO.P,S7,1*%
%TO.N,pinky_top*%
X174000000Y-110200000D03*
%TO.P,S7,2*%
%TO.N,C7*%
X169000000Y-108100000D03*
%TD*%
D12*
%TO.P,D33,1*%
%TO.N,VCC*%
X197500000Y-131250000D03*
D13*
%TO.P,D33,2*%
%TO.N,D2*%
X197500000Y-124250000D03*
%TD*%
D11*
%TO.P,,1*%
%TO.N,N/C*%
X219000000Y-173300000D03*
%TD*%
D10*
%TO.P,S11,1*%
%TO.N,ring_top*%
X193000000Y-105950000D03*
%TO.P,S11,2*%
%TO.N,B7*%
X188000000Y-103850000D03*
%TD*%
%TO.P,S23,1*%
%TO.N,inner_top*%
X250000000Y-110200000D03*
%TO.P,S23,2*%
%TO.N,E6*%
X245000000Y-108100000D03*
%TD*%
D14*
%TO.P,,1*%
%TO.N,VCC*%
X271315000Y-126300000D03*
%TO.P,,2*%
%TO.N,D1*%
X271315000Y-125650000D03*
%TO.P,,3*%
%TO.N,D0*%
X271315000Y-125000000D03*
%TO.P,,4*%
%TO.N,N/C*%
X271315000Y-124350000D03*
%TO.P,,5*%
%TO.N,GND*%
X271315000Y-123700000D03*
D15*
%TO.P,,6*%
%TO.N,N/C*%
X274015000Y-127900000D03*
D16*
X274015000Y-124000000D03*
X274015000Y-126000000D03*
D17*
X274015000Y-128500000D03*
D18*
X271315000Y-122500000D03*
X271315000Y-127500000D03*
D15*
X274015000Y-122100000D03*
D17*
X274015000Y-121500000D03*
%TD*%
D10*
%TO.P,S18,1*%
%TO.N,index_home*%
X231000000Y-123950000D03*
%TO.P,S18,2*%
%TO.N,B4*%
X226000000Y-121850000D03*
%TD*%
%TO.P,S13,1*%
%TO.N,middle_bottom*%
X212000000Y-137700000D03*
%TO.P,S13,2*%
%TO.N,B5*%
X207000000Y-135600000D03*
%TD*%
D12*
%TO.P,D21,1*%
%TO.N,inner_bottom*%
X241500000Y-141000000D03*
D13*
%TO.P,D21,2*%
%TO.N,D3*%
X248500000Y-141000000D03*
%TD*%
D10*
%TO.P,S10,1*%
%TO.N,ring_home*%
X193000000Y-123950000D03*
%TO.P,S10,2*%
%TO.N,B7*%
X188000000Y-121850000D03*
%TD*%
D12*
%TO.P,D22,1*%
%TO.N,inner_home*%
X241500000Y-123000000D03*
D13*
%TO.P,D22,2*%
%TO.N,D4*%
X248500000Y-123000000D03*
%TD*%
D11*
%TO.P,,1*%
%TO.N,N/C*%
X216500000Y-127750000D03*
%TD*%
D10*
%TO.P,S19,1*%
%TO.N,index_top*%
X231000000Y-105950000D03*
%TO.P,S19,2*%
%TO.N,B4*%
X226000000Y-103850000D03*
%TD*%
D12*
%TO.P,D12,1*%
%TO.N,ring_nums*%
X184500000Y-81750000D03*
D13*
%TO.P,D12,2*%
%TO.N,D7*%
X191500000Y-81750000D03*
%TD*%
D11*
%TO.P,,1*%
%TO.N,N/C*%
X206000000Y-173300000D03*
%TD*%
%TO.P,,1*%
%TO.N,N/C*%
X254500000Y-109750000D03*
%TD*%
D10*
%TO.P,S4,1*%
%TO.N,outer_nums*%
X155000000Y-91200000D03*
%TO.P,S4,2*%
%TO.N,F1*%
X150000000Y-89100000D03*
%TD*%
%TO.P,S20,1*%
%TO.N,index_nums*%
X231000000Y-86950000D03*
%TO.P,S20,2*%
%TO.N,B4*%
X226000000Y-84850000D03*
%TD*%
%TO.P,S9,1*%
%TO.N,ring_bottom*%
X193000000Y-141950000D03*
%TO.P,S9,2*%
%TO.N,B7*%
X188000000Y-139850000D03*
%TD*%
D12*
%TO.P,D19,1*%
%TO.N,index_top*%
X222500000Y-100750000D03*
D13*
%TO.P,D19,2*%
%TO.N,C6*%
X229500000Y-100750000D03*
%TD*%
D11*
%TO.P,,1*%
%TO.N,N/C*%
X257500000Y-159000000D03*
%TD*%
D10*
%TO.P,S17,1*%
%TO.N,index_bottom*%
X231000000Y-141950000D03*
%TO.P,S17,2*%
%TO.N,B4*%
X226000000Y-139850000D03*
%TD*%
D12*
%TO.P,REF\u002A\u002A,1*%
%TO.N,VCC*%
X257000000Y-122500000D03*
%TD*%
D10*
%TO.P,S24,1*%
%TO.N,inner_nums*%
X250000000Y-91200000D03*
%TO.P,S24,2*%
%TO.N,E6*%
X245000000Y-89100000D03*
%TD*%
D12*
%TO.P,D1,1*%
%TO.N,outer_bottom*%
X146500000Y-141000000D03*
D13*
%TO.P,D1,2*%
%TO.N,D3*%
X153500000Y-141000000D03*
%TD*%
D10*
%TO.P,M3,1*%
%TO.N,mr_diode*%
X274009007Y-171861454D03*
%TO.P,M3,2*%
%TO.N,E6*%
X278423745Y-174208812D03*
%TD*%
%TO.P,S25,1*%
%TO.N,inner_thumb*%
X253000000Y-175200000D03*
%TO.P,S25,2*%
%TO.N,B7*%
X248000000Y-173100000D03*
%TD*%
%TO.P,S2,1*%
%TO.N,outer_home*%
X155000000Y-128200000D03*
%TO.P,S2,2*%
%TO.N,F1*%
X150000000Y-126100000D03*
%TD*%
D11*
%TO.P,,1*%
%TO.N,N/C*%
X197500000Y-86500000D03*
%TD*%
%TO.P,,1*%
%TO.N,N/C*%
X216500000Y-109750000D03*
%TD*%
D10*
%TO.P,S3,1*%
%TO.N,outer_top*%
X155000000Y-110200000D03*
%TO.P,S3,2*%
%TO.N,F1*%
X150000000Y-108100000D03*
%TD*%
%TO.P,S14,1*%
%TO.N,middle_home*%
X212000000Y-119700000D03*
%TO.P,S14,2*%
%TO.N,B5*%
X207000000Y-117600000D03*
%TD*%
D12*
%TO.P,D11,1*%
%TO.N,ring_top*%
X184500000Y-100750000D03*
D13*
%TO.P,D11,2*%
%TO.N,C6*%
X191500000Y-100750000D03*
%TD*%
D11*
%TO.P,,1*%
%TO.N,N/C*%
X235500000Y-90750000D03*
%TD*%
D10*
%TO.P,M1,1*%
%TO.N,C7*%
X245500000Y-166000000D03*
%TO.P,M1,2*%
%TO.N,ml_diode*%
X250500000Y-166000000D03*
%TD*%
%TO.P,S5,1*%
%TO.N,pinky_bottom*%
X174000000Y-146200000D03*
%TO.P,S5,2*%
%TO.N,C7*%
X169000000Y-144100000D03*
%TD*%
%TO.P,S26,1*%
%TO.N,far_thumb*%
X276311976Y-183505609D03*
%TO.P,S26,2*%
%TO.N,B4*%
X272883128Y-179304061D03*
%TD*%
D12*
%TO.P,D31,1*%
%TO.N,far_thumb*%
X178500000Y-147500000D03*
D13*
%TO.P,D31,2*%
%TO.N,F0*%
X178500000Y-140500000D03*
%TD*%
D12*
%TO.P,D6,1*%
%TO.N,pinky_home*%
X165500000Y-123000000D03*
D13*
%TO.P,D6,2*%
%TO.N,D4*%
X172500000Y-123000000D03*
%TD*%
D12*
%TO.P,D9,1*%
%TO.N,ring_bottom*%
X184500000Y-136750000D03*
D13*
%TO.P,D9,2*%
%TO.N,D3*%
X191500000Y-136750000D03*
%TD*%
D19*
%TO.P,,1*%
%TO.N,D3*%
X258380000Y-90030000D03*
D20*
%TO.P,,2*%
%TO.N,D2*%
X258380000Y-92570000D03*
%TO.P,,3*%
%TO.N,GND*%
X258380000Y-95110000D03*
%TO.P,,4*%
X258380000Y-97650000D03*
%TO.P,,5*%
%TO.N,D1*%
X258380000Y-100190000D03*
%TO.P,,6*%
%TO.N,D0*%
X258380000Y-102730000D03*
%TO.P,,7*%
%TO.N,D4*%
X258380000Y-105270000D03*
%TO.P,,8*%
%TO.N,C6*%
X258380000Y-107810000D03*
%TO.P,,9*%
%TO.N,D7*%
X258380000Y-110350000D03*
%TO.P,,10*%
%TO.N,E6*%
X258380000Y-112890000D03*
%TO.P,,11*%
%TO.N,B4*%
X258380000Y-115430000D03*
%TO.P,,12*%
%TO.N,B5*%
X258380000Y-117970000D03*
%TO.P,,13*%
%TO.N,B6*%
X273620000Y-117970000D03*
%TO.P,,14*%
%TO.N,B2*%
X273620000Y-115430000D03*
%TO.P,,15*%
%TO.N,B3*%
X273620000Y-112890000D03*
%TO.P,,16*%
%TO.N,B1*%
X273620000Y-110350000D03*
%TO.P,,17*%
%TO.N,F7*%
X273620000Y-107810000D03*
%TO.P,,18*%
%TO.N,F6*%
X273620000Y-105270000D03*
%TO.P,,19*%
%TO.N,F5*%
X273620000Y-102730000D03*
%TO.P,,20*%
%TO.N,F4*%
X273620000Y-100190000D03*
%TO.P,,21*%
%TO.N,VCC*%
X273620000Y-97650000D03*
%TO.P,,22*%
%TO.N,RST*%
X273620000Y-95110000D03*
%TO.P,,23*%
%TO.N,GND*%
X273620000Y-92570000D03*
%TO.P,,24*%
%TO.N,VCC*%
X273620000Y-90030000D03*
%TO.P,,25*%
%TO.N,B7*%
X260920000Y-117970000D03*
%TO.P,,26*%
%TO.N,D5*%
X263460000Y-117970000D03*
%TO.P,,27*%
%TO.N,C7*%
X266000000Y-117970000D03*
%TO.P,,28*%
%TO.N,F1*%
X268540000Y-117970000D03*
%TO.P,,29*%
%TO.N,F0*%
X271080000Y-117970000D03*
%TD*%
D10*
%TO.P,S15,1*%
%TO.N,middle_top*%
X212000000Y-101700000D03*
%TO.P,S15,2*%
%TO.N,B5*%
X207000000Y-99600000D03*
%TD*%
D12*
%TO.P,D13,1*%
%TO.N,middle_bottom*%
X203500000Y-132500000D03*
D13*
%TO.P,D13,2*%
%TO.N,D3*%
X210500000Y-132500000D03*
%TD*%
D12*
%TO.P,D4,1*%
%TO.N,outer_nums*%
X146500000Y-86000000D03*
D13*
%TO.P,D4,2*%
%TO.N,D7*%
X153500000Y-86000000D03*
%TD*%
D12*
%TO.P,D32,1*%
%TO.N,trackpoint_reset*%
X197500000Y-143250000D03*
D13*
%TO.P,D32,2*%
%TO.N,GND*%
X197500000Y-136250000D03*
%TD*%
D12*
%TO.P,D3,1*%
%TO.N,outer_top*%
X146500000Y-105000000D03*
D13*
%TO.P,D3,2*%
%TO.N,C6*%
X153500000Y-105000000D03*
%TD*%
D11*
%TO.P,,1*%
%TO.N,N/C*%
X159500000Y-95000000D03*
%TD*%
%TO.P,,1*%
%TO.N,N/C*%
X219000000Y-184700000D03*
%TD*%
D12*
%TO.P,D24,1*%
%TO.N,inner_nums*%
X241500000Y-86000000D03*
D13*
%TO.P,D24,2*%
%TO.N,D7*%
X248500000Y-86000000D03*
%TD*%
D12*
%TO.P,D10,1*%
%TO.N,ring_home*%
X184500000Y-118750000D03*
D13*
%TO.P,D10,2*%
%TO.N,D4*%
X191500000Y-118750000D03*
%TD*%
D12*
%TO.P,D27,1*%
%TO.N,ml_diode*%
X159500000Y-129500000D03*
D13*
%TO.P,D27,2*%
%TO.N,F0*%
X159500000Y-122500000D03*
%TD*%
D12*
%TO.P,D29,1*%
%TO.N,mr_diode*%
X178500000Y-123500000D03*
D13*
%TO.P,D29,2*%
%TO.N,F0*%
X178500000Y-116500000D03*
%TD*%
D11*
%TO.P,,1*%
%TO.N,N/C*%
X226000000Y-154750000D03*
%TD*%
D12*
%TO.P,D23,1*%
%TO.N,inner_top*%
X241500000Y-105000000D03*
D13*
%TO.P,D23,2*%
%TO.N,C6*%
X248500000Y-105000000D03*
%TD*%
D12*
%TO.P,D14,1*%
%TO.N,middle_home*%
X203500000Y-114500000D03*
D13*
%TO.P,D14,2*%
%TO.N,D4*%
X210500000Y-114500000D03*
%TD*%
D12*
%TO.P,D18,1*%
%TO.N,index_home*%
X222500000Y-118750000D03*
D13*
%TO.P,D18,2*%
%TO.N,D4*%
X229500000Y-118750000D03*
%TD*%
D10*
%TO.P,S12,1*%
%TO.N,ring_nums*%
X193000000Y-86950000D03*
%TO.P,S12,2*%
%TO.N,B7*%
X188000000Y-84850000D03*
%TD*%
D12*
%TO.P,D2,1*%
%TO.N,outer_home*%
X146500000Y-123000000D03*
D13*
%TO.P,D2,2*%
%TO.N,D4*%
X153500000Y-123000000D03*
%TD*%
D12*
%TO.P,D5,1*%
%TO.N,pinky_bottom*%
X165500000Y-141000000D03*
D13*
%TO.P,D5,2*%
%TO.N,D3*%
X172500000Y-141000000D03*
%TD*%
D10*
%TO.P,S8,1*%
%TO.N,pinky_nums*%
X174000000Y-91200000D03*
%TO.P,S8,2*%
%TO.N,C7*%
X169000000Y-89100000D03*
%TD*%
D11*
%TO.P,,1*%
%TO.N,N/C*%
X271114675Y-162394520D03*
%TD*%
D12*
%TO.P,D34,1*%
%TO.N,VCC*%
X197500000Y-119250000D03*
D13*
%TO.P,D34,2*%
%TO.N,D5*%
X197500000Y-112250000D03*
%TD*%
D12*
%TO.P,REF\u002A\u002A,1*%
%TO.N,trackpoint_reset*%
X259500000Y-122500000D03*
%TD*%
D21*
%TO.N,B7*%
X189485184Y-141285184D03*
%TO.N,B5*%
X214000000Y-141000000D03*
%TO.N,B4*%
X226214461Y-141985539D03*
%TO.N,F0*%
X251800000Y-130600000D03*
X257000000Y-131600000D03*
X264600000Y-124000000D03*
%TO.N,GND*%
X268600000Y-123600000D03*
X265601161Y-95626739D03*
X263000000Y-123200000D03*
X265600000Y-120600000D03*
%TO.N,VCC*%
X268800000Y-126800000D03*
%TO.N,D2*%
X253200000Y-94000000D03*
X202200000Y-92000000D03*
%TO.N,D5*%
X251600000Y-117800000D03*
X210400000Y-112400000D03*
X206350000Y-112250000D03*
%TO.N,B6*%
X247592570Y-159218550D03*
X266600000Y-131200000D03*
%TO.N,trackpoint_reset*%
X266800000Y-142800000D03*
%TD*%
D22*
%TO.N,outer_bottom*%
X146500000Y-141000000D02*
X149800000Y-141000000D01*
X149800000Y-141000000D02*
X155000000Y-146200000D01*
%TO.N,outer_home*%
X149800000Y-123000000D02*
X155000000Y-128200000D01*
X146500000Y-123000000D02*
X149800000Y-123000000D01*
%TO.N,outer_top*%
X149800000Y-105000000D02*
X155000000Y-110200000D01*
X146500000Y-105000000D02*
X149800000Y-105000000D01*
%TO.N,outer_nums*%
X149800000Y-86000000D02*
X155000000Y-91200000D01*
X146500000Y-86000000D02*
X149800000Y-86000000D01*
%TO.N,pinky_bottom*%
X165500000Y-141000000D02*
X168800000Y-141000000D01*
X168800000Y-141000000D02*
X174000000Y-146200000D01*
%TO.N,pinky_home*%
X165500000Y-123000000D02*
X168800000Y-123000000D01*
X168800000Y-123000000D02*
X174000000Y-128200000D01*
%TO.N,pinky_top*%
X168800000Y-105000000D02*
X174000000Y-110200000D01*
X165500000Y-105000000D02*
X168800000Y-105000000D01*
%TO.N,pinky_nums*%
X168800000Y-86000000D02*
X174000000Y-91200000D01*
X165500000Y-86000000D02*
X168800000Y-86000000D01*
%TO.N,ring_bottom*%
X184500000Y-136750000D02*
X187800000Y-136750000D01*
X187800000Y-136750000D02*
X193000000Y-141950000D01*
%TO.N,B7*%
X189435184Y-141285184D02*
X188000000Y-139850000D01*
X189485184Y-141285184D02*
X189435184Y-141285184D01*
%TO.N,ring_home*%
X187968978Y-118750000D02*
X193000000Y-123781022D01*
X184500000Y-118750000D02*
X187968978Y-118750000D01*
X193000000Y-123781022D02*
X193000000Y-123950000D01*
%TO.N,ring_top*%
X187800000Y-100750000D02*
X193000000Y-105950000D01*
X184500000Y-100750000D02*
X187800000Y-100750000D01*
%TO.N,ring_nums*%
X187800000Y-81750000D02*
X193000000Y-86950000D01*
X184500000Y-81750000D02*
X187800000Y-81750000D01*
%TO.N,middle_bottom*%
X206100000Y-132500000D02*
X211300000Y-137700000D01*
X203500000Y-132500000D02*
X206100000Y-132500000D01*
X211300000Y-137700000D02*
X212000000Y-137700000D01*
%TO.N,B5*%
X212040511Y-139040511D02*
X210440511Y-139040511D01*
X214000000Y-141000000D02*
X212040511Y-139040511D01*
X210440511Y-139040511D02*
X207000000Y-135600000D01*
%TO.N,middle_home*%
X203500000Y-114500000D02*
X206800000Y-114500000D01*
X206800000Y-114500000D02*
X212000000Y-119700000D01*
%TO.N,middle_top*%
X203500000Y-96500000D02*
X206800000Y-96500000D01*
X206800000Y-96500000D02*
X212000000Y-101700000D01*
%TO.N,middle_nums*%
X206800000Y-77500000D02*
X212000000Y-82700000D01*
X203500000Y-77500000D02*
X206800000Y-77500000D01*
%TO.N,index_bottom*%
X229995770Y-141950000D02*
X231000000Y-141950000D01*
X222500000Y-136750000D02*
X224795770Y-136750000D01*
X224795770Y-136750000D02*
X229995770Y-141950000D01*
%TO.N,B4*%
X226000000Y-141771078D02*
X226000000Y-139850000D01*
X226214461Y-141985539D02*
X226000000Y-141771078D01*
%TO.N,index_home*%
X225800000Y-118750000D02*
X231000000Y-123950000D01*
X222500000Y-118750000D02*
X225800000Y-118750000D01*
%TO.N,index_top*%
X225800000Y-100750000D02*
X231000000Y-105950000D01*
X222500000Y-100750000D02*
X225800000Y-100750000D01*
%TO.N,index_nums*%
X225800000Y-81750000D02*
X231000000Y-86950000D01*
X222500000Y-81750000D02*
X225800000Y-81750000D01*
%TO.N,inner_bottom*%
X244800000Y-141000000D02*
X250000000Y-146200000D01*
X241500000Y-141000000D02*
X244800000Y-141000000D01*
%TO.N,inner_home*%
X241500000Y-123000000D02*
X244800000Y-123000000D01*
X244800000Y-123000000D02*
X250000000Y-128200000D01*
%TO.N,inner_top*%
X244800000Y-105000000D02*
X250000000Y-110200000D01*
X241500000Y-105000000D02*
X244800000Y-105000000D01*
%TO.N,inner_nums*%
X241500000Y-86000000D02*
X244800000Y-86000000D01*
X244800000Y-86000000D02*
X250000000Y-91200000D01*
%TO.N,inner_thumb*%
X175033008Y-148800000D02*
X173773519Y-147540511D01*
X248550480Y-165321916D02*
X245428564Y-162200000D01*
X182451440Y-148748560D02*
X182400000Y-148800000D01*
X245428564Y-162200000D02*
X219657128Y-162200000D01*
X165540511Y-147540511D02*
X159500000Y-141500000D01*
X219657128Y-162200000D02*
X206205688Y-148748560D01*
X206205688Y-148748560D02*
X182451440Y-148748560D01*
X253000000Y-171635718D02*
X248550480Y-167186197D01*
X248550480Y-167186197D02*
X248550480Y-165321916D01*
X173773519Y-147540511D02*
X165540511Y-147540511D01*
X253000000Y-175200000D02*
X253000000Y-171635718D01*
X182400000Y-148800000D02*
X175033008Y-148800000D01*
%TO.N,far_thumb*%
X178500000Y-147500000D02*
X179299040Y-148299040D01*
X249000000Y-167000000D02*
X262644572Y-180644572D01*
X273450939Y-180644572D02*
X276311976Y-183505609D01*
X179299040Y-148299040D02*
X206391886Y-148299040D01*
X245612842Y-161748560D02*
X249000000Y-165135718D01*
X219841406Y-161748560D02*
X245612842Y-161748560D01*
X249000000Y-165135718D02*
X249000000Y-167000000D01*
X262644572Y-180644572D02*
X273450939Y-180644572D01*
X206391886Y-148299040D02*
X219841406Y-161748560D01*
%TO.N,D3*%
X172500000Y-141000000D02*
X177222989Y-136277011D01*
X255400000Y-106877848D02*
X255400000Y-93010000D01*
X191500000Y-136750000D02*
X191500000Y-127900000D01*
X248500000Y-141000000D02*
X253105479Y-136394521D01*
X158971044Y-128222989D02*
X161455997Y-128222989D01*
X191500000Y-127900000D02*
X196400000Y-123000000D01*
X172500000Y-139266992D02*
X172500000Y-141000000D01*
X199266992Y-123000000D02*
X208766992Y-132500000D01*
X177777011Y-122222989D02*
X179028956Y-122222989D01*
X177222989Y-136277011D02*
X177222989Y-122777011D01*
X158222989Y-136277011D02*
X158222989Y-128971044D01*
X253105479Y-136394521D02*
X253105479Y-109172369D01*
X255400000Y-93010000D02*
X258380000Y-90030000D01*
X253105479Y-109172369D02*
X255400000Y-106877848D01*
X177222989Y-122777011D02*
X177777011Y-122222989D01*
X161455997Y-128222989D02*
X172500000Y-139266992D01*
X196400000Y-123000000D02*
X199266992Y-123000000D01*
X179028956Y-122222989D02*
X191500000Y-134694033D01*
X208766992Y-132500000D02*
X210500000Y-132500000D01*
X158222989Y-128971044D02*
X158971044Y-128222989D01*
X225250000Y-132500000D02*
X229500000Y-136750000D01*
X153500000Y-141000000D02*
X158222989Y-136277011D01*
X191500000Y-134694033D02*
X191500000Y-136750000D01*
X229500000Y-136750000D02*
X244250000Y-136750000D01*
X210500000Y-132500000D02*
X225250000Y-132500000D01*
X244250000Y-136750000D02*
X248500000Y-141000000D01*
%TO.N,D4*%
X248500000Y-123000000D02*
X242105479Y-116605479D01*
X225250000Y-114500000D02*
X210500000Y-114500000D01*
X252655959Y-118844041D02*
X252655959Y-108986172D01*
X210500000Y-114500000D02*
X207036489Y-111036489D01*
X170773469Y-121273469D02*
X155226531Y-121273469D01*
X207036489Y-111036489D02*
X196363511Y-111036489D01*
X188036489Y-115286489D02*
X177286489Y-115286489D01*
X196363511Y-111036489D02*
X191500000Y-115900000D01*
X191500000Y-118750000D02*
X188036489Y-115286489D01*
X172500000Y-120072978D02*
X172500000Y-123000000D01*
X155226531Y-121273469D02*
X153500000Y-123000000D01*
X254950480Y-106691651D02*
X254950480Y-90810498D01*
X254950480Y-90810498D02*
X257055489Y-88705489D01*
X260400000Y-103250000D02*
X258380000Y-105270000D01*
X231644521Y-116605479D02*
X229500000Y-118750000D01*
X177286489Y-115286489D02*
X172500000Y-120072978D01*
X260400000Y-89400000D02*
X260400000Y-103250000D01*
X259705489Y-88705489D02*
X260400000Y-89400000D01*
X229500000Y-118750000D02*
X225250000Y-114500000D01*
X248500000Y-123000000D02*
X252655959Y-118844041D01*
X257055489Y-88705489D02*
X259705489Y-88705489D01*
X242105479Y-116605479D02*
X231644521Y-116605479D01*
X172500000Y-123000000D02*
X170773469Y-121273469D01*
X191500000Y-115900000D02*
X191500000Y-118750000D01*
X252655959Y-108986172D02*
X254950480Y-106691651D01*
%TO.N,C6*%
X254500960Y-90624301D02*
X256869292Y-88255969D01*
X252900960Y-105000000D02*
X254500960Y-103400000D01*
X171222989Y-103722989D02*
X172500000Y-105000000D01*
X154777011Y-103722989D02*
X171222989Y-103722989D01*
X153500000Y-105000000D02*
X154777011Y-103722989D01*
X178027011Y-99472989D02*
X190222989Y-99472989D01*
X225250000Y-96500000D02*
X229500000Y-100750000D01*
X229500000Y-100750000D02*
X244250000Y-100750000D01*
X260849520Y-89213802D02*
X260849520Y-105340480D01*
X260849520Y-105340480D02*
X258380000Y-107810000D01*
X209222989Y-95222989D02*
X210500000Y-96500000D01*
X172500000Y-105000000D02*
X178027011Y-99472989D01*
X259891687Y-88255969D02*
X260849520Y-89213802D01*
X244250000Y-100750000D02*
X248500000Y-105000000D01*
X254500960Y-103400000D02*
X254500960Y-90624301D01*
X248500000Y-105000000D02*
X252900960Y-105000000D01*
X190222989Y-99472989D02*
X191500000Y-100750000D01*
X210500000Y-96500000D02*
X225250000Y-96500000D01*
X197027011Y-95222989D02*
X209222989Y-95222989D01*
X256869292Y-88255969D02*
X259891687Y-88255969D01*
X191500000Y-100750000D02*
X197027011Y-95222989D01*
%TO.N,D7*%
X153500000Y-86000000D02*
X154777011Y-84722989D01*
X190222989Y-80472989D02*
X191500000Y-81750000D01*
X176282163Y-86000000D02*
X181809174Y-80472989D01*
X261299040Y-89027605D02*
X261299040Y-107430960D01*
X209200000Y-76200000D02*
X210500000Y-77500000D01*
X191500000Y-81750000D02*
X195282163Y-81750000D01*
X210500000Y-77500000D02*
X213000000Y-80000000D01*
X171222989Y-84722989D02*
X172500000Y-86000000D01*
X246699520Y-84199520D02*
X248500000Y-86000000D01*
X261299040Y-107430960D02*
X258380000Y-110350000D01*
X154777011Y-84722989D02*
X171222989Y-84722989D01*
X229500000Y-81750000D02*
X231949520Y-84199520D01*
X258271434Y-86000000D02*
X261299040Y-89027605D01*
X231949520Y-84199520D02*
X246699520Y-84199520D01*
X195282163Y-81750000D02*
X200832163Y-76200000D01*
X181809174Y-80472989D02*
X190222989Y-80472989D01*
X227750000Y-80000000D02*
X229500000Y-81750000D01*
X248500000Y-86000000D02*
X258271434Y-86000000D01*
X213000000Y-80000000D02*
X227750000Y-80000000D01*
X200832163Y-76200000D02*
X209200000Y-76200000D01*
X172500000Y-86000000D02*
X176282163Y-86000000D01*
%TO.N,F0*%
X194980522Y-119963511D02*
X201744033Y-113200000D01*
X171299509Y-124226531D02*
X173573469Y-124226531D01*
X168795967Y-121722989D02*
X171299509Y-124226531D01*
X217744033Y-115800000D02*
X231484544Y-129540511D01*
X173573469Y-124226531D02*
X178500000Y-119300000D01*
X178500000Y-116500000D02*
X179700000Y-116500000D01*
X206772978Y-113200000D02*
X209372978Y-115800000D01*
X190286489Y-119963511D02*
X194980522Y-119963511D01*
X179700000Y-116500000D02*
X180400000Y-115800000D01*
X159500000Y-122500000D02*
X160277011Y-121722989D01*
X180400000Y-115800000D02*
X186122978Y-115800000D01*
X209372978Y-115800000D02*
X217744033Y-115800000D01*
X201744033Y-113200000D02*
X206772978Y-113200000D01*
X257000000Y-131600000D02*
X264600000Y-124000000D01*
X231484544Y-129540511D02*
X250859489Y-129540511D01*
X178500000Y-119300000D02*
X178500000Y-116500000D01*
X160277011Y-121722989D02*
X168795967Y-121722989D01*
X251800000Y-130481022D02*
X251800000Y-130600000D01*
X250859489Y-129540511D02*
X251800000Y-130481022D01*
X186122978Y-115800000D02*
X190286489Y-119963511D01*
%TO.N,GND*%
X228100292Y-138413031D02*
X231022687Y-138413031D01*
X223118630Y-133431370D02*
X228100292Y-138413031D01*
X268600000Y-123600000D02*
X265600000Y-120600000D01*
X212631370Y-133431370D02*
X223118630Y-133431370D01*
X270590000Y-95600000D02*
X273620000Y-92570000D01*
X258380000Y-95110000D02*
X258380000Y-97650000D01*
X231022687Y-138413031D02*
X231786677Y-137649040D01*
X254004519Y-136766915D02*
X254004519Y-132200000D01*
X246350480Y-141913220D02*
X247100292Y-142663031D01*
X209186781Y-134249520D02*
X211813220Y-134249520D01*
X254004519Y-132200000D02*
X260204519Y-126000000D01*
X250449520Y-140321916D02*
X252171435Y-138600000D01*
X260204519Y-125995481D02*
X263000000Y-123200000D01*
X249899709Y-142663031D02*
X250449520Y-142113219D01*
X260204519Y-126000000D02*
X260204519Y-125995481D01*
X211813220Y-134249520D02*
X212631370Y-133431370D01*
X246350480Y-140121916D02*
X246350480Y-141913220D01*
X268700000Y-123700000D02*
X271315000Y-123700000D01*
X197500000Y-136250000D02*
X199000000Y-134750000D01*
X243877604Y-137649040D02*
X246350480Y-140121916D01*
X252171435Y-138600000D02*
X254004519Y-136766915D01*
X199000000Y-134750000D02*
X199000000Y-131000000D01*
X268600000Y-123600000D02*
X268700000Y-123700000D01*
X265627900Y-95600000D02*
X270590000Y-95600000D01*
X265601161Y-95626739D02*
X265627900Y-95600000D01*
X205937260Y-131000000D02*
X209186781Y-134249520D01*
X247100292Y-142663031D02*
X249899709Y-142663031D01*
X231786677Y-137649040D02*
X243877604Y-137649040D01*
X199000000Y-131000000D02*
X205937260Y-131000000D01*
X250449520Y-142113219D02*
X250449520Y-140321916D01*
%TO.N,VCC*%
X209372978Y-133800000D02*
X211627022Y-133800000D01*
X272240000Y-126300000D02*
X271315000Y-126300000D01*
X212477502Y-132949520D02*
X223272498Y-132949520D01*
X272400000Y-121696735D02*
X272400000Y-126140000D01*
X231600480Y-137199520D02*
X244063802Y-137199520D01*
X253554999Y-136580718D02*
X253554999Y-130445001D01*
X246800000Y-139935718D02*
X246800000Y-141727022D01*
X211627022Y-133800000D02*
X212477502Y-132949520D01*
X223272498Y-132949520D02*
X228286489Y-137963511D01*
X263000000Y-121000000D02*
X258500000Y-121000000D01*
X230836489Y-137963511D02*
X231600480Y-137199520D01*
X257000000Y-122500000D02*
X257000000Y-127000000D01*
X253554999Y-130445001D02*
X254500000Y-129500000D01*
X274944511Y-96325489D02*
X273620000Y-97650000D01*
X272400000Y-126140000D02*
X272240000Y-126300000D01*
X247286489Y-142213511D02*
X249713511Y-142213511D01*
X250000000Y-140135718D02*
X253554999Y-136580718D01*
X268800000Y-126800000D02*
X269300000Y-126300000D01*
X274944511Y-98974511D02*
X274944511Y-119152224D01*
X274944511Y-119152224D02*
X272400000Y-121696735D01*
X249713511Y-142213511D02*
X250000000Y-141927022D01*
X197500000Y-131250000D02*
X198452500Y-130297500D01*
X268800000Y-126800000D02*
X263000000Y-121000000D01*
X244063802Y-137199520D02*
X246800000Y-139935718D01*
X250000000Y-141927022D02*
X250000000Y-140135718D01*
X258500000Y-121000000D02*
X257000000Y-122500000D01*
X269300000Y-126300000D02*
X271315000Y-126300000D01*
X273620000Y-90030000D02*
X274944511Y-91354511D01*
X246800000Y-141727022D02*
X247286489Y-142213511D01*
X274944511Y-91354511D02*
X274944511Y-96325489D01*
X228286489Y-137963511D02*
X230836489Y-137963511D01*
X198452500Y-130297500D02*
X205870478Y-130297500D01*
X273620000Y-97650000D02*
X274944511Y-98974511D01*
X205870478Y-130297500D02*
X209372978Y-133800000D01*
X257000000Y-127000000D02*
X254500000Y-129500000D01*
%TO.N,D2*%
X211200491Y-94773469D02*
X204973469Y-94773469D01*
X212427022Y-96000000D02*
X211200491Y-94773469D01*
X231400000Y-100300480D02*
X229206661Y-98107141D01*
X229206661Y-98107141D02*
X227492859Y-98107141D01*
X204973469Y-94773469D02*
X202200000Y-92000000D01*
X246932528Y-100300480D02*
X231400000Y-100300480D01*
X225385717Y-96000000D02*
X212427022Y-96000000D01*
X227492859Y-98107141D02*
X225385717Y-96000000D01*
X253200000Y-94000000D02*
X253200000Y-94033008D01*
X253200000Y-94033008D02*
X246932528Y-100300480D01*
%TO.N,D1*%
X263186197Y-120550480D02*
X258350480Y-120550480D01*
X258350480Y-120550480D02*
X256449520Y-120550480D01*
X268285718Y-125650000D02*
X263186197Y-120550480D01*
X256600000Y-118800000D02*
X256600000Y-101970000D01*
X271315000Y-125650000D02*
X268285718Y-125650000D01*
X256449520Y-120550480D02*
X254500000Y-122500000D01*
X256600000Y-101970000D02*
X258380000Y-100190000D01*
X258350480Y-120550480D02*
X256600000Y-118800000D01*
%TO.N,D0*%
X263372394Y-120100960D02*
X258637817Y-120100960D01*
X258637817Y-120100960D02*
X257055489Y-118518632D01*
X257055489Y-118518632D02*
X257055489Y-104054511D01*
X268271436Y-125000000D02*
X263372394Y-120100960D01*
X271315000Y-125000000D02*
X268271436Y-125000000D01*
X257055489Y-104054511D02*
X258380000Y-102730000D01*
%TO.N,D5*%
X197500000Y-112250000D02*
X206350000Y-112250000D01*
X249955959Y-116155959D02*
X227541676Y-116155959D01*
X227541676Y-116155959D02*
X225436197Y-114050480D01*
X211749520Y-112400000D02*
X210400000Y-112400000D01*
X251600000Y-117800000D02*
X249955959Y-116155959D01*
X206550000Y-112250000D02*
X206600000Y-112200000D01*
X213400000Y-114050480D02*
X211749520Y-112400000D01*
X206350000Y-112250000D02*
X206550000Y-112250000D01*
X225436197Y-114050480D02*
X213400000Y-114050480D01*
%TO.N,B6*%
X266600000Y-131200000D02*
X266600000Y-140600000D01*
X266600000Y-140600000D02*
X247981450Y-159218550D01*
X247981450Y-159218550D02*
X247592570Y-159218550D01*
%TO.N,ml_diode*%
X206578084Y-147849520D02*
X188010499Y-147849520D01*
X250500000Y-166000000D02*
X245799040Y-161299040D01*
X188000000Y-147839021D02*
X181239021Y-147839021D01*
X175800000Y-142400000D02*
X171472978Y-142400000D01*
X220027604Y-161299040D02*
X206578084Y-147849520D01*
X159500000Y-130427022D02*
X159500000Y-129500000D01*
X181239021Y-147839021D02*
X175800000Y-142400000D01*
X245799040Y-161299040D02*
X220027604Y-161299040D01*
X171472978Y-142400000D02*
X159500000Y-130427022D01*
X188010499Y-147849520D02*
X188000000Y-147839021D01*
%TO.N,mm_diode*%
X180704323Y-135500000D02*
X192604323Y-147400000D01*
X220213802Y-160849520D02*
X252170454Y-160849520D01*
X192604323Y-147400000D02*
X206764282Y-147400000D01*
X178500000Y-135500000D02*
X180704323Y-135500000D01*
X206764282Y-147400000D02*
X220213802Y-160849520D01*
X252170454Y-160849520D02*
X263925739Y-172604805D01*
%TO.N,mr_diode*%
X264480998Y-171264294D02*
X263220946Y-171264294D01*
X194340511Y-141394741D02*
X193555259Y-140609489D01*
X252356652Y-160400000D02*
X220400000Y-160400000D01*
X192932467Y-140609489D02*
X178500000Y-126177022D01*
X274009007Y-171861454D02*
X265078158Y-171861454D01*
X220400000Y-160400000D02*
X206950480Y-146950480D01*
X199273458Y-146950480D02*
X194340511Y-142017533D01*
X194340511Y-142017533D02*
X194340511Y-141394741D01*
X206950480Y-146950480D02*
X199273458Y-146950480D01*
X178500000Y-126177022D02*
X178500000Y-123500000D01*
X265078158Y-171861454D02*
X264480998Y-171264294D01*
X263220946Y-171264294D02*
X252356652Y-160400000D01*
X193555259Y-140609489D02*
X192932467Y-140609489D01*
%TO.N,trackpoint_reset*%
X247885238Y-159950480D02*
X265035718Y-142800000D01*
X220586198Y-159950480D02*
X247885238Y-159950480D01*
X197500000Y-143250000D02*
X197500000Y-144541304D01*
X199459656Y-146500960D02*
X207136678Y-146500960D01*
X197500000Y-144541304D02*
X199459656Y-146500960D01*
X207136678Y-146500960D02*
X220586198Y-159950480D01*
X265035718Y-142800000D02*
X266800000Y-142800000D01*
%TD*%
M02*
