%TF.GenerationSoftware,KiCad,Pcbnew,(6.0.4)*%
%TF.CreationDate,2023-12-12T22:20:10-08:00*%
%TF.ProjectId,keyboard,6b657962-6f61-4726-942e-6b696361645f,v1.0.0*%
%TF.SameCoordinates,Original*%
%TF.FileFunction,Profile,NP*%
%FSLAX46Y46*%
G04 Gerber Fmt 4.6, Leading zero omitted, Abs format (unit mm)*
G04 Created by KiCad (PCBNEW (6.0.4)) date 2023-12-12 22:20:10*
%MOMM*%
%LPD*%
G01*
G04 APERTURE LIST*
%TA.AperFunction,Profile*%
%ADD10C,0.150000*%
%TD*%
G04 APERTURE END LIST*
D10*
X216000000Y-75500000D02*
X198000000Y-75500000D01*
X236000000Y-84000000D02*
X275000000Y-84000000D01*
X288566910Y-171107753D02*
G75*
G03*
X288153414Y-169755323I-883010J469453D01*
G01*
X236000000Y-80750000D02*
G75*
G03*
X235000000Y-79750000I-1000000J0D01*
G01*
X276000000Y-163293238D02*
X276000000Y-85000000D01*
X140000000Y-160000000D02*
G75*
G03*
X141000000Y-161000000I1000000J0D01*
G01*
X140000000Y-160000000D02*
X140000000Y-85000000D01*
X141000000Y-84000000D02*
G75*
G03*
X140000000Y-85000000I0J-1000000D01*
G01*
X272895608Y-198451080D02*
G75*
G03*
X274248006Y-198037644I469492J882880D01*
G01*
X257002531Y-190000631D02*
X272895587Y-198451119D01*
X198000000Y-75500000D02*
G75*
G03*
X197000000Y-76500000I0J-1000000D01*
G01*
X236000000Y-84000000D02*
X236000000Y-80750000D01*
X179000000Y-79750000D02*
G75*
G03*
X178000000Y-80750000I0J-1000000D01*
G01*
X178000000Y-80750000D02*
X178000000Y-84000000D01*
X141000000Y-161000000D02*
X177966667Y-161000000D01*
X197000000Y-76500000D02*
X197000000Y-79750000D01*
X206000000Y-190000000D02*
X257000000Y-190000000D01*
X217000000Y-79750000D02*
X217000000Y-76500000D01*
X177966667Y-161000000D02*
X206000000Y-190000000D01*
X288153413Y-169755322D02*
X276000000Y-163293238D01*
X217000000Y-76500000D02*
G75*
G03*
X216000000Y-75500000I-1000000J0D01*
G01*
X179000000Y-79750000D02*
X197000000Y-79750000D01*
X274248007Y-198037643D02*
X288566889Y-171107741D01*
X257001344Y-189999999D02*
G75*
G03*
X257002531Y-190000631I452656J848799D01*
G01*
X217000000Y-79750000D02*
X235000000Y-79750000D01*
X276000000Y-85000000D02*
G75*
G03*
X275000000Y-84000000I-1000000J0D01*
G01*
X141000000Y-84000000D02*
X178000000Y-84000000D01*
M02*
