%TF.GenerationSoftware,KiCad,Pcbnew,(6.0.4)*%
%TF.CreationDate,2023-12-12T22:20:10-08:00*%
%TF.ProjectId,keyboard,6b657962-6f61-4726-942e-6b696361645f,v1.0.0*%
%TF.SameCoordinates,Original*%
%TF.FileFunction,Legend,Bot*%
%TF.FilePolarity,Positive*%
%FSLAX46Y46*%
G04 Gerber Fmt 4.6, Leading zero omitted, Abs format (unit mm)*
G04 Created by KiCad (PCBNEW (6.0.4)) date 2023-12-12 22:20:10*
%MOMM*%
%LPD*%
G01*
G04 APERTURE LIST*
%ADD10C,0.150000*%
%ADD11C,0.000000*%
%ADD12C,0.120000*%
%ADD13R,2.000000X2.000000*%
%ADD14C,2.000000*%
G04 APERTURE END LIST*
D10*
X154619047Y-154052380D02*
X154619047Y-154766666D01*
X154666666Y-154909523D01*
X154761904Y-155004761D01*
X154904761Y-155052380D01*
X155000000Y-155052380D01*
X153666666Y-155052380D02*
X154142857Y-155052380D01*
X154142857Y-154052380D01*
X152761904Y-154957142D02*
X152809523Y-155004761D01*
X152952380Y-155052380D01*
X153047619Y-155052380D01*
X153190476Y-155004761D01*
X153285714Y-154909523D01*
X153333333Y-154814285D01*
X153380952Y-154623809D01*
X153380952Y-154480952D01*
X153333333Y-154290476D01*
X153285714Y-154195238D01*
X153190476Y-154100000D01*
X153047619Y-154052380D01*
X152952380Y-154052380D01*
X152809523Y-154100000D01*
X152761904Y-154147619D01*
X152047619Y-154052380D02*
X152047619Y-154766666D01*
X152095238Y-154909523D01*
X152190476Y-155004761D01*
X152333333Y-155052380D01*
X152428571Y-155052380D01*
X151095238Y-155052380D02*
X151571428Y-155052380D01*
X151571428Y-154052380D01*
X150190476Y-154957142D02*
X150238095Y-155004761D01*
X150380952Y-155052380D01*
X150476190Y-155052380D01*
X150619047Y-155004761D01*
X150714285Y-154909523D01*
X150761904Y-154814285D01*
X150809523Y-154623809D01*
X150809523Y-154480952D01*
X150761904Y-154290476D01*
X150714285Y-154195238D01*
X150619047Y-154100000D01*
X150476190Y-154052380D01*
X150380952Y-154052380D01*
X150238095Y-154100000D01*
X150190476Y-154147619D01*
X149476190Y-154052380D02*
X149476190Y-154766666D01*
X149523809Y-154909523D01*
X149619047Y-155004761D01*
X149761904Y-155052380D01*
X149857142Y-155052380D01*
X148523809Y-155052380D02*
X149000000Y-155052380D01*
X149000000Y-154052380D01*
X147619047Y-154957142D02*
X147666666Y-155004761D01*
X147809523Y-155052380D01*
X147904761Y-155052380D01*
X148047619Y-155004761D01*
X148142857Y-154909523D01*
X148190476Y-154814285D01*
X148238095Y-154623809D01*
X148238095Y-154480952D01*
X148190476Y-154290476D01*
X148142857Y-154195238D01*
X148047619Y-154100000D01*
X147904761Y-154052380D01*
X147809523Y-154052380D01*
X147666666Y-154100000D01*
X147619047Y-154147619D01*
X146904761Y-154052380D02*
X146904761Y-154766666D01*
X146952380Y-154909523D01*
X147047619Y-155004761D01*
X147190476Y-155052380D01*
X147285714Y-155052380D01*
X145952380Y-155052380D02*
X146428571Y-155052380D01*
X146428571Y-154052380D01*
X145047619Y-154957142D02*
X145095238Y-155004761D01*
X145238095Y-155052380D01*
X145333333Y-155052380D01*
X145476190Y-155004761D01*
X145571428Y-154909523D01*
X145619047Y-154814285D01*
X145666666Y-154623809D01*
X145666666Y-154480952D01*
X145619047Y-154290476D01*
X145571428Y-154195238D01*
X145476190Y-154100000D01*
X145333333Y-154052380D01*
X145238095Y-154052380D01*
X145095238Y-154100000D01*
X145047619Y-154147619D01*
D11*
%TO.C,*%
D12*
X263000000Y-149070000D02*
X263000000Y-148045000D01*
X261890000Y-149070000D02*
X263000000Y-149070000D01*
X263000000Y-133955000D02*
X263000000Y-132930000D01*
X267510000Y-136935000D02*
X267510000Y-136110000D01*
X263000000Y-132930000D02*
X261890000Y-132930000D01*
X263540000Y-133955000D02*
X263000000Y-133955000D01*
X267510000Y-145890000D02*
X267510000Y-145065000D01*
X263000000Y-148045000D02*
X263540000Y-148045000D01*
X261890000Y-132930000D02*
X261890000Y-149070000D01*
X267510000Y-145065000D02*
X269310000Y-145065000D01*
%TD*%
D13*
%TO.C,*%
X258380000Y-90030000D03*
D14*
X258380000Y-92570000D03*
X258380000Y-95110000D03*
X258380000Y-97650000D03*
X258380000Y-100190000D03*
X258380000Y-102730000D03*
X258380000Y-105270000D03*
X258380000Y-107810000D03*
X258380000Y-110350000D03*
X258380000Y-112890000D03*
X258380000Y-115430000D03*
X258380000Y-117970000D03*
X273620000Y-117970000D03*
X273620000Y-115430000D03*
X273620000Y-112890000D03*
X273620000Y-110350000D03*
X273620000Y-107810000D03*
X273620000Y-105270000D03*
X273620000Y-102730000D03*
X273620000Y-100190000D03*
X273620000Y-97650000D03*
X273620000Y-95110000D03*
X273620000Y-92570000D03*
X273620000Y-90030000D03*
X260920000Y-117970000D03*
X263460000Y-117970000D03*
X266000000Y-117970000D03*
X268540000Y-117970000D03*
X271080000Y-117970000D03*
%TD*%
M02*
