M48
; DRILL file {KiCad (6.0.4)} date Tue Dec 12 22:07:35 2023
; FORMAT={-:-/ absolute / inch / decimal}
; #@! TF.CreationDate,2023-12-12T22:07:35-08:00
; #@! TF.GenerationSoftware,Kicad,Pcbnew,(6.0.4)
; #@! TF.FileFunction,Plated,1,2,PTH
FMAT,2
INCH
; #@! TA.AperFunction,Plated,PTH,ViaDrill
T1C0.0157
; #@! TA.AperFunction,Plated,PTH,ComponentDrill
T2C0.0197
; #@! TA.AperFunction,Plated,PTH,ComponentDrill
T3C0.0217
; #@! TA.AperFunction,Plated,PTH,ComponentDrill
T4C0.0390
; #@! TA.AperFunction,Plated,PTH,ComponentDrill
T5C0.0433
; #@! TA.AperFunction,Plated,PTH,ComponentDrill
T6C0.0500
; #@! TA.AperFunction,Plated,PTH,ComponentDrill
T7C0.0591
; #@! TA.AperFunction,Plated,PTH,ComponentDrill
T8C0.0787
; #@! TA.AperFunction,Plated,PTH,ComponentDrill
T9C0.3150
%
G90
G05
T1
X7.46Y-5.5624
X7.9606Y-3.622
X8.124Y-4.4193
X8.2835Y-4.4252
X8.4252Y-5.5512
X8.9061Y-5.59
X9.7477Y-6.2684
X9.9055Y-4.6378
X9.9134Y-5.1417
X9.9685Y-3.7008
X10.1181Y-5.1811
X10.3543Y-4.8504
X10.4173Y-4.8819
X10.4567Y-4.748
X10.4567Y-3.7648
X10.4961Y-5.1654
X10.5039Y-5.622
X10.5748Y-4.8661
X10.5827Y-4.9921
T4
X5.7677Y-3.3858
X5.7677Y-4.1339
X5.7677Y-4.8425
X5.7677Y-5.5512
X6.0433Y-3.3858
X6.0433Y-4.1339
X6.0433Y-4.8425
X6.0433Y-5.5512
X6.2795Y-4.8228
X6.2795Y-5.0984
X6.2795Y-5.2953
X6.2795Y-5.5709
X6.5157Y-3.3858
X6.5157Y-4.1339
X6.5157Y-4.8425
X6.5157Y-5.5512
X6.7913Y-3.3858
X6.7913Y-4.1339
X6.7913Y-4.8425
X6.7913Y-5.5512
X7.0276Y-4.5866
X7.0276Y-4.8622
X7.0276Y-5.0591
X7.0276Y-5.3346
X7.0276Y-5.5315
X7.0276Y-5.8071
X7.2638Y-3.2185
X7.2638Y-3.9665
X7.2638Y-4.6752
X7.2638Y-5.3839
X7.5394Y-3.2185
X7.5394Y-3.9665
X7.5394Y-4.6752
X7.5394Y-5.3839
X7.7756Y-4.4193
X7.7756Y-4.6949
X7.7756Y-4.8917
X7.7756Y-5.1673
X7.7756Y-5.3642
X7.7756Y-5.6398
X8.0118Y-3.0512
X8.0118Y-3.7992
X8.0118Y-4.5079
X8.0118Y-5.2165
X8.0906Y-6.1614
X8.0906Y-6.2598
X8.189Y-6.1614
X8.189Y-6.2598
X8.2874Y-3.0512
X8.2874Y-3.7992
X8.2874Y-4.5079
X8.2874Y-5.2165
X8.2874Y-6.1614
X8.2874Y-6.2598
X8.7598Y-3.2185
X8.7598Y-3.9665
X8.7598Y-4.6752
X8.7598Y-5.3839
X9.0354Y-3.2185
X9.0354Y-3.9665
X9.0354Y-4.6752
X9.0354Y-5.3839
X9.5079Y-3.3858
X9.5079Y-4.1339
X9.5079Y-4.8425
X9.5079Y-5.5512
X9.7835Y-3.3858
X9.7835Y-4.1339
X9.7835Y-4.8425
X9.7835Y-5.5512
X10.0197Y-4.8228
X10.0197Y-5.0984
X10.1181Y-4.8228
X10.2165Y-4.8228
T5
X9.6654Y-6.5354
X9.8622Y-6.5354
X10.1998Y-6.7478
X10.3908Y-6.7955
X10.7878Y-6.7662
X10.9616Y-6.8586
T6
X5.9055Y-3.5079
X5.9055Y-4.2559
X5.9055Y-4.9646
X5.9055Y-5.6732
X6.1024Y-3.5906
X6.1024Y-4.3386
X6.1024Y-5.0472
X6.1024Y-5.7559
X6.6535Y-3.5079
X6.6535Y-4.2559
X6.6535Y-4.9646
X6.6535Y-5.6732
X6.8504Y-3.5906
X6.8504Y-4.3386
X6.8504Y-5.0472
X6.8504Y-5.7559
X7.4016Y-3.3406
X7.4016Y-4.0886
X7.4016Y-4.7972
X7.4016Y-5.5059
X7.5984Y-3.4232
X7.5984Y-4.1713
X7.5984Y-4.8799
X7.5984Y-5.5886
X8.1496Y-3.1732
X8.1496Y-3.9213
X8.1496Y-4.6299
X8.1496Y-5.3386
X8.3465Y-3.2559
X8.3465Y-4.0039
X8.3465Y-4.7126
X8.3465Y-5.4213
X8.8976Y-3.3406
X8.8976Y-4.0886
X8.8976Y-4.7972
X8.8976Y-5.5059
X9.0945Y-3.4232
X9.0945Y-4.1713
X9.0945Y-4.8799
X9.0945Y-5.5886
X9.6457Y-3.5079
X9.6457Y-4.2559
X9.6457Y-4.9646
X9.6457Y-5.6732
X9.7638Y-6.815
X9.8425Y-3.5906
X9.8425Y-4.3386
X9.8425Y-5.0472
X9.8425Y-5.7559
X9.9606Y-6.8976
X10.7434Y-7.0592
X10.8784Y-7.2246
T7
X10.1724Y-3.5445
X10.1724Y-3.6445
X10.1724Y-3.7445
X10.1724Y-3.8445
X10.1724Y-3.9445
X10.1724Y-4.0445
X10.1724Y-4.1445
X10.1724Y-4.2445
X10.1724Y-4.3445
X10.1724Y-4.4445
X10.1724Y-4.5445
X10.1724Y-4.6445
X10.2724Y-4.6445
X10.3724Y-4.6445
X10.4724Y-4.6445
X10.5724Y-4.6445
X10.6724Y-4.6445
X10.7724Y-3.5445
X10.7724Y-3.6445
X10.7724Y-3.7445
X10.7724Y-3.8445
X10.7724Y-3.9445
X10.7724Y-4.0445
X10.7724Y-4.1445
X10.7724Y-4.2445
X10.7724Y-4.3445
X10.7724Y-4.4445
X10.7724Y-4.5445
X10.7724Y-4.6445
T8
X6.2795Y-3.7402
X6.2795Y-5.9055
X7.7756Y-3.4055
X8.1102Y-6.8228
X8.1102Y-7.2717
X8.5236Y-4.3209
X8.5236Y-5.0295
X8.622Y-6.8228
X8.622Y-7.2717
X8.8976Y-6.0925
X9.2717Y-3.5728
X10.0197Y-4.3209
X10.0197Y-5.8976
X10.1378Y-6.2598
X10.468Y-7.5772
X10.6738Y-6.3935
T9
X9.2717Y-4.7638
T2
G00X10.7752Y-4.7835
M15
G01X10.8008Y-4.7835
M16
G05
G00X10.7752Y-5.0591
M15
G01X10.8008Y-5.0591
M16
G05
T3
G00X10.6817Y-4.8287
M15
G01X10.6817Y-4.8169
M16
G05
G00X10.6817Y-5.0256
M15
G01X10.6817Y-5.0138
M16
G05
T0
M30
