%TF.GenerationSoftware,KiCad,Pcbnew,(6.0.4)*%
%TF.CreationDate,2024-05-03T20:31:11-07:00*%
%TF.ProjectId,right_staggered,72696768-745f-4737-9461-676765726564,v1.0.0*%
%TF.SameCoordinates,Original*%
%TF.FileFunction,Soldermask,Bot*%
%TF.FilePolarity,Negative*%
%FSLAX46Y46*%
G04 Gerber Fmt 4.6, Leading zero omitted, Abs format (unit mm)*
G04 Created by KiCad (PCBNEW (6.0.4)) date 2024-05-03 20:31:11*
%MOMM*%
%LPD*%
G01*
G04 APERTURE LIST*
G04 Aperture macros list*
%AMRoundRect*
0 Rectangle with rounded corners*
0 $1 Rounding radius*
0 $2 $3 $4 $5 $6 $7 $8 $9 X,Y pos of 4 corners*
0 Add a 4 corners polygon primitive as box body*
4,1,4,$2,$3,$4,$5,$6,$7,$8,$9,$2,$3,0*
0 Add four circle primitives for the rounded corners*
1,1,$1+$1,$2,$3*
1,1,$1+$1,$4,$5*
1,1,$1+$1,$6,$7*
1,1,$1+$1,$8,$9*
0 Add four rect primitives between the rounded corners*
20,1,$1+$1,$2,$3,$4,$5,0*
20,1,$1+$1,$4,$5,$6,$7,0*
20,1,$1+$1,$6,$7,$8,$9,0*
20,1,$1+$1,$8,$9,$2,$3,0*%
G04 Aperture macros list end*
%ADD10C,1.624000*%
%ADD11C,2.005000*%
%ADD12RoundRect,0.050000X0.889000X0.889000X-0.889000X0.889000X-0.889000X-0.889000X0.889000X-0.889000X0*%
%ADD13C,3.100000*%
%ADD14C,1.801800*%
%ADD15C,3.529000*%
%ADD16RoundRect,0.050000X-1.300000X-1.300000X1.300000X-1.300000X1.300000X1.300000X-1.300000X1.300000X0*%
%ADD17C,2.132000*%
%ADD18RoundRect,0.050000X-0.889000X-0.889000X0.889000X-0.889000X0.889000X0.889000X-0.889000X0.889000X0*%
%ADD19RoundRect,0.050000X-1.000000X-1.000000X1.000000X-1.000000X1.000000X1.000000X-1.000000X1.000000X0*%
%ADD20C,2.100000*%
%ADD21O,1.050000X1.350000*%
%ADD22O,1.650000X0.990000*%
%ADD23RoundRect,0.050000X-1.000000X0.305000X-1.000000X-0.305000X1.000000X-0.305000X1.000000X0.305000X0*%
%ADD24RoundRect,0.050000X-1.800000X1.340000X-1.800000X-1.340000X1.800000X-1.340000X1.800000X1.340000X0*%
G04 APERTURE END LIST*
D10*
%TO.C,*%
X140100000Y-106000000D03*
%TD*%
D11*
%TO.C,*%
X153800000Y-155700000D03*
%TD*%
%TO.C,D4*%
X146500000Y-103000000D03*
D12*
X153500000Y-103000000D03*
%TD*%
D11*
%TO.C,D19*%
X220100000Y-124250000D03*
D12*
X227100000Y-124250000D03*
%TD*%
D13*
%TO.C,S20*%
X228600000Y-99500000D03*
D14*
X229100000Y-103250000D03*
X218100000Y-103250000D03*
D13*
X223600000Y-97300000D03*
D15*
X223600000Y-103250000D03*
D16*
X220325000Y-97300000D03*
X231875000Y-99500000D03*
%TD*%
D13*
%TO.C,S14*%
X205200000Y-122800000D03*
X210200000Y-125000000D03*
D14*
X210700000Y-128750000D03*
X199700000Y-128750000D03*
D15*
X205200000Y-128750000D03*
D16*
X201925000Y-122800000D03*
X213475000Y-125000000D03*
%TD*%
D14*
%TO.C,S2*%
X173900000Y-111750000D03*
X162900000Y-111750000D03*
D15*
X168400000Y-111750000D03*
D17*
X173400000Y-107950000D03*
X168400000Y-105850000D03*
%TD*%
D11*
%TO.C,D11*%
X183300000Y-111500000D03*
D12*
X190300000Y-111500000D03*
%TD*%
D11*
%TO.C,D25*%
X138000000Y-127000000D03*
D18*
X126000000Y-127000000D03*
%TD*%
D11*
%TO.C,D27*%
X138000000Y-135000000D03*
D18*
X126000000Y-135000000D03*
%TD*%
D11*
%TO.C,D9*%
X183300000Y-145500000D03*
D12*
X190300000Y-145500000D03*
%TD*%
D15*
%TO.C,S13*%
X205200000Y-145750000D03*
D14*
X199700000Y-145750000D03*
X210700000Y-145750000D03*
D13*
X210200000Y-142000000D03*
X205200000Y-139800000D03*
D16*
X201925000Y-139800000D03*
X213475000Y-142000000D03*
%TD*%
D14*
%TO.C,S19*%
X229100000Y-120250000D03*
D13*
X223600000Y-114300000D03*
D15*
X223600000Y-120250000D03*
D14*
X218100000Y-120250000D03*
D13*
X228600000Y-116500000D03*
D16*
X220325000Y-114300000D03*
X231875000Y-116500000D03*
%TD*%
D11*
%TO.C,D23*%
X238500000Y-124250000D03*
D12*
X245500000Y-124250000D03*
%TD*%
D10*
%TO.C,*%
X177600000Y-99200000D03*
%TD*%
%TO.C,*%
X139900000Y-151700000D03*
%TD*%
D13*
%TO.C,S15*%
X205200000Y-105800000D03*
D14*
X199700000Y-111750000D03*
X210700000Y-111750000D03*
D15*
X205200000Y-111750000D03*
D13*
X210200000Y-108000000D03*
D16*
X201925000Y-105800000D03*
X213475000Y-108000000D03*
%TD*%
D11*
%TO.C,D13*%
X201700000Y-149750000D03*
D12*
X208700000Y-149750000D03*
%TD*%
D10*
%TO.C,*%
X232800000Y-110500000D03*
%TD*%
D14*
%TO.C,S5*%
X144500000Y-99000000D03*
D13*
X150000000Y-93050000D03*
X155000000Y-95250000D03*
D15*
X150000000Y-99000000D03*
D14*
X155500000Y-99000000D03*
D16*
X146725000Y-93050000D03*
X158275000Y-95250000D03*
%TD*%
D11*
%TO.C,*%
X156400000Y-155700000D03*
%TD*%
D13*
%TO.C,S17*%
X228600000Y-150500000D03*
D14*
X218100000Y-154250000D03*
D15*
X223600000Y-154250000D03*
D14*
X229100000Y-154250000D03*
D13*
X223600000Y-148300000D03*
D16*
X220325000Y-148300000D03*
X231875000Y-150500000D03*
%TD*%
D14*
%TO.C,S18*%
X218100000Y-137250000D03*
X229100000Y-137250000D03*
D13*
X228600000Y-133500000D03*
D15*
X223600000Y-137250000D03*
D13*
X223600000Y-131300000D03*
D16*
X220325000Y-131300000D03*
X231875000Y-133500000D03*
%TD*%
D14*
%TO.C,S22*%
X247500000Y-137250000D03*
D15*
X242000000Y-137250000D03*
D13*
X242000000Y-131300000D03*
X247000000Y-133500000D03*
D14*
X236500000Y-137250000D03*
D16*
X238725000Y-131300000D03*
X250275000Y-133500000D03*
%TD*%
D11*
%TO.C,D18*%
X220100000Y-141250000D03*
D12*
X227100000Y-141250000D03*
%TD*%
D11*
%TO.C,D7*%
X164900000Y-115750000D03*
D12*
X171900000Y-115750000D03*
%TD*%
D11*
%TO.C,*%
X145600000Y-155700000D03*
%TD*%
%TO.C,D8*%
X164900000Y-98750000D03*
D12*
X171900000Y-98750000D03*
%TD*%
D13*
%TO.C,S4*%
X150000000Y-127050000D03*
D15*
X150000000Y-133000000D03*
D14*
X144500000Y-133000000D03*
D13*
X155000000Y-129250000D03*
D14*
X155500000Y-133000000D03*
D16*
X146725000Y-127050000D03*
X158275000Y-129250000D03*
%TD*%
D11*
%TO.C,*%
X151000000Y-155700000D03*
%TD*%
D14*
%TO.C,S12*%
X192300000Y-90500000D03*
X181300000Y-90500000D03*
D13*
X191800000Y-86750000D03*
D15*
X186800000Y-90500000D03*
D13*
X186800000Y-84550000D03*
D16*
X183525000Y-84550000D03*
X195075000Y-86750000D03*
%TD*%
D11*
%TO.C,D2*%
X146500000Y-137000000D03*
D12*
X153500000Y-137000000D03*
%TD*%
D11*
%TO.C,D26*%
X138000000Y-131000000D03*
D18*
X126000000Y-131000000D03*
%TD*%
D19*
%TO.C,*%
X121380000Y-96030000D03*
D20*
X121380000Y-98570000D03*
X121380000Y-101110000D03*
X121380000Y-103650000D03*
X121380000Y-106190000D03*
X121380000Y-108730000D03*
X121380000Y-111270000D03*
X121380000Y-113810000D03*
X121380000Y-116350000D03*
X121380000Y-118890000D03*
X121380000Y-121430000D03*
X121380000Y-123970000D03*
X136620000Y-123970000D03*
X136620000Y-121430000D03*
X136620000Y-118890000D03*
X136620000Y-116350000D03*
X136620000Y-113810000D03*
X136620000Y-111270000D03*
X136620000Y-108730000D03*
X136620000Y-106190000D03*
X136620000Y-103650000D03*
X136620000Y-101110000D03*
X136620000Y-98570000D03*
X136620000Y-96030000D03*
X123920000Y-123970000D03*
X126460000Y-123970000D03*
X129000000Y-123970000D03*
X131540000Y-123970000D03*
X134080000Y-123970000D03*
%TD*%
D13*
%TO.C,S16*%
X210200000Y-91000000D03*
D14*
X199700000Y-94750000D03*
D15*
X205200000Y-94750000D03*
D13*
X205200000Y-88800000D03*
D14*
X210700000Y-94750000D03*
D16*
X201925000Y-88800000D03*
X213475000Y-91000000D03*
%TD*%
D10*
%TO.C,*%
X140500000Y-123100000D03*
%TD*%
D11*
%TO.C,D6*%
X164900000Y-132750000D03*
D12*
X171900000Y-132750000D03*
%TD*%
D11*
%TO.C,D5*%
X164700000Y-148100000D03*
D12*
X171700000Y-148100000D03*
%TD*%
D13*
%TO.C,S10*%
X186800000Y-118550000D03*
D15*
X186800000Y-124500000D03*
D13*
X191800000Y-120750000D03*
D14*
X181300000Y-124500000D03*
X192300000Y-124500000D03*
D16*
X183525000Y-118550000D03*
X195075000Y-120750000D03*
%TD*%
D11*
%TO.C,D1*%
X146500000Y-152200000D03*
D12*
X153500000Y-152200000D03*
%TD*%
D13*
%TO.C,S11*%
X191800000Y-103750000D03*
D14*
X181300000Y-107500000D03*
D13*
X186800000Y-101550000D03*
D14*
X192300000Y-107500000D03*
D15*
X186800000Y-107500000D03*
D16*
X183525000Y-101550000D03*
X195075000Y-103750000D03*
%TD*%
D11*
%TO.C,D21*%
X238500000Y-158250000D03*
D12*
X245500000Y-158250000D03*
%TD*%
D15*
%TO.C,S7*%
X168400000Y-128750000D03*
D14*
X173900000Y-128750000D03*
D13*
X173400000Y-125000000D03*
X168400000Y-122800000D03*
D14*
X162900000Y-128750000D03*
D16*
X165125000Y-122800000D03*
X176675000Y-125000000D03*
%TD*%
D11*
%TO.C,*%
X143000000Y-155700000D03*
%TD*%
D13*
%TO.C,S24*%
X242000000Y-97300000D03*
X247000000Y-99500000D03*
D14*
X236500000Y-103250000D03*
D15*
X242000000Y-103250000D03*
D14*
X247500000Y-103250000D03*
D16*
X238725000Y-97300000D03*
X250275000Y-99500000D03*
%TD*%
D10*
%TO.C,*%
X232900000Y-161500000D03*
%TD*%
D11*
%TO.C,D10*%
X183300000Y-128500000D03*
D12*
X190300000Y-128500000D03*
%TD*%
D11*
%TO.C,D24*%
X238500000Y-107250000D03*
D12*
X245500000Y-107250000D03*
%TD*%
D13*
%TO.C,S23*%
X242000000Y-114300000D03*
D15*
X242000000Y-120250000D03*
D13*
X247000000Y-116500000D03*
D14*
X247500000Y-120250000D03*
X236500000Y-120250000D03*
D16*
X238725000Y-114300000D03*
X250275000Y-116500000D03*
%TD*%
D13*
%TO.C,S8*%
X173400000Y-91000000D03*
D14*
X173900000Y-94750000D03*
D13*
X168400000Y-88800000D03*
D15*
X168400000Y-94750000D03*
D14*
X162900000Y-94750000D03*
D16*
X165125000Y-88800000D03*
X176675000Y-91000000D03*
%TD*%
D13*
%TO.C,S9*%
X191800000Y-137750000D03*
D14*
X181300000Y-141500000D03*
D15*
X186800000Y-141500000D03*
D13*
X186800000Y-135550000D03*
D14*
X192300000Y-141500000D03*
D16*
X183525000Y-135550000D03*
X195075000Y-137750000D03*
%TD*%
D11*
%TO.C,D16*%
X201700000Y-98750000D03*
D12*
X208700000Y-98750000D03*
%TD*%
D14*
%TO.C,S1*%
X155500000Y-116000000D03*
D15*
X150000000Y-116000000D03*
D14*
X144500000Y-116000000D03*
D17*
X155000000Y-112200000D03*
X150000000Y-110100000D03*
%TD*%
D11*
%TO.C,*%
X148300000Y-155700000D03*
%TD*%
D14*
%TO.C,S21*%
X236500000Y-154250000D03*
D13*
X242000000Y-148300000D03*
D14*
X247500000Y-154250000D03*
D13*
X247000000Y-150500000D03*
D15*
X242000000Y-154250000D03*
D16*
X238725000Y-148300000D03*
X250275000Y-150500000D03*
%TD*%
D10*
%TO.C,*%
X177800000Y-115900000D03*
%TD*%
D11*
%TO.C,D12*%
X183300000Y-94500000D03*
D12*
X190300000Y-94500000D03*
%TD*%
D11*
%TO.C,D3*%
X146500000Y-120000000D03*
D12*
X153500000Y-120000000D03*
%TD*%
D11*
%TO.C,D15*%
X201700000Y-115750000D03*
D12*
X208700000Y-115750000D03*
%TD*%
D11*
%TO.C,D28*%
X138000000Y-139000000D03*
D18*
X126000000Y-139000000D03*
%TD*%
D21*
%TO.C,*%
X122700000Y-128100000D03*
X122700000Y-133100000D03*
D22*
X120000000Y-134100000D03*
X120000000Y-127100000D03*
%TD*%
D11*
%TO.C,D14*%
X201700000Y-132750000D03*
D12*
X208700000Y-132750000D03*
%TD*%
D10*
%TO.C,*%
X159200000Y-104250000D03*
%TD*%
D11*
%TO.C,D22*%
X238500000Y-141250000D03*
D12*
X245500000Y-141250000D03*
%TD*%
D13*
%TO.C,S3*%
X150000000Y-144050000D03*
X155000000Y-146250000D03*
D15*
X150000000Y-150000000D03*
D14*
X155500000Y-150000000D03*
X144500000Y-150000000D03*
D16*
X146725000Y-144050000D03*
X158275000Y-146250000D03*
%TD*%
D11*
%TO.C,D17*%
X220100000Y-158250000D03*
D12*
X227100000Y-158250000D03*
%TD*%
D11*
%TO.C,D20*%
X220100000Y-107250000D03*
D12*
X227100000Y-107250000D03*
%TD*%
D13*
%TO.C,S6*%
X173400000Y-142000000D03*
X168400000Y-139800000D03*
D15*
X168400000Y-145750000D03*
D14*
X173900000Y-145750000D03*
X162900000Y-145750000D03*
D16*
X165125000Y-139800000D03*
X176675000Y-142000000D03*
%TD*%
D23*
%TO.C,*%
X129400000Y-132100000D03*
X129400000Y-133100000D03*
X129400000Y-134100000D03*
X129400000Y-135100000D03*
X129400000Y-136100000D03*
X129400000Y-137100000D03*
X129400000Y-138100000D03*
X129400000Y-139100000D03*
D24*
X132200000Y-142090000D03*
X132200000Y-129110000D03*
%TD*%
M02*
