%TF.GenerationSoftware,KiCad,Pcbnew,(6.0.4)*%
%TF.CreationDate,2024-05-03T20:26:16-07:00*%
%TF.ProjectId,right_ortholinear,72696768-745f-46f7-9274-686f6c696e65,v1.0.0*%
%TF.SameCoordinates,Original*%
%TF.FileFunction,Legend,Top*%
%TF.FilePolarity,Positive*%
%FSLAX46Y46*%
G04 Gerber Fmt 4.6, Leading zero omitted, Abs format (unit mm)*
G04 Created by KiCad (PCBNEW (6.0.4)) date 2024-05-03 20:26:16*
%MOMM*%
%LPD*%
G01*
G04 APERTURE LIST*
%ADD10C,0.150000*%
%ADD11C,0.120000*%
%ADD12R,2.000000X2.000000*%
%ADD13C,2.000000*%
G04 APERTURE END LIST*
D10*
%TO.C,*%
D11*
X118510000Y-126340000D02*
X118910000Y-126340000D01*
X123540000Y-128790000D02*
X123540000Y-128340000D01*
X122860000Y-133860000D02*
X122860000Y-133440000D01*
X118910000Y-133860000D02*
X118510000Y-133860000D01*
X123090000Y-128340000D02*
X123540000Y-128340000D01*
X120880000Y-133860000D02*
X122860000Y-133860000D01*
X120880000Y-126340000D02*
X122860000Y-126340000D01*
X122860000Y-126340000D02*
X122860000Y-126760000D01*
%TD*%
D12*
%TO.C,*%
X121380000Y-96030000D03*
D13*
X121380000Y-98570000D03*
X121380000Y-101110000D03*
X121380000Y-103650000D03*
X121380000Y-106190000D03*
X121380000Y-108730000D03*
X121380000Y-111270000D03*
X121380000Y-113810000D03*
X121380000Y-116350000D03*
X121380000Y-118890000D03*
X121380000Y-121430000D03*
X121380000Y-123970000D03*
X136620000Y-123970000D03*
X136620000Y-121430000D03*
X136620000Y-118890000D03*
X136620000Y-116350000D03*
X136620000Y-113810000D03*
X136620000Y-111270000D03*
X136620000Y-108730000D03*
X136620000Y-106190000D03*
X136620000Y-103650000D03*
X136620000Y-101110000D03*
X136620000Y-98570000D03*
X136620000Y-96030000D03*
X123920000Y-123970000D03*
X126460000Y-123970000D03*
X129000000Y-123970000D03*
X131540000Y-123970000D03*
X134080000Y-123970000D03*
%TD*%
M02*
