M48
; DRILL file {KiCad (6.0.4)} date Fri May  3 20:26:08 2024
; FORMAT={-:-/ absolute / inch / decimal}
; #@! TF.CreationDate,2024-05-03T20:26:08-07:00
; #@! TF.GenerationSoftware,Kicad,Pcbnew,(6.0.4)
; #@! TF.FileFunction,Plated,1,2,PTH
FMAT,2
INCH
; #@! TA.AperFunction,Plated,PTH,ViaDrill
T1C0.0157
; #@! TA.AperFunction,Plated,PTH,ComponentDrill
T2C0.0197
; #@! TA.AperFunction,Plated,PTH,ComponentDrill
T3C0.0217
; #@! TA.AperFunction,Plated,PTH,ComponentDrill
T4C0.0390
; #@! TA.AperFunction,Plated,PTH,ComponentDrill
T5C0.0500
; #@! TA.AperFunction,Plated,PTH,ComponentDrill
T6C0.0591
; #@! TA.AperFunction,Plated,PTH,ComponentDrill
T7C0.0787
; #@! TA.AperFunction,Plated,PTH,ComponentDrill
T8C0.3150
%
G90
G05
T1
X4.6772Y-4.8858
X4.8819Y-5.0236
X5.2283Y-5.374
X5.4016Y-5.0787
X5.5866Y-4.9764
X5.6732Y-4.7992
X5.6732Y-4.8465
X5.6732Y-5.0315
X5.6772Y-4.9213
X6.4418Y-4.8377
X7.1663Y-4.8613
X7.8907Y-4.9243
X9.3386Y-4.8465
T4
X4.9606Y-5.0
X4.9606Y-5.1575
X4.9606Y-5.315
X4.9606Y-5.4724
X5.4331Y-5.0
X5.4331Y-5.1575
X5.4331Y-5.315
X5.4331Y-5.4724
X5.4331Y-5.6299
X5.4331Y-5.7283
X5.7598Y-5.9921
X5.7677Y-4.0551
X5.7677Y-4.7244
X5.7677Y-5.3937
X5.9094Y-6.126
X6.0118Y-6.126
X6.0354Y-5.9921
X6.0433Y-4.0551
X6.0433Y-4.7244
X6.0433Y-5.3937
X6.1181Y-6.126
X6.2244Y-6.126
X6.3346Y-6.126
X6.437Y-6.126
X6.4921Y-4.0551
X6.4921Y-4.7244
X6.4921Y-5.3937
X6.4921Y-5.9882
X6.7677Y-4.0551
X6.7677Y-4.7244
X6.7677Y-5.3937
X6.7677Y-5.9882
X7.2165Y-4.0551
X7.2165Y-4.7244
X7.2165Y-5.3937
X7.2165Y-6.063
X7.4921Y-4.0551
X7.4921Y-4.7244
X7.4921Y-5.3937
X7.4921Y-6.063
X7.9409Y-4.0551
X7.9409Y-4.7244
X7.9409Y-5.3937
X7.9409Y-6.063
X8.2165Y-4.0551
X8.2165Y-4.7244
X8.2165Y-5.3937
X8.2165Y-6.063
X8.6654Y-4.0551
X8.6654Y-4.7244
X8.6654Y-5.3937
X8.6654Y-6.063
X8.9409Y-4.0551
X8.9409Y-4.7244
X8.9409Y-5.3937
X8.9409Y-6.063
X9.3898Y-4.0551
X9.3898Y-4.7244
X9.3898Y-5.3937
X9.3898Y-6.063
X9.6654Y-4.0551
X9.6654Y-4.7244
X9.6654Y-5.3937
X9.6654Y-6.063
T5
X5.9055Y-4.3346
X6.1024Y-4.4173
X6.6299Y-4.3346
X6.8268Y-4.4173
T6
X4.7787Y-3.7807
X4.7787Y-3.8807
X4.7787Y-3.9807
X4.7787Y-4.0807
X4.7787Y-4.1807
X4.7787Y-4.2807
X4.7787Y-4.3807
X4.7787Y-4.4807
X4.7787Y-4.5807
X4.7787Y-4.6807
X4.7787Y-4.7807
X4.7787Y-4.8807
X4.8787Y-4.8807
X4.9787Y-4.8807
X5.0787Y-4.8807
X5.1787Y-4.8807
X5.2787Y-4.8807
X5.3787Y-3.7807
X5.3787Y-3.8807
X5.3787Y-3.9807
X5.3787Y-4.0807
X5.3787Y-4.1807
X5.3787Y-4.2807
X5.3787Y-4.3807
X5.3787Y-4.4807
X5.3787Y-4.5807
X5.3787Y-4.6807
X5.3787Y-4.7807
X5.3787Y-4.8807
T7
X5.0394Y-4.0945
X5.5118Y-6.189
X5.5236Y-4.1693
X5.5394Y-4.8425
X6.9921Y-4.1772
X6.9921Y-4.8504
X9.1654Y-4.185
X9.1654Y-6.1929
T8
X6.2677Y-4.2717
T2
G00X4.7333Y-4.9843
M15
G01X4.7077Y-4.9843
M16
G05
G00X4.7333Y-5.2598
M15
G01X4.7077Y-5.2598
M16
G05
T3
G00X4.8268Y-5.0177
M15
G01X4.8268Y-5.0295
M16
G05
G00X4.8268Y-5.2146
M15
G01X4.8268Y-5.2264
M16
G05
T0
M30
