M48
; DRILL file {KiCad (6.0.4)} date Fri May  3 20:26:08 2024
; FORMAT={-:-/ absolute / inch / decimal}
; #@! TF.CreationDate,2024-05-03T20:26:08-07:00
; #@! TF.GenerationSoftware,Kicad,Pcbnew,(6.0.4)
; #@! TF.FileFunction,NonPlated,1,2,NPTH
FMAT,2
INCH
; #@! TA.AperFunction,NonPlated,NPTH,ComponentDrill
T1C0.0670
; #@! TA.AperFunction,NonPlated,NPTH,ComponentDrill
T2C0.1181
; #@! TA.AperFunction,NonPlated,NPTH,ComponentDrill
T3C0.1350
%
G90
G05
T1
X5.689Y-3.8976
X5.689Y-4.5669
X5.689Y-5.2362
X5.689Y-5.9055
X6.122Y-3.8976
X6.122Y-4.5669
X6.122Y-5.2362
X6.122Y-5.9055
X6.4134Y-3.8976
X6.4134Y-4.5669
X6.4134Y-5.2362
X6.4134Y-5.9055
X6.8465Y-3.8976
X6.8465Y-4.5669
X6.8465Y-5.2362
X6.8465Y-5.9055
X7.1378Y-3.8976
X7.1378Y-4.5669
X7.1378Y-5.2362
X7.1378Y-5.9055
X7.5709Y-3.8976
X7.5709Y-4.5669
X7.5709Y-5.2362
X7.5709Y-5.9055
X7.8622Y-3.8976
X7.8622Y-4.5669
X7.8622Y-5.2362
X7.8622Y-5.9055
X8.2953Y-3.8976
X8.2953Y-4.5669
X8.2953Y-5.2362
X8.2953Y-5.9055
X8.5866Y-3.8976
X8.5866Y-4.5669
X8.5866Y-5.2362
X8.5866Y-5.9055
X9.0197Y-3.8976
X9.0197Y-4.5669
X9.0197Y-5.2362
X9.0197Y-5.9055
X9.311Y-3.8976
X9.311Y-4.5669
X9.311Y-5.2362
X9.311Y-5.9055
X9.7441Y-3.8976
X9.7441Y-4.5669
X9.7441Y-5.2362
X9.7441Y-5.9055
T2
X5.9055Y-3.6634
X5.9055Y-5.002
X5.9055Y-5.6713
X6.1024Y-3.75
X6.1024Y-5.0886
X6.1024Y-5.7579
X6.6299Y-3.6634
X6.6299Y-5.002
X6.6299Y-5.6713
X6.8268Y-3.75
X6.8268Y-5.0886
X6.8268Y-5.7579
X7.3543Y-3.6634
X7.3543Y-4.3327
X7.3543Y-5.002
X7.3543Y-5.6713
X7.5512Y-3.75
X7.5512Y-4.4193
X7.5512Y-5.0886
X7.5512Y-5.7579
X8.0787Y-3.6634
X8.0787Y-4.3327
X8.0787Y-5.002
X8.0787Y-5.6713
X8.2756Y-3.75
X8.2756Y-4.4193
X8.2756Y-5.0886
X8.2756Y-5.7579
X8.8031Y-3.6634
X8.8031Y-4.3327
X8.8031Y-5.002
X8.8031Y-5.6713
X9.0Y-3.75
X9.0Y-4.4193
X9.0Y-5.0886
X9.0Y-5.7579
X9.5276Y-3.6634
X9.5276Y-4.3327
X9.5276Y-5.002
X9.5276Y-5.6713
X9.7244Y-3.75
X9.7244Y-4.4193
X9.7244Y-5.0886
X9.7244Y-5.7579
T3
X5.9055Y-3.8976
X5.9055Y-4.5669
X5.9055Y-5.2362
X5.9055Y-5.9055
X6.6299Y-3.8976
X6.6299Y-4.5669
X6.6299Y-5.2362
X6.6299Y-5.9055
X7.3543Y-3.8976
X7.3543Y-4.5669
X7.3543Y-5.2362
X7.3543Y-5.9055
X8.0787Y-3.8976
X8.0787Y-4.5669
X8.0787Y-5.2362
X8.0787Y-5.9055
X8.8031Y-3.8976
X8.8031Y-4.5669
X8.8031Y-5.2362
X8.8031Y-5.9055
X9.5276Y-3.8976
X9.5276Y-4.5669
X9.5276Y-5.2362
X9.5276Y-5.9055
T0
M30
