M48
; DRILL file {KiCad (6.0.4)} date Fri May  3 20:31:09 2024
; FORMAT={-:-/ absolute / inch / decimal}
; #@! TF.CreationDate,2024-05-03T20:31:09-07:00
; #@! TF.GenerationSoftware,Kicad,Pcbnew,(6.0.4)
; #@! TF.FileFunction,Plated,1,2,PTH
FMAT,2
INCH
; #@! TA.AperFunction,Plated,PTH,ViaDrill
T1C0.0157
; #@! TA.AperFunction,Plated,PTH,ComponentDrill
T2C0.0197
; #@! TA.AperFunction,Plated,PTH,ComponentDrill
T3C0.0217
; #@! TA.AperFunction,Plated,PTH,ComponentDrill
T4C0.0390
; #@! TA.AperFunction,Plated,PTH,ComponentDrill
T5C0.0500
; #@! TA.AperFunction,Plated,PTH,ComponentDrill
T6C0.0591
; #@! TA.AperFunction,Plated,PTH,ComponentDrill
T7C0.0787
; #@! TA.AperFunction,Plated,PTH,ComponentDrill
T8C0.3150
%
G90
G05
T1
X4.8504Y-5.5472
X5.0211Y-5.6285
X5.0354Y-5.5591
X5.622Y-4.6811
X5.6693Y-4.8465
X5.6732Y-4.7992
X5.6969Y-5.7913
X6.4418Y-4.7668
X7.2254Y-4.7589
X7.8898Y-4.6654
X9.3986Y-4.003
T4
X4.9606Y-5.0
X4.9606Y-5.1575
X4.9606Y-5.315
X4.9606Y-5.4724
X5.4331Y-5.0
X5.4331Y-5.1575
X5.4331Y-5.315
X5.4331Y-5.4724
X5.4331Y-5.6299
X5.4331Y-5.7283
X5.6299Y-6.1299
X5.7323Y-6.1299
X5.7677Y-4.0551
X5.7677Y-4.7244
X5.7677Y-5.3937
X5.7677Y-5.9921
X5.8386Y-6.1299
X5.9449Y-6.1299
X6.0433Y-4.0551
X6.0433Y-4.7244
X6.0433Y-5.3937
X6.0433Y-5.9921
X6.0551Y-6.1299
X6.1575Y-6.1299
X6.4843Y-5.8307
X6.4921Y-3.8878
X6.4921Y-4.5571
X6.4921Y-5.2264
X6.7598Y-5.8307
X6.7677Y-3.8878
X6.7677Y-4.5571
X6.7677Y-5.2264
X7.2165Y-3.7205
X7.2165Y-4.3898
X7.2165Y-5.0591
X7.2165Y-5.7283
X7.4921Y-3.7205
X7.4921Y-4.3898
X7.4921Y-5.0591
X7.4921Y-5.7283
X7.9409Y-3.8878
X7.9409Y-4.5571
X7.9409Y-5.2264
X7.9409Y-5.8957
X8.2165Y-3.8878
X8.2165Y-4.5571
X8.2165Y-5.2264
X8.2165Y-5.8957
X8.6654Y-4.2224
X8.6654Y-4.8917
X8.6654Y-5.561
X8.6654Y-6.2303
X8.9409Y-4.2224
X8.9409Y-4.8917
X8.9409Y-5.561
X8.9409Y-6.2303
X9.3898Y-4.2224
X9.3898Y-4.8917
X9.3898Y-5.561
X9.3898Y-6.2303
X9.6654Y-4.2224
X9.6654Y-4.8917
X9.6654Y-5.561
X9.6654Y-6.2303
T5
X5.9055Y-4.3346
X6.1024Y-4.4173
X6.6299Y-4.1673
X6.8268Y-4.25
T6
X4.7787Y-3.7807
X4.7787Y-3.8807
X4.7787Y-3.9807
X4.7787Y-4.0807
X4.7787Y-4.1807
X4.7787Y-4.2807
X4.7787Y-4.3807
X4.7787Y-4.4807
X4.7787Y-4.5807
X4.7787Y-4.6807
X4.7787Y-4.7807
X4.7787Y-4.8807
X4.8787Y-4.8807
X4.9787Y-4.8807
X5.0787Y-4.8807
X5.1787Y-4.8807
X5.2787Y-4.8807
X5.3787Y-3.7807
X5.3787Y-3.8807
X5.3787Y-3.9807
X5.3787Y-4.0807
X5.3787Y-4.1807
X5.3787Y-4.2807
X5.3787Y-4.3807
X5.3787Y-4.4807
X5.3787Y-4.5807
X5.3787Y-4.6807
X5.3787Y-4.7807
X5.3787Y-4.8807
T7
X5.5079Y-5.9724
X5.5157Y-4.1732
X5.5315Y-4.8465
X6.9921Y-3.9055
X7.0Y-4.563
X9.1654Y-4.3504
X9.1693Y-6.3583
T8
X6.2677Y-4.1043
T2
G00X4.7372Y-5.0039
M15
G01X4.7116Y-5.0039
M16
G05
G00X4.7372Y-5.2795
M15
G01X4.7116Y-5.2795
M16
G05
T3
G00X4.8307Y-5.0374
M15
G01X4.8307Y-5.0492
M16
G05
G00X4.8307Y-5.2343
M15
G01X4.8307Y-5.2461
M16
G05
T0
M30
