%TF.GenerationSoftware,KiCad,Pcbnew,(6.0.4)*%
%TF.CreationDate,2024-05-03T20:31:11-07:00*%
%TF.ProjectId,right_staggered,72696768-745f-4737-9461-676765726564,v1.0.0*%
%TF.SameCoordinates,Original*%
%TF.FileFunction,Legend,Bot*%
%TF.FilePolarity,Positive*%
%FSLAX46Y46*%
G04 Gerber Fmt 4.6, Leading zero omitted, Abs format (unit mm)*
G04 Created by KiCad (PCBNEW (6.0.4)) date 2024-05-03 20:31:11*
%MOMM*%
%LPD*%
G01*
G04 APERTURE LIST*
%ADD10C,0.150000*%
%ADD11C,0.120000*%
%ADD12R,2.000000X2.000000*%
%ADD13C,2.000000*%
G04 APERTURE END LIST*
D10*
X133619047Y-120352380D02*
X133619047Y-121066666D01*
X133666666Y-121209523D01*
X133761904Y-121304761D01*
X133904761Y-121352380D01*
X134000000Y-121352380D01*
X132666666Y-121352380D02*
X133142857Y-121352380D01*
X133142857Y-120352380D01*
X131761904Y-121257142D02*
X131809523Y-121304761D01*
X131952380Y-121352380D01*
X132047619Y-121352380D01*
X132190476Y-121304761D01*
X132285714Y-121209523D01*
X132333333Y-121114285D01*
X132380952Y-120923809D01*
X132380952Y-120780952D01*
X132333333Y-120590476D01*
X132285714Y-120495238D01*
X132190476Y-120400000D01*
X132047619Y-120352380D01*
X131952380Y-120352380D01*
X131809523Y-120400000D01*
X131761904Y-120447619D01*
X131047619Y-120352380D02*
X131047619Y-121066666D01*
X131095238Y-121209523D01*
X131190476Y-121304761D01*
X131333333Y-121352380D01*
X131428571Y-121352380D01*
X130095238Y-121352380D02*
X130571428Y-121352380D01*
X130571428Y-120352380D01*
X129190476Y-121257142D02*
X129238095Y-121304761D01*
X129380952Y-121352380D01*
X129476190Y-121352380D01*
X129619047Y-121304761D01*
X129714285Y-121209523D01*
X129761904Y-121114285D01*
X129809523Y-120923809D01*
X129809523Y-120780952D01*
X129761904Y-120590476D01*
X129714285Y-120495238D01*
X129619047Y-120400000D01*
X129476190Y-120352380D01*
X129380952Y-120352380D01*
X129238095Y-120400000D01*
X129190476Y-120447619D01*
X128476190Y-120352380D02*
X128476190Y-121066666D01*
X128523809Y-121209523D01*
X128619047Y-121304761D01*
X128761904Y-121352380D01*
X128857142Y-121352380D01*
X127523809Y-121352380D02*
X128000000Y-121352380D01*
X128000000Y-120352380D01*
X126619047Y-121257142D02*
X126666666Y-121304761D01*
X126809523Y-121352380D01*
X126904761Y-121352380D01*
X127047619Y-121304761D01*
X127142857Y-121209523D01*
X127190476Y-121114285D01*
X127238095Y-120923809D01*
X127238095Y-120780952D01*
X127190476Y-120590476D01*
X127142857Y-120495238D01*
X127047619Y-120400000D01*
X126904761Y-120352380D01*
X126809523Y-120352380D01*
X126666666Y-120400000D01*
X126619047Y-120447619D01*
X125904761Y-120352380D02*
X125904761Y-121066666D01*
X125952380Y-121209523D01*
X126047619Y-121304761D01*
X126190476Y-121352380D01*
X126285714Y-121352380D01*
X124952380Y-121352380D02*
X125428571Y-121352380D01*
X125428571Y-120352380D01*
X124047619Y-121257142D02*
X124095238Y-121304761D01*
X124238095Y-121352380D01*
X124333333Y-121352380D01*
X124476190Y-121304761D01*
X124571428Y-121209523D01*
X124619047Y-121114285D01*
X124666666Y-120923809D01*
X124666666Y-120780952D01*
X124619047Y-120590476D01*
X124571428Y-120495238D01*
X124476190Y-120400000D01*
X124333333Y-120352380D01*
X124238095Y-120352380D01*
X124095238Y-120400000D01*
X124047619Y-120447619D01*
%TO.C,*%
D11*
X134800000Y-127530000D02*
X134800000Y-128555000D01*
X130290000Y-130710000D02*
X130290000Y-131535000D01*
X135910000Y-143670000D02*
X135910000Y-127530000D01*
X134260000Y-142645000D02*
X134800000Y-142645000D01*
X135910000Y-127530000D02*
X134800000Y-127530000D01*
X134800000Y-128555000D02*
X134260000Y-128555000D01*
X130290000Y-139665000D02*
X130290000Y-140490000D01*
X130290000Y-131535000D02*
X128490000Y-131535000D01*
X134800000Y-142645000D02*
X134800000Y-143670000D01*
X134800000Y-143670000D02*
X135910000Y-143670000D01*
%TD*%
D12*
%TO.C,*%
X121380000Y-96030000D03*
D13*
X121380000Y-98570000D03*
X121380000Y-101110000D03*
X121380000Y-103650000D03*
X121380000Y-106190000D03*
X121380000Y-108730000D03*
X121380000Y-111270000D03*
X121380000Y-113810000D03*
X121380000Y-116350000D03*
X121380000Y-118890000D03*
X121380000Y-121430000D03*
X121380000Y-123970000D03*
X136620000Y-123970000D03*
X136620000Y-121430000D03*
X136620000Y-118890000D03*
X136620000Y-116350000D03*
X136620000Y-113810000D03*
X136620000Y-111270000D03*
X136620000Y-108730000D03*
X136620000Y-106190000D03*
X136620000Y-103650000D03*
X136620000Y-101110000D03*
X136620000Y-98570000D03*
X136620000Y-96030000D03*
X123920000Y-123970000D03*
X126460000Y-123970000D03*
X129000000Y-123970000D03*
X131540000Y-123970000D03*
X134080000Y-123970000D03*
%TD*%
M02*
