M48
; DRILL file {KiCad (6.0.4)} date Fri May  3 20:31:09 2024
; FORMAT={-:-/ absolute / inch / decimal}
; #@! TF.CreationDate,2024-05-03T20:31:09-07:00
; #@! TF.GenerationSoftware,Kicad,Pcbnew,(6.0.4)
; #@! TF.FileFunction,NonPlated,1,2,NPTH
FMAT,2
INCH
; #@! TA.AperFunction,NonPlated,NPTH,ComponentDrill
T1C0.0670
; #@! TA.AperFunction,NonPlated,NPTH,ComponentDrill
T2C0.1181
; #@! TA.AperFunction,NonPlated,NPTH,ComponentDrill
T3C0.1350
%
G90
G05
T1
X5.689Y-3.8976
X5.689Y-4.5669
X5.689Y-5.2362
X5.689Y-5.9055
X6.122Y-3.8976
X6.122Y-4.5669
X6.122Y-5.2362
X6.122Y-5.9055
X6.4134Y-3.7303
X6.4134Y-4.3996
X6.4134Y-5.0689
X6.4134Y-5.7382
X6.8465Y-3.7303
X6.8465Y-4.3996
X6.8465Y-5.0689
X6.8465Y-5.7382
X7.1378Y-3.563
X7.1378Y-4.2323
X7.1378Y-4.9016
X7.1378Y-5.5709
X7.5709Y-3.563
X7.5709Y-4.2323
X7.5709Y-4.9016
X7.5709Y-5.5709
X7.8622Y-3.7303
X7.8622Y-4.3996
X7.8622Y-5.0689
X7.8622Y-5.7382
X8.2953Y-3.7303
X8.2953Y-4.3996
X8.2953Y-5.0689
X8.2953Y-5.7382
X8.5866Y-4.065
X8.5866Y-4.7343
X8.5866Y-5.4035
X8.5866Y-6.0728
X9.0197Y-4.065
X9.0197Y-4.7343
X9.0197Y-5.4035
X9.0197Y-6.0728
X9.311Y-4.065
X9.311Y-4.7343
X9.311Y-5.4035
X9.311Y-6.0728
X9.7441Y-4.065
X9.7441Y-4.7343
X9.7441Y-5.4035
X9.7441Y-6.0728
T2
X5.9055Y-3.6634
X5.9055Y-5.002
X5.9055Y-5.6713
X6.1024Y-3.75
X6.1024Y-5.0886
X6.1024Y-5.7579
X6.6299Y-3.4961
X6.6299Y-4.8346
X6.6299Y-5.5039
X6.8268Y-3.5827
X6.8268Y-4.9213
X6.8268Y-5.5906
X7.3543Y-3.3287
X7.3543Y-3.998
X7.3543Y-4.6673
X7.3543Y-5.3366
X7.5512Y-3.4154
X7.5512Y-4.0846
X7.5512Y-4.7539
X7.5512Y-5.4232
X8.0787Y-3.4961
X8.0787Y-4.1654
X8.0787Y-4.8346
X8.0787Y-5.5039
X8.2756Y-3.5827
X8.2756Y-4.252
X8.2756Y-4.9213
X8.2756Y-5.5906
X8.8031Y-3.8307
X8.8031Y-4.5
X8.8031Y-5.1693
X8.8031Y-5.8386
X9.0Y-3.9173
X9.0Y-4.5866
X9.0Y-5.2559
X9.0Y-5.9252
X9.5276Y-3.8307
X9.5276Y-4.5
X9.5276Y-5.1693
X9.5276Y-5.8386
X9.7244Y-3.9173
X9.7244Y-4.5866
X9.7244Y-5.2559
X9.7244Y-5.9252
T3
X5.9055Y-3.8976
X5.9055Y-4.5669
X5.9055Y-5.2362
X5.9055Y-5.9055
X6.6299Y-3.7303
X6.6299Y-4.3996
X6.6299Y-5.0689
X6.6299Y-5.7382
X7.3543Y-3.563
X7.3543Y-4.2323
X7.3543Y-4.9016
X7.3543Y-5.5709
X8.0787Y-3.7303
X8.0787Y-4.3996
X8.0787Y-5.0689
X8.0787Y-5.7382
X8.8031Y-4.065
X8.8031Y-4.7343
X8.8031Y-5.4035
X8.8031Y-6.0728
X9.5276Y-4.065
X9.5276Y-4.7343
X9.5276Y-5.4035
X9.5276Y-6.0728
T0
M30
