%TF.GenerationSoftware,KiCad,Pcbnew,(6.0.4)*%
%TF.CreationDate,2024-05-03T20:31:11-07:00*%
%TF.ProjectId,right_staggered,72696768-745f-4737-9461-676765726564,v1.0.0*%
%TF.SameCoordinates,Original*%
%TF.FileFunction,Paste,Bot*%
%TF.FilePolarity,Positive*%
%FSLAX46Y46*%
G04 Gerber Fmt 4.6, Leading zero omitted, Abs format (unit mm)*
G04 Created by KiCad (PCBNEW (6.0.4)) date 2024-05-03 20:31:11*
%MOMM*%
%LPD*%
G01*
G04 APERTURE LIST*
%ADD10R,2.600000X2.600000*%
%ADD11R,2.000000X0.610000*%
%ADD12R,3.600000X2.680000*%
G04 APERTURE END LIST*
D10*
%TO.C,S20*%
X220325000Y-97300000D03*
X231875000Y-99500000D03*
%TD*%
%TO.C,S14*%
X201925000Y-122800000D03*
X213475000Y-125000000D03*
%TD*%
%TO.C,S13*%
X201925000Y-139800000D03*
X213475000Y-142000000D03*
%TD*%
%TO.C,S19*%
X220325000Y-114300000D03*
X231875000Y-116500000D03*
%TD*%
%TO.C,S15*%
X201925000Y-105800000D03*
X213475000Y-108000000D03*
%TD*%
%TO.C,S5*%
X146725000Y-93050000D03*
X158275000Y-95250000D03*
%TD*%
%TO.C,S17*%
X220325000Y-148300000D03*
X231875000Y-150500000D03*
%TD*%
%TO.C,S18*%
X220325000Y-131300000D03*
X231875000Y-133500000D03*
%TD*%
%TO.C,S22*%
X238725000Y-131300000D03*
X250275000Y-133500000D03*
%TD*%
%TO.C,S4*%
X146725000Y-127050000D03*
X158275000Y-129250000D03*
%TD*%
%TO.C,S12*%
X183525000Y-84550000D03*
X195075000Y-86750000D03*
%TD*%
%TO.C,S16*%
X201925000Y-88800000D03*
X213475000Y-91000000D03*
%TD*%
%TO.C,S10*%
X183525000Y-118550000D03*
X195075000Y-120750000D03*
%TD*%
%TO.C,S11*%
X183525000Y-101550000D03*
X195075000Y-103750000D03*
%TD*%
%TO.C,S7*%
X165125000Y-122800000D03*
X176675000Y-125000000D03*
%TD*%
%TO.C,S24*%
X238725000Y-97300000D03*
X250275000Y-99500000D03*
%TD*%
%TO.C,S23*%
X238725000Y-114300000D03*
X250275000Y-116500000D03*
%TD*%
%TO.C,S8*%
X165125000Y-88800000D03*
X176675000Y-91000000D03*
%TD*%
%TO.C,S9*%
X183525000Y-135550000D03*
X195075000Y-137750000D03*
%TD*%
%TO.C,S21*%
X238725000Y-148300000D03*
X250275000Y-150500000D03*
%TD*%
%TO.C,S3*%
X146725000Y-144050000D03*
X158275000Y-146250000D03*
%TD*%
%TO.C,S6*%
X165125000Y-139800000D03*
X176675000Y-142000000D03*
%TD*%
D11*
%TO.C,*%
X129400000Y-132100000D03*
X129400000Y-133100000D03*
X129400000Y-134100000D03*
X129400000Y-135100000D03*
X129400000Y-136100000D03*
X129400000Y-137100000D03*
X129400000Y-138100000D03*
X129400000Y-139100000D03*
D12*
X132200000Y-142090000D03*
X132200000Y-129110000D03*
%TD*%
M02*
