%TF.GenerationSoftware,KiCad,Pcbnew,(6.0.4)*%
%TF.CreationDate,2024-05-03T20:26:16-07:00*%
%TF.ProjectId,right_ortholinear,72696768-745f-46f7-9274-686f6c696e65,v1.0.0*%
%TF.SameCoordinates,Original*%
%TF.FileFunction,Copper,L2,Bot*%
%TF.FilePolarity,Positive*%
%FSLAX46Y46*%
G04 Gerber Fmt 4.6, Leading zero omitted, Abs format (unit mm)*
G04 Created by KiCad (PCBNEW (6.0.4)) date 2024-05-03 20:26:16*
%MOMM*%
%LPD*%
G01*
G04 APERTURE LIST*
%TA.AperFunction,ComponentPad*%
%ADD10C,1.524000*%
%TD*%
%TA.AperFunction,ComponentPad*%
%ADD11C,1.905000*%
%TD*%
%TA.AperFunction,ComponentPad*%
%ADD12R,1.778000X1.778000*%
%TD*%
%TA.AperFunction,SMDPad,CuDef*%
%ADD13R,2.600000X2.600000*%
%TD*%
%TA.AperFunction,ComponentPad*%
%ADD14C,2.032000*%
%TD*%
%TA.AperFunction,ComponentPad*%
%ADD15O,1.550000X0.890000*%
%TD*%
%TA.AperFunction,ComponentPad*%
%ADD16O,0.950000X1.250000*%
%TD*%
%TA.AperFunction,ComponentPad*%
%ADD17R,2.000000X2.000000*%
%TD*%
%TA.AperFunction,ComponentPad*%
%ADD18C,2.000000*%
%TD*%
%TA.AperFunction,SMDPad,CuDef*%
%ADD19R,2.000000X0.610000*%
%TD*%
%TA.AperFunction,SMDPad,CuDef*%
%ADD20R,3.600000X2.680000*%
%TD*%
%TA.AperFunction,ViaPad*%
%ADD21C,0.800000*%
%TD*%
%TA.AperFunction,Conductor*%
%ADD22C,0.250000*%
%TD*%
G04 APERTURE END LIST*
D10*
%TO.P,,1*%
%TO.N,N/C*%
X140300000Y-105900000D03*
%TD*%
D11*
%TO.P,D4,1*%
%TO.N,inner_nums*%
X146500000Y-103000000D03*
D12*
%TO.P,D4,2*%
%TO.N,F7*%
X153500000Y-103000000D03*
%TD*%
D11*
%TO.P,D19,1*%
%TO.N,pinky_top*%
X220100000Y-120000000D03*
D12*
%TO.P,D19,2*%
%TO.N,F6*%
X227100000Y-120000000D03*
%TD*%
D13*
%TO.P,S20,1*%
%TO.N,F0*%
X220325000Y-93050000D03*
%TO.P,S20,2*%
%TO.N,pinky_nums*%
X231875000Y-95250000D03*
%TD*%
%TO.P,S14,1*%
%TO.N,B6*%
X201925000Y-127050000D03*
%TO.P,S14,2*%
%TO.N,ring_home*%
X213475000Y-129250000D03*
%TD*%
D14*
%TO.P,S2,1*%
%TO.N,index_top*%
X173400000Y-112200000D03*
%TO.P,S2,2*%
%TO.N,B3*%
X168400000Y-110100000D03*
%TD*%
D11*
%TO.P,D11,1*%
%TO.N,middle_top*%
X183300000Y-120000000D03*
D12*
%TO.P,D11,2*%
%TO.N,F6*%
X190300000Y-120000000D03*
%TD*%
D11*
%TO.P,D25,1*%
%TO.N,VCC*%
X138000000Y-127000000D03*
D12*
%TO.P,D25,2*%
%TO.N,D0*%
X126000000Y-127000000D03*
%TD*%
D11*
%TO.P,,1*%
%TO.N,B3*%
X155400000Y-155600000D03*
%TD*%
%TO.P,D27,1*%
%TO.N,VCC*%
X138000000Y-135000000D03*
D12*
%TO.P,D27,2*%
%TO.N,D5*%
X126000000Y-135000000D03*
%TD*%
D11*
%TO.P,D9,1*%
%TO.N,middle_bottom*%
X183300000Y-154000000D03*
D12*
%TO.P,D9,2*%
%TO.N,F4*%
X190300000Y-154000000D03*
%TD*%
D13*
%TO.P,S13,1*%
%TO.N,B6*%
X201925000Y-144050000D03*
%TO.P,S13,2*%
%TO.N,ring_bottom*%
X213475000Y-146250000D03*
%TD*%
%TO.P,S19,1*%
%TO.N,F0*%
X220325000Y-110050000D03*
%TO.P,S19,2*%
%TO.N,pinky_top*%
X231875000Y-112250000D03*
%TD*%
D11*
%TO.P,D23,1*%
%TO.N,outer_top*%
X238500000Y-120000000D03*
D12*
%TO.P,D23,2*%
%TO.N,F6*%
X245500000Y-120000000D03*
%TD*%
D10*
%TO.P,,1*%
%TO.N,N/C*%
X177600000Y-106100000D03*
%TD*%
%TO.P,,1*%
%TO.N,N/C*%
X140000000Y-157200000D03*
%TD*%
D13*
%TO.P,S15,1*%
%TO.N,B6*%
X201925000Y-110050000D03*
%TO.P,S15,2*%
%TO.N,ring_top*%
X213475000Y-112250000D03*
%TD*%
D11*
%TO.P,D13,1*%
%TO.N,ring_bottom*%
X201700000Y-154000000D03*
D12*
%TO.P,D13,2*%
%TO.N,F4*%
X208700000Y-154000000D03*
%TD*%
D10*
%TO.P,,1*%
%TO.N,N/C*%
X232800000Y-106300000D03*
%TD*%
D13*
%TO.P,S5,1*%
%TO.N,B1*%
X146725000Y-93050000D03*
%TO.P,S5,2*%
%TO.N,inner_nums*%
X158275000Y-95250000D03*
%TD*%
D15*
%TO.P,,6*%
%TO.N,N/C*%
X119900000Y-133600000D03*
D16*
X122600000Y-127600000D03*
D15*
X119900000Y-126600000D03*
D16*
X122600000Y-132600000D03*
%TD*%
D13*
%TO.P,S17,1*%
%TO.N,F0*%
X220325000Y-144050000D03*
%TO.P,S17,2*%
%TO.N,pinky_bottom*%
X231875000Y-146250000D03*
%TD*%
%TO.P,S18,1*%
%TO.N,F0*%
X220325000Y-127050000D03*
%TO.P,S18,2*%
%TO.N,pinky_home*%
X231875000Y-129250000D03*
%TD*%
%TO.P,S22,1*%
%TO.N,F1*%
X238725000Y-127050000D03*
%TO.P,S22,2*%
%TO.N,outer_home*%
X250275000Y-129250000D03*
%TD*%
D11*
%TO.P,D18,1*%
%TO.N,pinky_home*%
X220100000Y-137000000D03*
D12*
%TO.P,D18,2*%
%TO.N,F5*%
X227100000Y-137000000D03*
%TD*%
D11*
%TO.P,D7,1*%
%TO.N,index_top*%
X164900000Y-120000000D03*
D12*
%TO.P,D7,2*%
%TO.N,F6*%
X171900000Y-120000000D03*
%TD*%
D11*
%TO.P,D8,1*%
%TO.N,index_nums*%
X164900000Y-103000000D03*
D12*
%TO.P,D8,2*%
%TO.N,F7*%
X171900000Y-103000000D03*
%TD*%
D13*
%TO.P,S4,1*%
%TO.N,B1*%
X146725000Y-127050000D03*
%TO.P,S4,2*%
%TO.N,inner_home*%
X158275000Y-129250000D03*
%TD*%
D11*
%TO.P,REF\u002A\u002A,1*%
%TO.N,VCC*%
X138000000Y-143000000D03*
%TD*%
D13*
%TO.P,S12,1*%
%TO.N,B2*%
X183525000Y-93050000D03*
%TO.P,S12,2*%
%TO.N,middle_nums*%
X195075000Y-95250000D03*
%TD*%
D11*
%TO.P,D2,1*%
%TO.N,inner_home*%
X146500000Y-137000000D03*
D12*
%TO.P,D2,2*%
%TO.N,F5*%
X153500000Y-137000000D03*
%TD*%
D11*
%TO.P,D26,1*%
%TO.N,VCC*%
X138000000Y-131000000D03*
D12*
%TO.P,D26,2*%
%TO.N,D2*%
X126000000Y-131000000D03*
%TD*%
D17*
%TO.P,,1*%
%TO.N,D3*%
X121380000Y-96030000D03*
D18*
%TO.P,,2*%
%TO.N,D2*%
X121380000Y-98570000D03*
%TO.P,,3*%
%TO.N,GND*%
X121380000Y-101110000D03*
%TO.P,,4*%
X121380000Y-103650000D03*
%TO.P,,5*%
%TO.N,D1*%
X121380000Y-106190000D03*
%TO.P,,6*%
%TO.N,D0*%
X121380000Y-108730000D03*
%TO.P,,7*%
%TO.N,D4*%
X121380000Y-111270000D03*
%TO.P,,8*%
%TO.N,C6*%
X121380000Y-113810000D03*
%TO.P,,9*%
%TO.N,D7*%
X121380000Y-116350000D03*
%TO.P,,10*%
%TO.N,E6*%
X121380000Y-118890000D03*
%TO.P,,11*%
%TO.N,B4*%
X121380000Y-121430000D03*
%TO.P,,12*%
%TO.N,B5*%
X121380000Y-123970000D03*
%TO.P,,13*%
%TO.N,B6*%
X136620000Y-123970000D03*
%TO.P,,14*%
%TO.N,B2*%
X136620000Y-121430000D03*
%TO.P,,15*%
%TO.N,B3*%
X136620000Y-118890000D03*
%TO.P,,16*%
%TO.N,B1*%
X136620000Y-116350000D03*
%TO.P,,17*%
%TO.N,F7*%
X136620000Y-113810000D03*
%TO.P,,18*%
%TO.N,F6*%
X136620000Y-111270000D03*
%TO.P,,19*%
%TO.N,F5*%
X136620000Y-108730000D03*
%TO.P,,20*%
%TO.N,F4*%
X136620000Y-106190000D03*
%TO.P,,21*%
%TO.N,VCC*%
X136620000Y-103650000D03*
%TO.P,,22*%
%TO.N,RST*%
X136620000Y-101110000D03*
%TO.P,,23*%
%TO.N,GND*%
X136620000Y-98570000D03*
%TO.P,,24*%
X136620000Y-96030000D03*
%TO.P,,25*%
%TO.N,B7*%
X123920000Y-123970000D03*
%TO.P,,26*%
%TO.N,D5*%
X126460000Y-123970000D03*
%TO.P,,27*%
%TO.N,C7*%
X129000000Y-123970000D03*
%TO.P,,28*%
%TO.N,F1*%
X131540000Y-123970000D03*
%TO.P,,29*%
%TO.N,F0*%
X134080000Y-123970000D03*
%TD*%
D13*
%TO.P,S16,1*%
%TO.N,B6*%
X201925000Y-93050000D03*
%TO.P,S16,2*%
%TO.N,ring_nums*%
X213475000Y-95250000D03*
%TD*%
D11*
%TO.P,,1*%
%TO.N,B1*%
X152700000Y-155600000D03*
%TD*%
D10*
%TO.P,,1*%
%TO.N,N/C*%
X140700000Y-123000000D03*
%TD*%
D11*
%TO.P,D6,1*%
%TO.N,index_home*%
X164900000Y-137000000D03*
D12*
%TO.P,D6,2*%
%TO.N,F5*%
X171900000Y-137000000D03*
%TD*%
D11*
%TO.P,,1*%
%TO.N,B2*%
X158100000Y-155600000D03*
%TD*%
%TO.P,D5,1*%
%TO.N,index_bottom*%
X164900000Y-152100000D03*
D12*
%TO.P,D5,2*%
%TO.N,F4*%
X171900000Y-152100000D03*
%TD*%
D13*
%TO.P,S10,1*%
%TO.N,B2*%
X183525000Y-127050000D03*
%TO.P,S10,2*%
%TO.N,middle_home*%
X195075000Y-129250000D03*
%TD*%
D11*
%TO.P,D1,1*%
%TO.N,inner_bottom*%
X146300000Y-152200000D03*
D12*
%TO.P,D1,2*%
%TO.N,F4*%
X153300000Y-152200000D03*
%TD*%
D13*
%TO.P,S11,1*%
%TO.N,B2*%
X183525000Y-110050000D03*
%TO.P,S11,2*%
%TO.N,middle_top*%
X195075000Y-112250000D03*
%TD*%
D11*
%TO.P,D21,1*%
%TO.N,outer_bottom*%
X238500000Y-154000000D03*
D12*
%TO.P,D21,2*%
%TO.N,F4*%
X245500000Y-154000000D03*
%TD*%
D13*
%TO.P,S7,1*%
%TO.N,B3*%
X165125000Y-127050000D03*
%TO.P,S7,2*%
%TO.N,index_home*%
X176675000Y-129250000D03*
%TD*%
%TO.P,S24,1*%
%TO.N,F1*%
X238725000Y-93050000D03*
%TO.P,S24,2*%
%TO.N,outer_nums*%
X250275000Y-95250000D03*
%TD*%
D10*
%TO.P,,1*%
%TO.N,N/C*%
X232800000Y-157300000D03*
%TD*%
D11*
%TO.P,D10,1*%
%TO.N,middle_home*%
X183300000Y-137000000D03*
D12*
%TO.P,D10,2*%
%TO.N,F5*%
X190300000Y-137000000D03*
%TD*%
D11*
%TO.P,D24,1*%
%TO.N,outer_nums*%
X238500000Y-103000000D03*
D12*
%TO.P,D24,2*%
%TO.N,F7*%
X245500000Y-103000000D03*
%TD*%
D11*
%TO.P,REF\u002A\u002A,1*%
%TO.N,trackpoint_reset*%
X138000000Y-145500000D03*
%TD*%
D13*
%TO.P,S23,1*%
%TO.N,F1*%
X238725000Y-110050000D03*
%TO.P,S23,2*%
%TO.N,outer_top*%
X250275000Y-112250000D03*
%TD*%
D11*
%TO.P,,1*%
%TO.N,B6*%
X160900000Y-155600000D03*
%TD*%
%TO.P,,1*%
%TO.N,C7*%
X150100000Y-155600000D03*
%TD*%
D13*
%TO.P,S8,1*%
%TO.N,B3*%
X165125000Y-93050000D03*
%TO.P,S8,2*%
%TO.N,index_nums*%
X176675000Y-95250000D03*
%TD*%
%TO.P,S9,1*%
%TO.N,B2*%
X183525000Y-144050000D03*
%TO.P,S9,2*%
%TO.N,middle_bottom*%
X195075000Y-146250000D03*
%TD*%
D11*
%TO.P,D16,1*%
%TO.N,ring_nums*%
X201700000Y-103000000D03*
D12*
%TO.P,D16,2*%
%TO.N,F7*%
X208700000Y-103000000D03*
%TD*%
D14*
%TO.P,S1,1*%
%TO.N,inner_top*%
X155000000Y-112200000D03*
%TO.P,S1,2*%
%TO.N,B1*%
X150000000Y-110100000D03*
%TD*%
D13*
%TO.P,S21,1*%
%TO.N,F1*%
X238725000Y-144050000D03*
%TO.P,S21,2*%
%TO.N,outer_bottom*%
X250275000Y-146250000D03*
%TD*%
D10*
%TO.P,,1*%
%TO.N,N/C*%
X177600000Y-123200000D03*
%TD*%
D11*
%TO.P,D12,1*%
%TO.N,middle_nums*%
X183300000Y-103000000D03*
D12*
%TO.P,D12,2*%
%TO.N,F7*%
X190300000Y-103000000D03*
%TD*%
D11*
%TO.P,D3,1*%
%TO.N,inner_top*%
X146500000Y-120000000D03*
D12*
%TO.P,D3,2*%
%TO.N,F6*%
X153500000Y-120000000D03*
%TD*%
D11*
%TO.P,D15,1*%
%TO.N,ring_top*%
X201700000Y-120000000D03*
D12*
%TO.P,D15,2*%
%TO.N,F6*%
X208700000Y-120000000D03*
%TD*%
D11*
%TO.P,D28,1*%
%TO.N,trackpoint_reset*%
X138000000Y-139000000D03*
D12*
%TO.P,D28,2*%
%TO.N,GND*%
X126000000Y-139000000D03*
%TD*%
D11*
%TO.P,D14,1*%
%TO.N,ring_home*%
X201700000Y-137000000D03*
D12*
%TO.P,D14,2*%
%TO.N,F5*%
X208700000Y-137000000D03*
%TD*%
D10*
%TO.P,,1*%
%TO.N,N/C*%
X159200000Y-108500000D03*
%TD*%
D11*
%TO.P,D22,1*%
%TO.N,outer_home*%
X238500000Y-137000000D03*
D12*
%TO.P,D22,2*%
%TO.N,F5*%
X245500000Y-137000000D03*
%TD*%
D11*
%TO.P,,1*%
%TO.N,F0*%
X163500000Y-155600000D03*
%TD*%
D13*
%TO.P,S3,1*%
%TO.N,B1*%
X146725000Y-144050000D03*
%TO.P,S3,2*%
%TO.N,inner_bottom*%
X158275000Y-146250000D03*
%TD*%
D11*
%TO.P,D17,1*%
%TO.N,pinky_bottom*%
X220100000Y-154000000D03*
D12*
%TO.P,D17,2*%
%TO.N,F4*%
X227100000Y-154000000D03*
%TD*%
D11*
%TO.P,D20,1*%
%TO.N,pinky_nums*%
X220100000Y-103000000D03*
D12*
%TO.P,D20,2*%
%TO.N,F7*%
X227100000Y-103000000D03*
%TD*%
D10*
%TO.P,,1*%
%TO.N,N/C*%
X128000000Y-104000000D03*
%TD*%
D13*
%TO.P,S6,1*%
%TO.N,B3*%
X165125000Y-144050000D03*
%TO.P,S6,2*%
%TO.N,index_bottom*%
X176675000Y-146250000D03*
%TD*%
D19*
%TO.P,,1*%
%TO.N,D2*%
X129300000Y-130600000D03*
%TO.P,,2*%
%TO.N,trackpoint_reset*%
X129300000Y-131600000D03*
%TO.P,,3*%
%TO.N,N/C*%
X129300000Y-132600000D03*
%TO.P,,4*%
X129300000Y-133600000D03*
%TO.P,,5*%
X129300000Y-134600000D03*
%TO.P,,6*%
%TO.N,D5*%
X129300000Y-135600000D03*
%TO.P,,7*%
%TO.N,GND*%
X129300000Y-136600000D03*
%TO.P,,8*%
%TO.N,VCC*%
X129300000Y-137600000D03*
D20*
%TO.P,,MP*%
%TO.N,N/C*%
X132100000Y-140590000D03*
X132100000Y-127610000D03*
%TD*%
D21*
%TO.N,B3*%
X163622989Y-122877011D03*
X144100000Y-121900000D03*
%TO.N,B2*%
X182022989Y-123477011D03*
X144100000Y-123100000D03*
%TO.N,B6*%
X200422989Y-125077011D03*
X144200000Y-125000000D03*
%TO.N,F0*%
X141900000Y-126400000D03*
%TO.N,F1*%
X237200000Y-123100000D03*
X137200000Y-129000000D03*
X144100000Y-127800000D03*
%TO.N,GND*%
X118800000Y-124100000D03*
%TO.N,VCC*%
X124000000Y-127600000D03*
X132800000Y-136500000D03*
%TD*%
D22*
%TO.N,inner_top*%
X148954323Y-120000000D02*
X146500000Y-120000000D01*
X155000000Y-112200000D02*
X155000000Y-113954323D01*
X155000000Y-113954323D02*
X148954323Y-120000000D01*
%TO.N,B1*%
X151300000Y-157000000D02*
X149294033Y-157000000D01*
X137620000Y-117350000D02*
X144950000Y-117350000D01*
X146725000Y-98508008D02*
X146725000Y-93050000D01*
X146725000Y-144050000D02*
X143274579Y-140599579D01*
X149294033Y-157000000D02*
X143274579Y-150980546D01*
X145007587Y-105107587D02*
X145007587Y-100225421D01*
X136620000Y-116350000D02*
X137620000Y-117350000D01*
X144950000Y-117350000D02*
X145222989Y-117077011D01*
X145222989Y-117077011D02*
X150000000Y-112300000D01*
X146725000Y-127050000D02*
X145222989Y-125547989D01*
X143274579Y-147500421D02*
X146725000Y-144050000D01*
X145222989Y-125547989D02*
X145222989Y-117077011D01*
X150000000Y-110100000D02*
X145007587Y-105107587D01*
X143274579Y-140599579D02*
X143274579Y-130500421D01*
X143274579Y-130500421D02*
X146725000Y-127050000D01*
X150000000Y-112300000D02*
X150000000Y-110100000D01*
X145007587Y-100225421D02*
X146725000Y-98508008D01*
X152700000Y-155600000D02*
X151300000Y-157000000D01*
X143274579Y-150980546D02*
X143274579Y-147500421D01*
%TO.N,index_top*%
X173400000Y-113954323D02*
X167354323Y-120000000D01*
X173400000Y-112200000D02*
X173400000Y-113954323D01*
X167354323Y-120000000D02*
X164900000Y-120000000D01*
%TO.N,B3*%
X165125000Y-145875000D02*
X165125000Y-144050000D01*
X163622989Y-136471044D02*
X163622989Y-142547989D01*
X163622989Y-122877011D02*
X163622989Y-125547989D01*
X165125000Y-144050000D02*
X164250000Y-144050000D01*
X166310979Y-116783054D02*
X163622989Y-119471044D01*
X163622989Y-105322989D02*
X168400000Y-110100000D01*
X136620000Y-118890000D02*
X141090000Y-118890000D01*
X165125000Y-100969033D02*
X163622989Y-102471044D01*
X141090000Y-118890000D02*
X144100000Y-121900000D01*
X165125000Y-134969033D02*
X163622989Y-136471044D01*
X166310979Y-112189021D02*
X166310979Y-116783054D01*
X163622989Y-119471044D02*
X163622989Y-122877011D01*
X165125000Y-127050000D02*
X165125000Y-134969033D01*
X163622989Y-102471044D02*
X163622989Y-105322989D01*
X163622989Y-142547989D02*
X165125000Y-144050000D01*
X163622989Y-125547989D02*
X165125000Y-127050000D01*
X155400000Y-155600000D02*
X165125000Y-145875000D01*
X165125000Y-93050000D02*
X165125000Y-100969033D01*
X168400000Y-110100000D02*
X166310979Y-112189021D01*
%TO.N,inner_bottom*%
X153316144Y-147910979D02*
X154179744Y-148774579D01*
X146300000Y-152200000D02*
X146300000Y-150745677D01*
X158275000Y-146250000D02*
X155750421Y-148774579D01*
X146300000Y-150745677D02*
X149134698Y-147910979D01*
X155750421Y-148774579D02*
X154179744Y-148774579D01*
X149134698Y-147910979D02*
X153316144Y-147910979D01*
%TO.N,inner_home*%
X154179744Y-131774579D02*
X148954323Y-137000000D01*
X155750421Y-131774579D02*
X154179744Y-131774579D01*
X148954323Y-137000000D02*
X146500000Y-137000000D01*
X158275000Y-129250000D02*
X155750421Y-131774579D01*
%TO.N,inner_nums*%
X156400479Y-97124521D02*
X154829802Y-97124521D01*
X158275000Y-95250000D02*
X156400479Y-97124521D01*
X148954323Y-103000000D02*
X146500000Y-103000000D01*
X154829802Y-97124521D02*
X148954323Y-103000000D01*
%TO.N,index_bottom*%
X164900000Y-150545677D02*
X167534698Y-147910979D01*
X176675000Y-146250000D02*
X174150421Y-148774579D01*
X167534698Y-147910979D02*
X171761821Y-147910979D01*
X174150421Y-148774579D02*
X172625421Y-148774579D01*
X171761821Y-147910979D02*
X172625421Y-148774579D01*
X164900000Y-152100000D02*
X164900000Y-150545677D01*
%TO.N,index_home*%
X176675000Y-129250000D02*
X174150421Y-131774579D01*
X174150421Y-131774579D02*
X172579744Y-131774579D01*
X167354323Y-137000000D02*
X164900000Y-137000000D01*
X172579744Y-131774579D02*
X167354323Y-137000000D01*
%TO.N,index_nums*%
X167400000Y-103000000D02*
X164900000Y-103000000D01*
X176675000Y-95250000D02*
X174150421Y-97774579D01*
X172625421Y-97774579D02*
X167400000Y-103000000D01*
X174150421Y-97774579D02*
X172625421Y-97774579D01*
%TO.N,middle_bottom*%
X195075000Y-146250000D02*
X192550421Y-148774579D01*
X190979744Y-148774579D02*
X185754323Y-154000000D01*
X192550421Y-148774579D02*
X190979744Y-148774579D01*
X185754323Y-154000000D02*
X183300000Y-154000000D01*
%TO.N,B2*%
X182022989Y-102471044D02*
X183525000Y-100969033D01*
X182022989Y-123477011D02*
X182022989Y-117077011D01*
X182022989Y-117077011D02*
X183525000Y-115575000D01*
X181916504Y-142441504D02*
X181916504Y-134116504D01*
X136620000Y-121430000D02*
X142605386Y-121430000D01*
X183525000Y-127050000D02*
X182022989Y-125547989D01*
X182377022Y-144050000D02*
X183525000Y-144050000D01*
X183525000Y-132508008D02*
X183525000Y-127050000D01*
X160300000Y-153400000D02*
X174175000Y-153400000D01*
X182022989Y-108547989D02*
X182022989Y-102471044D01*
X182022989Y-125547989D02*
X182022989Y-123477011D01*
X142605386Y-121430000D02*
X144100000Y-122924614D01*
X181916504Y-134116504D02*
X183525000Y-132508008D01*
X183525000Y-110050000D02*
X182022989Y-108547989D01*
X183525000Y-100969033D02*
X183525000Y-93050000D01*
X158100000Y-155600000D02*
X160300000Y-153400000D01*
X183525000Y-144050000D02*
X181916504Y-142441504D01*
X174175000Y-153400000D02*
X183525000Y-144050000D01*
X183525000Y-115575000D02*
X183525000Y-110050000D01*
X144100000Y-122924614D02*
X144100000Y-123100000D01*
%TO.N,middle_home*%
X186566992Y-137000000D02*
X192442471Y-131124521D01*
X193200479Y-131124521D02*
X195075000Y-129250000D01*
X192442471Y-131124521D02*
X193200479Y-131124521D01*
X183300000Y-137000000D02*
X186566992Y-137000000D01*
%TO.N,middle_top*%
X183300000Y-120000000D02*
X185754323Y-120000000D01*
X193200479Y-114124521D02*
X195075000Y-112250000D01*
X191629802Y-114124521D02*
X193200479Y-114124521D01*
X185754323Y-120000000D02*
X191629802Y-114124521D01*
%TO.N,middle_nums*%
X191025421Y-97774579D02*
X185800000Y-103000000D01*
X185800000Y-103000000D02*
X183300000Y-103000000D01*
X192550421Y-97774579D02*
X191025421Y-97774579D01*
X195075000Y-95250000D02*
X192550421Y-97774579D01*
%TO.N,ring_bottom*%
X204154323Y-154000000D02*
X201700000Y-154000000D01*
X213475000Y-146250000D02*
X210950421Y-148774579D01*
X209379744Y-148774579D02*
X204154323Y-154000000D01*
X210950421Y-148774579D02*
X209379744Y-148774579D01*
%TO.N,B6*%
X200422989Y-108547989D02*
X201925000Y-110050000D01*
X200422989Y-142547989D02*
X201925000Y-144050000D01*
X137620000Y-124970000D02*
X144170000Y-124970000D01*
X200422989Y-136471044D02*
X200422989Y-142547989D01*
X200422989Y-125077011D02*
X200422989Y-125547989D01*
X136620000Y-123970000D02*
X137620000Y-124970000D01*
X201925000Y-127050000D02*
X201925000Y-134969033D01*
X200422989Y-119471044D02*
X200422989Y-125077011D01*
X201925000Y-117969033D02*
X200422989Y-119471044D01*
X201925000Y-134969033D02*
X200422989Y-136471044D01*
X162650480Y-153849520D02*
X179651454Y-153849520D01*
X179651454Y-153849520D02*
X189450974Y-144050000D01*
X160900000Y-155600000D02*
X162650480Y-153849520D01*
X189450974Y-144050000D02*
X201925000Y-144050000D01*
X200422989Y-125547989D02*
X201925000Y-127050000D01*
X201925000Y-98508008D02*
X200422989Y-100010019D01*
X144170000Y-124970000D02*
X144200000Y-125000000D01*
X201925000Y-110050000D02*
X201925000Y-117969033D01*
X201925000Y-93050000D02*
X201925000Y-98508008D01*
X200422989Y-100010019D02*
X200422989Y-108547989D01*
%TO.N,ring_home*%
X211600479Y-131124521D02*
X210029802Y-131124521D01*
X210029802Y-131124521D02*
X204154323Y-137000000D01*
X213475000Y-129250000D02*
X211600479Y-131124521D01*
X204154323Y-137000000D02*
X201700000Y-137000000D01*
%TO.N,ring_top*%
X210950421Y-114774579D02*
X209379744Y-114774579D01*
X204154323Y-120000000D02*
X201700000Y-120000000D01*
X209379744Y-114774579D02*
X204154323Y-120000000D01*
X213475000Y-112250000D02*
X210950421Y-114774579D01*
%TO.N,ring_nums*%
X211600479Y-97124521D02*
X210075479Y-97124521D01*
X210075479Y-97124521D02*
X204200000Y-103000000D01*
X204200000Y-103000000D02*
X201700000Y-103000000D01*
X213475000Y-95250000D02*
X211600479Y-97124521D01*
%TO.N,pinky_bottom*%
X222554323Y-154000000D02*
X220100000Y-154000000D01*
X231875000Y-146250000D02*
X229350421Y-148774579D01*
X229350421Y-148774579D02*
X227779744Y-148774579D01*
X227779744Y-148774579D02*
X222554323Y-154000000D01*
%TO.N,F0*%
X210766992Y-155600000D02*
X220325000Y-146041992D01*
X220325000Y-132575000D02*
X220325000Y-127050000D01*
X220325000Y-98508008D02*
X220325000Y-93050000D01*
X220325000Y-127050000D02*
X218822989Y-125547989D01*
X135832989Y-125722989D02*
X134080000Y-123970000D01*
X220325000Y-110050000D02*
X218607587Y-108332587D01*
X220325000Y-115575000D02*
X220325000Y-110050000D01*
X218822989Y-134077011D02*
X220325000Y-132575000D01*
X218822989Y-125547989D02*
X218822989Y-117077011D01*
X218822989Y-142547989D02*
X218822989Y-134077011D01*
X218607587Y-100225421D02*
X220325000Y-98508008D01*
X220325000Y-146041992D02*
X220325000Y-144050000D01*
X218607587Y-108332587D02*
X218607587Y-100225421D01*
X141222989Y-125722989D02*
X135832989Y-125722989D01*
X218822989Y-117077011D02*
X220325000Y-115575000D01*
X141900000Y-126400000D02*
X141222989Y-125722989D01*
X220325000Y-144050000D02*
X218822989Y-142547989D01*
X163500000Y-155600000D02*
X210766992Y-155600000D01*
%TO.N,pinky_home*%
X227779744Y-131774579D02*
X222554323Y-137000000D01*
X222554323Y-137000000D02*
X220100000Y-137000000D01*
X229350421Y-131774579D02*
X227779744Y-131774579D01*
X231875000Y-129250000D02*
X229350421Y-131774579D01*
%TO.N,pinky_top*%
X227779744Y-114774579D02*
X222554323Y-120000000D01*
X231875000Y-112250000D02*
X229350421Y-114774579D01*
X229350421Y-114774579D02*
X227779744Y-114774579D01*
X222554323Y-120000000D02*
X220100000Y-120000000D01*
%TO.N,pinky_nums*%
X231875000Y-95250000D02*
X229350421Y-97774579D01*
X229350421Y-97774579D02*
X227779744Y-97774579D01*
X222554323Y-103000000D02*
X220100000Y-103000000D01*
X227779744Y-97774579D02*
X222554323Y-103000000D01*
%TO.N,outer_bottom*%
X250275000Y-146250000D02*
X247750421Y-148774579D01*
X241000000Y-154000000D02*
X238500000Y-154000000D01*
X247750421Y-148774579D02*
X246225421Y-148774579D01*
X246225421Y-148774579D02*
X241000000Y-154000000D01*
%TO.N,F1*%
X238725000Y-98508008D02*
X237222989Y-100010019D01*
X237222989Y-119471044D02*
X237222989Y-125547989D01*
X238725000Y-93050000D02*
X238725000Y-98508008D01*
X238725000Y-127050000D02*
X238725000Y-134969033D01*
X238725000Y-134969033D02*
X237222989Y-136471044D01*
X237222989Y-125547989D02*
X238725000Y-127050000D01*
X137200000Y-129000000D02*
X142900000Y-129000000D01*
X238725000Y-110050000D02*
X238725000Y-117969033D01*
X237222989Y-136471044D02*
X237222989Y-142547989D01*
X237222989Y-108547989D02*
X238725000Y-110050000D01*
X238725000Y-117969033D02*
X237222989Y-119471044D01*
X142900000Y-129000000D02*
X144100000Y-127800000D01*
X237222989Y-142547989D02*
X238725000Y-144050000D01*
X237222989Y-100010019D02*
X237222989Y-108547989D01*
%TO.N,outer_home*%
X240954323Y-137000000D02*
X238500000Y-137000000D01*
X250275000Y-129250000D02*
X247750421Y-131774579D01*
X247750421Y-131774579D02*
X246179744Y-131774579D01*
X246179744Y-131774579D02*
X240954323Y-137000000D01*
%TO.N,outer_top*%
X247750421Y-114774579D02*
X246225421Y-114774579D01*
X241000000Y-120000000D02*
X238500000Y-120000000D01*
X250275000Y-112250000D02*
X247750421Y-114774579D01*
X246225421Y-114774579D02*
X241000000Y-120000000D01*
%TO.N,outer_nums*%
X247750421Y-97774579D02*
X246225421Y-97774579D01*
X246225421Y-97774579D02*
X241000000Y-103000000D01*
X250275000Y-95250000D02*
X247750421Y-97774579D01*
X241000000Y-103000000D02*
X238500000Y-103000000D01*
%TO.N,GND*%
X123881735Y-139000000D02*
X126000000Y-139000000D01*
X136620000Y-98570000D02*
X123920000Y-98570000D01*
X118800000Y-133918265D02*
X123881735Y-139000000D01*
X126000000Y-138650000D02*
X126000000Y-139000000D01*
X118800000Y-124100000D02*
X118800000Y-133918265D01*
X123920000Y-98570000D02*
X121380000Y-101110000D01*
X129300000Y-136600000D02*
X128050000Y-136600000D01*
X128050000Y-136600000D02*
X126000000Y-138650000D01*
%TO.N,VCC*%
X124000000Y-127600000D02*
X125674511Y-129274511D01*
X135725489Y-129274511D02*
X138000000Y-127000000D01*
X131700000Y-137600000D02*
X132800000Y-136500000D01*
X125674511Y-129274511D02*
X135725489Y-129274511D01*
X129300000Y-137600000D02*
X131700000Y-137600000D01*
%TO.N,D2*%
X121800000Y-127081735D02*
X121800000Y-128080692D01*
X129300000Y-130600000D02*
X126400000Y-130600000D01*
X120055489Y-125337224D02*
X121800000Y-127081735D01*
X124719308Y-131000000D02*
X126000000Y-131000000D01*
X120055489Y-99894511D02*
X120055489Y-125337224D01*
X121380000Y-98570000D02*
X120055489Y-99894511D01*
X126400000Y-130600000D02*
X126000000Y-131000000D01*
X121800000Y-128080692D02*
X124719308Y-131000000D01*
%TO.N,D5*%
X129300000Y-135600000D02*
X126600000Y-135600000D01*
X126600000Y-135600000D02*
X126000000Y-135000000D01*
%TO.N,C7*%
X150100000Y-155600000D02*
X150200000Y-155500000D01*
%TO.N,trackpoint_reset*%
X130600000Y-131600000D02*
X138000000Y-139000000D01*
X129300000Y-131600000D02*
X130600000Y-131600000D01*
%TD*%
M02*
