%TF.GenerationSoftware,KiCad,Pcbnew,(6.0.4)*%
%TF.CreationDate,2024-05-03T20:26:16-07:00*%
%TF.ProjectId,right_ortholinear,72696768-745f-46f7-9274-686f6c696e65,v1.0.0*%
%TF.SameCoordinates,Original*%
%TF.FileFunction,Legend,Bot*%
%TF.FilePolarity,Positive*%
%FSLAX46Y46*%
G04 Gerber Fmt 4.6, Leading zero omitted, Abs format (unit mm)*
G04 Created by KiCad (PCBNEW (6.0.4)) date 2024-05-03 20:26:16*
%MOMM*%
%LPD*%
G01*
G04 APERTURE LIST*
%ADD10C,0.150000*%
%ADD11C,0.120000*%
%ADD12R,2.000000X2.000000*%
%ADD13C,2.000000*%
G04 APERTURE END LIST*
D10*
X134019047Y-120752380D02*
X134019047Y-121466666D01*
X134066666Y-121609523D01*
X134161904Y-121704761D01*
X134304761Y-121752380D01*
X134400000Y-121752380D01*
X133066666Y-121752380D02*
X133542857Y-121752380D01*
X133542857Y-120752380D01*
X132161904Y-121657142D02*
X132209523Y-121704761D01*
X132352380Y-121752380D01*
X132447619Y-121752380D01*
X132590476Y-121704761D01*
X132685714Y-121609523D01*
X132733333Y-121514285D01*
X132780952Y-121323809D01*
X132780952Y-121180952D01*
X132733333Y-120990476D01*
X132685714Y-120895238D01*
X132590476Y-120800000D01*
X132447619Y-120752380D01*
X132352380Y-120752380D01*
X132209523Y-120800000D01*
X132161904Y-120847619D01*
X131447619Y-120752380D02*
X131447619Y-121466666D01*
X131495238Y-121609523D01*
X131590476Y-121704761D01*
X131733333Y-121752380D01*
X131828571Y-121752380D01*
X130495238Y-121752380D02*
X130971428Y-121752380D01*
X130971428Y-120752380D01*
X129590476Y-121657142D02*
X129638095Y-121704761D01*
X129780952Y-121752380D01*
X129876190Y-121752380D01*
X130019047Y-121704761D01*
X130114285Y-121609523D01*
X130161904Y-121514285D01*
X130209523Y-121323809D01*
X130209523Y-121180952D01*
X130161904Y-120990476D01*
X130114285Y-120895238D01*
X130019047Y-120800000D01*
X129876190Y-120752380D01*
X129780952Y-120752380D01*
X129638095Y-120800000D01*
X129590476Y-120847619D01*
X128876190Y-120752380D02*
X128876190Y-121466666D01*
X128923809Y-121609523D01*
X129019047Y-121704761D01*
X129161904Y-121752380D01*
X129257142Y-121752380D01*
X127923809Y-121752380D02*
X128400000Y-121752380D01*
X128400000Y-120752380D01*
X127019047Y-121657142D02*
X127066666Y-121704761D01*
X127209523Y-121752380D01*
X127304761Y-121752380D01*
X127447619Y-121704761D01*
X127542857Y-121609523D01*
X127590476Y-121514285D01*
X127638095Y-121323809D01*
X127638095Y-121180952D01*
X127590476Y-120990476D01*
X127542857Y-120895238D01*
X127447619Y-120800000D01*
X127304761Y-120752380D01*
X127209523Y-120752380D01*
X127066666Y-120800000D01*
X127019047Y-120847619D01*
X126304761Y-120752380D02*
X126304761Y-121466666D01*
X126352380Y-121609523D01*
X126447619Y-121704761D01*
X126590476Y-121752380D01*
X126685714Y-121752380D01*
X125352380Y-121752380D02*
X125828571Y-121752380D01*
X125828571Y-120752380D01*
X124447619Y-121657142D02*
X124495238Y-121704761D01*
X124638095Y-121752380D01*
X124733333Y-121752380D01*
X124876190Y-121704761D01*
X124971428Y-121609523D01*
X125019047Y-121514285D01*
X125066666Y-121323809D01*
X125066666Y-121180952D01*
X125019047Y-120990476D01*
X124971428Y-120895238D01*
X124876190Y-120800000D01*
X124733333Y-120752380D01*
X124638095Y-120752380D01*
X124495238Y-120800000D01*
X124447619Y-120847619D01*
%TO.C,*%
D11*
X134160000Y-141145000D02*
X134700000Y-141145000D01*
X130190000Y-138165000D02*
X130190000Y-138990000D01*
X130190000Y-130035000D02*
X128390000Y-130035000D01*
X134700000Y-126030000D02*
X134700000Y-127055000D01*
X134700000Y-141145000D02*
X134700000Y-142170000D01*
X135810000Y-126030000D02*
X134700000Y-126030000D01*
X135810000Y-142170000D02*
X135810000Y-126030000D01*
X134700000Y-127055000D02*
X134160000Y-127055000D01*
X130190000Y-129210000D02*
X130190000Y-130035000D01*
X134700000Y-142170000D02*
X135810000Y-142170000D01*
%TD*%
D12*
%TO.C,*%
X121380000Y-96030000D03*
D13*
X121380000Y-98570000D03*
X121380000Y-101110000D03*
X121380000Y-103650000D03*
X121380000Y-106190000D03*
X121380000Y-108730000D03*
X121380000Y-111270000D03*
X121380000Y-113810000D03*
X121380000Y-116350000D03*
X121380000Y-118890000D03*
X121380000Y-121430000D03*
X121380000Y-123970000D03*
X136620000Y-123970000D03*
X136620000Y-121430000D03*
X136620000Y-118890000D03*
X136620000Y-116350000D03*
X136620000Y-113810000D03*
X136620000Y-111270000D03*
X136620000Y-108730000D03*
X136620000Y-106190000D03*
X136620000Y-103650000D03*
X136620000Y-101110000D03*
X136620000Y-98570000D03*
X136620000Y-96030000D03*
X123920000Y-123970000D03*
X126460000Y-123970000D03*
X129000000Y-123970000D03*
X131540000Y-123970000D03*
X134080000Y-123970000D03*
%TD*%
M02*
