M48
; DRILL file {KiCad (6.0.4)} date Tue Dec 12 22:18:05 2023
; FORMAT={-:-/ absolute / inch / decimal}
; #@! TF.CreationDate,2023-12-12T22:18:05-08:00
; #@! TF.GenerationSoftware,Kicad,Pcbnew,(6.0.4)
; #@! TF.FileFunction,Plated,1,2,PTH
FMAT,2
INCH
; #@! TA.AperFunction,Plated,PTH,ViaDrill
T1C0.0157
; #@! TA.AperFunction,Plated,PTH,ComponentDrill
T2C0.0197
; #@! TA.AperFunction,Plated,PTH,ComponentDrill
T3C0.0217
; #@! TA.AperFunction,Plated,PTH,ComponentDrill
T4C0.0390
; #@! TA.AperFunction,Plated,PTH,ComponentDrill
T5C0.0433
; #@! TA.AperFunction,Plated,PTH,ComponentDrill
T6C0.0500
; #@! TA.AperFunction,Plated,PTH,ComponentDrill
T7C0.0591
; #@! TA.AperFunction,Plated,PTH,ComponentDrill
T8C0.0787
; #@! TA.AperFunction,Plated,PTH,ComponentDrill
T9C0.3150
%
G90
G05
T1
X4.7848Y-4.7252
X4.8504Y-4.7244
X4.9764Y-4.875
X4.9764Y-4.9675
X5.0945Y-3.8504
X5.1024Y-5.5197
X5.1654Y-5.3937
X5.378Y-4.9213
X5.4733Y-5.1487
X5.5315Y-5.189
X5.622Y-5.9843
X5.6614Y-5.3543
X5.7717Y-5.315
X5.8636Y-4.7202
X5.8838Y-4.754
X7.1575Y-6.4173
X7.189Y-6.3858
X7.6772Y-5.3701
X8.3307Y-4.5433
T4
X5.3346Y-4.8228
X5.4331Y-4.8228
X5.5315Y-4.8228
X5.5315Y-5.0984
X5.7677Y-3.3858
X5.7677Y-4.1339
X5.7677Y-4.8425
X5.7677Y-5.5512
X6.0433Y-3.3858
X6.0433Y-4.1339
X6.0433Y-4.8425
X6.0433Y-5.5512
X6.5157Y-3.2185
X6.5157Y-3.9665
X6.5157Y-4.6752
X6.5157Y-5.3839
X6.7913Y-3.2185
X6.7913Y-3.9665
X6.7913Y-4.6752
X6.7913Y-5.3839
X7.2638Y-3.0512
X7.2638Y-3.7992
X7.2638Y-4.5079
X7.2638Y-5.2165
X7.2638Y-6.1614
X7.2638Y-6.2598
X7.3622Y-6.1614
X7.3622Y-6.2598
X7.4606Y-6.1614
X7.4606Y-6.2598
X7.5394Y-3.0512
X7.5394Y-3.7992
X7.5394Y-4.5079
X7.5394Y-5.2165
X7.7756Y-4.4193
X7.7756Y-4.6949
X7.7756Y-4.8917
X7.7756Y-5.1673
X7.7756Y-5.3642
X7.7756Y-5.6398
X8.0118Y-3.2185
X8.0118Y-3.9665
X8.0118Y-4.6752
X8.0118Y-5.3839
X8.2874Y-3.2185
X8.2874Y-3.9665
X8.2874Y-4.6752
X8.2874Y-5.3839
X8.5236Y-4.5866
X8.5236Y-4.8622
X8.5236Y-5.0591
X8.5236Y-5.3346
X8.5236Y-5.5315
X8.5236Y-5.8071
X8.7598Y-3.3858
X8.7598Y-4.1339
X8.7598Y-4.8425
X8.7598Y-5.5512
X9.0354Y-3.3858
X9.0354Y-4.1339
X9.0354Y-4.8425
X9.0354Y-5.5512
X9.2717Y-4.8228
X9.2717Y-5.0984
X9.2717Y-5.2953
X9.2717Y-5.5709
X9.5079Y-3.3858
X9.5079Y-4.1339
X9.5079Y-4.8425
X9.5079Y-5.5512
X9.7835Y-3.3858
X9.7835Y-4.1339
X9.7835Y-4.8425
X9.7835Y-5.5512
T5
X4.5901Y-6.8601
X4.7639Y-6.7676
X5.1604Y-6.7955
X5.3514Y-6.7478
X5.689Y-6.5354
X5.8858Y-6.5354
T6
X4.8083Y-7.0607
X5.0209Y-7.0412
X5.7874Y-6.815
X5.9055Y-3.5079
X5.9055Y-4.2559
X5.9055Y-4.9646
X5.9055Y-5.6732
X5.9843Y-6.8976
X6.1024Y-3.5906
X6.1024Y-4.3386
X6.1024Y-5.0472
X6.1024Y-5.7559
X6.6535Y-3.3406
X6.6535Y-4.0886
X6.6535Y-4.7972
X6.6535Y-5.5059
X6.8504Y-3.4232
X6.8504Y-4.1713
X6.8504Y-4.8799
X6.8504Y-5.5886
X7.4016Y-3.1732
X7.4016Y-3.9213
X7.4016Y-4.6299
X7.4016Y-5.3386
X7.5984Y-3.2559
X7.5984Y-4.0039
X7.5984Y-4.7126
X7.5984Y-5.4213
X8.1496Y-3.3406
X8.1496Y-4.0886
X8.1496Y-4.7972
X8.1496Y-5.5059
X8.3465Y-3.4232
X8.3465Y-4.1713
X8.3465Y-4.8799
X8.3465Y-5.5886
X8.8976Y-3.5079
X8.8976Y-4.2559
X8.8976Y-4.9646
X8.8976Y-5.6732
X9.0945Y-3.5906
X9.0945Y-4.3386
X9.0945Y-5.0472
X9.0945Y-5.7559
X9.6457Y-3.5079
X9.6457Y-4.2559
X9.6457Y-4.9646
X9.6457Y-5.6732
X9.8425Y-3.5906
X9.8425Y-4.3386
X9.8425Y-5.0472
X9.8425Y-5.7559
T7
X4.7787Y-3.5445
X4.7787Y-3.6445
X4.7787Y-3.7445
X4.7787Y-3.8445
X4.7787Y-3.9445
X4.7787Y-4.0445
X4.7787Y-4.1445
X4.7787Y-4.2445
X4.7787Y-4.3445
X4.7787Y-4.4445
X4.7787Y-4.5445
X4.7787Y-4.6445
X4.8787Y-4.6445
X4.9787Y-4.6445
X5.0787Y-4.6445
X5.1787Y-4.6445
X5.2787Y-4.6445
X5.3787Y-3.5445
X5.3787Y-3.6445
X5.3787Y-3.7445
X5.3787Y-3.8445
X5.3787Y-3.9445
X5.3787Y-4.0445
X5.3787Y-4.1445
X5.3787Y-4.2445
X5.3787Y-4.3445
X5.3787Y-4.4445
X5.3787Y-4.5445
X5.3787Y-4.6445
T8
X4.8779Y-6.3949
X5.0837Y-7.5786
X5.4134Y-6.2598
X5.5315Y-4.3209
X5.5315Y-5.9055
X6.2795Y-3.5728
X6.6535Y-6.0925
X6.9291Y-6.8228
X6.9291Y-7.2717
X7.0276Y-4.3209
X7.0276Y-5.0295
X7.4409Y-6.8228
X7.4409Y-7.2717
X7.7756Y-3.4055
X9.2717Y-3.7402
X9.2717Y-5.9055
T9
X6.2795Y-4.7638
T2
G00X4.7726Y-4.7835
M15
G01X4.747Y-4.7835
M16
G05
G00X4.7726Y-5.0591
M15
G01X4.747Y-5.0591
M16
G05
T3
G00X4.8661Y-4.8169
M15
G01X4.8661Y-4.8287
M16
G05
G00X4.8661Y-5.0138
M15
G01X4.8661Y-5.0256
M16
G05
T0
M30
