%TF.GenerationSoftware,KiCad,Pcbnew,(6.0.4)*%
%TF.CreationDate,2023-12-12T22:18:02-08:00*%
%TF.ProjectId,keyboard,6b657962-6f61-4726-942e-6b696361645f,v1.0.0*%
%TF.SameCoordinates,Original*%
%TF.FileFunction,Profile,NP*%
%FSLAX46Y46*%
G04 Gerber Fmt 4.6, Leading zero omitted, Abs format (unit mm)*
G04 Created by KiCad (PCBNEW (6.0.4)) date 2023-12-12 22:18:02*
%MOMM*%
%LPD*%
G01*
G04 APERTURE LIST*
%TA.AperFunction,Profile*%
%ADD10C,0.150000*%
%TD*%
G04 APERTURE END LIST*
D10*
X217000000Y-80750000D02*
G75*
G03*
X216000000Y-79750000I-1000000J0D01*
G01*
X138074795Y-190000000D02*
X189000000Y-190000000D01*
X119000000Y-163336829D02*
X106859833Y-169791871D01*
X254000000Y-161000000D02*
G75*
G03*
X255000000Y-160000000I0J1000000D01*
G01*
X255000000Y-85000000D02*
G75*
G03*
X254000000Y-84000000I-1000000J0D01*
G01*
X160000000Y-79750000D02*
G75*
G03*
X159000000Y-80750000I0J-1000000D01*
G01*
X160000000Y-79750000D02*
X178000000Y-79750000D01*
X198000000Y-79750000D02*
X198000000Y-76500000D01*
X106446357Y-171144290D02*
X120765240Y-198074192D01*
X138010715Y-190037178D02*
G75*
G03*
X138074795Y-190000000I-469815J883578D01*
G01*
X198000000Y-79750000D02*
X216000000Y-79750000D01*
X217000000Y-84000000D02*
X254000000Y-84000000D01*
X197000000Y-75500000D02*
X179000000Y-75500000D01*
X179000000Y-75500000D02*
G75*
G03*
X178000000Y-76500000I0J-1000000D01*
G01*
X120000000Y-84000000D02*
X159000000Y-84000000D01*
X217033333Y-161000000D02*
X254000000Y-161000000D01*
X122117659Y-198487668D02*
X138010716Y-190037180D01*
X178000000Y-76500000D02*
X178000000Y-79750000D01*
X217033333Y-161000000D02*
X189000000Y-190000000D01*
X106859822Y-169791851D02*
G75*
G03*
X106446358Y-171144290I469478J-882949D01*
G01*
X217000000Y-84000000D02*
X217000000Y-80750000D01*
X198000000Y-76500000D02*
G75*
G03*
X197000000Y-75500000I-1000000J0D01*
G01*
X120765248Y-198074188D02*
G75*
G03*
X122117659Y-198487667I882952J469488D01*
G01*
X255000000Y-160000000D02*
X255000000Y-85000000D01*
X119000000Y-85000000D02*
X119000000Y-163336829D01*
X120000000Y-84000000D02*
G75*
G03*
X119000000Y-85000000I0J-1000000D01*
G01*
X159000000Y-80750000D02*
X159000000Y-84000000D01*
M02*
