%TF.GenerationSoftware,KiCad,Pcbnew,(6.0.4)*%
%TF.CreationDate,2023-12-12T22:18:02-08:00*%
%TF.ProjectId,keyboard,6b657962-6f61-4726-942e-6b696361645f,v1.0.0*%
%TF.SameCoordinates,Original*%
%TF.FileFunction,Legend,Bot*%
%TF.FilePolarity,Positive*%
%FSLAX46Y46*%
G04 Gerber Fmt 4.6, Leading zero omitted, Abs format (unit mm)*
G04 Created by KiCad (PCBNEW (6.0.4)) date 2023-12-12 22:18:02*
%MOMM*%
%LPD*%
G01*
G04 APERTURE LIST*
%ADD10C,0.150000*%
%ADD11C,0.000000*%
%ADD12C,0.120000*%
%ADD13R,2.000000X2.000000*%
%ADD14C,2.000000*%
G04 APERTURE END LIST*
D10*
X249619047Y-153052380D02*
X249619047Y-153766666D01*
X249666666Y-153909523D01*
X249761904Y-154004761D01*
X249904761Y-154052380D01*
X250000000Y-154052380D01*
X248666666Y-154052380D02*
X249142857Y-154052380D01*
X249142857Y-153052380D01*
X247761904Y-153957142D02*
X247809523Y-154004761D01*
X247952380Y-154052380D01*
X248047619Y-154052380D01*
X248190476Y-154004761D01*
X248285714Y-153909523D01*
X248333333Y-153814285D01*
X248380952Y-153623809D01*
X248380952Y-153480952D01*
X248333333Y-153290476D01*
X248285714Y-153195238D01*
X248190476Y-153100000D01*
X248047619Y-153052380D01*
X247952380Y-153052380D01*
X247809523Y-153100000D01*
X247761904Y-153147619D01*
X247047619Y-153052380D02*
X247047619Y-153766666D01*
X247095238Y-153909523D01*
X247190476Y-154004761D01*
X247333333Y-154052380D01*
X247428571Y-154052380D01*
X246095238Y-154052380D02*
X246571428Y-154052380D01*
X246571428Y-153052380D01*
X245190476Y-153957142D02*
X245238095Y-154004761D01*
X245380952Y-154052380D01*
X245476190Y-154052380D01*
X245619047Y-154004761D01*
X245714285Y-153909523D01*
X245761904Y-153814285D01*
X245809523Y-153623809D01*
X245809523Y-153480952D01*
X245761904Y-153290476D01*
X245714285Y-153195238D01*
X245619047Y-153100000D01*
X245476190Y-153052380D01*
X245380952Y-153052380D01*
X245238095Y-153100000D01*
X245190476Y-153147619D01*
X244476190Y-153052380D02*
X244476190Y-153766666D01*
X244523809Y-153909523D01*
X244619047Y-154004761D01*
X244761904Y-154052380D01*
X244857142Y-154052380D01*
X243523809Y-154052380D02*
X244000000Y-154052380D01*
X244000000Y-153052380D01*
X242619047Y-153957142D02*
X242666666Y-154004761D01*
X242809523Y-154052380D01*
X242904761Y-154052380D01*
X243047619Y-154004761D01*
X243142857Y-153909523D01*
X243190476Y-153814285D01*
X243238095Y-153623809D01*
X243238095Y-153480952D01*
X243190476Y-153290476D01*
X243142857Y-153195238D01*
X243047619Y-153100000D01*
X242904761Y-153052380D01*
X242809523Y-153052380D01*
X242666666Y-153100000D01*
X242619047Y-153147619D01*
X241904761Y-153052380D02*
X241904761Y-153766666D01*
X241952380Y-153909523D01*
X242047619Y-154004761D01*
X242190476Y-154052380D01*
X242285714Y-154052380D01*
X240952380Y-154052380D02*
X241428571Y-154052380D01*
X241428571Y-153052380D01*
X240047619Y-153957142D02*
X240095238Y-154004761D01*
X240238095Y-154052380D01*
X240333333Y-154052380D01*
X240476190Y-154004761D01*
X240571428Y-153909523D01*
X240619047Y-153814285D01*
X240666666Y-153623809D01*
X240666666Y-153480952D01*
X240619047Y-153290476D01*
X240571428Y-153195238D01*
X240476190Y-153100000D01*
X240333333Y-153052380D01*
X240238095Y-153052380D01*
X240095238Y-153100000D01*
X240047619Y-153147619D01*
D11*
%TO.C,*%
D12*
X133260000Y-148870000D02*
X133260000Y-132730000D01*
X132150000Y-132730000D02*
X132150000Y-133755000D01*
X127640000Y-135910000D02*
X127640000Y-136735000D01*
X127640000Y-136735000D02*
X125840000Y-136735000D01*
X127640000Y-144865000D02*
X127640000Y-145690000D01*
X132150000Y-133755000D02*
X131610000Y-133755000D01*
X132150000Y-147845000D02*
X132150000Y-148870000D01*
X131610000Y-147845000D02*
X132150000Y-147845000D01*
X132150000Y-148870000D02*
X133260000Y-148870000D01*
X133260000Y-132730000D02*
X132150000Y-132730000D01*
%TD*%
D13*
%TO.C,*%
X121380000Y-90030000D03*
D14*
X121380000Y-92570000D03*
X121380000Y-95110000D03*
X121380000Y-97650000D03*
X121380000Y-100190000D03*
X121380000Y-102730000D03*
X121380000Y-105270000D03*
X121380000Y-107810000D03*
X121380000Y-110350000D03*
X121380000Y-112890000D03*
X121380000Y-115430000D03*
X121380000Y-117970000D03*
X136620000Y-117970000D03*
X136620000Y-115430000D03*
X136620000Y-112890000D03*
X136620000Y-110350000D03*
X136620000Y-107810000D03*
X136620000Y-105270000D03*
X136620000Y-102730000D03*
X136620000Y-100190000D03*
X136620000Y-97650000D03*
X136620000Y-95110000D03*
X136620000Y-92570000D03*
X136620000Y-90030000D03*
X123920000Y-117970000D03*
X126460000Y-117970000D03*
X129000000Y-117970000D03*
X131540000Y-117970000D03*
X134080000Y-117970000D03*
%TD*%
M02*
