%TF.GenerationSoftware,KiCad,Pcbnew,(6.0.4)*%
%TF.CreationDate,2023-12-03T23:36:56-08:00*%
%TF.ProjectId,left,6c656674-2e6b-4696-9361-645f70636258,v1.0.0*%
%TF.SameCoordinates,Original*%
%TF.FileFunction,Copper,L1,Top*%
%TF.FilePolarity,Positive*%
%FSLAX46Y46*%
G04 Gerber Fmt 4.6, Leading zero omitted, Abs format (unit mm)*
G04 Created by KiCad (PCBNEW (6.0.4)) date 2023-12-03 23:36:56*
%MOMM*%
%LPD*%
G01*
G04 APERTURE LIST*
%TA.AperFunction,SMDPad,CuDef*%
%ADD10R,1.350000X0.400000*%
%TD*%
%TA.AperFunction,SMDPad,CuDef*%
%ADD11R,1.550000X1.200000*%
%TD*%
%TA.AperFunction,ComponentPad*%
%ADD12O,0.950000X1.250000*%
%TD*%
%TA.AperFunction,SMDPad,CuDef*%
%ADD13R,1.550000X1.500000*%
%TD*%
%TA.AperFunction,ComponentPad*%
%ADD14O,1.550000X0.890000*%
%TD*%
%TA.AperFunction,ComponentPad*%
%ADD15C,2.032000*%
%TD*%
%TA.AperFunction,ComponentPad*%
%ADD16C,1.905000*%
%TD*%
%TA.AperFunction,ComponentPad*%
%ADD17R,1.778000X1.778000*%
%TD*%
%TA.AperFunction,ComponentPad*%
%ADD18R,1.752600X1.752600*%
%TD*%
%TA.AperFunction,ComponentPad*%
%ADD19C,1.752600*%
%TD*%
%TA.AperFunction,ComponentPad*%
%ADD20C,1.524000*%
%TD*%
%TA.AperFunction,ViaPad*%
%ADD21C,0.800000*%
%TD*%
%TA.AperFunction,Conductor*%
%ADD22C,0.250000*%
%TD*%
G04 APERTURE END LIST*
D10*
%TO.P,,1*%
%TO.N,VCC*%
X272000000Y-145300000D03*
%TO.P,,2*%
%TO.N,D1*%
X272000000Y-144650000D03*
%TO.P,,3*%
%TO.N,D0*%
X272000000Y-144000000D03*
%TO.P,,4*%
%TO.N,N/C*%
X272000000Y-143350000D03*
%TO.P,,5*%
%TO.N,GND*%
X272000000Y-142700000D03*
D11*
%TO.P,,6*%
%TO.N,N/C*%
X274700000Y-146900000D03*
D12*
X272000000Y-141500000D03*
D13*
X274700000Y-143000000D03*
D14*
X274700000Y-140500000D03*
D11*
X274700000Y-141100000D03*
D12*
X272000000Y-146500000D03*
D13*
X274700000Y-145000000D03*
D14*
X274700000Y-147500000D03*
%TD*%
D15*
%TO.P,M2,1*%
%TO.N,mr_diode*%
X259074261Y-171395195D03*
%TO.P,M2,2*%
%TO.N,E6*%
X263925739Y-172604805D03*
%TD*%
%TO.P,S1,1*%
%TO.N,outer_bottom*%
X155000000Y-146200000D03*
%TO.P,S1,2*%
%TO.N,C7*%
X150000000Y-144100000D03*
%TD*%
%TO.P,S2,1*%
%TO.N,outer_home*%
X155000000Y-128200000D03*
%TO.P,S2,2*%
%TO.N,C7*%
X150000000Y-126100000D03*
%TD*%
%TO.P,S3,1*%
%TO.N,outer_top*%
X155000000Y-110200000D03*
%TO.P,S3,2*%
%TO.N,C7*%
X150000000Y-108100000D03*
%TD*%
%TO.P,S4,1*%
%TO.N,pinky_bottom*%
X174000000Y-146200000D03*
%TO.P,S4,2*%
%TO.N,B7*%
X169000000Y-144100000D03*
%TD*%
%TO.P,S5,1*%
%TO.N,pinky_home*%
X174000000Y-128200000D03*
%TO.P,S5,2*%
%TO.N,B7*%
X169000000Y-126100000D03*
%TD*%
%TO.P,S6,1*%
%TO.N,pinky_top*%
X174000000Y-110200000D03*
%TO.P,S6,2*%
%TO.N,B7*%
X169000000Y-108100000D03*
%TD*%
%TO.P,S7,1*%
%TO.N,ring_bottom*%
X193000000Y-141950000D03*
%TO.P,S7,2*%
%TO.N,B5*%
X188000000Y-139850000D03*
%TD*%
%TO.P,S8,1*%
%TO.N,ring_home*%
X193000000Y-123950000D03*
%TO.P,S8,2*%
%TO.N,B5*%
X188000000Y-121850000D03*
%TD*%
%TO.P,S9,1*%
%TO.N,ring_top*%
X193000000Y-105950000D03*
%TO.P,S9,2*%
%TO.N,B5*%
X188000000Y-103850000D03*
%TD*%
%TO.P,S10,1*%
%TO.N,middle_bottom*%
X212000000Y-137700000D03*
%TO.P,S10,2*%
%TO.N,B4*%
X207000000Y-135600000D03*
%TD*%
%TO.P,S11,1*%
%TO.N,middle_home*%
X212000000Y-119700000D03*
%TO.P,S11,2*%
%TO.N,B4*%
X207000000Y-117600000D03*
%TD*%
%TO.P,S12,1*%
%TO.N,middle_top*%
X212000000Y-101700000D03*
%TO.P,S12,2*%
%TO.N,B4*%
X207000000Y-99600000D03*
%TD*%
%TO.P,S13,1*%
%TO.N,index_bottom*%
X231000000Y-141950000D03*
%TO.P,S13,2*%
%TO.N,E6*%
X226000000Y-139850000D03*
%TD*%
%TO.P,S14,1*%
%TO.N,index_home*%
X231000000Y-123950000D03*
%TO.P,S14,2*%
%TO.N,E6*%
X226000000Y-121850000D03*
%TD*%
%TO.P,S15,1*%
%TO.N,index_top*%
X231000000Y-105950000D03*
%TO.P,S15,2*%
%TO.N,E6*%
X226000000Y-103850000D03*
%TD*%
%TO.P,S16,1*%
%TO.N,inner_bottom*%
X250000000Y-146200000D03*
%TO.P,S16,2*%
%TO.N,D7*%
X245000000Y-144100000D03*
%TD*%
%TO.P,S17,1*%
%TO.N,inner_home*%
X250000000Y-128200000D03*
%TO.P,S17,2*%
%TO.N,D7*%
X245000000Y-126100000D03*
%TD*%
%TO.P,S18,1*%
%TO.N,inner_top*%
X250000000Y-110200000D03*
%TO.P,S18,2*%
%TO.N,D7*%
X245000000Y-108100000D03*
%TD*%
%TO.P,S19,1*%
%TO.N,inner_thumb*%
X253000000Y-175200000D03*
%TO.P,S19,2*%
%TO.N,B5*%
X248000000Y-173100000D03*
%TD*%
%TO.P,S20,1*%
%TO.N,far_thumb*%
X276311976Y-183505609D03*
%TO.P,S20,2*%
%TO.N,D7*%
X272883128Y-179304061D03*
%TD*%
D16*
%TO.P,D1,1*%
%TO.N,outer_bottom*%
X146500000Y-141000000D03*
D17*
%TO.P,D1,2*%
%TO.N,C6*%
X153500000Y-141000000D03*
%TD*%
D16*
%TO.P,D2,1*%
%TO.N,outer_home*%
X146500000Y-123000000D03*
D17*
%TO.P,D2,2*%
%TO.N,D4*%
X153500000Y-123000000D03*
%TD*%
D16*
%TO.P,D3,1*%
%TO.N,outer_top*%
X146500000Y-105000000D03*
D17*
%TO.P,D3,2*%
%TO.N,D3*%
X153500000Y-105000000D03*
%TD*%
D16*
%TO.P,D4,1*%
%TO.N,pinky_bottom*%
X165500000Y-141000000D03*
D17*
%TO.P,D4,2*%
%TO.N,C6*%
X172500000Y-141000000D03*
%TD*%
D16*
%TO.P,D5,1*%
%TO.N,pinky_home*%
X165500000Y-123000000D03*
D17*
%TO.P,D5,2*%
%TO.N,D4*%
X172500000Y-123000000D03*
%TD*%
D16*
%TO.P,D6,1*%
%TO.N,pinky_top*%
X165500000Y-105000000D03*
D17*
%TO.P,D6,2*%
%TO.N,D3*%
X172500000Y-105000000D03*
%TD*%
D16*
%TO.P,D7,1*%
%TO.N,ring_bottom*%
X184500000Y-136750000D03*
D17*
%TO.P,D7,2*%
%TO.N,C6*%
X191500000Y-136750000D03*
%TD*%
D16*
%TO.P,D8,1*%
%TO.N,ring_home*%
X184500000Y-118750000D03*
D17*
%TO.P,D8,2*%
%TO.N,D4*%
X191500000Y-118750000D03*
%TD*%
D16*
%TO.P,D9,1*%
%TO.N,ring_top*%
X184500000Y-100750000D03*
D17*
%TO.P,D9,2*%
%TO.N,D3*%
X191500000Y-100750000D03*
%TD*%
D16*
%TO.P,D10,1*%
%TO.N,middle_bottom*%
X203500000Y-132500000D03*
D17*
%TO.P,D10,2*%
%TO.N,C6*%
X210500000Y-132500000D03*
%TD*%
D16*
%TO.P,D11,1*%
%TO.N,middle_home*%
X203500000Y-114500000D03*
D17*
%TO.P,D11,2*%
%TO.N,D4*%
X210500000Y-114500000D03*
%TD*%
D16*
%TO.P,D12,1*%
%TO.N,middle_top*%
X203500000Y-96500000D03*
D17*
%TO.P,D12,2*%
%TO.N,D3*%
X210500000Y-96500000D03*
%TD*%
D16*
%TO.P,D13,1*%
%TO.N,index_bottom*%
X222500000Y-136750000D03*
D17*
%TO.P,D13,2*%
%TO.N,C6*%
X229500000Y-136750000D03*
%TD*%
D16*
%TO.P,D14,1*%
%TO.N,index_home*%
X222500000Y-118750000D03*
D17*
%TO.P,D14,2*%
%TO.N,D4*%
X229500000Y-118750000D03*
%TD*%
D16*
%TO.P,D15,1*%
%TO.N,index_top*%
X222500000Y-100750000D03*
D17*
%TO.P,D15,2*%
%TO.N,D3*%
X229500000Y-100750000D03*
%TD*%
D16*
%TO.P,D16,1*%
%TO.N,inner_bottom*%
X241500000Y-141000000D03*
D17*
%TO.P,D16,2*%
%TO.N,C6*%
X248500000Y-141000000D03*
%TD*%
D16*
%TO.P,D17,1*%
%TO.N,inner_home*%
X241500000Y-123000000D03*
D17*
%TO.P,D17,2*%
%TO.N,D4*%
X248500000Y-123000000D03*
%TD*%
D16*
%TO.P,D18,1*%
%TO.N,inner_top*%
X241500000Y-105000000D03*
D17*
%TO.P,D18,2*%
%TO.N,D3*%
X248500000Y-105000000D03*
%TD*%
D18*
%TO.P,,1*%
%TO.N,D3*%
X258380000Y-109030000D03*
D19*
%TO.P,,2*%
%TO.N,D2*%
X258380000Y-111570000D03*
%TO.P,,3*%
%TO.N,GND*%
X258380000Y-114110000D03*
%TO.P,,4*%
X258380000Y-116650000D03*
%TO.P,,5*%
%TO.N,D1*%
X258380000Y-119190000D03*
%TO.P,,6*%
%TO.N,D0*%
X258380000Y-121730000D03*
%TO.P,,7*%
%TO.N,D4*%
X258380000Y-124270000D03*
%TO.P,,8*%
%TO.N,C6*%
X258380000Y-126810000D03*
%TO.P,,9*%
%TO.N,D7*%
X258380000Y-129350000D03*
%TO.P,,10*%
%TO.N,E6*%
X258380000Y-131890000D03*
%TO.P,,11*%
%TO.N,B4*%
X258380000Y-134430000D03*
%TO.P,,12*%
%TO.N,B5*%
X258608600Y-136970000D03*
%TO.P,,13*%
%TO.N,B6*%
X273620000Y-136970000D03*
%TO.P,,14*%
%TO.N,B2*%
X273620000Y-134430000D03*
%TO.P,,15*%
%TO.N,B3*%
X273620000Y-131890000D03*
%TO.P,,16*%
%TO.N,B1*%
X273620000Y-129350000D03*
%TO.P,,17*%
%TO.N,F7*%
X273620000Y-126810000D03*
%TO.P,,18*%
%TO.N,F6*%
X273620000Y-124270000D03*
%TO.P,,19*%
%TO.N,F5*%
X273620000Y-121730000D03*
%TO.P,,20*%
%TO.N,F4*%
X273620000Y-119190000D03*
%TO.P,,21*%
%TO.N,VCC*%
X273620000Y-116650000D03*
%TO.P,,22*%
%TO.N,RST*%
X273620000Y-114110000D03*
%TO.P,,23*%
%TO.N,GND*%
X273620000Y-111570000D03*
%TO.P,,24*%
%TO.N,B0*%
X273620000Y-109030000D03*
%TO.P,,25*%
%TO.N,B7*%
X260920000Y-136970000D03*
%TO.P,,26*%
%TO.N,D5*%
X263460000Y-136970000D03*
%TO.P,,27*%
%TO.N,C7*%
X266000000Y-136970000D03*
%TO.P,,28*%
%TO.N,F1*%
X268540000Y-136970000D03*
%TO.P,,29*%
%TO.N,F0*%
X271080000Y-136970000D03*
%TD*%
D15*
%TO.P,M1,1*%
%TO.N,B7*%
X231100000Y-174000000D03*
%TO.P,M1,2*%
%TO.N,ml_diode*%
X236100000Y-174000000D03*
%TD*%
%TO.P,M3,1*%
%TO.N,B4*%
X245500000Y-165500000D03*
%TO.P,M3,2*%
%TO.N,mm_diode*%
X250500000Y-165500000D03*
%TD*%
D20*
%TO.P,,1*%
%TO.N,N/C*%
X262000000Y-164000000D03*
%TD*%
%TO.P,,1*%
%TO.N,N/C*%
X233600000Y-165500000D03*
%TD*%
D16*
%TO.P,D21,1*%
%TO.N,ml_diode*%
X159500000Y-129500000D03*
D17*
%TO.P,D21,2*%
%TO.N,F1*%
X159500000Y-122500000D03*
%TD*%
D16*
%TO.P,D22,1*%
%TO.N,inner_thumb*%
X159500000Y-141500000D03*
D17*
%TO.P,D22,2*%
%TO.N,F1*%
X159500000Y-134500000D03*
%TD*%
D16*
%TO.P,D23,1*%
%TO.N,mr_diode*%
X178500000Y-123500000D03*
D17*
%TO.P,D23,2*%
%TO.N,F1*%
X178500000Y-116500000D03*
%TD*%
D16*
%TO.P,D24,1*%
%TO.N,mm_diode*%
X178500000Y-135500000D03*
D17*
%TO.P,D24,2*%
%TO.N,F1*%
X178500000Y-128500000D03*
%TD*%
D16*
%TO.P,D25,1*%
%TO.N,far_thumb*%
X178500000Y-147500000D03*
D17*
%TO.P,D25,2*%
%TO.N,F1*%
X178500000Y-140500000D03*
%TD*%
D16*
%TO.P,D26,1*%
%TO.N,trackpoint_reset*%
X197500000Y-143250000D03*
D17*
%TO.P,D26,2*%
%TO.N,GND*%
X197500000Y-136250000D03*
%TD*%
D16*
%TO.P,D27,1*%
%TO.N,VCC*%
X197500000Y-131250000D03*
D17*
%TO.P,D27,2*%
%TO.N,D2*%
X197500000Y-124250000D03*
%TD*%
D16*
%TO.P,D28,1*%
%TO.N,VCC*%
X197500000Y-119250000D03*
D17*
%TO.P,D28,2*%
%TO.N,D5*%
X197500000Y-112250000D03*
%TD*%
D16*
%TO.P,D29,0*%
%TO.N,B4*%
X205500000Y-159000000D03*
%TO.P,D29,1*%
%TO.N,B5*%
X208000000Y-159000000D03*
%TO.P,D29,2*%
%TO.N,B7*%
X210500000Y-159000000D03*
%TO.P,D29,3*%
%TO.N,E6*%
X205500000Y-156500000D03*
%TO.P,D29,4*%
%TO.N,D7*%
X208000000Y-156500000D03*
%TO.P,D29,5*%
%TO.N,F0*%
X210500000Y-156500000D03*
%TD*%
D20*
%TO.P,,1*%
%TO.N,N/C*%
X219000000Y-173300000D03*
%TD*%
%TO.P,,1*%
%TO.N,N/C*%
X219000000Y-184700000D03*
%TD*%
%TO.P,,1*%
%TO.N,N/C*%
X206000000Y-173300000D03*
%TD*%
%TO.P,,1*%
%TO.N,N/C*%
X206000000Y-184700000D03*
%TD*%
%TO.P,,1*%
%TO.N,N/C*%
X235500000Y-121000000D03*
%TD*%
%TO.P,,1*%
%TO.N,N/C*%
X159500000Y-114000000D03*
%TD*%
%TO.P,,1*%
%TO.N,N/C*%
X159500000Y-150000000D03*
%TD*%
%TO.P,,1*%
%TO.N,N/C*%
X197500000Y-105500000D03*
%TD*%
%TO.P,,1*%
%TO.N,N/C*%
X274338490Y-176566923D03*
%TD*%
%TO.P,,1*%
%TO.N,N/C*%
X216500000Y-109750000D03*
%TD*%
%TO.P,,1*%
%TO.N,N/C*%
X216500000Y-127750000D03*
%TD*%
%TO.P,,1*%
%TO.N,N/C*%
X254500000Y-127750000D03*
%TD*%
%TO.P,,1*%
%TO.N,N/C*%
X254500000Y-109750000D03*
%TD*%
%TO.P,,1*%
%TO.N,N/C*%
X226000000Y-154750000D03*
%TD*%
D16*
%TO.P,D30,1*%
%TO.N,VCC*%
X254500000Y-147500000D03*
D17*
%TO.P,D30,2*%
%TO.N,D0*%
X254500000Y-140500000D03*
%TD*%
D16*
%TO.P,,1*%
%TO.N,VCC*%
X257000000Y-140500000D03*
%TD*%
%TO.P,,1*%
%TO.N,trackpoint_reset*%
X259500000Y-140500000D03*
%TD*%
D21*
%TO.N,D2*%
X253200000Y-130400000D03*
X251800000Y-137000000D03*
X252600000Y-138800000D03*
X252400000Y-142000000D03*
%TO.N,D5*%
X263400000Y-140800000D03*
X263400000Y-139200000D03*
%TO.N,D1*%
X269800000Y-139600000D03*
X269800000Y-134000000D03*
%TO.N,D0*%
X267000000Y-139400000D03*
X269400000Y-141000000D03*
%TO.N,trackpoint_reset*%
X242000000Y-152500000D03*
%TO.N,GND*%
X241500000Y-115500000D03*
X241000000Y-137500000D03*
%TO.N,VCC*%
X242000000Y-148500000D03*
%TO.N,F1*%
X256000000Y-135500000D03*
X252000000Y-135500000D03*
%TO.N,F0*%
X243000000Y-154000000D03*
%TO.N,D0*%
X255607299Y-130607299D03*
%TO.N,D2*%
X203000000Y-110000000D03*
X202500000Y-113000000D03*
%TO.N,E6*%
X248000000Y-108000000D03*
X242000000Y-108000000D03*
%TD*%
D22*
%TO.N,D2*%
X253200000Y-135600000D02*
X253200000Y-130400000D01*
X251800000Y-137000000D02*
X253200000Y-135600000D01*
X252600000Y-141800000D02*
X252600000Y-138800000D01*
X252400000Y-142000000D02*
X252600000Y-141800000D01*
%TO.N,VCC*%
X257000000Y-140500000D02*
X254500000Y-143000000D01*
X254500000Y-143000000D02*
X254500000Y-147500000D01*
%TO.N,D0*%
X255777011Y-139222989D02*
X254500000Y-140500000D01*
X260028956Y-139222989D02*
X255777011Y-139222989D01*
X262405967Y-141600000D02*
X260028956Y-139222989D01*
X264800000Y-141600000D02*
X262405967Y-141600000D01*
X267000000Y-139400000D02*
X264800000Y-141600000D01*
%TO.N,D5*%
X263400000Y-140800000D02*
X263400000Y-139200000D01*
%TO.N,D1*%
X269800000Y-130610000D02*
X258380000Y-119190000D01*
X269800000Y-134000000D02*
X269800000Y-130610000D01*
X269400000Y-139600000D02*
X268675489Y-140324511D01*
X269800000Y-139600000D02*
X269400000Y-139600000D01*
X268675489Y-142250489D02*
X268675489Y-140324511D01*
X271075000Y-144650000D02*
X268675489Y-142250489D01*
X272000000Y-144650000D02*
X271075000Y-144650000D01*
%TO.N,D0*%
X269400000Y-142325000D02*
X269400000Y-141000000D01*
X271075000Y-144000000D02*
X269400000Y-142325000D01*
X272000000Y-144000000D02*
X271075000Y-144000000D01*
%TO.N,VCC*%
X274820811Y-117850811D02*
X273620000Y-116650000D01*
X273600489Y-138799511D02*
X274820811Y-137579189D01*
X274820811Y-137579189D02*
X274820811Y-117850811D01*
X273600489Y-144624511D02*
X273600489Y-138799511D01*
X272925000Y-145300000D02*
X273600489Y-144624511D01*
X272000000Y-145300000D02*
X272925000Y-145300000D01*
%TO.N,GND*%
X272419189Y-112770811D02*
X273620000Y-111570000D01*
X272419189Y-137329015D02*
X272419189Y-112770811D01*
X271200480Y-142375480D02*
X271200480Y-138547724D01*
X271200480Y-138547724D02*
X272419189Y-137329015D01*
X271525000Y-142700000D02*
X271200480Y-142375480D01*
X272000000Y-142700000D02*
X271525000Y-142700000D01*
%TO.N,trackpoint_reset*%
X259500000Y-146000000D02*
X259500000Y-140500000D01*
X253000000Y-152500000D02*
X259500000Y-146000000D01*
X242000000Y-152500000D02*
X253000000Y-152500000D01*
%TO.N,GND*%
X243150000Y-116650000D02*
X242000000Y-115500000D01*
X258380000Y-116650000D02*
X243150000Y-116650000D01*
X242000000Y-115500000D02*
X241500000Y-115500000D01*
X241000000Y-138000000D02*
X241000000Y-137500000D01*
X235709489Y-143290511D02*
X241000000Y-138000000D01*
X230444741Y-143290511D02*
X235709489Y-143290511D01*
X229659489Y-142505259D02*
X230444741Y-143290511D01*
X229659489Y-141245207D02*
X229659489Y-142505259D01*
X226914282Y-138500000D02*
X229659489Y-141245207D01*
X211444741Y-139040511D02*
X212555259Y-139040511D01*
X210659489Y-136295207D02*
X210659489Y-138255259D01*
X207932141Y-133567859D02*
X210659489Y-136295207D01*
X207136371Y-133567859D02*
X207932141Y-133567859D01*
X213095770Y-138500000D02*
X226914282Y-138500000D01*
X210659489Y-138255259D02*
X211444741Y-139040511D01*
X204454230Y-136250000D02*
X207136371Y-133567859D01*
X212555259Y-139040511D02*
X213095770Y-138500000D01*
X197500000Y-136250000D02*
X204454230Y-136250000D01*
%TO.N,middle_bottom*%
X212000000Y-137000000D02*
X212000000Y-137700000D01*
X207500000Y-132500000D02*
X212000000Y-137000000D01*
X203500000Y-132500000D02*
X207500000Y-132500000D01*
%TO.N,VCC*%
X242589021Y-147910979D02*
X242000000Y-148500000D01*
X254089021Y-147910979D02*
X242589021Y-147910979D01*
X254500000Y-147500000D02*
X254089021Y-147910979D01*
%TO.N,F1*%
X267339189Y-138170811D02*
X268540000Y-136970000D01*
X258111207Y-138170811D02*
X267339189Y-138170811D01*
X256000000Y-136059604D02*
X258111207Y-138170811D01*
X256000000Y-135500000D02*
X256000000Y-136059604D01*
X226273469Y-130773469D02*
X231000000Y-135500000D01*
X202590814Y-130773469D02*
X226273469Y-130773469D01*
X231000000Y-135500000D02*
X252000000Y-135500000D01*
X200837271Y-132527011D02*
X202590814Y-130773469D01*
X178500000Y-128500000D02*
X182527011Y-132527011D01*
X182527011Y-132527011D02*
X200837271Y-132527011D01*
%TO.N,C6*%
X254050480Y-131139520D02*
X258380000Y-126810000D01*
X254050480Y-135949520D02*
X254050480Y-131139520D01*
X249000000Y-141000000D02*
X254050480Y-135949520D01*
X248500000Y-141000000D02*
X249000000Y-141000000D01*
%TO.N,F0*%
X254050000Y-154000000D02*
X271080000Y-136970000D01*
X243000000Y-154000000D02*
X254050000Y-154000000D01*
%TO.N,D7*%
X242500000Y-155500000D02*
X240725421Y-153725421D01*
X240725421Y-153725421D02*
X240725421Y-149274579D01*
X272883128Y-179304061D02*
X249079067Y-155500000D01*
X249079067Y-155500000D02*
X242500000Y-155500000D01*
X240725421Y-149274579D02*
X240225421Y-148774579D01*
%TO.N,D0*%
X255607299Y-130607299D02*
X254500000Y-131714598D01*
X254500000Y-131714598D02*
X254500000Y-140500000D01*
%TO.N,D5*%
X263460000Y-130191796D02*
X263460000Y-136970000D01*
X258877393Y-125609189D02*
X263460000Y-130191796D01*
X257882607Y-125609189D02*
X258877393Y-125609189D01*
X257179189Y-126312607D02*
X257882607Y-125609189D01*
X257179189Y-127375093D02*
X257179189Y-126312607D01*
X255013771Y-129540511D02*
X257179189Y-127375093D01*
X243000000Y-129500000D02*
X243040511Y-129540511D01*
X231444033Y-129500000D02*
X243000000Y-129500000D01*
X211932467Y-118359489D02*
X220303522Y-118359489D01*
X220303522Y-118359489D02*
X231444033Y-129500000D01*
X205822978Y-112250000D02*
X211932467Y-118359489D01*
X197500000Y-112250000D02*
X205822978Y-112250000D01*
X243040511Y-129540511D02*
X255013771Y-129540511D01*
%TO.N,D2*%
X202222989Y-119527011D02*
X197500000Y-124250000D01*
X202500000Y-113000000D02*
X202222989Y-113277011D01*
X202222989Y-113277011D02*
X202222989Y-119527011D01*
%TO.N,D7*%
X240225421Y-148774579D02*
X240325421Y-148774579D01*
X217725421Y-148774579D02*
X240225421Y-148774579D01*
%TO.N,D2*%
X258039021Y-111910979D02*
X258380000Y-111570000D01*
X216688827Y-111910979D02*
X258039021Y-111910979D01*
X214777848Y-110000000D02*
X216688827Y-111910979D01*
X203000000Y-110000000D02*
X214777848Y-110000000D01*
%TO.N,VCC*%
X196286489Y-130036489D02*
X197500000Y-131250000D01*
X196286489Y-120463511D02*
X196286489Y-130036489D01*
X197500000Y-119250000D02*
X196286489Y-120463511D01*
%TO.N,C6*%
X244250000Y-136750000D02*
X248500000Y-141000000D01*
X229500000Y-136750000D02*
X244250000Y-136750000D01*
X210500000Y-132500000D02*
X225250000Y-132500000D01*
X225250000Y-132500000D02*
X229500000Y-136750000D01*
X209222989Y-131222989D02*
X210500000Y-132500000D01*
X198963511Y-135036489D02*
X202777011Y-131222989D01*
X193213511Y-135036489D02*
X198963511Y-135036489D01*
X202777011Y-131222989D02*
X209222989Y-131222989D01*
X191500000Y-136750000D02*
X193213511Y-135036489D01*
X184444033Y-135000000D02*
X189750000Y-135000000D01*
X179713511Y-139730522D02*
X184444033Y-135000000D01*
X189750000Y-135000000D02*
X191500000Y-136750000D01*
X179713511Y-141713511D02*
X179713511Y-139730522D01*
X173213511Y-141713511D02*
X179713511Y-141713511D01*
X172500000Y-141000000D02*
X173213511Y-141713511D01*
%TO.N,inner_thumb*%
X252409969Y-175790031D02*
X253000000Y-175200000D01*
X197848346Y-175790031D02*
X252409969Y-175790031D01*
X159500000Y-141500000D02*
X163558315Y-141500000D01*
X163558315Y-141500000D02*
X197848346Y-175790031D01*
%TO.N,ml_diode*%
X161000000Y-131000000D02*
X159500000Y-129500000D01*
X161000000Y-138305967D02*
X161000000Y-131000000D01*
X234759489Y-175340511D02*
X198034544Y-175340511D01*
X198034544Y-175340511D02*
X161000000Y-138305967D01*
X236100000Y-174000000D02*
X234759489Y-175340511D01*
%TO.N,B7*%
X231100000Y-174000000D02*
X225500000Y-174000000D01*
X225500000Y-174000000D02*
X210500000Y-159000000D01*
X177194033Y-148000000D02*
X172900000Y-148000000D01*
X189920564Y-160726531D02*
X177194033Y-148000000D01*
X208773469Y-160726531D02*
X189920564Y-160726531D01*
X172900000Y-148000000D02*
X169000000Y-144100000D01*
%TO.N,B5*%
X190500000Y-142350000D02*
X188000000Y-139850000D01*
X204971044Y-160277011D02*
X190500000Y-145805967D01*
X206722989Y-160277011D02*
X204971044Y-160277011D01*
X190500000Y-145805967D02*
X190500000Y-142350000D01*
X208000000Y-159000000D02*
X206722989Y-160277011D01*
%TO.N,B4*%
X204222989Y-138377011D02*
X207000000Y-135600000D01*
X205500000Y-159000000D02*
X204222989Y-157722989D01*
X204222989Y-157722989D02*
X204222989Y-138377011D01*
%TO.N,E6*%
X222150000Y-139850000D02*
X226000000Y-139850000D01*
X205500000Y-156500000D02*
X222150000Y-139850000D01*
%TO.N,D7*%
X240325421Y-148774579D02*
X245000000Y-144100000D01*
X212500000Y-154000000D02*
X217725421Y-148774579D01*
X210500000Y-154000000D02*
X212500000Y-154000000D01*
X208000000Y-156500000D02*
X210500000Y-154000000D01*
%TO.N,F1*%
X177000000Y-139000000D02*
X177000000Y-130000000D01*
X177000000Y-130000000D02*
X178500000Y-128500000D01*
X178500000Y-140500000D02*
X177000000Y-139000000D01*
X174500000Y-124500000D02*
X173500000Y-124500000D01*
X178500000Y-128500000D02*
X174500000Y-124500000D01*
X178500000Y-119500000D02*
X178500000Y-116500000D01*
X168795967Y-121722989D02*
X171572978Y-124500000D01*
X173500000Y-124500000D02*
X178500000Y-119500000D01*
X160277011Y-121722989D02*
X168795967Y-121722989D01*
X171572978Y-124500000D02*
X173500000Y-124500000D01*
X159500000Y-122500000D02*
X160277011Y-121722989D01*
%TO.N,D4*%
X156000000Y-120500000D02*
X170000000Y-120500000D01*
X153500000Y-123000000D02*
X156000000Y-120500000D01*
X170000000Y-120500000D02*
X172500000Y-123000000D01*
%TO.N,F1*%
X158222989Y-123777011D02*
X159500000Y-122500000D01*
X158222989Y-134361989D02*
X158222989Y-123777011D01*
X159500000Y-134500000D02*
X158361000Y-134500000D01*
X158361000Y-134500000D02*
X158222989Y-134361989D01*
%TO.N,E6*%
X225850000Y-140000000D02*
X226000000Y-139850000D01*
%TO.N,B7*%
X210500000Y-159000000D02*
X208773469Y-160726531D01*
%TO.N,GND*%
X258380000Y-114110000D02*
X258380000Y-116650000D01*
X260920000Y-111570000D02*
X258380000Y-114110000D01*
X273620000Y-111570000D02*
X260920000Y-111570000D01*
%TO.N,inner_bottom*%
X244800000Y-141000000D02*
X250000000Y-146200000D01*
X241500000Y-141000000D02*
X244800000Y-141000000D01*
%TO.N,index_bottom*%
X225800000Y-136750000D02*
X231000000Y-141950000D01*
X222500000Y-136750000D02*
X225800000Y-136750000D01*
%TO.N,ring_bottom*%
X187800000Y-136750000D02*
X193000000Y-141950000D01*
X184500000Y-136750000D02*
X187800000Y-136750000D01*
%TO.N,pinky_bottom*%
X165500000Y-141000000D02*
X168800000Y-141000000D01*
X168800000Y-141000000D02*
X174000000Y-146200000D01*
%TO.N,outer_bottom*%
X149800000Y-141000000D02*
X155000000Y-146200000D01*
X146500000Y-141000000D02*
X149800000Y-141000000D01*
%TO.N,D4*%
X257110000Y-123000000D02*
X258380000Y-124270000D01*
X248500000Y-123000000D02*
X257110000Y-123000000D01*
X242105479Y-116605479D02*
X248500000Y-123000000D01*
X231644521Y-116605479D02*
X242105479Y-116605479D01*
X229500000Y-118750000D02*
X231644521Y-116605479D01*
X225250000Y-114500000D02*
X229500000Y-118750000D01*
X210500000Y-114500000D02*
X225250000Y-114500000D01*
X207036489Y-111036489D02*
X210500000Y-114500000D01*
X196286489Y-111036489D02*
X207036489Y-111036489D01*
X191500000Y-118750000D02*
X191500000Y-115822978D01*
X191500000Y-115822978D02*
X196286489Y-111036489D01*
X187250000Y-114500000D02*
X191500000Y-118750000D01*
X172500000Y-119500000D02*
X177500000Y-114500000D01*
X172500000Y-123000000D02*
X172500000Y-119500000D01*
X177500000Y-114500000D02*
X187250000Y-114500000D01*
%TO.N,D3*%
X254350000Y-105000000D02*
X258380000Y-109030000D01*
X248500000Y-105000000D02*
X254350000Y-105000000D01*
X246699520Y-103199520D02*
X248500000Y-105000000D01*
X231949520Y-103199520D02*
X246699520Y-103199520D01*
X229500000Y-100750000D02*
X231949520Y-103199520D01*
X212949520Y-98949520D02*
X227699520Y-98949520D01*
X210500000Y-96500000D02*
X212949520Y-98949520D01*
X227699520Y-98949520D02*
X229500000Y-100750000D01*
X209222989Y-95222989D02*
X210500000Y-96500000D01*
X202777011Y-95222989D02*
X209222989Y-95222989D01*
X197250000Y-100750000D02*
X202777011Y-95222989D01*
X191500000Y-100750000D02*
X197250000Y-100750000D01*
X190222989Y-99472989D02*
X191500000Y-100750000D01*
X178444033Y-105000000D02*
X183971044Y-99472989D01*
X172500000Y-105000000D02*
X178444033Y-105000000D01*
X183971044Y-99472989D02*
X190222989Y-99472989D01*
X171222989Y-103722989D02*
X172500000Y-105000000D01*
X154777011Y-103722989D02*
X171222989Y-103722989D01*
X153500000Y-105000000D02*
X154777011Y-103722989D01*
%TO.N,outer_home*%
X149800000Y-123000000D02*
X155000000Y-128200000D01*
X146500000Y-123000000D02*
X149800000Y-123000000D01*
%TO.N,pinky_home*%
X168800000Y-123000000D02*
X174000000Y-128200000D01*
X165500000Y-123000000D02*
X168800000Y-123000000D01*
%TO.N,ring_home*%
X187800000Y-118750000D02*
X193000000Y-123950000D01*
X184500000Y-118750000D02*
X187800000Y-118750000D01*
%TO.N,middle_home*%
X206800000Y-114500000D02*
X212000000Y-119700000D01*
X203500000Y-114500000D02*
X206800000Y-114500000D01*
%TO.N,index_home*%
X225800000Y-118750000D02*
X231000000Y-123950000D01*
X222500000Y-118750000D02*
X225800000Y-118750000D01*
%TO.N,inner_home*%
X244800000Y-123000000D02*
X250000000Y-128200000D01*
X241500000Y-123000000D02*
X244800000Y-123000000D01*
%TO.N,inner_top*%
X250000000Y-108975386D02*
X250000000Y-110200000D01*
X247238125Y-106213511D02*
X250000000Y-108975386D01*
X242713511Y-106213511D02*
X247238125Y-106213511D01*
X241500000Y-105000000D02*
X242713511Y-106213511D01*
%TO.N,index_top*%
X225800000Y-100750000D02*
X231000000Y-105950000D01*
X222500000Y-100750000D02*
X225800000Y-100750000D01*
%TO.N,middle_top*%
X206800000Y-96500000D02*
X212000000Y-101700000D01*
X203500000Y-96500000D02*
X206800000Y-96500000D01*
%TO.N,ring_top*%
X187800000Y-100750000D02*
X193000000Y-105950000D01*
X184500000Y-100750000D02*
X187800000Y-100750000D01*
%TO.N,pinky_top*%
X168800000Y-105000000D02*
X174000000Y-110200000D01*
X165500000Y-105000000D02*
X168800000Y-105000000D01*
%TO.N,outer_top*%
X149800000Y-105000000D02*
X155000000Y-110200000D01*
X146500000Y-105000000D02*
X149800000Y-105000000D01*
%TO.N,E6*%
X246559489Y-109440511D02*
X248000000Y-108000000D01*
X243440511Y-109440511D02*
X246559489Y-109440511D01*
X242000000Y-108000000D02*
X243440511Y-109440511D01*
%TD*%
M02*
