%TF.GenerationSoftware,KiCad,Pcbnew,(6.0.4)*%
%TF.CreationDate,2023-12-03T23:36:56-08:00*%
%TF.ProjectId,left,6c656674-2e6b-4696-9361-645f70636258,v1.0.0*%
%TF.SameCoordinates,Original*%
%TF.FileFunction,Legend,Top*%
%TF.FilePolarity,Positive*%
%FSLAX46Y46*%
G04 Gerber Fmt 4.6, Leading zero omitted, Abs format (unit mm)*
G04 Created by KiCad (PCBNEW (6.0.4)) date 2023-12-03 23:36:56*
%MOMM*%
%LPD*%
G01*
G04 APERTURE LIST*
%ADD10C,0.000000*%
%ADD11C,0.150000*%
%ADD12C,0.120000*%
%ADD13R,1.752600X1.752600*%
%ADD14C,1.752600*%
G04 APERTURE END LIST*
D10*
%TO.C,*%
D11*
D12*
X271060000Y-145310000D02*
X271060000Y-145760000D01*
X271740000Y-140240000D02*
X271740000Y-140660000D01*
X271510000Y-145760000D02*
X271060000Y-145760000D01*
X276090000Y-147760000D02*
X275690000Y-147760000D01*
X275690000Y-140240000D02*
X276090000Y-140240000D01*
X273720000Y-140240000D02*
X271740000Y-140240000D01*
X273720000Y-147760000D02*
X271740000Y-147760000D01*
X271740000Y-147760000D02*
X271740000Y-147340000D01*
%TD*%
D13*
%TO.C,*%
X258380000Y-109030000D03*
D14*
X258380000Y-111570000D03*
X258380000Y-114110000D03*
X258380000Y-116650000D03*
X258380000Y-119190000D03*
X258380000Y-121730000D03*
X258380000Y-124270000D03*
X258380000Y-126810000D03*
X258380000Y-129350000D03*
X258380000Y-131890000D03*
X258380000Y-134430000D03*
X258608600Y-136970000D03*
X273620000Y-136970000D03*
X273620000Y-134430000D03*
X273620000Y-131890000D03*
X273620000Y-129350000D03*
X273620000Y-126810000D03*
X273620000Y-124270000D03*
X273620000Y-121730000D03*
X273620000Y-119190000D03*
X273620000Y-116650000D03*
X273620000Y-114110000D03*
X273620000Y-111570000D03*
X273620000Y-109030000D03*
X260920000Y-136970000D03*
X263460000Y-136970000D03*
X266000000Y-136970000D03*
X268540000Y-136970000D03*
X271080000Y-136970000D03*
%TD*%
M02*
