%TF.GenerationSoftware,KiCad,Pcbnew,(6.0.4)*%
%TF.CreationDate,2024-05-03T15:52:29-07:00*%
%TF.ProjectId,left_ortholinear,6c656674-5f6f-4727-9468-6f6c696e6561,v1.0.0*%
%TF.SameCoordinates,Original*%
%TF.FileFunction,Soldermask,Bot*%
%TF.FilePolarity,Negative*%
%FSLAX46Y46*%
G04 Gerber Fmt 4.6, Leading zero omitted, Abs format (unit mm)*
G04 Created by KiCad (PCBNEW (6.0.4)) date 2024-05-03 15:52:29*
%MOMM*%
%LPD*%
G01*
G04 APERTURE LIST*
G04 Aperture macros list*
%AMRoundRect*
0 Rectangle with rounded corners*
0 $1 Rounding radius*
0 $2 $3 $4 $5 $6 $7 $8 $9 X,Y pos of 4 corners*
0 Add a 4 corners polygon primitive as box body*
4,1,4,$2,$3,$4,$5,$6,$7,$8,$9,$2,$3,0*
0 Add four circle primitives for the rounded corners*
1,1,$1+$1,$2,$3*
1,1,$1+$1,$4,$5*
1,1,$1+$1,$6,$7*
1,1,$1+$1,$8,$9*
0 Add four rect primitives between the rounded corners*
20,1,$1+$1,$2,$3,$4,$5,0*
20,1,$1+$1,$4,$5,$6,$7,0*
20,1,$1+$1,$6,$7,$8,$9,0*
20,1,$1+$1,$8,$9,$2,$3,0*%
G04 Aperture macros list end*
%ADD10C,1.624000*%
%ADD11C,2.005000*%
%ADD12RoundRect,0.050000X0.889000X0.889000X-0.889000X0.889000X-0.889000X-0.889000X0.889000X-0.889000X0*%
%ADD13C,3.100000*%
%ADD14C,1.801800*%
%ADD15C,3.529000*%
%ADD16RoundRect,0.050000X-1.300000X-1.300000X1.300000X-1.300000X1.300000X1.300000X-1.300000X1.300000X0*%
%ADD17C,2.132000*%
%ADD18RoundRect,0.050000X-0.889000X-0.889000X0.889000X-0.889000X0.889000X0.889000X-0.889000X0.889000X0*%
%ADD19RoundRect,0.050000X-1.000000X-1.000000X1.000000X-1.000000X1.000000X1.000000X-1.000000X1.000000X0*%
%ADD20C,2.100000*%
%ADD21O,1.650000X0.990000*%
%ADD22O,1.050000X1.350000*%
%ADD23RoundRect,0.050000X1.000000X-0.305000X1.000000X0.305000X-1.000000X0.305000X-1.000000X-0.305000X0*%
%ADD24RoundRect,0.050000X1.800000X-1.340000X1.800000X1.340000X-1.800000X1.340000X-1.800000X-1.340000X0*%
G04 APERTURE END LIST*
D10*
%TO.C,*%
X247700000Y-113200000D03*
%TD*%
D11*
%TO.C,*%
X225700000Y-163400000D03*
%TD*%
%TO.C,D4*%
X142500000Y-110100000D03*
D12*
X149500000Y-110100000D03*
%TD*%
D11*
%TO.C,*%
X236500000Y-163400000D03*
%TD*%
%TO.C,D19*%
X216100000Y-127100000D03*
D12*
X223100000Y-127100000D03*
%TD*%
D13*
%TO.C,S20*%
X224600000Y-136350000D03*
D14*
X225100000Y-140100000D03*
X214100000Y-140100000D03*
D13*
X219600000Y-134150000D03*
D15*
X219600000Y-140100000D03*
D16*
X216325000Y-134150000D03*
X227875000Y-136350000D03*
%TD*%
D13*
%TO.C,S14*%
X182800000Y-100150000D03*
X187800000Y-102350000D03*
D14*
X188300000Y-106100000D03*
X177300000Y-106100000D03*
D15*
X182800000Y-106100000D03*
D16*
X179525000Y-100150000D03*
X191075000Y-102350000D03*
%TD*%
D14*
%TO.C,S2*%
X243500000Y-123100000D03*
X232500000Y-123100000D03*
D15*
X238000000Y-123100000D03*
D17*
X243000000Y-119300000D03*
X238000000Y-117200000D03*
%TD*%
D11*
%TO.C,D11*%
X179300000Y-127100000D03*
D12*
X186300000Y-127100000D03*
%TD*%
D11*
%TO.C,*%
X228400000Y-163400000D03*
%TD*%
%TO.C,D25*%
X262000000Y-134100000D03*
D18*
X250000000Y-134100000D03*
%TD*%
D11*
%TO.C,*%
X233900000Y-163400000D03*
%TD*%
%TO.C,D27*%
X262000000Y-142100000D03*
D18*
X250000000Y-142100000D03*
%TD*%
D11*
%TO.C,D9*%
X179300000Y-161100000D03*
D12*
X186300000Y-161100000D03*
%TD*%
D15*
%TO.C,S13*%
X182800000Y-123100000D03*
D14*
X177300000Y-123100000D03*
X188300000Y-123100000D03*
D13*
X187800000Y-119350000D03*
X182800000Y-117150000D03*
D16*
X179525000Y-117150000D03*
X191075000Y-119350000D03*
%TD*%
D14*
%TO.C,S19*%
X225100000Y-157100000D03*
D13*
X219600000Y-151150000D03*
D15*
X219600000Y-157100000D03*
D14*
X214100000Y-157100000D03*
D13*
X224600000Y-153350000D03*
D16*
X216325000Y-151150000D03*
X227875000Y-153350000D03*
%TD*%
D11*
%TO.C,D23*%
X234500000Y-127100000D03*
D12*
X241500000Y-127100000D03*
%TD*%
D10*
%TO.C,*%
X210300000Y-113800000D03*
%TD*%
%TO.C,*%
X247800000Y-164100000D03*
%TD*%
D13*
%TO.C,S15*%
X201200000Y-151150000D03*
D14*
X195700000Y-157100000D03*
X206700000Y-157100000D03*
D15*
X201200000Y-157100000D03*
D13*
X206200000Y-153350000D03*
D16*
X197925000Y-151150000D03*
X209475000Y-153350000D03*
%TD*%
D11*
%TO.C,D13*%
X197700000Y-161100000D03*
D12*
X204700000Y-161100000D03*
%TD*%
D10*
%TO.C,*%
X155200000Y-113500000D03*
%TD*%
D14*
%TO.C,S5*%
X140500000Y-123100000D03*
D13*
X146000000Y-117150000D03*
X151000000Y-119350000D03*
D15*
X146000000Y-123100000D03*
D14*
X151500000Y-123100000D03*
D16*
X142725000Y-117150000D03*
X154275000Y-119350000D03*
%TD*%
D13*
%TO.C,S17*%
X206200000Y-119350000D03*
D14*
X195700000Y-123100000D03*
D15*
X201200000Y-123100000D03*
D14*
X206700000Y-123100000D03*
D13*
X201200000Y-117150000D03*
D16*
X197925000Y-117150000D03*
X209475000Y-119350000D03*
%TD*%
D14*
%TO.C,S18*%
X195700000Y-106100000D03*
X206700000Y-106100000D03*
D13*
X206200000Y-102350000D03*
D15*
X201200000Y-106100000D03*
D13*
X201200000Y-100150000D03*
D16*
X197925000Y-100150000D03*
X209475000Y-102350000D03*
%TD*%
D14*
%TO.C,S22*%
X243500000Y-157100000D03*
D15*
X238000000Y-157100000D03*
D13*
X238000000Y-151150000D03*
X243000000Y-153350000D03*
D14*
X232500000Y-157100000D03*
D16*
X234725000Y-151150000D03*
X246275000Y-153350000D03*
%TD*%
D11*
%TO.C,D18*%
X216100000Y-144100000D03*
D12*
X223100000Y-144100000D03*
%TD*%
D11*
%TO.C,D7*%
X160900000Y-127100000D03*
D12*
X167900000Y-127100000D03*
%TD*%
D11*
%TO.C,D8*%
X160900000Y-110100000D03*
D12*
X167900000Y-110100000D03*
%TD*%
D13*
%TO.C,S4*%
X146000000Y-134150000D03*
D15*
X146000000Y-140100000D03*
D14*
X140500000Y-140100000D03*
D13*
X151000000Y-136350000D03*
D14*
X151500000Y-140100000D03*
D16*
X142725000Y-134150000D03*
X154275000Y-136350000D03*
%TD*%
D14*
%TO.C,S12*%
X188300000Y-140100000D03*
X177300000Y-140100000D03*
D13*
X187800000Y-136350000D03*
D15*
X182800000Y-140100000D03*
D13*
X182800000Y-134150000D03*
D16*
X179525000Y-134150000D03*
X191075000Y-136350000D03*
%TD*%
D11*
%TO.C,D2*%
X142500000Y-144100000D03*
D12*
X149500000Y-144100000D03*
%TD*%
D11*
%TO.C,D26*%
X262000000Y-138100000D03*
D18*
X250000000Y-138100000D03*
%TD*%
D19*
%TO.C,*%
X251380000Y-103130000D03*
D20*
X251380000Y-105670000D03*
X251380000Y-108210000D03*
X251380000Y-110750000D03*
X251380000Y-113290000D03*
X251380000Y-115830000D03*
X251380000Y-118370000D03*
X251380000Y-120910000D03*
X251380000Y-123450000D03*
X251380000Y-125990000D03*
X251380000Y-128530000D03*
X251380000Y-131070000D03*
X266620000Y-131070000D03*
X266620000Y-128530000D03*
X266620000Y-125990000D03*
X266620000Y-123450000D03*
X266620000Y-120910000D03*
X266620000Y-118370000D03*
X266620000Y-115830000D03*
X266620000Y-113290000D03*
X266620000Y-110750000D03*
X266620000Y-108210000D03*
X266620000Y-105670000D03*
X266620000Y-103130000D03*
X253920000Y-131070000D03*
X256460000Y-131070000D03*
X259000000Y-131070000D03*
X261540000Y-131070000D03*
X264080000Y-131070000D03*
%TD*%
D13*
%TO.C,S16*%
X206200000Y-136350000D03*
D14*
X195700000Y-140100000D03*
D15*
X201200000Y-140100000D03*
D13*
X201200000Y-134150000D03*
D14*
X206700000Y-140100000D03*
D16*
X197925000Y-134150000D03*
X209475000Y-136350000D03*
%TD*%
D10*
%TO.C,*%
X247200000Y-128100000D03*
%TD*%
D11*
%TO.C,D6*%
X160900000Y-144100000D03*
D12*
X167900000Y-144100000D03*
%TD*%
D11*
%TO.C,D5*%
X160900000Y-161100000D03*
D12*
X167900000Y-161100000D03*
%TD*%
D13*
%TO.C,S10*%
X164400000Y-100150000D03*
D15*
X164400000Y-106100000D03*
D13*
X169400000Y-102350000D03*
D14*
X158900000Y-106100000D03*
X169900000Y-106100000D03*
D16*
X161125000Y-100150000D03*
X172675000Y-102350000D03*
%TD*%
D11*
%TO.C,D1*%
X142500000Y-161100000D03*
D12*
X149500000Y-161100000D03*
%TD*%
D13*
%TO.C,S11*%
X187800000Y-153350000D03*
D14*
X177300000Y-157100000D03*
D13*
X182800000Y-151150000D03*
D14*
X188300000Y-157100000D03*
D15*
X182800000Y-157100000D03*
D16*
X179525000Y-151150000D03*
X191075000Y-153350000D03*
%TD*%
D11*
%TO.C,D21*%
X234600000Y-159300000D03*
D12*
X241600000Y-159300000D03*
%TD*%
D15*
%TO.C,S7*%
X164400000Y-157100000D03*
D14*
X169900000Y-157100000D03*
D13*
X169400000Y-153350000D03*
X164400000Y-151150000D03*
D14*
X158900000Y-157100000D03*
D16*
X161125000Y-151150000D03*
X172675000Y-153350000D03*
%TD*%
D11*
%TO.C,*%
X231100000Y-163400000D03*
%TD*%
D13*
%TO.C,S24*%
X238000000Y-100150000D03*
X243000000Y-102350000D03*
D14*
X232500000Y-106100000D03*
D15*
X238000000Y-106100000D03*
D14*
X243500000Y-106100000D03*
D16*
X234725000Y-100150000D03*
X246275000Y-102350000D03*
%TD*%
D10*
%TO.C,*%
X155200000Y-164400000D03*
%TD*%
D11*
%TO.C,D10*%
X179300000Y-144100000D03*
D12*
X186300000Y-144100000D03*
%TD*%
D11*
%TO.C,D24*%
X234500000Y-110100000D03*
D12*
X241500000Y-110100000D03*
%TD*%
D13*
%TO.C,S23*%
X238000000Y-134150000D03*
D15*
X238000000Y-140100000D03*
D13*
X243000000Y-136350000D03*
D14*
X243500000Y-140100000D03*
X232500000Y-140100000D03*
D16*
X234725000Y-134150000D03*
X246275000Y-136350000D03*
%TD*%
D11*
%TO.C,*%
X223100000Y-163400000D03*
%TD*%
D13*
%TO.C,S8*%
X169400000Y-136350000D03*
D14*
X169900000Y-140100000D03*
D13*
X164400000Y-134150000D03*
D15*
X164400000Y-140100000D03*
D14*
X158900000Y-140100000D03*
D16*
X161125000Y-134150000D03*
X172675000Y-136350000D03*
%TD*%
D13*
%TO.C,S9*%
X169400000Y-119350000D03*
D14*
X158900000Y-123100000D03*
D15*
X164400000Y-123100000D03*
D13*
X164400000Y-117150000D03*
D14*
X169900000Y-123100000D03*
D16*
X161125000Y-117150000D03*
X172675000Y-119350000D03*
%TD*%
D11*
%TO.C,D16*%
X197700000Y-110100000D03*
D12*
X204700000Y-110100000D03*
%TD*%
D14*
%TO.C,S1*%
X225100000Y-123100000D03*
D15*
X219600000Y-123100000D03*
D14*
X214100000Y-123100000D03*
D17*
X224600000Y-119300000D03*
X219600000Y-117200000D03*
%TD*%
D14*
%TO.C,S21*%
X214100000Y-106100000D03*
D13*
X219600000Y-100150000D03*
D14*
X225100000Y-106100000D03*
D13*
X224600000Y-102350000D03*
D15*
X219600000Y-106100000D03*
D16*
X216325000Y-100150000D03*
X227875000Y-102350000D03*
%TD*%
D10*
%TO.C,*%
X210400000Y-128100000D03*
%TD*%
D11*
%TO.C,D12*%
X179300000Y-110100000D03*
D12*
X186300000Y-110100000D03*
%TD*%
D11*
%TO.C,D3*%
X142500000Y-127100000D03*
D12*
X149500000Y-127100000D03*
%TD*%
D11*
%TO.C,D15*%
X197700000Y-127100000D03*
D12*
X204700000Y-127100000D03*
%TD*%
D11*
%TO.C,D28*%
X262000000Y-146100000D03*
D18*
X250000000Y-146100000D03*
%TD*%
D11*
%TO.C,D14*%
X197700000Y-144100000D03*
D12*
X204700000Y-144100000D03*
%TD*%
D10*
%TO.C,*%
X228800000Y-115600000D03*
%TD*%
D11*
%TO.C,D22*%
X234500000Y-144100000D03*
D12*
X241500000Y-144100000D03*
%TD*%
D21*
%TO.C,*%
X268000000Y-133750000D03*
X268000000Y-140750000D03*
D22*
X265300000Y-139750000D03*
X265300000Y-134750000D03*
%TD*%
D13*
%TO.C,S3*%
X146000000Y-151150000D03*
X151000000Y-153350000D03*
D15*
X146000000Y-157100000D03*
D14*
X151500000Y-157100000D03*
X140500000Y-157100000D03*
D16*
X142725000Y-151150000D03*
X154275000Y-153350000D03*
%TD*%
D11*
%TO.C,D17*%
X216000000Y-159200000D03*
D12*
X223000000Y-159200000D03*
%TD*%
D11*
%TO.C,D20*%
X216100000Y-110100000D03*
D12*
X223100000Y-110100000D03*
%TD*%
D10*
%TO.C,*%
X260000000Y-111100000D03*
%TD*%
D13*
%TO.C,S6*%
X151000000Y-102350000D03*
X146000000Y-100150000D03*
D15*
X146000000Y-106100000D03*
D14*
X151500000Y-106100000D03*
X140500000Y-106100000D03*
D16*
X142725000Y-100150000D03*
X154275000Y-102350000D03*
%TD*%
D23*
%TO.C,*%
X258250000Y-144900000D03*
X258250000Y-143900000D03*
X258250000Y-142900000D03*
X258250000Y-141900000D03*
X258250000Y-140900000D03*
X258250000Y-139900000D03*
X258250000Y-138900000D03*
X258250000Y-137900000D03*
D24*
X255450000Y-147890000D03*
X255450000Y-134910000D03*
%TD*%
M02*
