%TF.GenerationSoftware,KiCad,Pcbnew,(6.0.4)*%
%TF.CreationDate,2024-05-03T15:54:38-07:00*%
%TF.ProjectId,left_staggered,6c656674-5f73-4746-9167-67657265642e,v1.0.0*%
%TF.SameCoordinates,Original*%
%TF.FileFunction,Soldermask,Top*%
%TF.FilePolarity,Negative*%
%FSLAX46Y46*%
G04 Gerber Fmt 4.6, Leading zero omitted, Abs format (unit mm)*
G04 Created by KiCad (PCBNEW (6.0.4)) date 2024-05-03 15:54:38*
%MOMM*%
%LPD*%
G01*
G04 APERTURE LIST*
G04 Aperture macros list*
%AMRoundRect*
0 Rectangle with rounded corners*
0 $1 Rounding radius*
0 $2 $3 $4 $5 $6 $7 $8 $9 X,Y pos of 4 corners*
0 Add a 4 corners polygon primitive as box body*
4,1,4,$2,$3,$4,$5,$6,$7,$8,$9,$2,$3,0*
0 Add four circle primitives for the rounded corners*
1,1,$1+$1,$2,$3*
1,1,$1+$1,$4,$5*
1,1,$1+$1,$6,$7*
1,1,$1+$1,$8,$9*
0 Add four rect primitives between the rounded corners*
20,1,$1+$1,$2,$3,$4,$5,0*
20,1,$1+$1,$4,$5,$6,$7,0*
20,1,$1+$1,$6,$7,$8,$9,0*
20,1,$1+$1,$8,$9,$2,$3,0*%
G04 Aperture macros list end*
%ADD10C,1.624000*%
%ADD11C,2.005000*%
%ADD12RoundRect,0.050000X0.889000X0.889000X-0.889000X0.889000X-0.889000X-0.889000X0.889000X-0.889000X0*%
%ADD13C,3.100000*%
%ADD14C,1.801800*%
%ADD15C,3.529000*%
%ADD16C,2.132000*%
%ADD17RoundRect,0.050000X-0.889000X-0.889000X0.889000X-0.889000X0.889000X0.889000X-0.889000X0.889000X0*%
%ADD18RoundRect,0.050000X-1.000000X-1.000000X1.000000X-1.000000X1.000000X1.000000X-1.000000X1.000000X0*%
%ADD19C,2.100000*%
%ADD20RoundRect,0.050000X0.675000X-0.200000X0.675000X0.200000X-0.675000X0.200000X-0.675000X-0.200000X0*%
%ADD21RoundRect,0.050000X0.775000X-0.750000X0.775000X0.750000X-0.775000X0.750000X-0.775000X-0.750000X0*%
%ADD22O,1.650000X0.990000*%
%ADD23O,1.050000X1.350000*%
%ADD24RoundRect,0.050000X0.775000X-0.600000X0.775000X0.600000X-0.775000X0.600000X-0.775000X-0.600000X0*%
G04 APERTURE END LIST*
D10*
%TO.C,*%
X269300000Y-119000000D03*
%TD*%
D11*
%TO.C,D4*%
X164000000Y-119800000D03*
D12*
X171000000Y-119800000D03*
%TD*%
D11*
%TO.C,D19*%
X237600000Y-128300000D03*
D12*
X244600000Y-128300000D03*
%TD*%
D13*
%TO.C,S20*%
X246100000Y-137550000D03*
D14*
X246600000Y-141300000D03*
X235600000Y-141300000D03*
D13*
X241100000Y-135350000D03*
D15*
X241100000Y-141300000D03*
%TD*%
D13*
%TO.C,S14*%
X204300000Y-101350000D03*
X209300000Y-103550000D03*
D14*
X209800000Y-107300000D03*
X198800000Y-107300000D03*
D15*
X204300000Y-107300000D03*
%TD*%
D14*
%TO.C,S2*%
X265000000Y-128550000D03*
X254000000Y-128550000D03*
D15*
X259500000Y-128550000D03*
D16*
X264500000Y-124750000D03*
X259500000Y-122650000D03*
%TD*%
D11*
%TO.C,D11*%
X200800000Y-128300000D03*
D12*
X207800000Y-128300000D03*
%TD*%
D11*
%TO.C,D25*%
X283500000Y-139550000D03*
D17*
X271500000Y-139550000D03*
%TD*%
D11*
%TO.C,D27*%
X283500000Y-147550000D03*
D17*
X271500000Y-147550000D03*
%TD*%
D11*
%TO.C,D9*%
X200800000Y-162300000D03*
D12*
X207800000Y-162300000D03*
%TD*%
D15*
%TO.C,S13*%
X204300000Y-124300000D03*
D14*
X198800000Y-124300000D03*
X209800000Y-124300000D03*
D13*
X209300000Y-120550000D03*
X204300000Y-118350000D03*
%TD*%
D14*
%TO.C,S19*%
X246600000Y-158300000D03*
D13*
X241100000Y-152350000D03*
D15*
X241100000Y-158300000D03*
D14*
X235600000Y-158300000D03*
D13*
X246100000Y-154550000D03*
%TD*%
D11*
%TO.C,D23*%
X256000000Y-132550000D03*
D12*
X263000000Y-132550000D03*
%TD*%
D10*
%TO.C,*%
X231800000Y-111700000D03*
%TD*%
%TO.C,*%
X269400000Y-166100000D03*
%TD*%
D13*
%TO.C,S15*%
X222700000Y-148100000D03*
D14*
X217200000Y-154050000D03*
X228200000Y-154050000D03*
D15*
X222700000Y-154050000D03*
D13*
X227700000Y-150300000D03*
%TD*%
D11*
%TO.C,*%
X253500000Y-169800000D03*
%TD*%
%TO.C,D13*%
X219200000Y-158050000D03*
D12*
X226200000Y-158050000D03*
%TD*%
D10*
%TO.C,*%
X176700000Y-123000000D03*
%TD*%
D14*
%TO.C,S5*%
X162000000Y-132800000D03*
D13*
X167500000Y-126850000D03*
X172500000Y-129050000D03*
D15*
X167500000Y-132800000D03*
D14*
X173000000Y-132800000D03*
%TD*%
D13*
%TO.C,S17*%
X227700000Y-116300000D03*
D14*
X217200000Y-120050000D03*
D15*
X222700000Y-120050000D03*
D14*
X228200000Y-120050000D03*
D13*
X222700000Y-114100000D03*
%TD*%
D11*
%TO.C,*%
X260700000Y-169800000D03*
%TD*%
D14*
%TO.C,S18*%
X217200000Y-103050000D03*
X228200000Y-103050000D03*
D13*
X227700000Y-99300000D03*
D15*
X222700000Y-103050000D03*
D13*
X222700000Y-97100000D03*
%TD*%
D14*
%TO.C,S22*%
X265000000Y-162550000D03*
D15*
X259500000Y-162550000D03*
D13*
X259500000Y-156600000D03*
X264500000Y-158800000D03*
D14*
X254000000Y-162550000D03*
%TD*%
D11*
%TO.C,D18*%
X237600000Y-145300000D03*
D12*
X244600000Y-145300000D03*
%TD*%
D11*
%TO.C,D7*%
X182400000Y-136800000D03*
D12*
X189400000Y-136800000D03*
%TD*%
D11*
%TO.C,D8*%
X182400000Y-119800000D03*
D12*
X189400000Y-119800000D03*
%TD*%
D13*
%TO.C,S4*%
X167500000Y-143850000D03*
D15*
X167500000Y-149800000D03*
D14*
X162000000Y-149800000D03*
D13*
X172500000Y-146050000D03*
D14*
X173000000Y-149800000D03*
%TD*%
%TO.C,S12*%
X209800000Y-141300000D03*
X198800000Y-141300000D03*
D13*
X209300000Y-137550000D03*
D15*
X204300000Y-141300000D03*
D13*
X204300000Y-135350000D03*
%TD*%
D11*
%TO.C,D2*%
X164000000Y-153800000D03*
D12*
X171000000Y-153800000D03*
%TD*%
D11*
%TO.C,D26*%
X283500000Y-143550000D03*
D17*
X271500000Y-143550000D03*
%TD*%
D18*
%TO.C,*%
X272880000Y-108580000D03*
D19*
X272880000Y-111120000D03*
X272880000Y-113660000D03*
X272880000Y-116200000D03*
X272880000Y-118740000D03*
X272880000Y-121280000D03*
X272880000Y-123820000D03*
X272880000Y-126360000D03*
X272880000Y-128900000D03*
X272880000Y-131440000D03*
X272880000Y-133980000D03*
X272880000Y-136520000D03*
X288120000Y-136520000D03*
X288120000Y-133980000D03*
X288120000Y-131440000D03*
X288120000Y-128900000D03*
X288120000Y-126360000D03*
X288120000Y-123820000D03*
X288120000Y-121280000D03*
X288120000Y-118740000D03*
X288120000Y-116200000D03*
X288120000Y-113660000D03*
X288120000Y-111120000D03*
X288120000Y-108580000D03*
X275420000Y-136520000D03*
X277960000Y-136520000D03*
X280500000Y-136520000D03*
X283040000Y-136520000D03*
X285580000Y-136520000D03*
%TD*%
D13*
%TO.C,S16*%
X227700000Y-133300000D03*
D14*
X217200000Y-137050000D03*
D15*
X222700000Y-137050000D03*
D13*
X222700000Y-131100000D03*
D14*
X228200000Y-137050000D03*
%TD*%
D10*
%TO.C,*%
X269000000Y-135800000D03*
%TD*%
D11*
%TO.C,D6*%
X182400000Y-153800000D03*
D12*
X189400000Y-153800000D03*
%TD*%
D11*
%TO.C,D5*%
X182400000Y-170800000D03*
D12*
X189400000Y-170800000D03*
%TD*%
D13*
%TO.C,S10*%
X185900000Y-109850000D03*
D15*
X185900000Y-115800000D03*
D13*
X190900000Y-112050000D03*
D14*
X180400000Y-115800000D03*
X191400000Y-115800000D03*
%TD*%
D11*
%TO.C,D1*%
X164000000Y-170800000D03*
D12*
X171000000Y-170800000D03*
%TD*%
D13*
%TO.C,S11*%
X209300000Y-154550000D03*
D14*
X198800000Y-158300000D03*
D13*
X204300000Y-152350000D03*
D14*
X209800000Y-158300000D03*
D15*
X204300000Y-158300000D03*
%TD*%
D11*
%TO.C,D21*%
X256000000Y-164700000D03*
D12*
X263000000Y-164700000D03*
%TD*%
D15*
%TO.C,S7*%
X185900000Y-166800000D03*
D14*
X191400000Y-166800000D03*
D13*
X190900000Y-163050000D03*
X185900000Y-160850000D03*
D14*
X180400000Y-166800000D03*
%TD*%
D13*
%TO.C,S24*%
X259500000Y-105600000D03*
X264500000Y-107800000D03*
D14*
X254000000Y-111550000D03*
D15*
X259500000Y-111550000D03*
D14*
X265000000Y-111550000D03*
%TD*%
D10*
%TO.C,*%
X176600000Y-174100000D03*
%TD*%
D11*
%TO.C,D10*%
X200800000Y-145300000D03*
D12*
X207800000Y-145300000D03*
%TD*%
D11*
%TO.C,D24*%
X256000000Y-115550000D03*
D12*
X263000000Y-115550000D03*
%TD*%
D11*
%TO.C,*%
X255900000Y-169800000D03*
%TD*%
D13*
%TO.C,S23*%
X259500000Y-139600000D03*
D15*
X259500000Y-145550000D03*
D13*
X264500000Y-141800000D03*
D14*
X265000000Y-145550000D03*
X254000000Y-145550000D03*
%TD*%
D20*
%TO.C,*%
X287000000Y-143800000D03*
X287000000Y-143150000D03*
X287000000Y-142500000D03*
X287000000Y-141850000D03*
X287000000Y-141200000D03*
D21*
X289700000Y-141500000D03*
D22*
X289700000Y-139000000D03*
D21*
X289700000Y-143500000D03*
D23*
X287000000Y-140000000D03*
D24*
X289700000Y-139600000D03*
X289700000Y-145400000D03*
D22*
X289700000Y-146000000D03*
D23*
X287000000Y-145000000D03*
%TD*%
D11*
%TO.C,*%
X258300000Y-169800000D03*
%TD*%
D13*
%TO.C,S8*%
X190900000Y-146050000D03*
D14*
X191400000Y-149800000D03*
D13*
X185900000Y-143850000D03*
D15*
X185900000Y-149800000D03*
D14*
X180400000Y-149800000D03*
%TD*%
D13*
%TO.C,S9*%
X190900000Y-129050000D03*
D14*
X180400000Y-132800000D03*
D15*
X185900000Y-132800000D03*
D13*
X185900000Y-126850000D03*
D14*
X191400000Y-132800000D03*
%TD*%
D11*
%TO.C,D16*%
X219200000Y-107050000D03*
D12*
X226200000Y-107050000D03*
%TD*%
D14*
%TO.C,S1*%
X246600000Y-124300000D03*
D15*
X241100000Y-124300000D03*
D14*
X235600000Y-124300000D03*
D16*
X246100000Y-120500000D03*
X241100000Y-118400000D03*
%TD*%
D14*
%TO.C,S21*%
X235600000Y-107300000D03*
D13*
X241100000Y-101350000D03*
D14*
X246600000Y-107300000D03*
D13*
X246100000Y-103550000D03*
D15*
X241100000Y-107300000D03*
%TD*%
D10*
%TO.C,*%
X231900000Y-128600000D03*
%TD*%
D11*
%TO.C,D12*%
X200800000Y-111300000D03*
D12*
X207800000Y-111300000D03*
%TD*%
D11*
%TO.C,D3*%
X164000000Y-136800000D03*
D12*
X171000000Y-136800000D03*
%TD*%
D11*
%TO.C,D15*%
X219200000Y-124050000D03*
D12*
X226200000Y-124050000D03*
%TD*%
D11*
%TO.C,D28*%
X283500000Y-151550000D03*
D17*
X271500000Y-151550000D03*
%TD*%
D11*
%TO.C,D14*%
X219200000Y-141050000D03*
D12*
X226200000Y-141050000D03*
%TD*%
D10*
%TO.C,*%
X250300000Y-116800000D03*
%TD*%
D11*
%TO.C,D22*%
X256000000Y-149550000D03*
D12*
X263000000Y-149550000D03*
%TD*%
D11*
%TO.C,*%
X263000000Y-169800000D03*
%TD*%
D13*
%TO.C,S3*%
X167500000Y-160850000D03*
X172500000Y-163050000D03*
D15*
X167500000Y-166800000D03*
D14*
X173000000Y-166800000D03*
X162000000Y-166800000D03*
%TD*%
D11*
%TO.C,*%
X265300000Y-169800000D03*
%TD*%
%TO.C,D17*%
X237600000Y-162300000D03*
D12*
X244600000Y-162300000D03*
%TD*%
D11*
%TO.C,D20*%
X237600000Y-111300000D03*
D12*
X244600000Y-111300000D03*
%TD*%
D10*
%TO.C,*%
X281500000Y-116550000D03*
%TD*%
D13*
%TO.C,S6*%
X172500000Y-112050000D03*
X167500000Y-109850000D03*
D15*
X167500000Y-115800000D03*
D14*
X173000000Y-115800000D03*
X162000000Y-115800000D03*
%TD*%
M02*
