M48
; DRILL file {KiCad (6.0.4)} date Fri May  3 15:52:27 2024
; FORMAT={-:-/ absolute / inch / decimal}
; #@! TF.CreationDate,2024-05-03T15:52:27-07:00
; #@! TF.GenerationSoftware,Kicad,Pcbnew,(6.0.4)
; #@! TF.FileFunction,NonPlated,1,2,NPTH
FMAT,2
INCH
; #@! TA.AperFunction,NonPlated,NPTH,ComponentDrill
T1C0.0670
; #@! TA.AperFunction,NonPlated,NPTH,ComponentDrill
T2C0.1181
; #@! TA.AperFunction,NonPlated,NPTH,ComponentDrill
T3C0.1350
%
G90
G05
T1
X5.5315Y-4.1772
X5.5315Y-4.8465
X5.5315Y-5.5157
X5.5315Y-6.185
X5.9646Y-4.1772
X5.9646Y-4.8465
X5.9646Y-5.5157
X5.9646Y-6.185
X6.2559Y-4.1772
X6.2559Y-4.8465
X6.2559Y-5.5157
X6.2559Y-6.185
X6.689Y-4.1772
X6.689Y-4.8465
X6.689Y-5.5157
X6.689Y-6.185
X6.9803Y-4.1772
X6.9803Y-4.8465
X6.9803Y-5.5157
X6.9803Y-6.185
X7.4134Y-4.1772
X7.4134Y-4.8465
X7.4134Y-5.5157
X7.4134Y-6.185
X7.7047Y-4.1772
X7.7047Y-4.8465
X7.7047Y-5.5157
X7.7047Y-6.185
X8.1378Y-4.1772
X8.1378Y-4.8465
X8.1378Y-5.5157
X8.1378Y-6.185
X8.4291Y-4.1772
X8.4291Y-4.8465
X8.4291Y-5.5157
X8.4291Y-6.185
X8.8622Y-4.1772
X8.8622Y-4.8465
X8.8622Y-5.5157
X8.8622Y-6.185
X9.1535Y-4.1772
X9.1535Y-4.8465
X9.1535Y-5.5157
X9.1535Y-6.185
X9.5866Y-4.1772
X9.5866Y-4.8465
X9.5866Y-5.5157
X9.5866Y-6.185
T2
X5.748Y-3.9429
X5.748Y-4.6122
X5.748Y-5.2815
X5.748Y-5.9508
X5.9449Y-4.0295
X5.9449Y-4.6988
X5.9449Y-5.3681
X5.9449Y-6.0374
X6.4724Y-3.9429
X6.4724Y-4.6122
X6.4724Y-5.2815
X6.4724Y-5.9508
X6.6693Y-4.0295
X6.6693Y-4.6988
X6.6693Y-5.3681
X6.6693Y-6.0374
X7.1969Y-3.9429
X7.1969Y-4.6122
X7.1969Y-5.2815
X7.1969Y-5.9508
X7.3937Y-4.0295
X7.3937Y-4.6988
X7.3937Y-5.3681
X7.3937Y-6.0374
X7.9213Y-3.9429
X7.9213Y-4.6122
X7.9213Y-5.2815
X7.9213Y-5.9508
X8.1181Y-4.0295
X8.1181Y-4.6988
X8.1181Y-5.3681
X8.1181Y-6.0374
X8.6457Y-3.9429
X8.6457Y-5.2815
X8.6457Y-5.9508
X8.8425Y-4.0295
X8.8425Y-5.3681
X8.8425Y-6.0374
X9.3701Y-3.9429
X9.3701Y-5.2815
X9.3701Y-5.9508
X9.5669Y-4.0295
X9.5669Y-5.3681
X9.5669Y-6.0374
T3
X5.748Y-4.1772
X5.748Y-4.8465
X5.748Y-5.5157
X5.748Y-6.185
X6.4724Y-4.1772
X6.4724Y-4.8465
X6.4724Y-5.5157
X6.4724Y-6.185
X7.1969Y-4.1772
X7.1969Y-4.8465
X7.1969Y-5.5157
X7.1969Y-6.185
X7.9213Y-4.1772
X7.9213Y-4.8465
X7.9213Y-5.5157
X7.9213Y-6.185
X8.6457Y-4.1772
X8.6457Y-4.8465
X8.6457Y-5.5157
X8.6457Y-6.185
X9.3701Y-4.1772
X9.3701Y-4.8465
X9.3701Y-5.5157
X9.3701Y-6.185
T0
M30
