M48
; DRILL file {KiCad (6.0.4)} date Fri May  3 15:34:11 2024
; FORMAT={-:-/ absolute / inch / decimal}
; #@! TF.CreationDate,2024-05-03T15:34:11-07:00
; #@! TF.GenerationSoftware,Kicad,Pcbnew,(6.0.4)
; #@! TF.FileFunction,NonPlated,1,2,NPTH
FMAT,2
INCH
; #@! TA.AperFunction,NonPlated,NPTH,ComponentDrill
T1C0.0670
; #@! TA.AperFunction,NonPlated,NPTH,ComponentDrill
T2C0.1181
; #@! TA.AperFunction,NonPlated,NPTH,ComponentDrill
T3C0.1350
%
G90
G05
T1
X6.378Y-4.5591
X6.378Y-5.2283
X6.378Y-5.8976
X6.378Y-6.5669
X6.811Y-4.5591
X6.811Y-5.2283
X6.811Y-5.8976
X6.811Y-6.5669
X7.1024Y-4.5591
X7.1024Y-5.2283
X7.1024Y-5.8976
X7.1024Y-6.5669
X7.5354Y-4.5591
X7.5354Y-5.2283
X7.5354Y-5.8976
X7.5354Y-6.5669
X7.8268Y-4.2244
X7.8268Y-4.8937
X7.8268Y-5.563
X7.8268Y-6.2323
X8.2598Y-4.2244
X8.2598Y-4.8937
X8.2598Y-5.563
X8.2598Y-6.2323
X8.5512Y-4.0571
X8.5512Y-4.7264
X8.5512Y-5.3957
X8.5512Y-6.065
X8.9843Y-4.0571
X8.9843Y-4.7264
X8.9843Y-5.3957
X8.9843Y-6.065
X9.2756Y-4.2244
X9.2756Y-4.8937
X9.2756Y-5.563
X9.2756Y-6.2323
X9.7087Y-4.2244
X9.7087Y-4.8937
X9.7087Y-5.563
X9.7087Y-6.2323
X10.0Y-4.3917
X10.0Y-5.061
X10.0Y-5.7303
X10.0Y-6.3996
X10.4331Y-4.3917
X10.4331Y-5.061
X10.4331Y-5.7303
X10.4331Y-6.3996
T2
X6.5945Y-4.3248
X6.5945Y-4.9941
X6.5945Y-5.6634
X6.5945Y-6.3327
X6.7913Y-4.4114
X6.7913Y-5.0807
X6.7913Y-5.75
X6.7913Y-6.4193
X7.3189Y-4.3248
X7.3189Y-4.9941
X7.3189Y-5.6634
X7.3189Y-6.3327
X7.5157Y-4.4114
X7.5157Y-5.0807
X7.5157Y-5.75
X7.5157Y-6.4193
X8.0433Y-3.9902
X8.0433Y-4.6594
X8.0433Y-5.3287
X8.0433Y-5.998
X8.2402Y-4.0768
X8.2402Y-4.7461
X8.2402Y-5.4154
X8.2402Y-6.0846
X8.7677Y-3.8228
X8.7677Y-4.4921
X8.7677Y-5.1614
X8.7677Y-5.8307
X8.9646Y-3.9094
X8.9646Y-4.5787
X8.9646Y-5.248
X8.9646Y-5.9173
X9.4921Y-3.9902
X9.4921Y-5.3287
X9.4921Y-5.998
X9.689Y-4.0768
X9.689Y-5.4154
X9.689Y-6.0846
X10.2165Y-4.1575
X10.2165Y-5.4961
X10.2165Y-6.1654
X10.4134Y-4.2441
X10.4134Y-5.5827
X10.4134Y-6.252
T3
X6.5945Y-4.5591
X6.5945Y-5.2283
X6.5945Y-5.8976
X6.5945Y-6.5669
X7.3189Y-4.5591
X7.3189Y-5.2283
X7.3189Y-5.8976
X7.3189Y-6.5669
X8.0433Y-4.2244
X8.0433Y-4.8937
X8.0433Y-5.563
X8.0433Y-6.2323
X8.7677Y-4.0571
X8.7677Y-4.7264
X8.7677Y-5.3957
X8.7677Y-6.065
X9.4921Y-4.2244
X9.4921Y-4.8937
X9.4921Y-5.563
X9.4921Y-6.2323
X10.2165Y-4.3917
X10.2165Y-5.061
X10.2165Y-5.7303
X10.2165Y-6.3996
T0
M30
