%TF.GenerationSoftware,KiCad,Pcbnew,(6.0.4)*%
%TF.CreationDate,2024-05-03T15:52:29-07:00*%
%TF.ProjectId,left_ortholinear,6c656674-5f6f-4727-9468-6f6c696e6561,v1.0.0*%
%TF.SameCoordinates,Original*%
%TF.FileFunction,Paste,Bot*%
%TF.FilePolarity,Positive*%
%FSLAX46Y46*%
G04 Gerber Fmt 4.6, Leading zero omitted, Abs format (unit mm)*
G04 Created by KiCad (PCBNEW (6.0.4)) date 2024-05-03 15:52:29*
%MOMM*%
%LPD*%
G01*
G04 APERTURE LIST*
%ADD10R,2.600000X2.600000*%
%ADD11R,2.000000X0.610000*%
%ADD12R,3.600000X2.680000*%
G04 APERTURE END LIST*
D10*
%TO.C,S20*%
X216325000Y-134150000D03*
X227875000Y-136350000D03*
%TD*%
%TO.C,S14*%
X179525000Y-100150000D03*
X191075000Y-102350000D03*
%TD*%
%TO.C,S13*%
X179525000Y-117150000D03*
X191075000Y-119350000D03*
%TD*%
%TO.C,S19*%
X216325000Y-151150000D03*
X227875000Y-153350000D03*
%TD*%
%TO.C,S15*%
X197925000Y-151150000D03*
X209475000Y-153350000D03*
%TD*%
%TO.C,S5*%
X142725000Y-117150000D03*
X154275000Y-119350000D03*
%TD*%
%TO.C,S17*%
X197925000Y-117150000D03*
X209475000Y-119350000D03*
%TD*%
%TO.C,S18*%
X197925000Y-100150000D03*
X209475000Y-102350000D03*
%TD*%
%TO.C,S22*%
X234725000Y-151150000D03*
X246275000Y-153350000D03*
%TD*%
%TO.C,S4*%
X142725000Y-134150000D03*
X154275000Y-136350000D03*
%TD*%
%TO.C,S12*%
X179525000Y-134150000D03*
X191075000Y-136350000D03*
%TD*%
%TO.C,S16*%
X197925000Y-134150000D03*
X209475000Y-136350000D03*
%TD*%
%TO.C,S10*%
X161125000Y-100150000D03*
X172675000Y-102350000D03*
%TD*%
%TO.C,S11*%
X179525000Y-151150000D03*
X191075000Y-153350000D03*
%TD*%
%TO.C,S7*%
X161125000Y-151150000D03*
X172675000Y-153350000D03*
%TD*%
%TO.C,S24*%
X234725000Y-100150000D03*
X246275000Y-102350000D03*
%TD*%
%TO.C,S23*%
X234725000Y-134150000D03*
X246275000Y-136350000D03*
%TD*%
%TO.C,S8*%
X161125000Y-134150000D03*
X172675000Y-136350000D03*
%TD*%
%TO.C,S9*%
X161125000Y-117150000D03*
X172675000Y-119350000D03*
%TD*%
%TO.C,S21*%
X216325000Y-100150000D03*
X227875000Y-102350000D03*
%TD*%
%TO.C,S3*%
X142725000Y-151150000D03*
X154275000Y-153350000D03*
%TD*%
%TO.C,S6*%
X142725000Y-100150000D03*
X154275000Y-102350000D03*
%TD*%
D11*
%TO.C,*%
X258250000Y-144900000D03*
X258250000Y-143900000D03*
X258250000Y-142900000D03*
X258250000Y-141900000D03*
X258250000Y-140900000D03*
X258250000Y-139900000D03*
X258250000Y-138900000D03*
X258250000Y-137900000D03*
D12*
X255450000Y-147890000D03*
X255450000Y-134910000D03*
%TD*%
M02*
