%TF.GenerationSoftware,KiCad,Pcbnew,(6.0.4)*%
%TF.CreationDate,2024-05-03T15:52:29-07:00*%
%TF.ProjectId,left_ortholinear,6c656674-5f6f-4727-9468-6f6c696e6561,v1.0.0*%
%TF.SameCoordinates,Original*%
%TF.FileFunction,Legend,Top*%
%TF.FilePolarity,Positive*%
%FSLAX46Y46*%
G04 Gerber Fmt 4.6, Leading zero omitted, Abs format (unit mm)*
G04 Created by KiCad (PCBNEW (6.0.4)) date 2024-05-03 15:52:29*
%MOMM*%
%LPD*%
G01*
G04 APERTURE LIST*
%ADD10C,0.150000*%
%ADD11C,0.120000*%
%ADD12R,2.000000X2.000000*%
%ADD13C,2.000000*%
G04 APERTURE END LIST*
D10*
%TO.C,*%
D11*
X264810000Y-139010000D02*
X264360000Y-139010000D01*
X267020000Y-133490000D02*
X265040000Y-133490000D01*
X267020000Y-141010000D02*
X265040000Y-141010000D01*
X265040000Y-141010000D02*
X265040000Y-140590000D01*
X269390000Y-141010000D02*
X268990000Y-141010000D01*
X268990000Y-133490000D02*
X269390000Y-133490000D01*
X264360000Y-138560000D02*
X264360000Y-139010000D01*
X265040000Y-133490000D02*
X265040000Y-133910000D01*
%TD*%
D12*
%TO.C,*%
X251380000Y-103130000D03*
D13*
X251380000Y-105670000D03*
X251380000Y-108210000D03*
X251380000Y-110750000D03*
X251380000Y-113290000D03*
X251380000Y-115830000D03*
X251380000Y-118370000D03*
X251380000Y-120910000D03*
X251380000Y-123450000D03*
X251380000Y-125990000D03*
X251380000Y-128530000D03*
X251380000Y-131070000D03*
X266620000Y-131070000D03*
X266620000Y-128530000D03*
X266620000Y-125990000D03*
X266620000Y-123450000D03*
X266620000Y-120910000D03*
X266620000Y-118370000D03*
X266620000Y-115830000D03*
X266620000Y-113290000D03*
X266620000Y-110750000D03*
X266620000Y-108210000D03*
X266620000Y-105670000D03*
X266620000Y-103130000D03*
X253920000Y-131070000D03*
X256460000Y-131070000D03*
X259000000Y-131070000D03*
X261540000Y-131070000D03*
X264080000Y-131070000D03*
%TD*%
M02*
