%TF.GenerationSoftware,KiCad,Pcbnew,(6.0.4)*%
%TF.CreationDate,2024-05-03T15:52:29-07:00*%
%TF.ProjectId,left_ortholinear,6c656674-5f6f-4727-9468-6f6c696e6561,v1.0.0*%
%TF.SameCoordinates,Original*%
%TF.FileFunction,Copper,L2,Bot*%
%TF.FilePolarity,Positive*%
%FSLAX46Y46*%
G04 Gerber Fmt 4.6, Leading zero omitted, Abs format (unit mm)*
G04 Created by KiCad (PCBNEW (6.0.4)) date 2024-05-03 15:52:29*
%MOMM*%
%LPD*%
G01*
G04 APERTURE LIST*
%TA.AperFunction,ComponentPad*%
%ADD10C,1.524000*%
%TD*%
%TA.AperFunction,ComponentPad*%
%ADD11C,1.905000*%
%TD*%
%TA.AperFunction,ComponentPad*%
%ADD12R,1.778000X1.778000*%
%TD*%
%TA.AperFunction,SMDPad,CuDef*%
%ADD13R,2.600000X2.600000*%
%TD*%
%TA.AperFunction,ComponentPad*%
%ADD14C,2.032000*%
%TD*%
%TA.AperFunction,ComponentPad*%
%ADD15R,2.000000X2.000000*%
%TD*%
%TA.AperFunction,ComponentPad*%
%ADD16C,2.000000*%
%TD*%
%TA.AperFunction,ComponentPad*%
%ADD17O,1.550000X0.890000*%
%TD*%
%TA.AperFunction,ComponentPad*%
%ADD18O,0.950000X1.250000*%
%TD*%
%TA.AperFunction,SMDPad,CuDef*%
%ADD19R,2.000000X0.610000*%
%TD*%
%TA.AperFunction,SMDPad,CuDef*%
%ADD20R,3.600000X2.680000*%
%TD*%
%TA.AperFunction,ViaPad*%
%ADD21C,0.800000*%
%TD*%
%TA.AperFunction,Conductor*%
%ADD22C,0.250000*%
%TD*%
G04 APERTURE END LIST*
D10*
%TO.P,,1*%
%TO.N,N/C*%
X247700000Y-113200000D03*
%TD*%
D11*
%TO.P,,1*%
%TO.N,C7*%
X225700000Y-163400000D03*
%TD*%
%TO.P,D4,1*%
%TO.N,outer_nums*%
X142500000Y-110100000D03*
D12*
%TO.P,D4,2*%
%TO.N,D7*%
X149500000Y-110100000D03*
%TD*%
D11*
%TO.P,,1*%
%TO.N,E6*%
X236500000Y-163400000D03*
%TD*%
%TO.P,D19,1*%
%TO.N,index_top*%
X216100000Y-127100000D03*
D12*
%TO.P,D19,2*%
%TO.N,C6*%
X223100000Y-127100000D03*
%TD*%
D13*
%TO.P,S20,1*%
%TO.N,B4*%
X216325000Y-134150000D03*
%TO.P,S20,2*%
%TO.N,index_home*%
X227875000Y-136350000D03*
%TD*%
%TO.P,S14,1*%
%TO.N,B7*%
X179525000Y-100150000D03*
%TO.P,S14,2*%
%TO.N,ring_nums*%
X191075000Y-102350000D03*
%TD*%
D14*
%TO.P,S2,1*%
%TO.N,inner_top*%
X243000000Y-119300000D03*
%TO.P,S2,2*%
%TO.N,E6*%
X238000000Y-117200000D03*
%TD*%
D11*
%TO.P,D11,1*%
%TO.N,ring_top*%
X179300000Y-127100000D03*
D12*
%TO.P,D11,2*%
%TO.N,C6*%
X186300000Y-127100000D03*
%TD*%
D11*
%TO.P,,1*%
%TO.N,B7*%
X228400000Y-163400000D03*
%TD*%
%TO.P,D25,1*%
%TO.N,VCC*%
X262000000Y-134100000D03*
D12*
%TO.P,D25,2*%
%TO.N,D0*%
X250000000Y-134100000D03*
%TD*%
D11*
%TO.P,,1*%
%TO.N,B4*%
X233900000Y-163400000D03*
%TD*%
%TO.P,D27,1*%
%TO.N,VCC*%
X262000000Y-142100000D03*
D12*
%TO.P,D27,2*%
%TO.N,D5*%
X250000000Y-142100000D03*
%TD*%
D11*
%TO.P,D9,1*%
%TO.N,ring_bottom*%
X179300000Y-161100000D03*
D12*
%TO.P,D9,2*%
%TO.N,D3*%
X186300000Y-161100000D03*
%TD*%
D13*
%TO.P,S13,1*%
%TO.N,B7*%
X179525000Y-117150000D03*
%TO.P,S13,2*%
%TO.N,ring_top*%
X191075000Y-119350000D03*
%TD*%
%TO.P,S19,1*%
%TO.N,B4*%
X216325000Y-151150000D03*
%TO.P,S19,2*%
%TO.N,index_bottom*%
X227875000Y-153350000D03*
%TD*%
D11*
%TO.P,D23,1*%
%TO.N,inner_top*%
X234500000Y-127100000D03*
D12*
%TO.P,D23,2*%
%TO.N,C6*%
X241500000Y-127100000D03*
%TD*%
D10*
%TO.P,,1*%
%TO.N,N/C*%
X210300000Y-113800000D03*
%TD*%
%TO.P,,1*%
%TO.N,N/C*%
X247800000Y-164100000D03*
%TD*%
D13*
%TO.P,S15,1*%
%TO.N,B5*%
X197925000Y-151150000D03*
%TO.P,S15,2*%
%TO.N,middle_bottom*%
X209475000Y-153350000D03*
%TD*%
D11*
%TO.P,D13,1*%
%TO.N,middle_bottom*%
X197700000Y-161100000D03*
D12*
%TO.P,D13,2*%
%TO.N,D3*%
X204700000Y-161100000D03*
%TD*%
D10*
%TO.P,,1*%
%TO.N,N/C*%
X155200000Y-113500000D03*
%TD*%
D13*
%TO.P,S5,1*%
%TO.N,F1*%
X142725000Y-117150000D03*
%TO.P,S5,2*%
%TO.N,outer_top*%
X154275000Y-119350000D03*
%TD*%
%TO.P,S17,1*%
%TO.N,B5*%
X197925000Y-117150000D03*
%TO.P,S17,2*%
%TO.N,middle_top*%
X209475000Y-119350000D03*
%TD*%
%TO.P,S18,1*%
%TO.N,B5*%
X197925000Y-100150000D03*
%TO.P,S18,2*%
%TO.N,middle_nums*%
X209475000Y-102350000D03*
%TD*%
%TO.P,S22,1*%
%TO.N,E6*%
X234725000Y-151150000D03*
%TO.P,S22,2*%
%TO.N,inner_bottom*%
X246275000Y-153350000D03*
%TD*%
D11*
%TO.P,D18,1*%
%TO.N,index_home*%
X216100000Y-144100000D03*
D12*
%TO.P,D18,2*%
%TO.N,D4*%
X223100000Y-144100000D03*
%TD*%
D11*
%TO.P,D7,1*%
%TO.N,pinky_top*%
X160900000Y-127100000D03*
D12*
%TO.P,D7,2*%
%TO.N,C6*%
X167900000Y-127100000D03*
%TD*%
D11*
%TO.P,D8,1*%
%TO.N,pinky_nums*%
X160900000Y-110100000D03*
D12*
%TO.P,D8,2*%
%TO.N,D7*%
X167900000Y-110100000D03*
%TD*%
D13*
%TO.P,S4,1*%
%TO.N,F1*%
X142725000Y-134150000D03*
%TO.P,S4,2*%
%TO.N,outer_home*%
X154275000Y-136350000D03*
%TD*%
D11*
%TO.P,REF\u002A\u002A,1*%
%TO.N,VCC*%
X250000000Y-150100000D03*
%TD*%
D13*
%TO.P,S12,1*%
%TO.N,B7*%
X179525000Y-134150000D03*
%TO.P,S12,2*%
%TO.N,ring_home*%
X191075000Y-136350000D03*
%TD*%
D11*
%TO.P,D2,1*%
%TO.N,outer_home*%
X142500000Y-144100000D03*
D12*
%TO.P,D2,2*%
%TO.N,D4*%
X149500000Y-144100000D03*
%TD*%
D11*
%TO.P,D26,1*%
%TO.N,VCC*%
X262000000Y-138100000D03*
D12*
%TO.P,D26,2*%
%TO.N,D2*%
X250000000Y-138100000D03*
%TD*%
D15*
%TO.P,,1*%
%TO.N,D3*%
X251380000Y-103130000D03*
D16*
%TO.P,,2*%
%TO.N,D2*%
X251380000Y-105670000D03*
%TO.P,,3*%
%TO.N,GND*%
X251380000Y-108210000D03*
%TO.P,,4*%
X251380000Y-110750000D03*
%TO.P,,5*%
%TO.N,D1*%
X251380000Y-113290000D03*
%TO.P,,6*%
%TO.N,D0*%
X251380000Y-115830000D03*
%TO.P,,7*%
%TO.N,D4*%
X251380000Y-118370000D03*
%TO.P,,8*%
%TO.N,C6*%
X251380000Y-120910000D03*
%TO.P,,9*%
%TO.N,D7*%
X251380000Y-123450000D03*
%TO.P,,10*%
%TO.N,E6*%
X251380000Y-125990000D03*
%TO.P,,11*%
%TO.N,B4*%
X251380000Y-128530000D03*
%TO.P,,12*%
%TO.N,B5*%
X251380000Y-131070000D03*
%TO.P,,13*%
%TO.N,B6*%
X266620000Y-131070000D03*
%TO.P,,14*%
%TO.N,B2*%
X266620000Y-128530000D03*
%TO.P,,15*%
%TO.N,B3*%
X266620000Y-125990000D03*
%TO.P,,16*%
%TO.N,B1*%
X266620000Y-123450000D03*
%TO.P,,17*%
%TO.N,F7*%
X266620000Y-120910000D03*
%TO.P,,18*%
%TO.N,F6*%
X266620000Y-118370000D03*
%TO.P,,19*%
%TO.N,F5*%
X266620000Y-115830000D03*
%TO.P,,20*%
%TO.N,F4*%
X266620000Y-113290000D03*
%TO.P,,21*%
%TO.N,VCC*%
X266620000Y-110750000D03*
%TO.P,,22*%
%TO.N,RST*%
X266620000Y-108210000D03*
%TO.P,,23*%
%TO.N,GND*%
X266620000Y-105670000D03*
%TO.P,,24*%
%TO.N,VCC*%
X266620000Y-103130000D03*
%TO.P,,25*%
%TO.N,B7*%
X253920000Y-131070000D03*
%TO.P,,26*%
%TO.N,D5*%
X256460000Y-131070000D03*
%TO.P,,27*%
%TO.N,C7*%
X259000000Y-131070000D03*
%TO.P,,28*%
%TO.N,F1*%
X261540000Y-131070000D03*
%TO.P,,29*%
%TO.N,F0*%
X264080000Y-131070000D03*
%TD*%
D13*
%TO.P,S16,1*%
%TO.N,B5*%
X197925000Y-134150000D03*
%TO.P,S16,2*%
%TO.N,middle_home*%
X209475000Y-136350000D03*
%TD*%
D10*
%TO.P,,1*%
%TO.N,N/C*%
X247200000Y-128100000D03*
%TD*%
D11*
%TO.P,D6,1*%
%TO.N,pinky_home*%
X160900000Y-144100000D03*
D12*
%TO.P,D6,2*%
%TO.N,D4*%
X167900000Y-144100000D03*
%TD*%
D11*
%TO.P,D5,1*%
%TO.N,pinky_bottom*%
X160900000Y-161100000D03*
D12*
%TO.P,D5,2*%
%TO.N,D3*%
X167900000Y-161100000D03*
%TD*%
D13*
%TO.P,S10,1*%
%TO.N,C7*%
X161125000Y-100150000D03*
%TO.P,S10,2*%
%TO.N,pinky_nums*%
X172675000Y-102350000D03*
%TD*%
D11*
%TO.P,D1,1*%
%TO.N,outer_bottom*%
X142500000Y-161100000D03*
D12*
%TO.P,D1,2*%
%TO.N,D3*%
X149500000Y-161100000D03*
%TD*%
D13*
%TO.P,S11,1*%
%TO.N,B7*%
X179525000Y-151150000D03*
%TO.P,S11,2*%
%TO.N,ring_bottom*%
X191075000Y-153350000D03*
%TD*%
D11*
%TO.P,D21,1*%
%TO.N,inner_bottom*%
X234600000Y-159300000D03*
D12*
%TO.P,D21,2*%
%TO.N,D3*%
X241600000Y-159300000D03*
%TD*%
D13*
%TO.P,S7,1*%
%TO.N,C7*%
X161125000Y-151150000D03*
%TO.P,S7,2*%
%TO.N,pinky_bottom*%
X172675000Y-153350000D03*
%TD*%
D11*
%TO.P,,1*%
%TO.N,B5*%
X231100000Y-163400000D03*
%TD*%
D13*
%TO.P,S24,1*%
%TO.N,E6*%
X234725000Y-100150000D03*
%TO.P,S24,2*%
%TO.N,inner_nums*%
X246275000Y-102350000D03*
%TD*%
D10*
%TO.P,,1*%
%TO.N,N/C*%
X155200000Y-164400000D03*
%TD*%
D11*
%TO.P,D10,1*%
%TO.N,ring_home*%
X179300000Y-144100000D03*
D12*
%TO.P,D10,2*%
%TO.N,D4*%
X186300000Y-144100000D03*
%TD*%
D11*
%TO.P,D24,1*%
%TO.N,inner_nums*%
X234500000Y-110100000D03*
D12*
%TO.P,D24,2*%
%TO.N,D7*%
X241500000Y-110100000D03*
%TD*%
D11*
%TO.P,REF\u002A\u002A,1*%
%TO.N,trackpoint_reset*%
X250000000Y-152600000D03*
%TD*%
D13*
%TO.P,S23,1*%
%TO.N,E6*%
X234725000Y-134150000D03*
%TO.P,S23,2*%
%TO.N,inner_home*%
X246275000Y-136350000D03*
%TD*%
D11*
%TO.P,,1*%
%TO.N,F0*%
X223100000Y-163400000D03*
%TD*%
D13*
%TO.P,S8,1*%
%TO.N,C7*%
X161125000Y-134150000D03*
%TO.P,S8,2*%
%TO.N,pinky_home*%
X172675000Y-136350000D03*
%TD*%
%TO.P,S9,1*%
%TO.N,C7*%
X161125000Y-117150000D03*
%TO.P,S9,2*%
%TO.N,pinky_top*%
X172675000Y-119350000D03*
%TD*%
D11*
%TO.P,D16,1*%
%TO.N,middle_nums*%
X197700000Y-110100000D03*
D12*
%TO.P,D16,2*%
%TO.N,D7*%
X204700000Y-110100000D03*
%TD*%
D14*
%TO.P,S1,1*%
%TO.N,index_top*%
X224600000Y-119300000D03*
%TO.P,S1,2*%
%TO.N,B4*%
X219600000Y-117200000D03*
%TD*%
D13*
%TO.P,S21,1*%
%TO.N,B4*%
X216325000Y-100150000D03*
%TO.P,S21,2*%
%TO.N,index_nums*%
X227875000Y-102350000D03*
%TD*%
D10*
%TO.P,,1*%
%TO.N,N/C*%
X210400000Y-128100000D03*
%TD*%
D11*
%TO.P,D12,1*%
%TO.N,ring_nums*%
X179300000Y-110100000D03*
D12*
%TO.P,D12,2*%
%TO.N,D7*%
X186300000Y-110100000D03*
%TD*%
D11*
%TO.P,D3,1*%
%TO.N,outer_top*%
X142500000Y-127100000D03*
D12*
%TO.P,D3,2*%
%TO.N,C6*%
X149500000Y-127100000D03*
%TD*%
D11*
%TO.P,D15,1*%
%TO.N,middle_top*%
X197700000Y-127100000D03*
D12*
%TO.P,D15,2*%
%TO.N,C6*%
X204700000Y-127100000D03*
%TD*%
D11*
%TO.P,D28,1*%
%TO.N,trackpoint_reset*%
X262000000Y-146100000D03*
D12*
%TO.P,D28,2*%
%TO.N,GND*%
X250000000Y-146100000D03*
%TD*%
D11*
%TO.P,D14,1*%
%TO.N,middle_home*%
X197700000Y-144100000D03*
D12*
%TO.P,D14,2*%
%TO.N,D4*%
X204700000Y-144100000D03*
%TD*%
D10*
%TO.P,,1*%
%TO.N,N/C*%
X228800000Y-115600000D03*
%TD*%
D11*
%TO.P,D22,1*%
%TO.N,inner_home*%
X234500000Y-144100000D03*
D12*
%TO.P,D22,2*%
%TO.N,D4*%
X241500000Y-144100000D03*
%TD*%
D17*
%TO.P,,6*%
%TO.N,N/C*%
X268000000Y-133750000D03*
X268000000Y-140750000D03*
D18*
X265300000Y-139750000D03*
X265300000Y-134750000D03*
%TD*%
D13*
%TO.P,S3,1*%
%TO.N,F1*%
X142725000Y-151150000D03*
%TO.P,S3,2*%
%TO.N,outer_bottom*%
X154275000Y-153350000D03*
%TD*%
D11*
%TO.P,D17,1*%
%TO.N,index_bottom*%
X216000000Y-159200000D03*
D12*
%TO.P,D17,2*%
%TO.N,D3*%
X223000000Y-159200000D03*
%TD*%
D11*
%TO.P,D20,1*%
%TO.N,index_nums*%
X216100000Y-110100000D03*
D12*
%TO.P,D20,2*%
%TO.N,D7*%
X223100000Y-110100000D03*
%TD*%
D10*
%TO.P,,1*%
%TO.N,N/C*%
X260000000Y-111100000D03*
%TD*%
D13*
%TO.P,S6,1*%
%TO.N,F1*%
X142725000Y-100150000D03*
%TO.P,S6,2*%
%TO.N,outer_nums*%
X154275000Y-102350000D03*
%TD*%
D19*
%TO.P,,1*%
%TO.N,D2*%
X258250000Y-144900000D03*
%TO.P,,2*%
%TO.N,trackpoint_reset*%
X258250000Y-143900000D03*
%TO.P,,3*%
%TO.N,N/C*%
X258250000Y-142900000D03*
%TO.P,,4*%
X258250000Y-141900000D03*
%TO.P,,5*%
X258250000Y-140900000D03*
%TO.P,,6*%
%TO.N,D5*%
X258250000Y-139900000D03*
%TO.P,,7*%
%TO.N,GND*%
X258250000Y-138900000D03*
%TO.P,,8*%
%TO.N,VCC*%
X258250000Y-137900000D03*
D20*
%TO.P,,MP*%
%TO.N,N/C*%
X255450000Y-147890000D03*
X255450000Y-134910000D03*
%TD*%
D21*
%TO.N,F1*%
X247400000Y-131400000D03*
X240600000Y-130200000D03*
X139837500Y-131262500D03*
%TO.N,C7*%
X248600000Y-130700000D03*
%TO.N,GND*%
X263300000Y-135400000D03*
X256000000Y-107900000D03*
%TO.N,D1*%
X254800000Y-111100000D03*
%TO.N,D0*%
X259675500Y-136079123D03*
X261700000Y-136100000D03*
%TO.N,F0*%
X257900000Y-135400000D03*
%TD*%
D22*
%TO.N,index_top*%
X218554323Y-127100000D02*
X216100000Y-127100000D01*
X224600000Y-119300000D02*
X224600000Y-121054323D01*
X224600000Y-121054323D02*
X218554323Y-127100000D01*
%TO.N,B4*%
X229499511Y-151899511D02*
X226875479Y-149275479D01*
X218199521Y-149275479D02*
X216325000Y-151150000D01*
X212874579Y-137600421D02*
X216325000Y-134150000D01*
X216325000Y-100150000D02*
X218199521Y-98275479D01*
X214816504Y-132641504D02*
X214816504Y-124116504D01*
X257500000Y-122410000D02*
X251380000Y-128530000D01*
X216325000Y-151150000D02*
X212874579Y-147699579D01*
X216325000Y-105608008D02*
X216325000Y-100150000D01*
X253075479Y-98275479D02*
X257500000Y-102700000D01*
X212874579Y-147699579D02*
X212874579Y-137600421D01*
X257500000Y-102700000D02*
X257500000Y-122410000D01*
X226875479Y-149275479D02*
X218199521Y-149275479D01*
X219600000Y-117200000D02*
X214822989Y-112422989D01*
X229499511Y-158999511D02*
X229499511Y-151899511D01*
X233900000Y-163400000D02*
X229499511Y-158999511D01*
X214816504Y-124116504D02*
X219600000Y-119333008D01*
X219600000Y-119333008D02*
X219600000Y-117200000D01*
X214822989Y-112422989D02*
X214822989Y-107110019D01*
X216325000Y-134150000D02*
X214816504Y-132641504D01*
X218199521Y-98275479D02*
X253075479Y-98275479D01*
X214822989Y-107110019D02*
X216325000Y-105608008D01*
%TO.N,inner_top*%
X236954323Y-127100000D02*
X234500000Y-127100000D01*
X243000000Y-121054323D02*
X236954323Y-127100000D01*
X243000000Y-119300000D02*
X243000000Y-121054323D01*
%TO.N,E6*%
X233322989Y-158010019D02*
X234100000Y-157233008D01*
X233222989Y-109571044D02*
X233222989Y-112422989D01*
X251380000Y-125784230D02*
X251380000Y-125990000D01*
X233222989Y-141110019D02*
X233222989Y-149647989D01*
X233222989Y-112422989D02*
X238000000Y-117200000D01*
X234100000Y-157233008D02*
X234100000Y-151775000D01*
X242795770Y-117200000D02*
X251380000Y-125784230D01*
X236500000Y-163400000D02*
X233322989Y-160222989D01*
X238000000Y-117200000D02*
X242795770Y-117200000D01*
X234725000Y-139608008D02*
X233222989Y-141110019D01*
X234100000Y-151775000D02*
X234725000Y-151150000D01*
X238000000Y-117200000D02*
X238000000Y-119333008D01*
X233322989Y-160222989D02*
X233322989Y-158010019D01*
X233222989Y-132647989D02*
X234725000Y-134150000D01*
X238000000Y-119333008D02*
X233222989Y-124110019D01*
X233222989Y-149647989D02*
X234725000Y-151150000D01*
X233222989Y-124110019D02*
X233222989Y-132647989D01*
X234725000Y-108069033D02*
X233222989Y-109571044D01*
X234725000Y-100150000D02*
X234725000Y-108069033D01*
X234725000Y-134150000D02*
X234725000Y-139608008D01*
%TO.N,outer_bottom*%
X151750421Y-155874579D02*
X150179744Y-155874579D01*
X154275000Y-153350000D02*
X151750421Y-155874579D01*
X144954323Y-161100000D02*
X142500000Y-161100000D01*
X150179744Y-155874579D02*
X144954323Y-161100000D01*
%TO.N,F1*%
X246200000Y-130200000D02*
X247400000Y-131400000D01*
X240600000Y-130200000D02*
X246200000Y-130200000D01*
X142725000Y-100150000D02*
X139274579Y-103600421D01*
X139274579Y-130699579D02*
X139837500Y-131262500D01*
X139837500Y-131262500D02*
X142725000Y-134150000D01*
X142725000Y-117150000D02*
X139274579Y-120600421D01*
X139274579Y-113699579D02*
X142725000Y-117150000D01*
X139274579Y-120600421D02*
X139274579Y-130699579D01*
X142725000Y-134150000D02*
X139274579Y-137600421D01*
X139274579Y-103600421D02*
X139274579Y-113699579D01*
X139274579Y-137600421D02*
X139274579Y-147699579D01*
X139274579Y-147699579D02*
X142725000Y-151150000D01*
%TO.N,outer_home*%
X152400479Y-138224521D02*
X150875479Y-138224521D01*
X150875479Y-138224521D02*
X145000000Y-144100000D01*
X154275000Y-136350000D02*
X152400479Y-138224521D01*
X145000000Y-144100000D02*
X142500000Y-144100000D01*
%TO.N,outer_top*%
X150179744Y-121874579D02*
X144954323Y-127100000D01*
X151750421Y-121874579D02*
X150179744Y-121874579D01*
X144954323Y-127100000D02*
X142500000Y-127100000D01*
X154275000Y-119350000D02*
X151750421Y-121874579D01*
%TO.N,outer_nums*%
X150179744Y-104874579D02*
X144954323Y-110100000D01*
X151750421Y-104874579D02*
X150179744Y-104874579D01*
X144954323Y-110100000D02*
X142500000Y-110100000D01*
X154275000Y-102350000D02*
X151750421Y-104874579D01*
%TO.N,pinky_bottom*%
X170150421Y-155874579D02*
X168625421Y-155874579D01*
X163400000Y-161100000D02*
X160900000Y-161100000D01*
X172675000Y-153350000D02*
X170150421Y-155874579D01*
X168625421Y-155874579D02*
X163400000Y-161100000D01*
%TO.N,C7*%
X248336969Y-133336009D02*
X248336969Y-146863991D01*
X214459667Y-161376051D02*
X211586197Y-164249520D01*
X251277011Y-153128956D02*
X239902984Y-164502984D01*
X157674579Y-120600421D02*
X157674579Y-130699579D01*
X161125000Y-151150000D02*
X162999521Y-149275479D01*
X249019478Y-147313511D02*
X251277011Y-149571044D01*
X225700000Y-163400000D02*
X226977011Y-164677011D01*
X174400000Y-151825978D02*
X174400000Y-160000000D01*
X248600000Y-133072978D02*
X248336969Y-133336009D01*
X239728957Y-164677011D02*
X239902984Y-164502984D01*
X225700000Y-163400000D02*
X223676051Y-161376051D01*
X178649520Y-164249520D02*
X178450000Y-164050000D01*
X174400000Y-160000000D02*
X178450000Y-164050000D01*
X211586197Y-164249520D02*
X178649520Y-164249520D01*
X156600000Y-112625000D02*
X161125000Y-117150000D01*
X239902984Y-164502984D02*
X239728956Y-164677011D01*
X156600000Y-103500000D02*
X156600000Y-112625000D01*
X248600000Y-130700000D02*
X248600000Y-133072978D01*
X248786489Y-147313511D02*
X249019478Y-147313511D01*
X248336969Y-146863991D02*
X248786489Y-147313511D01*
X162999521Y-149275479D02*
X171849501Y-149275479D01*
X161125000Y-117150000D02*
X157674579Y-120600421D01*
X251277011Y-149571044D02*
X251277011Y-153128956D01*
X223676051Y-161376051D02*
X214459667Y-161376051D01*
X171849501Y-149275479D02*
X174400000Y-151825978D01*
X157674579Y-130699579D02*
X161125000Y-134150000D01*
X161125000Y-100150000D02*
X159950000Y-100150000D01*
X161125000Y-134150000D02*
X157674579Y-137600421D01*
X157674579Y-137600421D02*
X157674579Y-147699579D01*
X226977011Y-164677011D02*
X239728957Y-164677011D01*
X157674579Y-147699579D02*
X161125000Y-151150000D01*
X159950000Y-100150000D02*
X156600000Y-103500000D01*
%TO.N,pinky_home*%
X163354323Y-144100000D02*
X160900000Y-144100000D01*
X170150421Y-138874579D02*
X168579744Y-138874579D01*
X168579744Y-138874579D02*
X163354323Y-144100000D01*
X172675000Y-136350000D02*
X170150421Y-138874579D01*
%TO.N,pinky_top*%
X170800479Y-121224521D02*
X169275479Y-121224521D01*
X172675000Y-119350000D02*
X170800479Y-121224521D01*
X163400000Y-127100000D02*
X160900000Y-127100000D01*
X169275479Y-121224521D02*
X163400000Y-127100000D01*
%TO.N,pinky_nums*%
X163354323Y-110100000D02*
X160900000Y-110100000D01*
X170150421Y-104874579D02*
X168579744Y-104874579D01*
X168579744Y-104874579D02*
X163354323Y-110100000D01*
X172675000Y-102350000D02*
X170150421Y-104874579D01*
%TO.N,ring_bottom*%
X188550421Y-155874579D02*
X187025421Y-155874579D01*
X191075000Y-153350000D02*
X188550421Y-155874579D01*
X181800000Y-161100000D02*
X179300000Y-161100000D01*
X187025421Y-155874579D02*
X181800000Y-161100000D01*
%TO.N,B7*%
X194200000Y-163800000D02*
X211400000Y-163800000D01*
X179525000Y-151150000D02*
X176074579Y-147699579D01*
X190249501Y-149275479D02*
X192699511Y-151725489D01*
X176074579Y-120600421D02*
X179525000Y-117150000D01*
X192699511Y-162299511D02*
X194200000Y-163800000D01*
X258399040Y-126590960D02*
X253920000Y-131070000D01*
X176074579Y-113699579D02*
X176074579Y-103600421D01*
X179525000Y-117150000D02*
X176074579Y-113699579D01*
X211400000Y-163800000D02*
X214300000Y-160900000D01*
X225926531Y-160926531D02*
X228400000Y-163400000D01*
X182298561Y-97376439D02*
X253447874Y-97376439D01*
X192699511Y-151725489D02*
X192699511Y-162299511D01*
X258399040Y-102327606D02*
X258399040Y-126590960D01*
X214300000Y-160900000D02*
X215258315Y-160900000D01*
X215284847Y-160926531D02*
X225926531Y-160926531D01*
X176074579Y-103600421D02*
X179525000Y-100150000D01*
X176074579Y-147699579D02*
X176074579Y-137600421D01*
X215258315Y-160900000D02*
X215284847Y-160926531D01*
X179525000Y-100150000D02*
X182298561Y-97376439D01*
X253447874Y-97376439D02*
X258399040Y-102327606D01*
X179525000Y-151150000D02*
X181399521Y-149275479D01*
X176074579Y-130699579D02*
X176074579Y-120600421D01*
X181399521Y-149275479D02*
X190249501Y-149275479D01*
X176074579Y-137600421D02*
X179525000Y-134150000D01*
X179525000Y-134150000D02*
X176074579Y-130699579D01*
%TO.N,ring_home*%
X188550421Y-138874579D02*
X186979744Y-138874579D01*
X191075000Y-136350000D02*
X188550421Y-138874579D01*
X181754323Y-144100000D02*
X179300000Y-144100000D01*
X186979744Y-138874579D02*
X181754323Y-144100000D01*
%TO.N,ring_top*%
X187675479Y-121224521D02*
X181800000Y-127100000D01*
X189200479Y-121224521D02*
X187675479Y-121224521D01*
X191075000Y-119350000D02*
X189200479Y-121224521D01*
X181800000Y-127100000D02*
X179300000Y-127100000D01*
%TO.N,ring_nums*%
X186979744Y-104874579D02*
X181754323Y-110100000D01*
X188550421Y-104874579D02*
X186979744Y-104874579D01*
X191075000Y-102350000D02*
X188550421Y-104874579D01*
X181754323Y-110100000D02*
X179300000Y-110100000D01*
%TO.N,middle_bottom*%
X200154323Y-161100000D02*
X197700000Y-161100000D01*
X205379744Y-155874579D02*
X200154323Y-161100000D01*
X209475000Y-153350000D02*
X206950421Y-155874579D01*
X206950421Y-155874579D02*
X205379744Y-155874579D01*
%TO.N,B5*%
X257949520Y-102513803D02*
X257949520Y-124500480D01*
X200249041Y-97825959D02*
X253261676Y-97825959D01*
X257949520Y-124500480D02*
X251380000Y-131070000D01*
X196422989Y-115647989D02*
X197925000Y-117150000D01*
X197925000Y-117150000D02*
X194474579Y-120600421D01*
X194474579Y-137600421D02*
X194474579Y-147699579D01*
X197925000Y-134150000D02*
X194474579Y-137600421D01*
X196422989Y-107110019D02*
X196422989Y-115647989D01*
X211099511Y-151725489D02*
X208649501Y-149275479D01*
X197925000Y-100150000D02*
X197925000Y-105608008D01*
X197925000Y-105608008D02*
X196422989Y-107110019D01*
X194474579Y-120600421D02*
X194474579Y-130699579D01*
X253261676Y-97825959D02*
X257949520Y-102513803D01*
X215471044Y-160477011D02*
X211099511Y-156105478D01*
X197925000Y-100150000D02*
X200249041Y-97825959D01*
X194474579Y-130699579D02*
X197925000Y-134150000D01*
X231100000Y-163400000D02*
X228177011Y-160477011D01*
X208649501Y-149275479D02*
X199799521Y-149275479D01*
X194474579Y-147699579D02*
X197925000Y-151150000D01*
X211099511Y-156105478D02*
X211099511Y-151725489D01*
X228177011Y-160477011D02*
X215471044Y-160477011D01*
X199799521Y-149275479D02*
X197925000Y-151150000D01*
%TO.N,middle_home*%
X209475000Y-136350000D02*
X207600479Y-138224521D01*
X200154323Y-144100000D02*
X197700000Y-144100000D01*
X207600479Y-138224521D02*
X206029802Y-138224521D01*
X206029802Y-138224521D02*
X200154323Y-144100000D01*
%TO.N,middle_top*%
X200200000Y-127100000D02*
X197700000Y-127100000D01*
X206950421Y-121874579D02*
X205425421Y-121874579D01*
X209475000Y-119350000D02*
X206950421Y-121874579D01*
X205425421Y-121874579D02*
X200200000Y-127100000D01*
%TO.N,middle_nums*%
X207600479Y-104224521D02*
X206029802Y-104224521D01*
X200154323Y-110100000D02*
X197700000Y-110100000D01*
X209475000Y-102350000D02*
X207600479Y-104224521D01*
X206029802Y-104224521D02*
X200154323Y-110100000D01*
%TO.N,index_bottom*%
X220465302Y-155010979D02*
X218689021Y-155010979D01*
X216000000Y-157700000D02*
X216000000Y-159200000D01*
X221071736Y-155617413D02*
X220465302Y-155010979D01*
X227875000Y-153350000D02*
X225607587Y-155617413D01*
X225607587Y-155617413D02*
X221071736Y-155617413D01*
X218689021Y-155010979D02*
X216000000Y-157700000D01*
%TO.N,index_home*%
X226000479Y-138224521D02*
X224475479Y-138224521D01*
X227875000Y-136350000D02*
X226000479Y-138224521D01*
X224475479Y-138224521D02*
X218600000Y-144100000D01*
X218600000Y-144100000D02*
X216100000Y-144100000D01*
%TO.N,index_nums*%
X218554323Y-110100000D02*
X216100000Y-110100000D01*
X226000479Y-104224521D02*
X224429802Y-104224521D01*
X227875000Y-102350000D02*
X226000479Y-104224521D01*
X224429802Y-104224521D02*
X218554323Y-110100000D01*
%TO.N,inner_bottom*%
X239078844Y-155224521D02*
X238854323Y-155000000D01*
X234600000Y-156500000D02*
X234600000Y-159300000D01*
X246275000Y-153350000D02*
X244400479Y-155224521D01*
X238854323Y-155000000D02*
X236100000Y-155000000D01*
X236100000Y-155000000D02*
X234600000Y-156500000D01*
X244400479Y-155224521D02*
X239078844Y-155224521D01*
%TO.N,inner_home*%
X237000000Y-144100000D02*
X234500000Y-144100000D01*
X243750421Y-138874579D02*
X242225421Y-138874579D01*
X242225421Y-138874579D02*
X237000000Y-144100000D01*
X246275000Y-136350000D02*
X243750421Y-138874579D01*
%TO.N,inner_nums*%
X236954323Y-110100000D02*
X234500000Y-110100000D01*
X243750421Y-104874579D02*
X242179744Y-104874579D01*
X246275000Y-102350000D02*
X243750421Y-104874579D01*
X242179744Y-104874579D02*
X236954323Y-110100000D01*
%TO.N,GND*%
X263277011Y-135422989D02*
X263277011Y-139722989D01*
X263300000Y-135400000D02*
X263277011Y-135422989D01*
X264899520Y-133800480D02*
X265799520Y-133800480D01*
X263277011Y-139722989D02*
X263277011Y-146722989D01*
X263277011Y-146722989D02*
X260445489Y-149554511D01*
X260994033Y-138900000D02*
X261817022Y-139722989D01*
X258250000Y-138900000D02*
X260994033Y-138900000D01*
X260445489Y-149554511D02*
X253454511Y-149554511D01*
X255690000Y-108210000D02*
X251380000Y-108210000D01*
X267944511Y-106994511D02*
X266620000Y-105670000D01*
X253454511Y-149554511D02*
X250000000Y-146100000D01*
X256000000Y-107900000D02*
X255690000Y-108210000D01*
X261817022Y-139722989D02*
X263277011Y-139722989D01*
X265799520Y-133800480D02*
X267944511Y-131655489D01*
X267944511Y-131655489D02*
X267944511Y-106994511D01*
X263300000Y-135400000D02*
X264899520Y-133800480D01*
%TO.N,VCC*%
X265295489Y-109425489D02*
X265295489Y-105404511D01*
X262000000Y-138100000D02*
X258450000Y-138100000D01*
X258450000Y-138100000D02*
X258250000Y-137900000D01*
X266620000Y-103130000D02*
X265295489Y-104454511D01*
X266620000Y-110750000D02*
X265295489Y-109425489D01*
X265295489Y-105404511D02*
X265300000Y-105400000D01*
X265295489Y-104454511D02*
X265295489Y-108600000D01*
%TO.N,D2*%
X250000000Y-138100000D02*
X248786489Y-139313511D01*
X248786489Y-143186489D02*
X250486489Y-144886489D01*
X258236489Y-144886489D02*
X258250000Y-144900000D01*
X248786489Y-139313511D02*
X248786489Y-143186489D01*
X250486489Y-144886489D02*
X258236489Y-144886489D01*
%TO.N,D1*%
X253570000Y-111100000D02*
X251380000Y-113290000D01*
X254800000Y-111100000D02*
X253570000Y-111100000D01*
%TO.N,D0*%
X261679123Y-136079123D02*
X261700000Y-136100000D01*
X259675500Y-136079123D02*
X261679123Y-136079123D01*
%TO.N,D5*%
X253325489Y-133245489D02*
X252200000Y-134370978D01*
X250000000Y-142100000D02*
X252200000Y-139900000D01*
X252200000Y-139900000D02*
X258250000Y-139900000D01*
X252200000Y-134370978D02*
X252200000Y-139900000D01*
X254284511Y-133245489D02*
X253325489Y-133245489D01*
X256460000Y-131070000D02*
X254284511Y-133245489D01*
%TO.N,F0*%
X258100000Y-135400000D02*
X260400000Y-133100000D01*
X257900000Y-135400000D02*
X258100000Y-135400000D01*
X264080000Y-131070000D02*
X262450000Y-132700000D01*
X260800000Y-132700000D02*
X260400000Y-133100000D01*
X262450000Y-132700000D02*
X260800000Y-132700000D01*
X260400000Y-133100000D02*
X260700000Y-132800000D01*
%TO.N,trackpoint_reset*%
X259800000Y-143900000D02*
X262000000Y-146100000D01*
X258250000Y-143900000D02*
X259800000Y-143900000D01*
%TD*%
M02*
