%TF.GenerationSoftware,KiCad,Pcbnew,(6.0.4)*%
%TF.CreationDate,2024-05-03T15:54:38-07:00*%
%TF.ProjectId,left_staggered,6c656674-5f73-4746-9167-67657265642e,v1.0.0*%
%TF.SameCoordinates,Original*%
%TF.FileFunction,Profile,NP*%
%FSLAX46Y46*%
G04 Gerber Fmt 4.6, Leading zero omitted, Abs format (unit mm)*
G04 Created by KiCad (PCBNEW (6.0.4)) date 2024-05-03 15:54:38*
%MOMM*%
%LPD*%
G01*
G04 APERTURE LIST*
%TA.AperFunction,Profile*%
%ADD10C,0.150000*%
%TD*%
G04 APERTURE END LIST*
D10*
X291500000Y-172050000D02*
X291500000Y-102050000D01*
X232700000Y-97800000D02*
X232700000Y-93550000D01*
X194300000Y-97800000D02*
X194300000Y-104800000D01*
X195900000Y-176300000D02*
X195900000Y-169300000D01*
X194300000Y-106300000D02*
X194300000Y-104800000D01*
X157500000Y-106300000D02*
X184300000Y-106300000D01*
X232700000Y-97800000D02*
X251100000Y-97800000D01*
X157500000Y-176300000D02*
X157500000Y-106300000D01*
X205900000Y-167800000D02*
X249500000Y-167800000D01*
X251100000Y-102050000D02*
X251100000Y-97800000D01*
X249500000Y-167800000D02*
X249500000Y-172050000D01*
X249500000Y-172050000D02*
X291500000Y-172050000D01*
X205900000Y-167800000D02*
X195900000Y-167800000D01*
X184300000Y-106300000D02*
X194300000Y-106300000D01*
X195900000Y-167800000D02*
X195900000Y-169300000D01*
X157500000Y-176300000D02*
X195900000Y-176300000D01*
X232700000Y-93550000D02*
X212700000Y-93550000D01*
X251100000Y-102050000D02*
X291500000Y-102050000D01*
X212700000Y-93550000D02*
X212700000Y-97800000D01*
X194300000Y-97800000D02*
X212700000Y-97800000D01*
M02*
