M48
; DRILL file {KiCad (6.0.4)} date Fri May  3 15:34:11 2024
; FORMAT={-:-/ absolute / inch / decimal}
; #@! TF.CreationDate,2024-05-03T15:34:11-07:00
; #@! TF.GenerationSoftware,Kicad,Pcbnew,(6.0.4)
; #@! TF.FileFunction,Plated,1,2,PTH
FMAT,2
INCH
; #@! TA.AperFunction,Plated,PTH,ViaDrill
T1C0.0157
; #@! TA.AperFunction,Plated,PTH,ComponentDrill
T2C0.0197
; #@! TA.AperFunction,Plated,PTH,ComponentDrill
T3C0.0217
; #@! TA.AperFunction,Plated,PTH,ComponentDrill
T4C0.0390
; #@! TA.AperFunction,Plated,PTH,ComponentDrill
T5C0.0500
; #@! TA.AperFunction,Plated,PTH,ComponentDrill
T6C0.0591
; #@! TA.AperFunction,Plated,PTH,ComponentDrill
T7C0.0787
; #@! TA.AperFunction,Plated,PTH,ComponentDrill
T8C0.3150
%
G90
G05
T1
X6.3656Y-4.8942
X8.8228Y-3.9331
X9.4213Y-4.1457
X9.7362Y-4.4331
X10.3769Y-5.5
X10.3819Y-5.4213
X10.7598Y-5.937
X10.7598Y-5.9764
X10.7756Y-5.5118
X10.811Y-6.0354
X10.9055Y-5.7283
X10.9961Y-4.4252
X11.1063Y-5.5669
X11.1772Y-5.5591
X11.2244Y-5.5551
T4
X6.4567Y-4.7165
X6.4567Y-5.3858
X6.4567Y-6.0551
X6.4567Y-6.7244
X6.7323Y-4.7165
X6.7323Y-5.3858
X6.7323Y-6.0551
X6.7323Y-6.7244
X7.1811Y-4.7165
X7.1811Y-5.3858
X7.1811Y-6.0551
X7.1811Y-6.7244
X7.4567Y-4.7165
X7.4567Y-5.3858
X7.4567Y-6.0551
X7.4567Y-6.7244
X7.9055Y-4.3819
X7.9055Y-5.0512
X7.9055Y-5.7205
X7.9055Y-6.3898
X8.1811Y-4.3819
X8.1811Y-5.0512
X8.1811Y-5.7205
X8.1811Y-6.3898
X8.6299Y-4.2146
X8.6299Y-4.8839
X8.6299Y-5.5531
X8.6299Y-6.2224
X8.9055Y-4.2146
X8.9055Y-4.8839
X8.9055Y-5.5531
X8.9055Y-6.2224
X9.3543Y-4.3819
X9.3543Y-5.0512
X9.3543Y-5.7205
X9.3543Y-6.3898
X9.6299Y-4.3819
X9.6299Y-5.0512
X9.6299Y-5.7205
X9.6299Y-6.3898
X9.9803Y-6.685
X10.0748Y-6.685
X10.0787Y-4.5492
X10.0787Y-5.2185
X10.0787Y-5.8878
X10.0787Y-6.4843
X10.1693Y-6.685
X10.2638Y-6.685
X10.3543Y-4.5492
X10.3543Y-5.2185
X10.3543Y-5.8878
X10.3543Y-6.4843
X10.3543Y-6.685
X10.4449Y-6.685
X10.689Y-5.4941
X10.689Y-5.6516
X10.689Y-5.8091
X10.689Y-5.9665
X10.689Y-6.124
X10.689Y-6.2224
X11.1614Y-5.4941
X11.1614Y-5.6516
X11.1614Y-5.8091
X11.1614Y-5.9665
T5
X9.4921Y-4.6614
X9.689Y-4.7441
X10.2165Y-4.8287
X10.4134Y-4.9114
T6
X10.7433Y-4.2748
X10.7433Y-4.3748
X10.7433Y-4.4748
X10.7433Y-4.5748
X10.7433Y-4.6748
X10.7433Y-4.7748
X10.7433Y-4.8748
X10.7433Y-4.9748
X10.7433Y-5.0748
X10.7433Y-5.1748
X10.7433Y-5.2748
X10.7433Y-5.3748
X10.8433Y-5.3748
X10.9433Y-5.3748
X11.0433Y-5.3748
X11.1433Y-5.3748
X11.2433Y-5.3748
X11.3433Y-4.2748
X11.3433Y-4.3748
X11.3433Y-4.4748
X11.3433Y-4.5748
X11.3433Y-4.6748
X11.3433Y-4.7748
X11.3433Y-4.8748
X11.3433Y-4.9748
X11.3433Y-5.0748
X11.3433Y-5.1748
X11.3433Y-5.2748
X11.3433Y-5.3748
T7
X6.9528Y-6.8543
X6.9567Y-4.8425
X9.126Y-4.3976
X9.1299Y-5.063
X10.5906Y-5.3465
X10.6024Y-4.685
X10.6063Y-6.5394
X11.0827Y-4.5886
T8
X9.8543Y-4.5984
T2
G00X11.3927Y-5.4724
M15
G01X11.4183Y-5.4724
M16
G05
G00X11.3927Y-5.748
M15
G01X11.4183Y-5.748
M16
G05
T3
G00X11.2992Y-5.5177
M15
G01X11.2992Y-5.5059
M16
G05
G00X11.2992Y-5.7146
M15
G01X11.2992Y-5.7028
M16
G05
T0
M30
