M48
; DRILL file {KiCad (6.0.4)} date Fri May  3 15:52:27 2024
; FORMAT={-:-/ absolute / inch / decimal}
; #@! TF.CreationDate,2024-05-03T15:52:27-07:00
; #@! TF.GenerationSoftware,Kicad,Pcbnew,(6.0.4)
; #@! TF.FileFunction,Plated,1,2,PTH
FMAT,2
INCH
; #@! TA.AperFunction,Plated,PTH,ViaDrill
T1C0.0157
; #@! TA.AperFunction,Plated,PTH,ComponentDrill
T2C0.0197
; #@! TA.AperFunction,Plated,PTH,ComponentDrill
T3C0.0217
; #@! TA.AperFunction,Plated,PTH,ComponentDrill
T4C0.0390
; #@! TA.AperFunction,Plated,PTH,ComponentDrill
T5C0.0500
; #@! TA.AperFunction,Plated,PTH,ComponentDrill
T6C0.0591
; #@! TA.AperFunction,Plated,PTH,ComponentDrill
T7C0.0787
; #@! TA.AperFunction,Plated,PTH,ComponentDrill
T8C0.3150
%
G90
G05
T1
X5.5054Y-5.1678
X9.4724Y-5.126
X9.7402Y-5.1732
X9.7874Y-5.1457
X10.0315Y-4.374
X10.0787Y-4.248
X10.1535Y-5.3307
X10.2234Y-5.3574
X10.3031Y-5.3583
X10.3661Y-5.3307
T4
X5.6102Y-4.3346
X5.6102Y-5.0039
X5.6102Y-5.6732
X5.6102Y-6.3425
X5.8858Y-4.3346
X5.8858Y-5.0039
X5.8858Y-5.6732
X5.8858Y-6.3425
X6.3346Y-4.3346
X6.3346Y-5.0039
X6.3346Y-5.6732
X6.3346Y-6.3425
X6.6102Y-4.3346
X6.6102Y-5.0039
X6.6102Y-5.6732
X6.6102Y-6.3425
X7.0591Y-4.3346
X7.0591Y-5.0039
X7.0591Y-5.6732
X7.0591Y-6.3425
X7.3346Y-4.3346
X7.3346Y-5.0039
X7.3346Y-5.6732
X7.3346Y-6.3425
X7.7835Y-4.3346
X7.7835Y-5.0039
X7.7835Y-5.6732
X7.7835Y-6.3425
X8.0591Y-4.3346
X8.0591Y-5.0039
X8.0591Y-5.6732
X8.0591Y-6.3425
X8.5039Y-6.2677
X8.5079Y-4.3346
X8.5079Y-5.0039
X8.5079Y-5.6732
X8.7795Y-6.2677
X8.7835Y-4.3346
X8.7835Y-5.0039
X8.7835Y-5.6732
X8.7835Y-6.4331
X8.8858Y-6.4331
X8.9921Y-6.4331
X9.0984Y-6.4331
X9.2087Y-6.4331
X9.2323Y-4.3346
X9.2323Y-5.0039
X9.2323Y-5.6732
X9.2362Y-6.2717
X9.311Y-6.4331
X9.5079Y-4.3346
X9.5079Y-5.0039
X9.5079Y-5.6732
X9.5118Y-6.2717
X9.8425Y-5.2795
X9.8425Y-5.437
X9.8425Y-5.5945
X9.8425Y-5.752
X9.8425Y-5.9094
X9.8425Y-6.0079
X10.315Y-5.2795
X10.315Y-5.437
X10.315Y-5.5945
X10.315Y-5.752
T5
X8.6457Y-4.6142
X8.8425Y-4.6969
X9.3701Y-4.6142
X9.5669Y-4.6969
T6
X9.8969Y-4.0602
X9.8969Y-4.1602
X9.8969Y-4.2602
X9.8969Y-4.3602
X9.8969Y-4.4602
X9.8969Y-4.5602
X9.8969Y-4.6602
X9.8969Y-4.7602
X9.8969Y-4.8602
X9.8969Y-4.9602
X9.8969Y-5.0602
X9.8969Y-5.1602
X9.9969Y-5.1602
X10.0969Y-5.1602
X10.1969Y-5.1602
X10.2969Y-5.1602
X10.3969Y-5.1602
X10.4969Y-4.0602
X10.4969Y-4.1602
X10.4969Y-4.2602
X10.4969Y-4.3602
X10.4969Y-4.4602
X10.4969Y-4.5602
X10.4969Y-4.6602
X10.4969Y-4.7602
X10.4969Y-4.8602
X10.4969Y-4.9602
X10.4969Y-5.0602
X10.4969Y-5.1602
T7
X6.1102Y-4.4685
X6.1102Y-6.4724
X8.2795Y-4.4803
X8.2835Y-5.0433
X9.7323Y-5.0433
X9.752Y-4.4567
X9.7559Y-6.4606
X10.2362Y-4.374
T8
X9.0079Y-4.5512
T2
G00X10.5384Y-5.2657
M15
G01X10.564Y-5.2657
M16
G05
G00X10.5384Y-5.5413
M15
G01X10.564Y-5.5413
M16
G05
T3
G00X10.4449Y-5.311
M15
G01X10.4449Y-5.2992
M16
G05
G00X10.4449Y-5.5079
M15
G01X10.4449Y-5.4961
M16
G05
T0
M30
