%TF.GenerationSoftware,KiCad,Pcbnew,(6.0.4)*%
%TF.CreationDate,2024-05-03T15:54:38-07:00*%
%TF.ProjectId,left_staggered,6c656674-5f73-4746-9167-67657265642e,v1.0.0*%
%TF.SameCoordinates,Original*%
%TF.FileFunction,Legend,Top*%
%TF.FilePolarity,Positive*%
%FSLAX46Y46*%
G04 Gerber Fmt 4.6, Leading zero omitted, Abs format (unit mm)*
G04 Created by KiCad (PCBNEW (6.0.4)) date 2024-05-03 15:54:38*
%MOMM*%
%LPD*%
G01*
G04 APERTURE LIST*
%ADD10C,0.150000*%
%ADD11C,0.120000*%
%ADD12R,2.000000X2.000000*%
%ADD13C,2.000000*%
G04 APERTURE END LIST*
D10*
%TO.C,*%
D11*
X290690000Y-138740000D02*
X291090000Y-138740000D01*
X286510000Y-144260000D02*
X286060000Y-144260000D01*
X286740000Y-138740000D02*
X286740000Y-139160000D01*
X286060000Y-143810000D02*
X286060000Y-144260000D01*
X288720000Y-146260000D02*
X286740000Y-146260000D01*
X291090000Y-146260000D02*
X290690000Y-146260000D01*
X286740000Y-146260000D02*
X286740000Y-145840000D01*
X288720000Y-138740000D02*
X286740000Y-138740000D01*
%TD*%
D12*
%TO.C,*%
X272880000Y-108580000D03*
D13*
X272880000Y-111120000D03*
X272880000Y-113660000D03*
X272880000Y-116200000D03*
X272880000Y-118740000D03*
X272880000Y-121280000D03*
X272880000Y-123820000D03*
X272880000Y-126360000D03*
X272880000Y-128900000D03*
X272880000Y-131440000D03*
X272880000Y-133980000D03*
X272880000Y-136520000D03*
X288120000Y-136520000D03*
X288120000Y-133980000D03*
X288120000Y-131440000D03*
X288120000Y-128900000D03*
X288120000Y-126360000D03*
X288120000Y-123820000D03*
X288120000Y-121280000D03*
X288120000Y-118740000D03*
X288120000Y-116200000D03*
X288120000Y-113660000D03*
X288120000Y-111120000D03*
X288120000Y-108580000D03*
X275420000Y-136520000D03*
X277960000Y-136520000D03*
X280500000Y-136520000D03*
X283040000Y-136520000D03*
X285580000Y-136520000D03*
%TD*%
M02*
