%TF.GenerationSoftware,KiCad,Pcbnew,(6.0.4)*%
%TF.CreationDate,2024-05-03T15:52:29-07:00*%
%TF.ProjectId,left_ortholinear,6c656674-5f6f-4727-9468-6f6c696e6561,v1.0.0*%
%TF.SameCoordinates,Original*%
%TF.FileFunction,Copper,L1,Top*%
%TF.FilePolarity,Positive*%
%FSLAX46Y46*%
G04 Gerber Fmt 4.6, Leading zero omitted, Abs format (unit mm)*
G04 Created by KiCad (PCBNEW (6.0.4)) date 2024-05-03 15:52:29*
%MOMM*%
%LPD*%
G01*
G04 APERTURE LIST*
%TA.AperFunction,ComponentPad*%
%ADD10C,1.524000*%
%TD*%
%TA.AperFunction,ComponentPad*%
%ADD11C,1.905000*%
%TD*%
%TA.AperFunction,ComponentPad*%
%ADD12R,1.778000X1.778000*%
%TD*%
%TA.AperFunction,ComponentPad*%
%ADD13C,2.032000*%
%TD*%
%TA.AperFunction,ComponentPad*%
%ADD14R,2.000000X2.000000*%
%TD*%
%TA.AperFunction,ComponentPad*%
%ADD15C,2.000000*%
%TD*%
%TA.AperFunction,SMDPad,CuDef*%
%ADD16R,1.350000X0.400000*%
%TD*%
%TA.AperFunction,SMDPad,CuDef*%
%ADD17R,1.550000X1.500000*%
%TD*%
%TA.AperFunction,SMDPad,CuDef*%
%ADD18R,1.550000X1.200000*%
%TD*%
%TA.AperFunction,ComponentPad*%
%ADD19O,1.550000X0.890000*%
%TD*%
%TA.AperFunction,ComponentPad*%
%ADD20O,0.950000X1.250000*%
%TD*%
%TA.AperFunction,ViaPad*%
%ADD21C,0.800000*%
%TD*%
%TA.AperFunction,Conductor*%
%ADD22C,0.250000*%
%TD*%
G04 APERTURE END LIST*
D10*
%TO.P,,1*%
%TO.N,N/C*%
X247700000Y-113200000D03*
%TD*%
D11*
%TO.P,,1*%
%TO.N,C7*%
X225700000Y-163400000D03*
%TD*%
%TO.P,D4,1*%
%TO.N,outer_nums*%
X142500000Y-110100000D03*
D12*
%TO.P,D4,2*%
%TO.N,D7*%
X149500000Y-110100000D03*
%TD*%
D11*
%TO.P,,1*%
%TO.N,E6*%
X236500000Y-163400000D03*
%TD*%
%TO.P,D19,1*%
%TO.N,index_top*%
X216100000Y-127100000D03*
D12*
%TO.P,D19,2*%
%TO.N,C6*%
X223100000Y-127100000D03*
%TD*%
D13*
%TO.P,S2,1*%
%TO.N,inner_top*%
X243000000Y-119300000D03*
%TO.P,S2,2*%
%TO.N,E6*%
X238000000Y-117200000D03*
%TD*%
D11*
%TO.P,D11,1*%
%TO.N,ring_top*%
X179300000Y-127100000D03*
D12*
%TO.P,D11,2*%
%TO.N,C6*%
X186300000Y-127100000D03*
%TD*%
D11*
%TO.P,,1*%
%TO.N,B7*%
X228400000Y-163400000D03*
%TD*%
%TO.P,D25,1*%
%TO.N,VCC*%
X262000000Y-134100000D03*
D12*
%TO.P,D25,2*%
%TO.N,D0*%
X250000000Y-134100000D03*
%TD*%
D11*
%TO.P,,1*%
%TO.N,B4*%
X233900000Y-163400000D03*
%TD*%
%TO.P,D27,1*%
%TO.N,VCC*%
X262000000Y-142100000D03*
D12*
%TO.P,D27,2*%
%TO.N,D5*%
X250000000Y-142100000D03*
%TD*%
D11*
%TO.P,D9,1*%
%TO.N,ring_bottom*%
X179300000Y-161100000D03*
D12*
%TO.P,D9,2*%
%TO.N,D3*%
X186300000Y-161100000D03*
%TD*%
D11*
%TO.P,D23,1*%
%TO.N,inner_top*%
X234500000Y-127100000D03*
D12*
%TO.P,D23,2*%
%TO.N,C6*%
X241500000Y-127100000D03*
%TD*%
D10*
%TO.P,,1*%
%TO.N,N/C*%
X210300000Y-113800000D03*
%TD*%
%TO.P,,1*%
%TO.N,N/C*%
X247800000Y-164100000D03*
%TD*%
D11*
%TO.P,D13,1*%
%TO.N,middle_bottom*%
X197700000Y-161100000D03*
D12*
%TO.P,D13,2*%
%TO.N,D3*%
X204700000Y-161100000D03*
%TD*%
D10*
%TO.P,,1*%
%TO.N,N/C*%
X155200000Y-113500000D03*
%TD*%
D11*
%TO.P,D18,1*%
%TO.N,index_home*%
X216100000Y-144100000D03*
D12*
%TO.P,D18,2*%
%TO.N,D4*%
X223100000Y-144100000D03*
%TD*%
D11*
%TO.P,D7,1*%
%TO.N,pinky_top*%
X160900000Y-127100000D03*
D12*
%TO.P,D7,2*%
%TO.N,C6*%
X167900000Y-127100000D03*
%TD*%
D11*
%TO.P,D8,1*%
%TO.N,pinky_nums*%
X160900000Y-110100000D03*
D12*
%TO.P,D8,2*%
%TO.N,D7*%
X167900000Y-110100000D03*
%TD*%
D11*
%TO.P,REF\u002A\u002A,1*%
%TO.N,VCC*%
X250000000Y-150100000D03*
%TD*%
%TO.P,D2,1*%
%TO.N,outer_home*%
X142500000Y-144100000D03*
D12*
%TO.P,D2,2*%
%TO.N,D4*%
X149500000Y-144100000D03*
%TD*%
D11*
%TO.P,D26,1*%
%TO.N,VCC*%
X262000000Y-138100000D03*
D12*
%TO.P,D26,2*%
%TO.N,D2*%
X250000000Y-138100000D03*
%TD*%
D14*
%TO.P,,1*%
%TO.N,D3*%
X251380000Y-103130000D03*
D15*
%TO.P,,2*%
%TO.N,D2*%
X251380000Y-105670000D03*
%TO.P,,3*%
%TO.N,GND*%
X251380000Y-108210000D03*
%TO.P,,4*%
X251380000Y-110750000D03*
%TO.P,,5*%
%TO.N,D1*%
X251380000Y-113290000D03*
%TO.P,,6*%
%TO.N,D0*%
X251380000Y-115830000D03*
%TO.P,,7*%
%TO.N,D4*%
X251380000Y-118370000D03*
%TO.P,,8*%
%TO.N,C6*%
X251380000Y-120910000D03*
%TO.P,,9*%
%TO.N,D7*%
X251380000Y-123450000D03*
%TO.P,,10*%
%TO.N,E6*%
X251380000Y-125990000D03*
%TO.P,,11*%
%TO.N,B4*%
X251380000Y-128530000D03*
%TO.P,,12*%
%TO.N,B5*%
X251380000Y-131070000D03*
%TO.P,,13*%
%TO.N,B6*%
X266620000Y-131070000D03*
%TO.P,,14*%
%TO.N,B2*%
X266620000Y-128530000D03*
%TO.P,,15*%
%TO.N,B3*%
X266620000Y-125990000D03*
%TO.P,,16*%
%TO.N,B1*%
X266620000Y-123450000D03*
%TO.P,,17*%
%TO.N,F7*%
X266620000Y-120910000D03*
%TO.P,,18*%
%TO.N,F6*%
X266620000Y-118370000D03*
%TO.P,,19*%
%TO.N,F5*%
X266620000Y-115830000D03*
%TO.P,,20*%
%TO.N,F4*%
X266620000Y-113290000D03*
%TO.P,,21*%
%TO.N,VCC*%
X266620000Y-110750000D03*
%TO.P,,22*%
%TO.N,RST*%
X266620000Y-108210000D03*
%TO.P,,23*%
%TO.N,GND*%
X266620000Y-105670000D03*
%TO.P,,24*%
%TO.N,VCC*%
X266620000Y-103130000D03*
%TO.P,,25*%
%TO.N,B7*%
X253920000Y-131070000D03*
%TO.P,,26*%
%TO.N,D5*%
X256460000Y-131070000D03*
%TO.P,,27*%
%TO.N,C7*%
X259000000Y-131070000D03*
%TO.P,,28*%
%TO.N,F1*%
X261540000Y-131070000D03*
%TO.P,,29*%
%TO.N,F0*%
X264080000Y-131070000D03*
%TD*%
D10*
%TO.P,,1*%
%TO.N,N/C*%
X247200000Y-128100000D03*
%TD*%
D11*
%TO.P,D6,1*%
%TO.N,pinky_home*%
X160900000Y-144100000D03*
D12*
%TO.P,D6,2*%
%TO.N,D4*%
X167900000Y-144100000D03*
%TD*%
D11*
%TO.P,D5,1*%
%TO.N,pinky_bottom*%
X160900000Y-161100000D03*
D12*
%TO.P,D5,2*%
%TO.N,D3*%
X167900000Y-161100000D03*
%TD*%
D11*
%TO.P,D1,1*%
%TO.N,outer_bottom*%
X142500000Y-161100000D03*
D12*
%TO.P,D1,2*%
%TO.N,D3*%
X149500000Y-161100000D03*
%TD*%
D11*
%TO.P,D21,1*%
%TO.N,inner_bottom*%
X234600000Y-159300000D03*
D12*
%TO.P,D21,2*%
%TO.N,D3*%
X241600000Y-159300000D03*
%TD*%
D11*
%TO.P,,1*%
%TO.N,B5*%
X231100000Y-163400000D03*
%TD*%
D10*
%TO.P,,1*%
%TO.N,N/C*%
X155200000Y-164400000D03*
%TD*%
D11*
%TO.P,D10,1*%
%TO.N,ring_home*%
X179300000Y-144100000D03*
D12*
%TO.P,D10,2*%
%TO.N,D4*%
X186300000Y-144100000D03*
%TD*%
D11*
%TO.P,D24,1*%
%TO.N,inner_nums*%
X234500000Y-110100000D03*
D12*
%TO.P,D24,2*%
%TO.N,D7*%
X241500000Y-110100000D03*
%TD*%
D11*
%TO.P,REF\u002A\u002A,1*%
%TO.N,trackpoint_reset*%
X250000000Y-152600000D03*
%TD*%
%TO.P,,1*%
%TO.N,F0*%
X223100000Y-163400000D03*
%TD*%
%TO.P,D16,1*%
%TO.N,middle_nums*%
X197700000Y-110100000D03*
D12*
%TO.P,D16,2*%
%TO.N,D7*%
X204700000Y-110100000D03*
%TD*%
D13*
%TO.P,S1,1*%
%TO.N,index_top*%
X224600000Y-119300000D03*
%TO.P,S1,2*%
%TO.N,B4*%
X219600000Y-117200000D03*
%TD*%
D10*
%TO.P,,1*%
%TO.N,N/C*%
X210400000Y-128100000D03*
%TD*%
D11*
%TO.P,D12,1*%
%TO.N,ring_nums*%
X179300000Y-110100000D03*
D12*
%TO.P,D12,2*%
%TO.N,D7*%
X186300000Y-110100000D03*
%TD*%
D11*
%TO.P,D3,1*%
%TO.N,outer_top*%
X142500000Y-127100000D03*
D12*
%TO.P,D3,2*%
%TO.N,C6*%
X149500000Y-127100000D03*
%TD*%
D11*
%TO.P,D15,1*%
%TO.N,middle_top*%
X197700000Y-127100000D03*
D12*
%TO.P,D15,2*%
%TO.N,C6*%
X204700000Y-127100000D03*
%TD*%
D11*
%TO.P,D28,1*%
%TO.N,trackpoint_reset*%
X262000000Y-146100000D03*
D12*
%TO.P,D28,2*%
%TO.N,GND*%
X250000000Y-146100000D03*
%TD*%
D11*
%TO.P,D14,1*%
%TO.N,middle_home*%
X197700000Y-144100000D03*
D12*
%TO.P,D14,2*%
%TO.N,D4*%
X204700000Y-144100000D03*
%TD*%
D10*
%TO.P,,1*%
%TO.N,N/C*%
X228800000Y-115600000D03*
%TD*%
D11*
%TO.P,D22,1*%
%TO.N,inner_home*%
X234500000Y-144100000D03*
D12*
%TO.P,D22,2*%
%TO.N,D4*%
X241500000Y-144100000D03*
%TD*%
D16*
%TO.P,,1*%
%TO.N,VCC*%
X265300000Y-138550000D03*
%TO.P,,2*%
%TO.N,D1*%
X265300000Y-137900000D03*
%TO.P,,3*%
%TO.N,D0*%
X265300000Y-137250000D03*
%TO.P,,4*%
%TO.N,N/C*%
X265300000Y-136600000D03*
%TO.P,,5*%
%TO.N,GND*%
X265300000Y-135950000D03*
D17*
%TO.P,,6*%
%TO.N,N/C*%
X268000000Y-136250000D03*
X268000000Y-138250000D03*
D18*
X268000000Y-140150000D03*
X268000000Y-134350000D03*
D19*
X268000000Y-133750000D03*
X268000000Y-140750000D03*
D20*
X265300000Y-139750000D03*
X265300000Y-134750000D03*
%TD*%
D11*
%TO.P,D17,1*%
%TO.N,index_bottom*%
X216000000Y-159200000D03*
D12*
%TO.P,D17,2*%
%TO.N,D3*%
X223000000Y-159200000D03*
%TD*%
D11*
%TO.P,D20,1*%
%TO.N,index_nums*%
X216100000Y-110100000D03*
D12*
%TO.P,D20,2*%
%TO.N,D7*%
X223100000Y-110100000D03*
%TD*%
D10*
%TO.P,,1*%
%TO.N,N/C*%
X260000000Y-111100000D03*
%TD*%
D21*
%TO.N,F1*%
X247400000Y-131400000D03*
X240600000Y-130200000D03*
X139837500Y-131262500D03*
%TO.N,C7*%
X248600000Y-130700000D03*
%TO.N,GND*%
X263300000Y-135400000D03*
X256000000Y-107900000D03*
%TO.N,D1*%
X254800000Y-111100000D03*
%TO.N,D0*%
X259675500Y-136079123D03*
X261700000Y-136100000D03*
%TO.N,F0*%
X257900000Y-135400000D03*
%TD*%
D22*
%TO.N,F1*%
X248849520Y-132849520D02*
X259760480Y-132849520D01*
X247400000Y-131400000D02*
X248849520Y-132849520D01*
X140900000Y-130200000D02*
X240600000Y-130200000D01*
X139837500Y-131262500D02*
X140900000Y-130200000D01*
X259760480Y-132849520D02*
X261540000Y-131070000D01*
%TO.N,C7*%
X250300000Y-132400000D02*
X257670000Y-132400000D01*
X248600000Y-130700000D02*
X250300000Y-132400000D01*
X257670000Y-132400000D02*
X259000000Y-131070000D01*
%TO.N,D3*%
X185022989Y-159822989D02*
X186300000Y-161100000D01*
X243200000Y-141600000D02*
X241125479Y-139525479D01*
X244450480Y-131200000D02*
X244450480Y-127950480D01*
X243200000Y-144827022D02*
X243200000Y-141600000D01*
X223000000Y-159200000D02*
X223400000Y-158800000D01*
X241125479Y-158825479D02*
X241125479Y-146901543D01*
X244450480Y-127950480D02*
X245700000Y-126700960D01*
X169177011Y-159822989D02*
X185022989Y-159822989D01*
X245700000Y-111207870D02*
X245355959Y-110863828D01*
X204700000Y-161100000D02*
X221100000Y-161100000D01*
X187577011Y-159822989D02*
X203422989Y-159822989D01*
X240322989Y-160577011D02*
X241600000Y-159300000D01*
X203422989Y-159822989D02*
X204700000Y-161100000D01*
X245355959Y-110863828D02*
X245355959Y-109154041D01*
X221100000Y-161100000D02*
X223000000Y-159200000D01*
X245355959Y-109154041D02*
X251380000Y-103130000D01*
X241125479Y-146901543D02*
X243200000Y-144827022D01*
X186300000Y-161100000D02*
X187577011Y-159822989D01*
X166622989Y-159822989D02*
X167900000Y-161100000D01*
X167900000Y-161100000D02*
X169177011Y-159822989D01*
X232294033Y-158800000D02*
X234071044Y-160577011D01*
X223400000Y-158800000D02*
X232294033Y-158800000D01*
X241125479Y-134525001D02*
X244450480Y-131200000D01*
X245700000Y-126700960D02*
X245700000Y-111207870D01*
X241600000Y-159300000D02*
X241125479Y-158825479D01*
X241125479Y-139525479D02*
X241125479Y-134525001D01*
X149500000Y-161100000D02*
X150777011Y-159822989D01*
X234071044Y-160577011D02*
X240322989Y-160577011D01*
X150777011Y-159822989D02*
X166622989Y-159822989D01*
%TO.N,D4*%
X223100000Y-144100000D02*
X225000000Y-142200000D01*
X245250480Y-126514763D02*
X245250480Y-111394067D01*
X252800000Y-101900978D02*
X252800000Y-116950000D01*
X204700000Y-144100000D02*
X205977011Y-142822989D01*
X244906439Y-106954539D02*
X250055489Y-101805489D01*
X245250480Y-111394067D02*
X244906440Y-111050027D01*
X250055489Y-101805489D02*
X252704511Y-101805489D01*
X169600000Y-142400000D02*
X184600000Y-142400000D01*
X239600000Y-142200000D02*
X241500000Y-144100000D01*
X240939282Y-134075481D02*
X244000960Y-131013803D01*
X149500000Y-144100000D02*
X150777011Y-142822989D01*
X252800000Y-116950000D02*
X251380000Y-118370000D01*
X244906440Y-111050027D02*
X244906439Y-109600000D01*
X240675959Y-143275959D02*
X240675959Y-134338803D01*
X203422989Y-142822989D02*
X204700000Y-144100000D01*
X186300000Y-144100000D02*
X187577011Y-142822989D01*
X240675959Y-134338803D02*
X240939282Y-134075481D01*
X167900000Y-144100000D02*
X169600000Y-142400000D01*
X244906439Y-109600000D02*
X244906439Y-106954539D01*
X150777011Y-142822989D02*
X166622989Y-142822989D01*
X205977011Y-142822989D02*
X221822989Y-142822989D01*
X252704511Y-101805489D02*
X252800000Y-101900978D01*
X166622989Y-142822989D02*
X167900000Y-144100000D01*
X184600000Y-142400000D02*
X186300000Y-144100000D01*
X187577011Y-142822989D02*
X203422989Y-142822989D01*
X244000960Y-127764283D02*
X245250480Y-126514763D01*
X225000000Y-142200000D02*
X239600000Y-142200000D01*
X241500000Y-144100000D02*
X240675959Y-143275959D01*
X221822989Y-142822989D02*
X223100000Y-144100000D01*
X244000960Y-131013803D02*
X244000960Y-127764283D01*
%TO.N,C6*%
X149500000Y-127100000D02*
X150777011Y-125822989D01*
X240222989Y-125822989D02*
X241500000Y-127100000D01*
X241500000Y-127100000D02*
X242800000Y-125800000D01*
X221822989Y-125822989D02*
X223100000Y-127100000D01*
X224377011Y-125822989D02*
X240222989Y-125822989D01*
X241659489Y-118744741D02*
X242800000Y-117604230D01*
X167900000Y-127100000D02*
X169810979Y-125189021D01*
X205977011Y-125822989D02*
X221822989Y-125822989D01*
X249869292Y-101355969D02*
X252890709Y-101355969D01*
X166622989Y-125822989D02*
X167900000Y-127100000D01*
X246525261Y-104700000D02*
X249869292Y-101355969D01*
X241659489Y-124659489D02*
X241659489Y-118744741D01*
X253300000Y-101765260D02*
X253300000Y-118990000D01*
X169810979Y-125189021D02*
X184389021Y-125189021D01*
X242274579Y-107387763D02*
X242274579Y-105592413D01*
X242800000Y-107913184D02*
X242274579Y-107387763D01*
X252890709Y-101355969D02*
X253300000Y-101765260D01*
X243166992Y-104700000D02*
X246525261Y-104700000D01*
X223100000Y-127100000D02*
X224377011Y-125822989D01*
X186300000Y-127100000D02*
X187577011Y-125822989D01*
X242800000Y-117604230D02*
X242800000Y-107913184D01*
X203422989Y-125822989D02*
X204700000Y-127100000D01*
X242800000Y-125800000D02*
X241659489Y-124659489D01*
X187577011Y-125822989D02*
X203422989Y-125822989D01*
X253300000Y-118990000D02*
X251380000Y-120910000D01*
X204700000Y-127100000D02*
X205977011Y-125822989D01*
X242274579Y-105592413D02*
X243166992Y-104700000D01*
X150777011Y-125822989D02*
X166622989Y-125822989D01*
X184389021Y-125189021D02*
X186300000Y-127100000D01*
%TO.N,D7*%
X203422989Y-108822989D02*
X204700000Y-110100000D01*
X149500000Y-110100000D02*
X150777011Y-108822989D01*
X246365023Y-104224521D02*
X249683095Y-100906449D01*
X223100000Y-110100000D02*
X225010979Y-108189021D01*
X187577011Y-108822989D02*
X203422989Y-108822989D01*
X184500000Y-108300000D02*
X186300000Y-110100000D01*
X186300000Y-110100000D02*
X187577011Y-108822989D01*
X204700000Y-110100000D02*
X205977011Y-108822989D01*
X205977011Y-108822989D02*
X221822989Y-108822989D01*
X241500000Y-110100000D02*
X241500000Y-105100000D01*
X242375479Y-104224521D02*
X246365023Y-104224521D01*
X249683095Y-100906449D02*
X253076907Y-100906449D01*
X225010979Y-108189021D02*
X239589021Y-108189021D01*
X221822989Y-108822989D02*
X223100000Y-110100000D01*
X169700000Y-108300000D02*
X184500000Y-108300000D01*
X167900000Y-110100000D02*
X169700000Y-108300000D01*
X253749520Y-121080480D02*
X251380000Y-123450000D01*
X253076907Y-100906449D02*
X253749520Y-101579063D01*
X166622989Y-108822989D02*
X167900000Y-110100000D01*
X150777011Y-108822989D02*
X166622989Y-108822989D01*
X241500000Y-105100000D02*
X242375479Y-104224521D01*
X253749520Y-101579063D02*
X253749520Y-121080480D01*
X239589021Y-108189021D02*
X241500000Y-110100000D01*
%TO.N,GND*%
X264590000Y-107700000D02*
X266620000Y-105670000D01*
X251380000Y-108210000D02*
X251380000Y-110750000D01*
X263300000Y-135400000D02*
X263850000Y-135950000D01*
X263850000Y-135950000D02*
X265300000Y-135950000D01*
X256000000Y-107900000D02*
X256200000Y-107700000D01*
X256200000Y-107700000D02*
X264590000Y-107700000D01*
%TO.N,VCC*%
X262700000Y-132500000D02*
X262000000Y-133200000D01*
X260400000Y-136500000D02*
X262000000Y-138100000D01*
X262000000Y-142100000D02*
X254000000Y-150100000D01*
X262000000Y-134100000D02*
X260400000Y-135700000D01*
X267063143Y-132500000D02*
X262700000Y-132500000D01*
X262000000Y-138100000D02*
X262450000Y-138550000D01*
X262000000Y-138100000D02*
X262000000Y-142100000D01*
X262450000Y-138550000D02*
X265300000Y-138550000D01*
X266620000Y-110750000D02*
X267944511Y-112074511D01*
X254000000Y-150100000D02*
X250000000Y-150100000D01*
X267944511Y-131618632D02*
X267063143Y-132500000D01*
X267944511Y-112074511D02*
X267944511Y-131618632D01*
X260400000Y-135700000D02*
X260400000Y-136500000D01*
X262000000Y-133200000D02*
X262000000Y-134100000D01*
%TO.N,D2*%
X245805479Y-133905479D02*
X250000000Y-138100000D01*
X249657848Y-105670000D02*
X245805479Y-109522369D01*
X245805479Y-127522369D02*
X245805479Y-133905479D01*
X246149520Y-111021673D02*
X246149520Y-127178328D01*
X251380000Y-105670000D02*
X249657848Y-105670000D01*
X246149520Y-127178328D02*
X245805479Y-127522369D01*
X245805479Y-110677631D02*
X246149520Y-111021673D01*
X245805479Y-109522369D02*
X245805479Y-110677631D01*
%TO.N,D1*%
X267168632Y-101805489D02*
X260994511Y-101805489D01*
X254800000Y-108000000D02*
X254800000Y-111100000D01*
X260994511Y-101805489D02*
X254800000Y-108000000D01*
X266900489Y-133298372D02*
X268400000Y-131798861D01*
X268400000Y-131798861D02*
X268400000Y-104100000D01*
X268400000Y-103036857D02*
X267168632Y-101805489D01*
X265300000Y-137900000D02*
X266225000Y-137900000D01*
X266900489Y-137224511D02*
X266900489Y-133298372D01*
X266225000Y-137900000D02*
X266900489Y-137224511D01*
X268400000Y-104100000D02*
X268400000Y-103036857D01*
%TO.N,D0*%
X261700000Y-136100000D02*
X262975386Y-136100000D01*
X248594521Y-118615479D02*
X251380000Y-115830000D01*
X259675500Y-136079123D02*
X257696377Y-134100000D01*
X248594521Y-128705479D02*
X248594521Y-118615479D01*
X246300000Y-131700000D02*
X246300000Y-131000000D01*
X257696377Y-134100000D02*
X250000000Y-134100000D01*
X264125386Y-137250000D02*
X265300000Y-137250000D01*
X262975386Y-136100000D02*
X264125386Y-137250000D01*
X250000000Y-134100000D02*
X248700000Y-134100000D01*
X246300000Y-131000000D02*
X248594521Y-128705479D01*
X248700000Y-134100000D02*
X246300000Y-131700000D01*
%TO.N,F0*%
X250359467Y-139313511D02*
X253186489Y-139313511D01*
X223100000Y-163400000D02*
X226500000Y-160000000D01*
X257900000Y-135400000D02*
X258000000Y-135400000D01*
X242300491Y-161026531D02*
X248700000Y-154627022D01*
X253186489Y-139313511D02*
X257100000Y-135400000D01*
X257100000Y-135400000D02*
X257900000Y-135400000D01*
X226500000Y-160000000D02*
X232858315Y-160000000D01*
X232858315Y-160000000D02*
X233884846Y-161026531D01*
X233884846Y-161026531D02*
X242300491Y-161026531D01*
X248700000Y-140972978D02*
X250359467Y-139313511D01*
X248700000Y-154627022D02*
X248700000Y-140972978D01*
%TO.N,trackpoint_reset*%
X262000000Y-146100000D02*
X255500000Y-152600000D01*
X255500000Y-152600000D02*
X250000000Y-152600000D01*
%TD*%
M02*
