%TF.GenerationSoftware,KiCad,Pcbnew,(6.0.4)*%
%TF.CreationDate,2024-05-03T16:02:45-07:00*%
%TF.ProjectId,thumb,7468756d-622e-46b6-9963-61645f706362,v1.0.0*%
%TF.SameCoordinates,Original*%
%TF.FileFunction,Soldermask,Bot*%
%TF.FilePolarity,Negative*%
%FSLAX46Y46*%
G04 Gerber Fmt 4.6, Leading zero omitted, Abs format (unit mm)*
G04 Created by KiCad (PCBNEW (6.0.4)) date 2024-05-03 16:02:45*
%MOMM*%
%LPD*%
G01*
G04 APERTURE LIST*
G04 Aperture macros list*
%AMRoundRect*
0 Rectangle with rounded corners*
0 $1 Rounding radius*
0 $2 $3 $4 $5 $6 $7 $8 $9 X,Y pos of 4 corners*
0 Add a 4 corners polygon primitive as box body*
4,1,4,$2,$3,$4,$5,$6,$7,$8,$9,$2,$3,0*
0 Add four circle primitives for the rounded corners*
1,1,$1+$1,$2,$3*
1,1,$1+$1,$4,$5*
1,1,$1+$1,$6,$7*
1,1,$1+$1,$8,$9*
0 Add four rect primitives between the rounded corners*
20,1,$1+$1,$2,$3,$4,$5,0*
20,1,$1+$1,$4,$5,$6,$7,0*
20,1,$1+$1,$6,$7,$8,$9,0*
20,1,$1+$1,$8,$9,$2,$3,0*%
G04 Aperture macros list end*
%ADD10C,2.005000*%
%ADD11RoundRect,0.050000X-0.590236X1.110073X-1.110073X-0.590236X0.590236X-1.110073X1.110073X0.590236X0*%
%ADD12C,2.132000*%
%ADD13C,3.100000*%
%ADD14C,1.801800*%
%ADD15C,3.529000*%
%ADD16RoundRect,0.050000X-1.758145X-0.537519X0.537519X-1.758145X1.758145X0.537519X-0.537519X1.758145X0*%
%ADD17C,1.624000*%
%ADD18RoundRect,0.050000X-1.300000X-1.300000X1.300000X-1.300000X1.300000X1.300000X-1.300000X1.300000X0*%
G04 APERTURE END LIST*
D10*
%TO.C,D6*%
X101676699Y-65947067D03*
D11*
X103723301Y-59252933D03*
%TD*%
D12*
%TO.C,*%
X105700000Y-46300000D03*
%TD*%
D10*
%TO.C,D5*%
X104376699Y-66747067D03*
D11*
X106423301Y-60052933D03*
%TD*%
D12*
%TO.C,*%
X102800000Y-45500000D03*
%TD*%
%TO.C,*%
X97100000Y-43800000D03*
%TD*%
%TO.C,M2*%
X100874261Y-50195195D03*
X105725739Y-51404805D03*
%TD*%
%TO.C,*%
X108500000Y-47100000D03*
%TD*%
D13*
%TO.C,S2*%
X119375256Y-65236304D03*
D14*
X118056212Y-68782094D03*
D15*
X113200000Y-66200000D03*
D14*
X108343788Y-63617906D03*
D13*
X115993356Y-60946462D03*
D16*
X113101702Y-59408942D03*
X122266910Y-66773824D03*
%TD*%
D17*
%TO.C,*%
X94200000Y-46600000D03*
%TD*%
D12*
%TO.C,*%
X111400000Y-48000000D03*
%TD*%
D17*
%TO.C,*%
X125100000Y-57900000D03*
%TD*%
D12*
%TO.C,M3*%
X117095761Y-53548002D03*
X121510499Y-55895360D03*
%TD*%
D10*
%TO.C,D7*%
X106876699Y-67447067D03*
D11*
X108923301Y-60752933D03*
%TD*%
D10*
%TO.C,D4*%
X98976699Y-65047067D03*
D11*
X101023301Y-58352933D03*
%TD*%
D14*
%TO.C,S1*%
X81570950Y-59629451D03*
D13*
X92070950Y-55879451D03*
D14*
X92570950Y-59629451D03*
D15*
X87070950Y-59629451D03*
D13*
X87070950Y-53679451D03*
D18*
X83795950Y-53679451D03*
X95345950Y-55879451D03*
%TD*%
D10*
%TO.C,D3*%
X96276699Y-64147067D03*
D11*
X98323301Y-57452933D03*
%TD*%
D12*
%TO.C,M1*%
X84570950Y-46629451D03*
X89570950Y-46629451D03*
%TD*%
D17*
%TO.C,*%
X113200000Y-51600000D03*
%TD*%
%TO.C,*%
X80000000Y-46700000D03*
%TD*%
D12*
%TO.C,*%
X99900000Y-44600000D03*
%TD*%
M02*
