%TF.GenerationSoftware,KiCad,Pcbnew,(6.0.4)*%
%TF.CreationDate,2024-05-03T16:02:45-07:00*%
%TF.ProjectId,thumb,7468756d-622e-46b6-9963-61645f706362,v1.0.0*%
%TF.SameCoordinates,Original*%
%TF.FileFunction,Copper,L2,Bot*%
%TF.FilePolarity,Positive*%
%FSLAX46Y46*%
G04 Gerber Fmt 4.6, Leading zero omitted, Abs format (unit mm)*
G04 Created by KiCad (PCBNEW (6.0.4)) date 2024-05-03 16:02:45*
%MOMM*%
%LPD*%
G01*
G04 APERTURE LIST*
G04 Aperture macros list*
%AMRotRect*
0 Rectangle, with rotation*
0 The origin of the aperture is its center*
0 $1 length*
0 $2 width*
0 $3 Rotation angle, in degrees counterclockwise*
0 Add horizontal line*
21,1,$1,$2,0,0,$3*%
G04 Aperture macros list end*
%TA.AperFunction,ComponentPad*%
%ADD10C,1.905000*%
%TD*%
%TA.AperFunction,ComponentPad*%
%ADD11RotRect,1.778000X1.778000X253.000000*%
%TD*%
%TA.AperFunction,ComponentPad*%
%ADD12C,2.032000*%
%TD*%
%TA.AperFunction,SMDPad,CuDef*%
%ADD13RotRect,2.600000X2.600000X332.000000*%
%TD*%
%TA.AperFunction,ComponentPad*%
%ADD14C,1.524000*%
%TD*%
%TA.AperFunction,SMDPad,CuDef*%
%ADD15R,2.600000X2.600000*%
%TD*%
%TA.AperFunction,ViaPad*%
%ADD16C,0.800000*%
%TD*%
%TA.AperFunction,Conductor*%
%ADD17C,0.250000*%
%TD*%
G04 APERTURE END LIST*
D10*
%TO.P,D6,1*%
%TO.N,mm_diode*%
X101676699Y-65947067D03*
D11*
%TO.P,D6,2*%
%TO.N,F0*%
X103723301Y-59252933D03*
%TD*%
D12*
%TO.P,,1*%
%TO.N,C7*%
X105700000Y-46300000D03*
%TD*%
D10*
%TO.P,D5,1*%
%TO.N,mr_diode*%
X104376699Y-66747067D03*
D11*
%TO.P,D5,2*%
%TO.N,F0*%
X106423301Y-60052933D03*
%TD*%
D12*
%TO.P,,1*%
%TO.N,B4*%
X102800000Y-45500000D03*
%TD*%
%TO.P,,1*%
%TO.N,F0*%
X97100000Y-43800000D03*
%TD*%
%TO.P,M2,1*%
%TO.N,B5*%
X100874261Y-50195195D03*
%TO.P,M2,2*%
%TO.N,mm_diode*%
X105725739Y-51404805D03*
%TD*%
%TO.P,,1*%
%TO.N,B5*%
X108500000Y-47100000D03*
%TD*%
D13*
%TO.P,S2,1*%
%TO.N,B4*%
X113101702Y-59408942D03*
%TO.P,S2,2*%
%TO.N,far_thumb*%
X122266910Y-66773824D03*
%TD*%
D14*
%TO.P,,1*%
%TO.N,N/C*%
X94200000Y-46600000D03*
%TD*%
D12*
%TO.P,,1*%
%TO.N,E6*%
X111400000Y-48000000D03*
%TD*%
D14*
%TO.P,,1*%
%TO.N,N/C*%
X125100000Y-57900000D03*
%TD*%
D12*
%TO.P,M3,1*%
%TO.N,mr_diode*%
X117095761Y-53548002D03*
%TO.P,M3,2*%
%TO.N,E6*%
X121510499Y-55895360D03*
%TD*%
D10*
%TO.P,D7,1*%
%TO.N,far_thumb*%
X106876699Y-67447067D03*
D11*
%TO.P,D7,2*%
%TO.N,F0*%
X108923301Y-60752933D03*
%TD*%
D10*
%TO.P,D4,1*%
%TO.N,inner_thumb*%
X98976699Y-65047067D03*
D11*
%TO.P,D4,2*%
%TO.N,F0*%
X101023301Y-58352933D03*
%TD*%
D15*
%TO.P,S1,1*%
%TO.N,B7*%
X83795950Y-53679451D03*
%TO.P,S1,2*%
%TO.N,inner_thumb*%
X95345950Y-55879451D03*
%TD*%
D10*
%TO.P,D3,1*%
%TO.N,ml_diode*%
X96276699Y-64147067D03*
D11*
%TO.P,D3,2*%
%TO.N,F0*%
X98323301Y-57452933D03*
%TD*%
D12*
%TO.P,M1,1*%
%TO.N,C7*%
X84570950Y-46629451D03*
%TO.P,M1,2*%
%TO.N,ml_diode*%
X89570950Y-46629451D03*
%TD*%
D14*
%TO.P,,1*%
%TO.N,N/C*%
X113200000Y-51600000D03*
%TD*%
%TO.P,,1*%
%TO.N,N/C*%
X80000000Y-46700000D03*
%TD*%
D12*
%TO.P,,1*%
%TO.N,B7*%
X99900000Y-44600000D03*
%TD*%
D16*
%TO.N,B7*%
X94100000Y-49700000D03*
%TD*%
D17*
%TO.N,inner_thumb*%
X95345950Y-55879451D02*
X95345950Y-61410351D01*
X98976699Y-65041100D02*
X98976699Y-65047067D01*
X95345950Y-61410351D02*
X98976699Y-65041100D01*
%TO.N,B7*%
X87775401Y-49700000D02*
X94100000Y-49700000D01*
X83795950Y-53679451D02*
X87775401Y-49700000D01*
%TO.N,far_thumb*%
X122266910Y-66773824D02*
X119033219Y-70007515D01*
X119033219Y-70007515D02*
X109437147Y-70007515D01*
X109437147Y-70007515D02*
X106876699Y-67447067D01*
%TO.N,B4*%
X113101702Y-55801702D02*
X102800000Y-45500000D01*
X113101702Y-59408942D02*
X113101702Y-55801702D01*
%TO.N,F0*%
X97100000Y-56229632D02*
X98323301Y-57452933D01*
X97100000Y-43800000D02*
X97100000Y-56229632D01*
%TD*%
M02*
