M48
; DRILL file {KiCad (6.0.4)} date Fri May  3 16:02:43 2024
; FORMAT={-:-/ absolute / inch / decimal}
; #@! TF.CreationDate,2024-05-03T16:02:43-07:00
; #@! TF.GenerationSoftware,Kicad,Pcbnew,(6.0.4)
; #@! TF.FileFunction,Plated,1,2,PTH
FMAT,2
INCH
; #@! TA.AperFunction,Plated,PTH,ViaDrill
T1C0.0157
; #@! TA.AperFunction,Plated,PTH,ComponentDrill
T2C0.0390
; #@! TA.AperFunction,Plated,PTH,ComponentDrill
T3C0.0433
; #@! TA.AperFunction,Plated,PTH,ComponentDrill
T4C0.0787
%
G90
G05
T1
X3.7047Y-1.9567
T2
X3.7904Y-2.5255
X3.871Y-2.2619
X3.8967Y-2.5609
X3.9773Y-2.2974
X4.003Y-2.5963
X4.0836Y-2.3328
X4.1093Y-2.6278
X4.1899Y-2.3643
X4.2077Y-2.6554
X4.2883Y-2.3918
T3
X3.3296Y-1.8358
X3.5264Y-1.8358
X3.8228Y-1.7244
X3.9331Y-1.7559
X3.9714Y-1.9762
X4.0472Y-1.7913
X4.1614Y-1.8228
X4.1624Y-2.0238
X4.2717Y-1.8543
X4.3858Y-1.8898
X4.6101Y-2.1082
X4.7839Y-2.2006
T4
X3.1496Y-1.8386
X3.7087Y-1.8346
X4.4567Y-2.0315
X4.9252Y-2.2795
T0
M30
